<svg xmlns="http://www.w3.org/2000/svg" width="180" height="139.866" viewBox="0 0 180 139.866"><defs><style>.a{fill:#77981c;}.b{fill:#cd5014;}.c{fill:#9a4319;}.d{fill:#e8f1cd;}.e{fill:#690589;}.f{fill:#84a528;}.g{fill:#f15b12;}</style></defs><g transform="translate(-2 -30.094)"><path class="a" d="M4,32.094H181.143V169.1H4Z" transform="translate(-0.571 -0.571)"/><path class="b" d="M4,32.094H29V169.1H4Z" transform="translate(-0.571 -0.571)"/><path class="b" d="M217,32.094h25V169.1H217Z" transform="translate(-61.429 -0.571)"/><path class="c" d="M207,32.094h7.143V169.1H207Z" transform="translate(-58.571 -0.571)"/><path class="c" d="M39,32.094h7.143V169.1H39Z" transform="translate(-10.571 -0.571)"/><g transform="translate(10.214 42.884)"><path class="d" d="M13.5,48H24.929V59.429H13.5Z" transform="translate(-13.5 -48)"/><path class="d" d="M13.5,96H24.929v11.429H13.5Z" transform="translate(-13.5 -61.714)"/><path class="d" d="M13.5,144H24.929v11.429H13.5Z" transform="translate(-13.5 -75.429)"/><path class="d" d="M13.5,192H24.929v11.429H13.5Z" transform="translate(-13.5 -89.143)"/><path class="d" d="M226.5,48h11.429V59.429H226.5Z" transform="translate(-74.357 -48)"/><path class="d" d="M226.5,96h11.429v11.429H226.5Z" transform="translate(-74.357 -61.714)"/><path class="d" d="M226.5,144h11.429v11.429H226.5Z" transform="translate(-74.357 -75.429)"/><path class="d" d="M226.5,192h11.429v11.429H226.5Z" transform="translate(-74.357 -89.143)"/></g><path class="e" d="M180.571,169.96H3.429A1.429,1.429,0,0,1,2,168.531V31.523a1.429,1.429,0,0,1,1.429-1.429H180.571A1.429,1.429,0,0,1,182,31.523V168.531A1.429,1.429,0,0,1,180.571,169.96ZM4.857,167.1H179.143V32.951H4.857Z"/><path class="d" d="M48.429,52.012A1.429,1.429,0,0,1,47,50.583V42.012a1.429,1.429,0,1,1,2.857,0v8.571A1.429,1.429,0,0,1,48.429,52.012Z" transform="translate(-12.857 -2.997)"/><path class="f" d="M128,171.522h43.312v12.225H128Z" transform="translate(-36 -40.408)"/><path class="e" d="M170.741,184.6H127.429A1.429,1.429,0,0,1,126,183.176V170.951a1.429,1.429,0,0,1,1.429-1.429h43.312a1.429,1.429,0,0,1,1.429,1.429v12.225a1.429,1.429,0,0,1-1.429,1.424Zm-41.884-2.857h40.455v-9.368H128.857Z" transform="translate(-35.429 -39.837)"/><circle class="g" cx="43.312" cy="43.312" r="43.312" transform="translate(48.688 56.715)"/><circle class="b" cx="10.479" cy="10.479" r="10.479" transform="translate(79.301 133.363) rotate(-76.7)"/><circle class="b" cx="10.479" cy="10.479" r="10.479" transform="matrix(0.16, -0.987, 0.987, 0.16, 79.958, 83.19)"/><circle class="b" cx="10.479" cy="10.479" r="10.479" transform="matrix(0.994, -0.113, 0.113, 0.994, 102.35, 103.468)"/><circle class="b" cx="10.479" cy="10.479" r="10.479" transform="matrix(0.968, -0.251, 0.251, 0.968, 57.259, 79.853)"/><circle class="b" cx="10.479" cy="10.479" r="10.479" transform="matrix(0.251, -0.968, 0.968, 0.251, 57.251, 120.215)"/><circle class="b" cx="10.479" cy="10.479" r="10.479" transform="translate(101.849 78.869) rotate(-9.726)"/><circle class="a" cx="4.89" cy="4.89" r="4.89" transform="translate(87.11 95.137)"/><path class="e" d="M110.1,154.844A44.741,44.741,0,1,1,154.844,110.1,44.74,44.74,0,0,1,110.1,154.844Zm0-86.624A41.884,41.884,0,1,0,151.987,110.1,41.883,41.883,0,0,0,110.1,68.22Z" transform="translate(-18.104 -10.077)"/><path class="e" d="M125.473,131.791a6.319,6.319,0,1,1,6.319-6.319,6.319,6.319,0,0,1-6.319,6.319Zm0-9.78a3.461,3.461,0,1,0,3.461,3.461,3.461,3.461,0,0,0-3.461-3.461Z" transform="translate(-33.473 -25.446)"/><path class="e" d="M123.115,170.842a11.907,11.907,0,1,1,11.907-11.907,11.907,11.907,0,0,1-11.907,11.907Zm0-20.958a9.05,9.05,0,1,0,9.05,9.05A9.05,9.05,0,0,0,123.115,149.884Z" transform="translate(-31.202 -33.41)"/><path class="e" d="M123.237,99.447A11.907,11.907,0,1,1,135.144,87.54a11.907,11.907,0,0,1-11.907,11.907Zm0-20.958a9.05,9.05,0,1,0,9.05,9.05,9.05,9.05,0,0,0-9.05-9.05Z" transform="translate(-31.237 -13.011)"/><path class="e" d="M153.885,152.823a11.944,11.944,0,1,1,3-.385A11.944,11.944,0,0,1,153.885,152.823Zm.035-20.966a9.062,9.062,0,1,0,4.577,1.256A9.062,9.062,0,0,0,153.92,131.857Z" transform="translate(-39.998 -28.258)"/><path class="e" d="M92.423,117.472a11.944,11.944,0,1,1,3-.385,11.944,11.944,0,0,1-3,.385Zm.035-20.966a9.062,9.062,0,1,0,4.577,1.256A9.062,9.062,0,0,0,92.458,96.506Z" transform="translate(-22.437 -18.158)"/><path class="e" d="M92.463,152.823a12,12,0,0,1-3-.385,11.839,11.839,0,1,1,3,.385Zm-4.612-19.711a9.05,9.05,0,1,0,6.86-.963,9.05,9.05,0,0,0-6.86.963Z" transform="translate(-22.437 -28.258)"/><path class="e" d="M153.925,117.472a12,12,0,0,1-3-.385,11.839,11.839,0,1,1,3,.385Zm-4.612-19.711a9.05,9.05,0,1,0,6.86-.963,9.05,9.05,0,0,0-6.86.963Z" transform="translate(-39.998 -18.158)"/></g></svg>