<svg xmlns="http://www.w3.org/2000/svg" width="180.352" height="180" viewBox="0 0 180.352 180">
  <g id="African_quotes" data-name="African quotes" transform="translate(0 -0.499)">
    <path id="Path_4625" data-name="Path 4625" d="M30.229,10.5H94.037a20.229,20.229,0,0,1,20.229,20.229v60.55a20.229,20.229,0,0,1-20.229,20.229H60.713v21.586L39.127,111.506h-8.9A20.229,20.229,0,0,1,10,91.278V30.728A20.229,20.229,0,0,1,30.229,10.5Z" transform="translate(-6.478 -6.478)" fill="#f15b12"/>
    <path id="SVGCleanerId_0" d="M318.681,200.5H263.5a17.5,17.5,0,0,0-17.5,17.5v52.368a17.5,17.5,0,0,0,17.5,17.5h9.393v18.669l18.669-18.669h27.123a17.5,17.5,0,0,0,17.5-17.5V217.994A17.5,17.5,0,0,0,318.681,200.5Z" transform="translate(-159.347 -129.55)" fill="#4dbaf6"/>
    <g id="Group_252" data-name="Group 252" transform="translate(104.987 94.02)">
      <path id="Path_4626" data-name="Path 4626" d="M392.728,307.681v-9.487q9.132-.831,9.131-13.223h-9.133a1.824,1.824,0,0,1-1.824-1.824V267.821A1.824,1.824,0,0,1,392.726,266h17.152a1.824,1.824,0,0,1,1.824,1.824v16.5Q411.7,306.613,392.728,307.681Z" transform="translate(-358.194 -265.997)" fill="#4dbaf6"/>
      <path id="Path_4627" data-name="Path 4627" d="M299.874,307.681v-9.487q9.132-.831,9.131-13.223h-9.133a1.824,1.824,0,0,1-1.824-1.824V267.821A1.824,1.824,0,0,1,299.872,266h17.152a1.824,1.824,0,0,1,1.824,1.824v16.5Q318.848,306.613,299.874,307.681Z" transform="translate(-298.048 -265.997)" fill="#4dbaf6"/>
    </g>
    <g id="Group_253" data-name="Group 253" transform="translate(86.653 70.949)">
      <path id="SVGCleanerId_0_1_" d="M318.681,200.5H263.5a17.5,17.5,0,0,0-17.5,17.5v52.368a17.5,17.5,0,0,0,17.5,17.5h9.393v18.669l18.669-18.669h27.123a17.5,17.5,0,0,0,17.5-17.5V217.994A17.5,17.5,0,0,0,318.681,200.5Z" transform="translate(-246 -200.499)" fill="#84a528"/>
    </g>
    <g id="Group_254" data-name="Group 254" transform="translate(26.091 31.369)">
      <path id="Path_4628" data-name="Path 4628" d="M95.153,88.135V98.676q-10.147.923-10.146,14.692H95.156a2.027,2.027,0,0,1,2.027,2.027v17.028a2.027,2.027,0,0,1-2.027,2.027H76.1a2.027,2.027,0,0,1-2.027-2.027V114.093Q74.071,89.322,95.153,88.135Z" transform="translate(-74.071 -88.135)" fill="#fff"/>
      <path id="Path_4629" data-name="Path 4629" d="M197.387,88.135V98.676q-10.147.923-10.146,14.692H197.39a2.027,2.027,0,0,1,2.027,2.027v17.028a2.027,2.027,0,0,1-2.027,2.027H178.332a2.027,2.027,0,0,1-2.027-2.027V114.093Q176.305,89.322,197.387,88.135Z" transform="translate(-140.293 -88.135)" fill="#fff"/>
      <path id="Path_4630" data-name="Path 4630" d="M392.728,307.681v-9.487q9.132-.831,9.131-13.223h-9.133a1.824,1.824,0,0,1-1.824-1.824V267.821A1.824,1.824,0,0,1,392.726,266h17.152a1.824,1.824,0,0,1,1.824,1.824v16.5Q411.7,306.613,392.728,307.681Z" transform="translate(-279.299 -203.345)" fill="#fff"/>
      <path id="Path_4631" data-name="Path 4631" d="M299.874,307.681v-9.487q9.132-.831,9.131-13.223h-9.133a1.824,1.824,0,0,1-1.824-1.824V267.821A1.824,1.824,0,0,1,299.872,266h17.152a1.824,1.824,0,0,1,1.824,1.824v16.5Q318.848,306.613,299.874,307.681Z" transform="translate(-219.152 -203.345)" fill="#fff"/>
    </g>
    <path id="Path_4632" data-name="Path 4632" d="M88.994,95.708A3.523,3.523,0,0,0,92.2,92.2V81.658a3.522,3.522,0,0,0-3.72-3.517c-11.134.626-24.407,6.248-24.407,29.475v18.331a5.556,5.556,0,0,0,5.55,5.549H88.677a5.556,5.556,0,0,0,5.549-5.549V108.919a5.556,5.556,0,0,0-5.549-5.549h-6.41C83.232,96.231,87.178,95.873,88.994,95.708ZM78.529,110.414h8.652v14.037H71.115V107.616c0-16.207,7.207-20.733,14.038-22.011v3.7c-4.717,1.436-10.146,5.676-10.146,17.583A3.523,3.523,0,0,0,78.529,110.414Z" transform="translate(-41.501 -50.29)"/>
    <path id="Path_4633" data-name="Path 4633" d="M385.932,288.208a3.523,3.523,0,0,0-3.2,3.508V301.2a3.523,3.523,0,0,0,3.522,3.522c.066,0,.132,0,.2-.006,10.173-.572,22.3-5.7,22.3-26.879v-16.5A5.353,5.353,0,0,0,403.4,256H386.25a5.353,5.353,0,0,0-5.347,5.347v15.326a5.353,5.353,0,0,0,5.347,5.347h5.367C390.72,287.772,387.571,288.059,385.932,288.208Zm3.842,6.371c4.3-1.392,9.131-5.347,9.131-16.085a3.523,3.523,0,0,0-3.523-3.523h-7.435V263.042H401.7v14.8c0,13.985-6.045,18.135-11.929,19.378v-2.64Z" transform="translate(-246.73 -165.499)"/>
    <path id="Path_4634" data-name="Path 4634" d="M288.048,261.344v15.326a5.353,5.353,0,0,0,5.347,5.347h5.368c-.9,5.756-4.045,6.043-5.685,6.192a3.523,3.523,0,0,0-3.2,3.508V301.2a3.522,3.522,0,0,0,3.522,3.522c.066,0,.132,0,.2-.006,10.173-.572,22.3-5.7,22.3-26.879v-16.5A5.353,5.353,0,0,0,310.547,256H293.395A5.353,5.353,0,0,0,288.048,261.344Zm7.045,1.7h13.755v14.8c0,13.985-6.045,18.135-11.929,19.378v-2.64c4.3-1.392,9.131-5.347,9.131-16.085a3.523,3.523,0,0,0-3.522-3.522h-7.435V263.042Z" transform="translate(-186.583 -165.499)"/>
    <path id="Path_4635" data-name="Path 4635" d="M267.058,117.716H255.819a3.522,3.522,0,0,0,0,7.045h11.239a13.988,13.988,0,0,1,13.973,13.973V191.1a13.989,13.989,0,0,1-13.973,13.973H239.935a3.523,3.523,0,0,0-2.491,1.032l-12.656,12.656V208.6a3.523,3.523,0,0,0-3.522-3.522h-9.393A13.988,13.988,0,0,1,197.9,191.1V138.733a13.989,13.989,0,0,1,13.973-13.973h13.151a3.522,3.522,0,1,0,0-7.045H211.873a20.962,20.962,0,0,0-15.411,6.746V108.918a5.556,5.556,0,0,0-5.549-5.549H184.5c.964-7.138,4.911-7.5,6.727-7.661a3.523,3.523,0,0,0,3.2-3.508V81.658a3.522,3.522,0,0,0-3.72-3.517c-11.135.626-24.407,6.249-24.407,29.475v18.331a5.556,5.556,0,0,0,5.55,5.549h19.058a5.522,5.522,0,0,0,1.29-.157,20.9,20.9,0,0,0-1.347,7.394V191.1a21.042,21.042,0,0,0,21.018,21.018h5.871v15.147a3.522,3.522,0,0,0,6.013,2.491l17.637-17.637h25.664A21.041,21.041,0,0,0,288.076,191.1V138.733A21.041,21.041,0,0,0,267.058,117.716Zm-77.642,6.735H173.35V107.616c0-16.207,7.207-20.733,14.038-22.011v3.7c-4.717,1.435-10.146,5.675-10.146,17.582a3.523,3.523,0,0,0,3.522,3.522h8.652Z" transform="translate(-107.724 -50.289)"/>
    <path id="Path_4636" data-name="Path 4636" d="M372.522,197.544a3.524,3.524,0,1,0-2.49-1.032A3.548,3.548,0,0,0,372.522,197.544Z" transform="translate(-239.02 -123.073)"/>
    <path id="Path_4637" data-name="Path 4637" d="M299.522,155.169a3.524,3.524,0,1,0,2.49,1.032A3.534,3.534,0,0,0,299.522,155.169Z" transform="translate(-191.734 -100.188)"/>
    <path id="Path_4638" data-name="Path 4638" d="M70.1,101.506H54.235a3.523,3.523,0,0,0-3.522,3.522v13.082L35.14,102.538a3.523,3.523,0,0,0-2.491-1.032h-8.9A16.725,16.725,0,0,1,7.045,84.8V24.25A16.725,16.725,0,0,1,23.751,7.544H87.56A16.725,16.725,0,0,1,104.266,24.25V45.117a3.522,3.522,0,1,0,7.045,0V24.25A23.778,23.778,0,0,0,87.56.5H23.751A23.778,23.778,0,0,0,0,24.25V84.8a23.778,23.778,0,0,0,23.751,23.751H31.19l20.555,20.554a3.522,3.522,0,0,0,6.013-2.491V108.551H70.1a3.522,3.522,0,1,0,0-7.045Z"/>
  </g>
</svg>
