<svg xmlns="http://www.w3.org/2000/svg" width="47.222" height="50" viewBox="0 0 47.222 50">
  <defs>
    <style>
      .cls-1 {
        fill: #ffd919;
      }

      .cls-1, .cls-10, .cls-11, .cls-12, .cls-2, .cls-3, .cls-4, .cls-5, .cls-6, .cls-7, .cls-8, .cls-9 {
        fill-rule: evenodd;
      }

      .cls-2 {
        fill: #560116;
      }

      .cls-3 {
        fill: #f26810;
      }

      .cls-4 {
        fill: #fcbe12;
      }

      .cls-5 {
        fill: #36000e;
      }

      .cls-6 {
        fill: #d45a0f;
      }

      .cls-7 {
        fill: #340f06;
      }

      .cls-8 {
        fill: #f0ab5d;
      }

      .cls-9 {
        fill: #d70810;
      }

      .cls-10 {
        fill: #1c0803;
      }

      .cls-11 {
        fill: #ea993e;
      }

      .cls-12 {
        fill: #c2080e;
      }
    </style>
  </defs>
  <g id="africanCultureSmallIcon" transform="translate(-814 -780)">
    <g id="Layer_2" data-name="Layer 2" transform="translate(828.581 780)">
      <g id="Layer_1" data-name="Layer 1" transform="translate(0 0)">
        <path id="Path_4571" data-name="Path 4571" class="cls-1" d="M11.248,7.963C6.959,11.444,1.709,18.38.48,24.94L6,30.766l19.01,7.056,1.443-.429c3.887-4.794,6.052-13.9,5.958-19.255V16.251l-15-10.511Z" transform="translate(0.158 1.946)"/>
        <path id="Path_4572" data-name="Path 4572" class="cls-2" d="M8.651,18l9.271-6.214,1.536-1.031.227,1.834,1.336,11.089.08.71-.574.388L11.27,30.989,9.72,32.022l-.227-1.834L8.155,19.113l-.08-.7.574-.388Zm9-3.281-7.149,4.794,1.056,8.543,7.094-4.794Z" transform="translate(2.714 3.65)"/>
        <path id="Path_4573" data-name="Path 4573" class="cls-2" d="M11.317,7.24l.2,1.62,1.336,11.087.08.7-.574.388L3.114,27.258,1.578,28.342l-.227-1.848L.87,22.545a29.648,29.648,0,0,1,1.75-4.432l.761,6.214,7.147-4.795-1.055-8.6L5.05,13.921c.615-.884,1.336-1.767,2.017-2.679a31.8,31.8,0,0,1,4.25-4Z" transform="translate(0.289 2.454)"/>
        <path id="Path_4574" data-name="Path 4574" class="cls-2" d="M16.641,21.563,25.9,15.336l1.336-.857a33.134,33.134,0,0,1-.28,5.65c-.16,1.111-.374,2.209-.628,3.281l-.641-5.143-7.134,4.795,1.042,8.556L24.8,28.11a29.751,29.751,0,0,1-2.138,4.137l-3.433,2.29L17.7,35.582l-.227-1.848L16.133,22.647l-.093-.7Z" transform="translate(5.385 4.909)"/>
        <path id="Path_4575" data-name="Path 4575" class="cls-3" d="M28.761,0a44.275,44.275,0,0,1,3.821,20.085C29.63,19.63,13.665,12.263,11.341,9.909A44.18,44.18,0,0,1,28.708,0ZM26.718,39.178C19.837,37.1,7.387,31.56.613,26.78c-1.723,6.2.214,20.259,5.624,22.763S23.525,43.651,26.718,39.178Z" transform="translate(-0.003 0)"/>
        <path id="Path_4576" data-name="Path 4576" class="cls-1" d="M17.5,1.66a22.134,22.134,0,0,0,1.523,5.811c.735,1.179,2.338.67,6.56-1.888.134.5.267.991.387,1.5-4.9,2.906-6.907,3.267-8.216,1.179A20.912,20.912,0,0,1,16.1,2.33C16.554,2.115,17.022,1.874,17.5,1.66Z" transform="translate(5.405 0.563)"/>
        <path id="Path_4577" data-name="Path 4577" class="cls-1" d="M.5,29.72c1.71-1.259,3.513-2.263,4.783-1.767S6.725,29.989,6.9,31.662c.134,1.46.294,3.066,1.336,3.521s2.311-.308,3.473-1.031,2.471-1.567,3.741-1.1,1.643,2.343,1.884,4.379c-.467.268-.935.536-1.416.777-.147-1.767-.428-3.468-1.042-3.7s-1.456.361-2.418.964c-1.483.937-3.086,1.941-4.876,1.125S5.59,33.724,5.4,31.851c-.12-1.179-.227-2.276-.668-2.45-.748-.295-2.338.777-3.874,1.982Q.66,30.55.5,29.72Z" transform="translate(0.165 9.432)"/>
        <path id="Path_4578" data-name="Path 4578" class="cls-4" d="M14.81,33.057l7,2.745,1.456-.455c3.913-4.78,6.037-13.872,5.943-19.228V14.231L18.27,11.7,10,29.924Z" transform="translate(3.356 3.966)"/>
        <path id="Path_4579" data-name="Path 4579" class="cls-5" d="M19.018,11.977l.04.308,1.363,11.1.093.7-.588.388-9.271,6.213-.695-.75,1-2.209.134-.08,6.974-4.686-1.016-8.289-.027-.214L18.3,11.668Z" transform="translate(3.342 3.957)"/>
        <path id="Path_4580" data-name="Path 4580" class="cls-5" d="M16.641,21.563,25.9,15.336l1.336-.857a33.134,33.134,0,0,1-.28,5.65c-.16,1.111-.374,2.209-.628,3.281l-.641-5.143-7.134,4.795,1.042,8.556L24.8,28.11a29.751,29.751,0,0,1-2.138,4.137l-3.433,2.29L17.7,35.582l-.227-1.848L16.133,22.647l-.093-.7Z" transform="translate(5.385 4.909)"/>
        <path id="Path_4581" data-name="Path 4581" class="cls-6" d="M27.2,0,27.3.2a44.182,44.182,0,0,1,3.727,19.884A68.294,68.294,0,0,1,20.177,15.72H20.07l2.672-5.838.947-.4-.307-.991ZM25.16,39.178A105.7,105.7,0,0,1,11.8,33.821h0L6.844,44.643l.481,1.151-1.1.2L4.64,49.464h0C10.091,51.913,21.967,43.651,25.16,39.178Z" transform="translate(1.555 0)"/>
        <path id="Path_4582" data-name="Path 4582" class="cls-4" d="M18.821,6.91h.134c.935.335,2.672-.415,5.931-2.41.134.5.267.991.387,1.5C21.679,8.182,19.648,8.945,18.3,8.383h-.12Z" transform="translate(6.103 1.525)"/>
        <path id="Path_4583" data-name="Path 4583" class="cls-4" d="M6.434,33.923h0c1.042.4,2.258-.361,3.393-1.071s2.471-1.567,3.741-1.1,1.723,2.357,1.964,4.393c-.467.268-.935.536-1.416.777-.147-1.767-.428-3.468-1.042-3.7s-1.456.361-2.418.964c-1.469.922-3.047,1.914-4.8,1.164h0Z" transform="translate(1.965 10.719)"/>
      </g>
    </g>
    <g id="Layer_2-2" data-name="Layer 2" transform="translate(814 780)">
      <g id="Layer_1-2" data-name="Layer 1" transform="translate(0 0)">
        <path id="Path_4584" data-name="Path 4584" class="cls-7" d="M21.863.181V.238h0c4.224,8.306,8.448,15.483,8.374,20.05a5.768,5.768,0,0,1-1.431,3.1C34.1,29.106,41.733,37.233,44.519,40.27c1.572,3.038-9.575,11.487-12.587,9.408-2.1-3.5-7.681-13.062-11.631-19.793a5.671,5.671,0,0,1-3.421.418C12.468,29.059,6.766,22.964.05,16.594h0v-.047C0,13.49,3.735,9.142,8.243,5.7h0l.445-.332.436-.321h0C13.727,1.662,18.946-.674,21.863.181Z" transform="translate(-0.05 -0.004)"/>
        <path id="Path_4585" data-name="Path 4585" class="cls-8" d="M26.1,28.3c-1.894,1.452-5.683,3.8-8.306,3.085H17.74c2.179.551,6.3-2.145,7.994-3.475,1.894-1.481,4.878-4.054,5.446-6.512h0a5.768,5.768,0,0,1-1.43,3.1l.114.124A20.148,20.148,0,0,1,26.1,28.3Z" transform="translate(-0.985 -1.088)"/>
        <path id="Path_4586" data-name="Path 4586" class="cls-8" d="M1.2,17.227a.332.332,0,0,1,.4-.532l15.723,11.7L4.669,11.768a.322.322,0,0,1,.057-.455.331.331,0,0,1,.436,0h0L21.206,26.691,9.946,7.174a.33.33,0,0,1,.531-.389l15.418,16.49L16.357,3.4a.332.332,0,0,1,.161-.474.32.32,0,0,1,.428.133L28.312,19.515,21.679,1.857A.332.332,0,1,1,22.3,1.62L29.92,21.8h0a.333.333,0,1,1-.587.313L18.762,6.86,27.419,24.9h0a.332.332,0,0,1-.541.372L11.951,9.339,22.939,28.391a.332.332,0,0,1-.511.408L7.766,14.749,19.255,29.843a.333.333,0,0,1,0,.418.34.34,0,0,1-.463.066Z" transform="translate(-0.103 -0.076)"/>
        <path id="Path_4587" data-name="Path 4587" class="cls-9" d="M32.551,49.287v-.949c0-1.036,0-2.307.852-2.734s1.468.266,2.15.949,1.231,1.291,1.894.826c.463-.321.227-1.036,0-1.756-.312-.949-.625-1.9.161-2.536.616-.512,1.5,0,2.387.522.711.418,1.43.845,1.705.56s0-1.167-.331-1.994-.653-1.756-.3-2.288h0c.483-.75,1.563-.209,2.472.247a3.576,3.576,0,0,0,.871.38h0l.256-.057.256.275a.436.436,0,0,1-.379.389,2.526,2.526,0,0,1-1.307-.437c-.672-.332-1.458-.731-1.629-.475h0c-.161.256.095.949.37,1.69.388,1.025.786,2.1.19,2.706s-1.61.114-2.557-.4c-.682-.4-1.364-.8-1.619-.579-.445.37-.2,1.092,0,1.813.312.949.625,1.9-.227,2.506-1.118.788-1.951-.076-2.756-.9-.5-.532-.947-1.036-1.383-.835s-.492,1.281-.474,2.126,0,1.566-.578,1.614h0l-.047-.665Zm11.792-8.734a.189.189,0,0,1-.076,0Z" transform="translate(-1.769 -2.005)"/>
        <path id="Path_4588" data-name="Path 4588" class="cls-9" d="M36.248,42.135a.757.757,0,1,0-1.186-.2.856.856,0,0,0,1.186.2Z" transform="translate(-1.895 -2.068)"/>
        <path id="Path_4589" data-name="Path 4589" class="cls-9" d="M32.244,44.458a.847.847,0,1,0-1.184-.171A.849.849,0,0,0,32.244,44.458Z" transform="translate(-1.68 -2.179)"/>
        <path id="Path_4590" data-name="Path 4590" class="cls-9" d="M39.624,38.918a.847.847,0,1,0-1.184-.171A.849.849,0,0,0,39.624,38.918Z" transform="translate(-2.07 -1.898)"/>
        <path id="Path_4591" data-name="Path 4591" class="cls-9" d="M.75,17.291c.833-3.94,6.175-8.544,8.9-10.585S18.433.858,22.411,1.229l.36.731a4.385,4.385,0,0,0-.8-.066c-3.078,0-7.768,2.316-11.905,5.4S2.36,14.187,1.5,17.149a5.213,5.213,0,0,0-.151.7Z" transform="translate(-0.086 -0.064)"/>
        <path id="Path_4592" data-name="Path 4592" class="cls-8" d="M44.834,40.817a4.752,4.752,0,0,1-.9,2.031,16.587,16.587,0,0,1-3.04,3.19,23.438,23.438,0,0,1-3.968,2.667,8.008,8.008,0,0,1-4.4,1.179L32,49.019c.947.589,2.68.114,4.6-.893a22.186,22.186,0,0,0,3.92-2.592,16.066,16.066,0,0,0,2.844-3.046,2.818,2.818,0,0,0,.691-2.478h0Z" transform="translate(-1.739 -2.031)"/>
        <path id="Path_4593" data-name="Path 4593" class="cls-8" d="M42.325,38.039a5.511,5.511,0,0,1-.786,1.538,16.587,16.587,0,0,1-3.04,3.19,23.438,23.438,0,0,1-3.968,2.667,9.153,9.153,0,0,1-3.893,1.206l-.4-.674a7.394,7.394,0,0,0,3.977-1.12,22.188,22.188,0,0,0,3.864-2.592A16.35,16.35,0,0,0,41,39.207a4.267,4.267,0,0,0,.786-1.747Z" transform="translate(-1.645 -1.902)"/>
        <path id="Path_4594" data-name="Path 4594" class="cls-10" d="M22.345.181V.238h0c4.225,8.306,8.448,15.483,8.373,20.05a5.768,5.768,0,0,1-1.43,3.1C34.582,29.106,42.216,37.233,45,40.271c.8,1.547-1.705,4.509-4.736,6.759L9.17,5.335l.436-.321h0C14.209,1.661,19.427-.674,22.345.181Z" transform="translate(-0.532 -0.003)"/>
        <path id="Path_4595" data-name="Path 4595" class="cls-11" d="M26.545,28.3l-.114.095-.341-.446.075-.068c1.894-1.481,4.878-4.054,5.446-6.512h0C31.583,23.759,28.183,27.025,26.545,28.3Z" transform="translate(-1.426 -1.083)"/>
        <path id="Path_4596" data-name="Path 4596" class="cls-11" d="M10.39,6.974a.352.352,0,0,1,.161-.256.32.32,0,0,1,.417.066l15.419,16.49L16.849,3.4a.332.332,0,0,1,.161-.474.32.32,0,0,1,.428.133L28.8,19.515,22.172,1.857a.332.332,0,1,1,.616-.237L30.413,21.8h0a.333.333,0,1,1-.587.313L19.255,6.86,27.912,24.9h0a.332.332,0,0,1-.54.37L12.445,9.338l.947,1.718Z" transform="translate(-0.596 -0.076)"/>
        <path id="Path_4597" data-name="Path 4597" class="cls-12" d="M37.54,43.424a1.622,1.622,0,0,1,.275-.3c.616-.512,1.5,0,2.387.522.711.418,1.43.845,1.7.56s0-1.167-.331-1.994-.653-1.756-.3-2.288h0c.483-.75,1.563-.209,2.472.247a3.576,3.576,0,0,0,.872.379h0l.256-.057.256.275a.436.436,0,0,1-.379.389,2.526,2.526,0,0,1-1.309-.437c-.672-.332-1.458-.731-1.629-.475h0c-.161.256.095.949.37,1.69.388,1.025.786,2.1.19,2.706s-1.553.085-2.5-.429c-.682-.4-1.364-.8-1.619-.579a.646.646,0,0,0-.237.418l-.463-.626Zm7.077-2.849a.189.189,0,0,1-.076,0h.066Z" transform="translate(-2.031 -2.008)"/>
        <path id="Path_4598" data-name="Path 4598" class="cls-12" d="M35.36,40.7a.844.844,0,0,1,1,1.348Z" transform="translate(-1.916 -2.06)"/>
        <path id="Path_4599" data-name="Path 4599" class="cls-12" d="M38.615,37.444a.84.84,0,1,1-.17,1.167A.865.865,0,0,1,38.615,37.444Z" transform="translate(-2.073 -1.763)"/>
        <path id="Path_4600" data-name="Path 4600" class="cls-12" d="M10.19,6.706c2.766-2.06,8.761-5.848,12.72-5.477l.361.731a4.385,4.385,0,0,0-.8-.066c-3.069,0-7.738,2.307-11.877,5.373Z" transform="translate(-0.586 -0.064)"/>
        <path id="Path_4601" data-name="Path 4601" class="cls-11" d="M45.248,40.816a4.752,4.752,0,0,1-.9,2.031,16.587,16.587,0,0,1-3.04,3.19c-.35.294-.711.57-1.08.845l-.4-.531c.37-.266.72-.541,1.061-.826a16.065,16.065,0,0,0,2.889-3.038,2.818,2.818,0,0,0,.691-2.478h0Z" transform="translate(-2.152 -2.03)"/>
        <path id="Path_4602" data-name="Path 4602" class="cls-11" d="M42.7,38.039a5.511,5.511,0,0,1-.786,1.538,16.587,16.587,0,0,1-3.04,3.19c-.35.286-.711.57-1.08.845l-.4-.53c.37-.266.72-.541,1.061-.826a16.35,16.35,0,0,0,2.917-3.047,4.267,4.267,0,0,0,.786-1.748Z" transform="translate(-2.024 -1.902)"/>
      </g>
    </g>
  </g>
</svg>
