<svg xmlns="http://www.w3.org/2000/svg" width="170.391" height="180" viewBox="0 0 170.391 180"><defs><style>.a{fill:#ffd919;}.a,.b,.c,.d,.e,.f,.g,.h,.i,.j,.k,.l{fill-rule:evenodd;}.b{fill:#560116;}.c{fill:#f26810;}.d{fill:#fcbe12;}.e{fill:#36000e;}.f{fill:#d45a0f;}.g{fill:#340f06;}.h{fill:#f0ab5d;}.i{fill:#d70810;}.j{fill:#1c0803;}.k{fill:#ea993e;}.l{fill:#c2080e;}</style></defs><g transform="translate(-814 -780)"><g transform="translate(866.613 780)"><g transform="translate(0 0)"><path class="a" d="M39.334,13.742C23.859,26.275,4.914,51.244.48,74.86L20.388,95.833l68.594,25.4,5.206-1.543c14.027-17.257,21.836-50.036,21.5-69.316v-6.8L61.554,5.74Z" transform="translate(1.822 21.928)"/><path class="b" d="M10.154,36.839,43.607,14.468l5.544-3.712.819,6.6,4.821,39.919.289,2.555-2.073,1.4L19.6,83.6l-5.592,3.716-.819-6.6L8.364,40.84l-.289-2.507,2.073-1.4Zm32.49-11.811L16.85,42.287l3.812,30.754,25.6-17.257Z" transform="translate(30.856 41.106)"/><path class="b" d="M38.566,7.24l.723,5.833,4.82,39.912.289,2.507-2.073,1.4L8.969,79.305l-5.544,3.9-.819-6.652L.87,62.336A106.586,106.586,0,0,1,7.184,46.381L9.932,68.752l25.79-17.261L31.913,20.545,15.951,31.293c2.218-3.181,4.82-6.363,7.278-9.643A114.629,114.629,0,0,1,38.566,7.24Z" transform="translate(3.312 27.659)"/><path class="b" d="M18.209,39.98,51.614,17.565l4.82-3.086A119.012,119.012,0,0,1,55.423,34.82c-.579,4-1.35,7.953-2.265,11.811L50.843,28.117,25.1,45.378l3.761,30.8,18.8-12.63a107.015,107.015,0,0,1-7.714,14.895L27.56,86.689l-5.544,3.759L21.2,83.8,16.374,43.884l-.334-2.507Z" transform="translate(61.266 55.318)"/><path class="c" d="M103.773,0a159.073,159.073,0,0,1,13.787,72.306C106.906,70.666,49.3,44.149,40.916,35.671A159.506,159.506,0,0,1,103.58,0ZM96.4,141.042c-24.826-7.47-69.751-27.425-94.191-44.635-6.218,22.319.771,72.932,20.294,81.946S84.877,157.144,96.4,141.042Z" transform="translate(-0.003 0)"/><path class="a" d="M21.162,1.66a79.535,79.535,0,0,0,5.5,20.921c2.651,4.243,8.436,2.411,23.669-6.8.482,1.783.964,3.567,1.4,5.4C34.032,31.645,26.8,32.946,22.077,25.428A75.15,75.15,0,0,1,16.1,4.071C17.739,3.3,19.426,2.431,21.162,1.66Z" transform="translate(61.496 6.342)"/><path class="a" d="M.5,34.651C6.671,30.12,13.177,26.5,17.757,28.288s5.206,7.329,5.833,13.352c.482,5.255,1.061,11.039,4.82,12.677s8.339-1.108,12.533-3.712,8.918-5.64,13.5-3.952,5.93,8.436,6.8,15.763c-1.687.964-3.374,1.929-5.109,2.8-.53-6.363-1.543-12.484-3.759-13.3s-5.255,1.3-8.725,3.471c-5.351,3.374-11.136,6.989-17.595,4.049s-7.186-10.364-7.86-17.106c-.433-4.243-.819-8.2-2.411-8.821-2.7-1.061-8.436,2.8-13.979,7.134Q1.079,37.639.5,34.651Z" transform="translate(1.898 106.297)"/><path class="d" d="M27.357,88.585l25.259,9.882,5.255-1.639C71.99,79.619,79.654,46.889,79.316,27.607v-6.8L39.839,11.7,10,77.306Z" transform="translate(38.191 44.699)"/><path class="e" d="M42.643,12.779l.144,1.108L47.7,53.848l.337,2.507-2.121,1.4L12.467,80.12,9.96,77.42l3.615-7.953.482-.289L39.22,52.307,35.556,22.468l-.1-.771,4.58-10.029Z" transform="translate(38.039 44.583)"/><path class="e" d="M18.209,39.98,51.614,17.565l4.82-3.086A119.012,119.012,0,0,1,55.423,34.82c-.579,4-1.35,7.953-2.265,11.811L50.843,28.117,25.1,45.378l3.761,30.8,18.8-12.63a107.015,107.015,0,0,1-7.714,14.895L27.56,86.689l-5.544,3.759L21.2,83.8,16.374,43.884l-.334-2.507Z" transform="translate(61.266 55.318)"/><path class="f" d="M86.056,0l.337.723A158.735,158.735,0,0,1,99.841,72.306,246.752,246.752,0,0,1,60.7,56.592h-.386l9.643-21.017,3.416-1.446-1.108-3.567ZM78.681,141.042a381.914,381.914,0,0,1-48.2-19.286h0L12.593,160.713l1.736,4.145-3.952.723L4.64,178.07h0C24.307,186.885,67.16,157.144,78.681,141.042Z" transform="translate(17.714 0)"/><path class="d" d="M20.494,13.177h.482c3.374,1.2,9.643-1.494,21.4-8.677.482,1.783.964,3.567,1.4,5.4-12.97,7.856-20.3,10.6-25.163,8.58H18.18Z" transform="translate(69.442 17.191)"/><path class="d" d="M7.933,39.912h0c3.759,1.446,8.146-1.3,12.244-3.857s8.918-5.64,13.5-3.952,6.218,8.486,7.086,15.814c-1.687.964-3.374,1.929-5.109,2.8-.53-6.363-1.543-12.484-3.759-13.3s-5.255,1.3-8.725,3.471c-5.3,3.321-10.994,6.889-17.308,4.189h0Z" transform="translate(22.375 120.801)"/></g></g><g transform="translate(814 780.001)"><g transform="translate(0 0)"><path class="g" d="M78.757.642v.2h0C94,30.749,109.241,56.586,108.971,73.025A20.745,20.745,0,0,1,103.807,84.2c19.1,20.571,46.649,49.828,56.7,60.764,5.673,10.936-34.551,41.352-45.419,33.868-7.586-12.61-27.716-47.025-41.967-71.255a20.506,20.506,0,0,1-12.343,1.5C44.857,104.6,24.286,82.662.051,59.73h0v-.171C-.12,48.555,13.346,32.9,29.612,20.5h0l1.606-1.2,1.572-1.157h0C49.4,5.972,68.231-2.435,78.757.642Z" transform="translate(-0.05 -0.003)"/><path class="h" d="M47.917,46.245c-6.835,5.229-20.506,13.671-29.971,11.107H17.74c7.861,1.983,22.726-7.723,28.844-12.509,6.835-5.331,17.6-14.593,19.651-23.444h0a20.745,20.745,0,0,1-5.161,11.175l.41.445A72.622,72.622,0,0,1,47.917,46.245Z" transform="translate(42.718 51.723)"/><path class="h" d="M1.548,58.437a1.2,1.2,0,0,1,1.435-1.914l56.732,42.1L14.057,38.786a1.157,1.157,0,0,1,.2-1.637,1.2,1.2,0,0,1,1.572,0h0l57.893,55.36L33.1,22.245a1.191,1.191,0,0,1,1.914-1.4L90.644,80.206,56.23,8.643a1.2,1.2,0,0,1,.581-1.707,1.157,1.157,0,0,1,1.543.478l41.014,59.26L75.435,3.106a1.2,1.2,0,1,1,2.222-.855l27.514,72.657h0a1.2,1.2,0,0,1-2.119,1.128L64.909,21.117,96.146,86.045h0a1.2,1.2,0,0,1-1.952,1.338L40.333,30.041,79.98,98.627a1.2,1.2,0,0,1-1.845,1.47l-52.9-50.58,41.454,54.339a1.2,1.2,0,0,1,0,1.5,1.23,1.23,0,0,1-1.671.239Z" transform="translate(2.417 3.306)"/><path class="i" d="M32.622,74.692V71.274c0-3.729,0-8.3,3.075-9.842s5.3.957,7.758,3.417S47.9,69.5,50.29,67.824c1.671-1.157.82-3.729,0-6.322-1.128-3.417-2.255-6.835.581-9.129,2.222-1.845,5.4,0,8.614,1.88,2.564,1.5,5.161,3.042,6.152,2.016s0-4.2-1.2-7.177-2.358-6.322-1.094-8.236h0c1.743-2.7,5.639-.752,8.92.888a12.919,12.919,0,0,0,3.144,1.367h0l.923-.2.923.991a1.572,1.572,0,0,1-1.367,1.4,9.129,9.129,0,0,1-4.716-1.572c-2.426-1.2-5.262-2.632-5.878-1.709h0c-.581.923.342,3.417,1.333,6.083,1.4,3.691,2.836,7.552.684,9.741s-5.81.41-9.228-1.435c-2.461-1.435-4.922-2.871-5.844-2.084-1.606,1.333-.717,3.93,0,6.528,1.128,3.417,2.255,6.835-.82,9.022-4.033,2.836-7.041-.274-9.945-3.246-1.812-1.914-3.417-3.729-4.99-3.007s-1.777,4.613-1.709,7.655,0,5.639-2.084,5.81h0l-.171-2.393ZM75.17,43.251a.683.683,0,0,1-.274,0Z" transform="translate(78.45 95.524)"/><path class="i" d="M39.5,45.7a3.075,3.075,0,0,0,.643-4.134,3.075,3.075,0,0,0-4.922,3.417A3.075,3.075,0,0,0,39.5,45.7Z" transform="translate(84.459 98.545)"/><path class="i" d="M35.773,48.427a3.052,3.052,0,1,0-4.272-.615,3.052,3.052,0,0,0,4.272.615Z" transform="translate(74.513 103.777)"/><path class="i" d="M43.153,42.887a3.052,3.052,0,1,0-4.272-.615A3.052,3.052,0,0,0,43.153,42.887Z" transform="translate(92.355 90.385)"/><path class="i" d="M.75,59.119C3.757,44.936,23.033,28.361,32.875,21.013S64.556-.039,78.909,1.294l1.3,2.632a15.858,15.858,0,0,0-2.9-.239c-11.107,0-28.028,8.339-42.958,19.446S6.56,47.943,3.45,58.606A18.728,18.728,0,0,0,2.9,61.135Z" transform="translate(1.644 2.898)"/><path class="h" d="M78.307,42.914a17.088,17.088,0,0,1-3.246,7.313A59.772,59.772,0,0,1,64.091,61.71a84.584,84.584,0,0,1-14.319,9.6,28.946,28.946,0,0,1-15.891,4.243L32,72.442c3.417,2.119,9.671.41,16.609-3.214A80.072,80.072,0,0,0,62.752,59.9,57.892,57.892,0,0,0,73.014,48.93c2.461-3.417,3.417-6.835,2.494-8.92h0Z" transform="translate(77.192 96.714)"/><path class="h" d="M73.847,39.544a19.821,19.821,0,0,1-2.836,5.536,59.773,59.773,0,0,1-10.97,11.483,84.583,84.583,0,0,1-14.319,9.6,33.081,33.081,0,0,1-14.046,4.341L30.24,68.08a26.725,26.725,0,0,0,14.348-4.032,80.074,80.074,0,0,0,13.944-9.33,58.919,58.919,0,0,0,10.526-10.97,15.345,15.345,0,0,0,2.836-6.288Z" transform="translate(72.937 90.548)"/><path class="j" d="M56.708.642v.2h0c15.243,29.9,30.484,55.741,30.212,72.181A20.745,20.745,0,0,1,81.758,84.2c19.1,20.571,46.649,49.828,56.7,60.764,2.9,5.571-6.152,16.233-17.087,24.333L9.17,19.2l1.572-1.157h0C27.351,5.972,46.182-2.435,56.708.642Z" transform="translate(22 -0.003)"/><path class="k" d="M27.731,46.319l-.41.342-1.23-1.606.27-.246c6.835-5.332,17.6-14.593,19.651-23.445h0C45.912,29.983,33.642,41.74,27.731,46.319Z" transform="translate(62.904 51.65)"/><path class="k" d="M10.39,21.527a1.265,1.265,0,0,1,.581-.923,1.157,1.157,0,0,1,1.5.239L68.112,80.206,33.7,8.643a1.2,1.2,0,0,1,.581-1.707,1.157,1.157,0,0,1,1.543.478l41.014,59.26L52.9,3.106a1.2,1.2,0,1,1,2.222-.855L82.64,74.908h0a1.2,1.2,0,0,1-2.119,1.128L42.378,21.117,73.615,86.045h0a1.2,1.2,0,0,1-1.948,1.333L17.806,30.035l3.417,6.186Z" transform="translate(24.949 3.306)"/><path class="l" d="M37.54,53.5a5.843,5.843,0,0,1,.991-1.094c2.222-1.845,5.4,0,8.614,1.88,2.564,1.5,5.161,3.042,6.152,2.016s0-4.2-1.2-7.177-2.358-6.322-1.094-8.236h0c1.743-2.7,5.639-.752,8.92.888a12.918,12.918,0,0,0,3.146,1.365h0l.923-.2.923.991a1.572,1.572,0,0,1-1.367,1.4,9.128,9.128,0,0,1-4.722-1.572c-2.426-1.2-5.262-2.632-5.878-1.709h0c-.581.923.342,3.417,1.333,6.083,1.4,3.691,2.836,7.552.684,9.741s-5.6.307-9.022-1.543c-2.461-1.435-4.922-2.871-5.844-2.084a2.323,2.323,0,0,0-.855,1.5L37.579,53.5ZM63.074,43.245a.684.684,0,0,1-.274,0h.239Z" transform="translate(90.585 95.596)"/><path class="l" d="M35.36,41.024a3.042,3.042,0,0,1,3.623,4.854Z" transform="translate(85.314 98.092)"/><path class="l" d="M39.46,37.886a3.024,3.024,0,1,1-.615,4.2A3.11,3.11,0,0,1,39.46,37.886Z" transform="translate(92.394 90.567)"/><path class="l" d="M10.19,21.013C20.17,13.6,41.8-.039,56.087,1.294l1.3,2.632a15.858,15.858,0,0,0-2.9-.239c-11.073,0-27.922,8.3-42.855,19.343Z" transform="translate(24.465 2.898)"/><path class="k" d="M59.378,42.915a17.088,17.088,0,0,1-3.246,7.313A59.773,59.773,0,0,1,45.162,61.71c-1.264,1.059-2.564,2.051-3.9,3.042L39.83,62.839c1.333-.957,2.6-1.948,3.828-2.974A57.891,57.891,0,0,0,54.081,48.929c2.461-3.417,3.417-6.835,2.494-8.92h0Z" transform="translate(96.121 96.714)"/><path class="k" d="M56.538,39.544A19.822,19.822,0,0,1,53.7,45.08a59.772,59.772,0,0,1-10.97,11.483c-1.264,1.029-2.564,2.051-3.9,3.042L37.4,57.7c1.333-.957,2.6-1.948,3.828-2.974a58.918,58.918,0,0,0,10.526-10.97A15.345,15.345,0,0,0,54.59,37.46Z" transform="translate(90.247 90.548)"/></g></g></g></svg>