<svg xmlns="http://www.w3.org/2000/svg" width="180" height="118.983" viewBox="0 0 180 118.983">
  <g id="African_natural_resources" data-name="African natural resources" transform="translate(-16 -104)">
    <path id="Path_4698" data-name="Path 4698" d="M200.949,213.831,95.322,108.2a14.352,14.352,0,0,0-20.666.383L24,163.14v56.793H200.949Z" transform="translate(-4.949)" fill="#cd5014"/>
    <path id="Path_4699" data-name="Path 4699" d="M136.55,264.46l77.785-83.768a14.755,14.755,0,0,1,20.821-.8l35.422,32.7v51.864Z" transform="translate(-74.578 -44.528)" fill="#f15b12"/>
    <path id="Path_4700" data-name="Path 4700" d="M384.814,378.305H345.153a9.153,9.153,0,0,1,0-18.305h39.661Z" transform="translate(-197.966 -158.373)" fill="#ffd873"/>
    <path id="Path_4701" data-name="Path 4701" d="M151.661,272.407V248H127.254L112,266.305v6.1Z" transform="translate(-59.39 -89.085)" fill="#84a528"/>
    <path id="Path_4702" data-name="Path 4702" d="M160,248h6.1v27.458H160Z" transform="translate(-89.085 -89.085)" fill="#77981c"/>
    <path id="Path_4703" data-name="Path 4703" d="M144.407,302.1l-6.1-6.1H120v21.356h24.407Z" transform="translate(-64.339 -118.78)" fill="#3e4b17"/>
    <path id="Path_4704" data-name="Path 4704" d="M181.763,342.508V312H151.254L136,327.254v15.254Z" transform="translate(-74.237 -128.678)" fill="#77981c"/>
    <path id="Path_4705" data-name="Path 4705" d="M224,367.254,230.1,352H260.61l-6.1,15.254Z" transform="translate(-128.678 -153.424)" fill="#ee6f31"/>
    <path id="Path_4706" data-name="Path 4706" d="M24,320H60.61v27.458H24Z" transform="translate(-4.949 -133.627)" fill="#3e4b17"/>
    <circle id="Ellipse_48" data-name="Ellipse 48" cx="15.254" cy="15.254" r="15.254" transform="translate(19.051 189.424)" fill="#f15b12"/>
    <path id="Path_4707" data-name="Path 4707" d="M34.305,356.61A18.305,18.305,0,1,1,52.61,338.305,18.305,18.305,0,0,1,34.305,356.61Zm0-30.508a12.2,12.2,0,1,0,12.2,12.2A12.2,12.2,0,0,0,34.305,326.1Z" transform="translate(0 -133.627)" fill="#9a4319"/>
    <circle id="Ellipse_49" data-name="Ellipse 49" cx="3.051" cy="3.051" r="3.051" transform="translate(31.254 201.627)" fill="#cd5014"/>
    <path id="Path_4708" data-name="Path 4708" d="M72.814,332.61,60.61,296H24v12.2H51.458L60.61,332.61Z" transform="translate(-4.949 -118.78)" fill="#84a528"/>
    <circle id="Ellipse_50" data-name="Ellipse 50" cx="9.153" cy="9.153" r="9.153" transform="translate(77.017 201.627)" fill="#f15b12"/>
    <path id="Path_4709" data-name="Path 4709" d="M180.2,376.407a12.2,12.2,0,1,1,12.2-12.2,12.2,12.2,0,0,1-12.2,12.2Zm0-18.305a6.1,6.1,0,1,0,6.1,6.1A6.1,6.1,0,0,0,180.2,358.1Z" transform="translate(-94.034 -153.424)" fill="#9a4319"/>
    <circle id="Ellipse_51" data-name="Ellipse 51" cx="3.051" cy="3.051" r="3.051" transform="translate(83.119 207.729)" fill="#cd5014"/>
    <path id="Path_4710" data-name="Path 4710" d="M32,240H50.305v9.153H32Z" transform="translate(-9.898 -84.136)" fill="#84a528"/>
    <path id="Path_4711" data-name="Path 4711" d="M50.305,264H32l6.1,12.2h6.1Z" transform="translate(-9.898 -98.983)" fill="#77981c"/>
    <path id="Path_4712" data-name="Path 4712" d="M390.508,330.305H369.153a9.153,9.153,0,0,1,0-18.305h21.356Z" transform="translate(-212.814 -128.678)" fill="#ffd873"/>
    <path id="Path_4713" data-name="Path 4713" d="M360,208h9.153v6.1H360Z" transform="translate(-212.814 -64.339)" fill="#ffd873"/>
    <path id="Path_4714" data-name="Path 4714" d="M112,208h9.153v6.1H112Z" transform="translate(-59.39 -64.339)" fill="#ffcc4d"/>
    <path id="Path_4715" data-name="Path 4715" d="M136,176h6.1v6.1H136Z" transform="translate(-74.237 -44.542)" fill="#ffcc4d"/>
    <path id="Path_4716" data-name="Path 4716" d="M160,144h9.153v6.1H160Z" transform="translate(-89.085 -24.746)" fill="#ffcc4d"/>
    <path id="Path_4717" data-name="Path 4717" d="M192,192h6.1v6.1H192Z" transform="translate(-108.881 -54.441)" fill="#ffcc4d"/>
    <path id="Path_4718" data-name="Path 4718" d="M232,200h6.1v6.1H232Z" transform="translate(-133.627 -59.39)" fill="#ffcc4d"/>
    <g id="Group_275" data-name="Group 275" transform="translate(122.78 155.864)">
      <path id="Path_4719" data-name="Path 4719" d="M328,248h6.1v6.1H328Z" transform="translate(-315.797 -244.949)" fill="#ffd873"/>
      <path id="Path_4720" data-name="Path 4720" d="M392,240h6.1v6.1H392Z" transform="translate(-355.39 -240)" fill="#ffd873"/>
      <path id="Path_4721" data-name="Path 4721" d="M368,272h6.1v6.1H368Z" transform="translate(-340.542 -259.797)" fill="#ffd873"/>
      <path id="Path_4722" data-name="Path 4722" d="M296,288h9.153v6.1H296Z" transform="translate(-296 -269.695)" fill="#ffd873"/>
      <path id="Path_4723" data-name="Path 4723" d="M432,264h6.1v6.1H432Z" transform="translate(-380.136 -254.847)" fill="#ffd873"/>
    </g>
    <circle id="Ellipse_52" data-name="Ellipse 52" cx="9.153" cy="9.153" r="9.153" transform="translate(168.542 183.322)" fill="#ffe28f"/>
    <circle id="Ellipse_53" data-name="Ellipse 53" cx="9.153" cy="9.153" r="9.153" transform="translate(159.39 201.627)" fill="#ffe28f"/>
    <circle id="Ellipse_54" data-name="Ellipse 54" cx="9.153" cy="9.153" r="9.153" transform="translate(177.695 201.627)" fill="#ffe28f"/>
  </g>
</svg>
