<svg xmlns="http://www.w3.org/2000/svg" width="180.001" height="118.987" viewBox="0 0 180.001 118.987"><defs><style>.a{fill:#cd5014;}.b{fill:#f15b12;}.c{fill:#ffd873;}.d{fill:#84a528;}.e{fill:#77981c;}.f{fill:#3e4b17;}.g{fill:#ee6f31;}.h{fill:#9a4319;}.i{fill:#ffcc4d;}.j{fill:#ffe28f;}</style></defs><g transform="translate(-16 -103.996)"><path class="a" d="M200.949,213.831,95.322,108.2a14.352,14.352,0,0,0-20.666.383L24,163.14v56.793H200.949Z" transform="translate(-4.949)"/><path class="b" d="M136.55,264.46l77.785-83.768a14.755,14.755,0,0,1,20.821-.8l35.422,32.7v51.864Z" transform="translate(-74.578 -44.528)"/><path class="c" d="M384.814,378.3H345.153a9.153,9.153,0,1,1,0-18.305h39.661Z" transform="translate(-197.966 -158.373)"/><path class="d" d="M151.661,272.407V248H127.254L112,266.3v6.1Z" transform="translate(-59.39 -89.085)"/><path class="e" d="M160,248h6.1v27.458H160Z" transform="translate(-89.085 -89.085)"/><path class="f" d="M144.407,302.1l-6.1-6.1H120v21.356h24.407Z" transform="translate(-64.339 -118.78)"/><path class="e" d="M181.763,342.508V312H151.254L136,327.254v15.254Z" transform="translate(-74.237 -128.678)"/><path class="g" d="M224,367.254,230.1,352h30.51l-6.1,15.254Z" transform="translate(-128.678 -153.424)"/><path class="f" d="M24,320H60.61v27.458H24Z" transform="translate(-4.949 -133.627)"/><circle class="b" cx="15.254" cy="15.254" r="15.254" transform="translate(19.051 189.424)"/><path class="h" d="M34.305,356.61A18.3,18.3,0,1,1,52.61,338.3,18.305,18.305,0,0,1,34.305,356.61Zm0-30.508a12.2,12.2,0,1,0,12.2,12.2,12.2,12.2,0,0,0-12.2-12.2Z" transform="translate(0 -133.627)"/><circle class="a" cx="3.051" cy="3.051" r="3.051" transform="translate(31.254 201.627)"/><path class="d" d="M72.814,332.61,60.61,296H24v12.2H51.458l9.152,24.41Z" transform="translate(-4.949 -118.78)"/><circle class="b" cx="9.153" cy="9.153" r="9.153" transform="translate(77.017 201.627)"/><path class="h" d="M180.2,376.407a12.2,12.2,0,1,1,12.2-12.2A12.2,12.2,0,0,1,180.2,376.407Zm0-18.3a6.1,6.1,0,1,0,6.1,6.1,6.1,6.1,0,0,0-6.1-6.1Z" transform="translate(-94.034 -153.424)"/><circle class="a" cx="3.051" cy="3.051" r="3.051" transform="translate(83.119 207.729)"/><path class="d" d="M32,240H50.305v9.153H32Z" transform="translate(-9.898 -84.136)"/><path class="e" d="M50.305,264H32l6.1,12.2h6.1Z" transform="translate(-9.898 -98.983)"/><path class="c" d="M390.508,330.3H369.153a9.153,9.153,0,1,1,0-18.306h21.356Z" transform="translate(-212.814 -128.678)"/><path class="c" d="M360,208h9.153v6.1H360Z" transform="translate(-212.814 -64.339)"/><path class="i" d="M112,208h9.153v6.1H112Z" transform="translate(-59.39 -64.339)"/><path class="i" d="M136,176h6.1v6.1H136Z" transform="translate(-74.237 -44.542)"/><path class="i" d="M160,144h9.153v6.1H160Z" transform="translate(-89.085 -24.746)"/><path class="i" d="M192,192h6.1v6.1H192Z" transform="translate(-108.881 -54.441)"/><path class="i" d="M232,200h6.1v6.1H232Z" transform="translate(-133.627 -59.39)"/><g transform="translate(122.78 155.864)"><path class="c" d="M328,248h6.1v6.1H328Z" transform="translate(-315.797 -244.949)"/><path class="c" d="M392,240h6.1v6.1H392Z" transform="translate(-355.39 -240)"/><path class="c" d="M368,272h6.1v6.1H368Z" transform="translate(-340.542 -259.797)"/><path class="c" d="M296,288h9.153v6.1H296Z" transform="translate(-296 -269.695)"/><path class="c" d="M432,264h6.1v6.1H432Z" transform="translate(-380.136 -254.847)"/></g><circle class="j" cx="9.153" cy="9.153" r="9.153" transform="translate(168.542 183.322)"/><circle class="j" cx="9.153" cy="9.153" r="9.153" transform="translate(159.39 201.627)"/><circle class="j" cx="9.153" cy="9.153" r="9.153" transform="translate(177.695 201.627)"/></g></svg>