<svg xmlns="http://www.w3.org/2000/svg" width="156.495" height="180" viewBox="0 0 156.495 180">
  <g id="African_food" data-name="African food" transform="translate(-18.377 -1.913)">
    <path id="Path_4640" data-name="Path 4640" d="M148.419,234.454v8.658a3.569,3.569,0,0,1-3.569,3.569H83.82a3.569,3.569,0,0,1-3.569-3.569v-8.658c1,.064,2.006.1,3.019.1H145.4C146.413,234.554,147.42,234.518,148.419,234.454Z" transform="translate(-17.708 -66.553)" fill="#f15b12"/>
    <path id="Path_4641" data-name="Path 4641" d="M176.309,39.262c.586,5.315,5.49,7.755,11.535,5.707,4.5,4.234,10.616,5.086,13.847,1.855s2.379-9.349-1.855-13.847c2.062-6.088-.433-10.953-5.707-11.535.767-3.686.14-7.064-2.071-9.276-4.464-4.464-13.685-2.481-20.6,4.429s-8.893,16.131-4.429,20.6c2.211,2.212,5.589,2.839,9.275,2.071Z" transform="translate(-41.863 -2.252)" fill="#13bf6d"/>
    <path id="Path_4642" data-name="Path 4642" d="M67.041,95.52c5.689-.627,8.3-5.876,6.109-12.347,4.533-4.815,5.444-11.364,1.986-14.821s-10.007-2.547-14.821,1.986C53.8,68.13,48.59,70.8,47.967,76.447c-3.946-.822-7.562-.15-9.929,2.216-4.778,4.778-2.656,14.648,4.741,22.045s17.267,9.519,22.045,4.741C67.19,103.082,67.862,99.466,67.041,95.52Z" transform="translate(-4.896 -18.413)" fill="#13bf6d"/>
    <path id="Path_4643" data-name="Path 4643" d="M68.079,28.853a10.1,10.1,0,0,0,14.281,0L68.079,14.572A10.1,10.1,0,0,0,68.079,28.853Z" transform="translate(-13.378 -3.623)" fill="#fc5d3d"/>
    <circle id="Ellipse_38" data-name="Ellipse 38" cx="4.311" cy="4.311" r="4.311" transform="translate(84.926 57.678) rotate(-13.3)" fill="#13bf6d"/>
    <circle id="Ellipse_39" data-name="Ellipse 39" cx="4.311" cy="4.311" r="4.311" transform="translate(110.795 47.592) rotate(-13.3)" fill="#fc5d3d"/>
    <path id="Path_4644" data-name="Path 4644" d="M112.155,7.853c-4.983,4.983-4.091,13.965-.237,17.819,3.059,3.059,7.224,2.111,11.306-.911a29.519,29.519,0,0,0,5.839-5.839c3.022-4.082,3.97-8.247.911-11.306-3.855-3.854-12.836-4.746-17.819.237Z" transform="translate(-25.856 -0.716)" fill="#f0ab20"/>
    <path id="Path_4645" data-name="Path 4645" d="M141.86,37.558a5.109,5.109,0,0,1-7.615-.437l-5.206-6.546a29.519,29.519,0,0,0,5.839-5.839l6.546,5.206a5.109,5.109,0,0,1,.437,7.615Z" transform="translate(-31.671 -6.532)" fill="#f2e1d6"/>
    <path id="Path_4646" data-name="Path 4646" d="M194.114,75.311a20.744,20.744,0,1,1-29.336,29.336L170.9,98.53l17.1-17.1Z" transform="translate(-41.9 -21.006)" fill="#fff"/>
    <path id="Path_4647" data-name="Path 4647" d="M190.45,83.881a12.093,12.093,0,1,1-17.1,17.1Z" transform="translate(-44.353 -23.459)" fill="#f0c020"/>
    <path id="Path_4648" data-name="Path 4648" d="M190.45,83.881a12.093,12.093,0,1,1-17.1,17.1Z" transform="translate(-44.353 -23.459)" fill="#f0c020"/>
    <path id="Path_4649" data-name="Path 4649" d="M170.333,156.576H34.711c0-9.715,6.274-19.087,17.6-19.087a17.552,17.552,0,0,1,14.961,8.366,12.9,12.9,0,0,1,13.769-5.817,15.209,15.209,0,1,1,29.694-6.546,12.917,12.917,0,0,1,17.752,7.117,8.8,8.8,0,0,1,15,2.712C154.194,134.691,170.333,142.678,170.333,156.576Z" transform="translate(-4.675 -34.13)" fill="#f2e1d6"/>
    <path id="Path_4650" data-name="Path 4650" d="M170.23,170.774H24.458a3.571,3.571,0,0,0-3.562,3.862A45.545,45.545,0,0,0,63.26,216.229c1,.064,2.006.1,3.019.1h62.129c1.014,0,2.02-.036,3.019-.1a45.549,45.549,0,0,0,42.364-41.586,3.573,3.573,0,0,0-3.562-3.869Z" transform="translate(-0.717 -48.328)" fill="#84a528"/>
    <path id="Path_4651" data-name="Path 4651" d="M145.894,212.266H95.431a1.785,1.785,0,0,1,0-3.569h50.464a35.081,35.081,0,0,0,34.247-27.052,1.785,1.785,0,0,1,3.473.826A38.64,38.64,0,0,1,145.894,212.266Zm-57.6,0H83.764a1.785,1.785,0,0,1,0-3.569h4.528a1.785,1.785,0,0,1,0,3.569Z" transform="translate(-18.203 -51.046)" fill="#3e4b17"/>
    <path id="Path_4652" data-name="Path 4652" d="M201.105,31.815c1.656-6.112-.844-11.039-5.683-12.5a10.944,10.944,0,0,0-2.832-9.134c-5.24-5.239-15.4-3.294-23.119,4.43s-9.67,17.879-4.429,23.119a10.943,10.943,0,0,0,9.134,2.832c1.47,4.863,6.417,7.331,12.5,5.682,5.151,4.3,11.821,4.844,15.544,1.119S205.41,36.968,201.105,31.815Zm-1.4,13.021c-2.5,2.5-7.6,1.652-11.362-1.893a1.784,1.784,0,0,0-1.8-.39c-4.426,1.5-8.686.354-9.189-4.212a1.785,1.785,0,0,0-2.138-1.551c-3.234.672-5.954.111-7.651-1.586-3.439-3.439-1.919-10.837,3.216-16.761l3.409,3.409-.253,10.783a1.784,1.784,0,1,0,3.568.084l.173-7.379,7.814,7.812L185.405,39a1.785,1.785,0,0,0,3.569.053l.036-2.381,5.819,5.819a1.784,1.784,0,1,0,2.523-2.523l-5.82-5.82,2.718-.041a1.784,1.784,0,1,0-.053-3.568l-6.182.092L180.2,22.815l7.553-.178a1.785,1.785,0,0,0-.084-3.568l-10.958.258-3.409-3.409c5.925-5.135,13.323-6.655,16.762-3.216,1.7,1.7,2.259,4.413,1.586,7.651A1.785,1.785,0,0,0,193.2,22.49c4.4.485,5.787,4.54,4.212,9.189a1.785,1.785,0,0,0,.391,1.8c3.545,3.765,4.393,8.861,1.893,11.362Z" transform="translate(-41.135 -1.525)"/>
    <path id="Path_4653" data-name="Path 4653" d="M65.356,106c2.379-2.378,3.413-5.8,2.984-9.778C73.592,94.69,76.2,89.381,74.42,82.9c4.6-5.473,5.2-12.569,1.248-16.519s-11.046-3.357-16.52,1.248c-6.535-1.8-11.8.874-13.322,6.08-3.972-.428-7.4.605-9.778,2.984-5.559,5.559-3.477,16.351,4.741,24.568S59.8,111.558,65.356,106ZM38.571,79.211c2.127-2.128,5.37-2.343,8.3-1.731a1.786,1.786,0,0,0,2.138-1.552c.545-4.94,5.139-6.261,10-4.614a1.788,1.788,0,0,0,1.8-.39c4.079-3.84,9.613-4.747,12.337-2.024s1.816,8.258-2.024,12.337a1.785,1.785,0,0,0-.39,1.8c1.628,4.807.365,9.451-4.614,10a1.786,1.786,0,0,0-1.552,2.138c.73,3.508.116,6.456-1.731,8.3-3.747,3.747-11.808,2.089-18.217-3.522L48.4,96.167c.043,0,11.6.273,11.639.273a1.784,1.784,0,0,0,.041-3.568L51.89,92.68,60.5,84.072l6.337.094a1.785,1.785,0,0,0,.026-3.569l-2.846-.042,6.439-6.439a1.784,1.784,0,0,0-2.523-2.523l-6.439,6.439-.048-3.206a1.784,1.784,0,0,0-1.784-1.758h-.027a1.784,1.784,0,0,0-1.757,1.811l.1,6.67-8.609,8.606-.2-8.377a1.785,1.785,0,1,0-3.568.084l.277,11.782-3.785,3.785c-5.61-6.408-7.269-14.47-3.522-18.217Z" transform="translate(-4.167 -17.699)"/>
    <path id="Path_4654" data-name="Path 4654" d="M66.1,12.595a11.882,11.882,0,0,0,16.8,16.8,1.785,1.785,0,0,0,0-2.524L68.625,12.6a1.784,1.784,0,0,0-2.523,0Zm2.523,14.282A8.315,8.315,0,0,1,67.5,16.516L78.983,28A8.329,8.329,0,0,1,68.625,26.876Z" transform="translate(-12.662 -2.908)"/>
    <path id="Path_4655" data-name="Path 4655" d="M110.344,82.13a6.1,6.1,0,1,0,6.1-6.1A6.1,6.1,0,0,0,110.344,82.13Zm8.621,0a2.526,2.526,0,1,1-2.526-2.526A2.529,2.529,0,0,1,118.965,82.13Z" transform="translate(-26.321 -21.214)"/>
    <path id="Path_4656" data-name="Path 4656" d="M158.788,68.005a6.095,6.095,0,1,0-6.1,6.1A6.1,6.1,0,0,0,158.788,68.005Zm-8.621,0a2.526,2.526,0,1,1,2.525,2.526A2.529,2.529,0,0,1,150.167,68.005Z" transform="translate(-36.697 -17.171)"/>
    <path id="Path_4657" data-name="Path 4657" d="M126.313,31.7A6.894,6.894,0,1,0,136,22.016l-5.248-4.174c3.993-6.348,1.634-10.332-.236-12.2C126,1.118,115.89.159,110.174,5.875c-5.7,5.7-4.79,15.789-.237,20.342,3.506,3.508,8.019,2.86,12.2.232Zm7.75-1.934a3.321,3.321,0,0,1-4.957-.286l-4.1-5.149a33.457,33.457,0,0,0,3.616-3.617l5.151,4.1A3.32,3.32,0,0,1,134.064,29.765Zm-21.6-6.072c-3.318-3.318-3.872-11.185.237-15.3,4.089-4.089,11.933-3.6,15.295-.237,2.122,2.123,1.758,5.144-1.086,8.986a27.946,27.946,0,0,1-5.463,5.462C117.606,25.451,114.583,25.815,112.461,23.693Z" transform="translate(-25.137 0)"/>
    <path id="Path_4658" data-name="Path 4658" d="M119.8,21.413l-.645-.13a1.785,1.785,0,0,0-.7,3.5l.645.13a1.785,1.785,0,0,0,.7-3.5Z" transform="translate(-28.23 -5.533)"/>
    <path id="Path_4659" data-name="Path 4659" d="M127.816,16.893a1.784,1.784,0,0,0,1.4-2.1l-.13-.645a1.785,1.785,0,1,0-3.5.7l.13.645a1.785,1.785,0,0,0,2.1,1.4Z" transform="translate(-30.673 -3.091)"/>
    <path id="Path_4660" data-name="Path 4660" d="M148.657,101.087l1.409-1.409a1.784,1.784,0,1,0-2.523-2.523l-1.409,1.409a1.784,1.784,0,0,0,2.523,2.523Z" transform="translate(-36.414 -27.108)"/>
    <path id="Path_4661" data-name="Path 4661" d="M52.036,51.627l1.409,1.409a1.784,1.784,0,0,0,2.523-2.523L54.56,49.1a1.784,1.784,0,0,0-2.523,2.523Z" transform="translate(-9.484 -13.356)"/>
    <path id="Path_4662" data-name="Path 4662" d="M201.2,90.955a22.4,22.4,0,0,0-6.538-17.617,1.829,1.829,0,0,0-2.52,0L162.8,102.675a1.791,1.791,0,0,0,0,2.527,22.5,22.5,0,0,0,32.214-.364,1.784,1.784,0,0,0-.057-2.527,1.828,1.828,0,0,0-2.519.057,18.958,18.958,0,0,1-25.79,1.513l3.625-3.625a13.863,13.863,0,0,0,19.442-19.447l3.623-3.623a18.947,18.947,0,0,1,4.3,13.5,1.786,1.786,0,0,0,3.561.271Zm-14.023-7.6a10.31,10.31,0,0,1-14.359,14.362C185.209,85.315,182.25,88.275,187.174,83.351Z" transform="translate(-41.185 -20.298)"/>
    <path id="Path_4663" data-name="Path 4663" d="M211.893,105.341a1.817,1.817,0,0,0-2.356.9,1.786,1.786,0,1,0,2.356-.9Z" transform="translate(-54.666 -29.559)"/>
    <path id="Path_4664" data-name="Path 4664" d="M22.434,175.393a1.822,1.822,0,0,0,2.363.885,1.788,1.788,0,0,0,.885-2.363,43.913,43.913,0,0,1-3.733-14.369,1.8,1.8,0,0,1,1.792-1.906H169.512a1.8,1.8,0,0,1,1.785,1.942,43.769,43.769,0,0,1-43.606,40.044H65.561a43.542,43.542,0,0,1-32.364-14.3,1.837,1.837,0,0,0-2.52-.114,1.79,1.79,0,0,0-.121,2.52.007.007,0,0,1,.007.007,47.139,47.139,0,0,0,30.194,15.211v7.027a5.359,5.359,0,0,0,5.353,5.354h61.03a5.359,5.359,0,0,0,5.353-5.354v-7.025a47.322,47.322,0,0,0,42.356-43.066,5.365,5.365,0,0,0-5.339-5.81h-2.153c-1.25-13.564-16.568-21.225-27.87-14.14a10.608,10.608,0,0,0-15.111-2.984,14.721,14.721,0,0,0-17.1-6.574A17.016,17.016,0,0,0,85.8,119.51a1.784,1.784,0,0,0,1.114,3.391,13.447,13.447,0,0,1,17.4,10.214,1.781,1.781,0,0,0,2.527,1.263,11.151,11.151,0,0,1,15.3,6.139,1.785,1.785,0,0,0,3.034.528,7.017,7.017,0,0,1,11.963,2.163,1.786,1.786,0,0,0,2.8.785c9.127-7.337,22.555-1.16,23.83,10.079H31.9c.744-8.471,6.421-15.49,15.729-15.518a15.718,15.718,0,0,1,13.441,7.523,1.787,1.787,0,0,0,3.034,0,11.072,11.072,0,0,1,11.87-5.011,1.791,1.791,0,0,0,2.12-2.17,13.357,13.357,0,0,1,.243-7.388,1.779,1.779,0,0,0-1.142-2.248,1.8,1.8,0,0,0-2.248,1.142,16.768,16.768,0,0,0-.749,6.838,14.659,14.659,0,0,0-11.564,4.882,19.3,19.3,0,0,0-15-7.138h-.05c-11.044,0-18.491,8.481-19.262,19.087H23.74A5.365,5.365,0,0,0,18.4,159.89a46.7,46.7,0,0,0,4.033,15.5Zm106.493,34.579a1.787,1.787,0,0,1-1.785,1.785H66.112a1.787,1.787,0,0,1-1.785-1.785v-6.79c.418.011.83.016,1.235.016h62.129c.4,0,.817-.006,1.235-.016Z" transform="translate(0 -33.413)"/>
    <path id="Path_4665" data-name="Path 4665" d="M29.467,203.649a1.786,1.786,0,1,0,2.47.514A1.825,1.825,0,0,0,29.467,203.649Z" transform="translate(-2.943 -57.657)"/>
    <path id="Path_4666" data-name="Path 4666" d="M105.729,125.467a1.831,1.831,0,0,0-2.527,0,1.787,1.787,0,1,0,2.527,0Z" transform="translate(-24.129 -35.216)"/>
    <path id="Path_4667" data-name="Path 4667" d="M119.952,140.461v-1.43a1.785,1.785,0,1,0-3.569,0v1.43a1.785,1.785,0,1,0,3.569,0Z" transform="translate(-28.049 -38.732)"/>
    <path id="Path_4668" data-name="Path 4668" d="M148.96,149.717a1.783,1.783,0,0,0,0-2.523l-1.011-1.011a1.784,1.784,0,0,0-2.523,2.523l1.011,1.011A1.783,1.783,0,0,0,148.96,149.717Z" transform="translate(-36.212 -41.14)"/>
    <path id="Path_4669" data-name="Path 4669" d="M108.555,154.7l1.011-1.011a1.785,1.785,0,0,0-2.524-2.524l-1.011,1.011a1.785,1.785,0,1,0,2.524,2.524Z" transform="translate(-24.937 -42.566)"/>
    <path id="Path_4670" data-name="Path 4670" d="M56.689,152.356a1.785,1.785,0,0,0,0,2.524l1.011,1.011a1.785,1.785,0,0,0,2.524-2.524l-1.011-1.011A1.785,1.785,0,0,0,56.689,152.356Z" transform="translate(-10.816 -42.907)"/>
    <path id="Path_4671" data-name="Path 4671" d="M158.04,155.892l1.011-1.011a1.784,1.784,0,1,0-2.523-2.524l-1.011,1.011a1.784,1.784,0,1,0,2.523,2.524Z" transform="translate(-39.1 -42.907)"/>
    <path id="Path_4672" data-name="Path 4672" d="M204.939,160.332l1.011-1.011a1.784,1.784,0,0,0-2.523-2.523l-1.011,1.011a1.784,1.784,0,1,0,2.523,2.523Z" transform="translate(-52.522 -44.178)"/>
  </g>
</svg>
