<svg xmlns="http://www.w3.org/2000/svg" width="180.014" height="180" viewBox="0 0 180.014 180"><defs><style>.a{fill:#f0f0f0;}.b{fill:#84a528;}.c{fill:#f15b12;}</style></defs><g transform="translate(-1.992 -2)"><path class="a" d="M21.739,76.478H160.653V53H21.739a11.739,11.739,0,1,0,0,23.478Z" transform="translate(7.652 48.783)"/><path class="a" d="M22.652,104.3h146.74V73H22.652a15.651,15.651,0,1,0,0,31.3Z" transform="translate(4.783 67.913)"/><path class="b" d="M166.435,56.826H25.565a11.739,11.739,0,1,0,0,23.478h140.87a3.913,3.913,0,0,1,0,7.826H25.565a19.565,19.565,0,1,1,0-39.131h140.87a3.913,3.913,0,1,1,0,7.826Z" transform="translate(3.826 44.957)"/><path class="b" d="M175.174,69H26.478a23.479,23.479,0,1,0,0,46.957h148.7a3.913,3.913,0,0,0,0-7.826H26.478a15.651,15.651,0,1,1,0-31.3l148.7,0a3.913,3.913,0,0,0,0-7.826Z" transform="translate(0.957 64.087)"/><path class="c" d="M20,77V92.652l9.783-3.913,9.783,3.913V77Z" transform="translate(17.217 71.739)"/><path class="c" d="M16,17H141.218V79.609H16Z" transform="translate(13.391 14.348)"/><path class="b" d="M92.826,25,85,56.3l7.826,7.826,7.826-7.826Z" transform="translate(79.392 22)"/><path class="c" d="M8,26.478,86.261,49.957l80.218-23.478L86.261,3Z" transform="translate(5.739 0.956)"/><path d="M53.739,12C48.085,12,42,13.835,42,17.87s6.085,5.87,11.739,5.87,11.739-1.84,11.739-5.87S59.394,12,53.739,12Zm0,7.826c-4.592,0-7.272-1.317-7.777-1.957.5-.64,3.185-1.957,7.777-1.957s7.272,1.317,7.777,1.957C61.012,18.509,58.331,19.826,53.739,19.826Z" transform="translate(38.261 9.565)"/><path d="M176.131,170.261V148.739a1.957,1.957,0,1,0-3.913,0v21.522H27.435a13.7,13.7,0,1,1,0-27.391h148.7a5.87,5.87,0,1,0,0-11.74h-.36a5.8,5.8,0,0,0,.36-1.957,5.877,5.877,0,0,0-5.87-5.87V103.739a5.87,5.87,0,1,0,0-11.74h-13.7V34.056l13.7-4.009V46.759L162.5,77.831a1.956,1.956,0,0,0,.515,1.857l7.826,7.826a1.956,1.956,0,0,0,2.767,0l7.826-7.826a1.951,1.951,0,0,0,.515-1.857L174.18,46.759V27.435a1.958,1.958,0,0,0-1.407-1.878L92.55,2.078a1.982,1.982,0,0,0-1.1,0L11.233,25.556a1.957,1.957,0,0,0,0,3.757L91.45,52.791a1.945,1.945,0,0,0,.55.078,2.018,2.018,0,0,0,.55-.078L152.65,35.2V80.261H131.131a1.957,1.957,0,0,0,0,3.913h21.522V92H31.348V41.13a1.957,1.957,0,1,0-3.913,0V92.1a21.508,21.508,0,0,0-8.17,40.4,25.421,25.421,0,0,0,8.17,49.5h148.7a5.87,5.87,0,1,0,0-11.74Zm-3.913-86.9-5.66-5.66,5.66-22.637,5.66,22.637ZM92,48.874,18.748,27.435,92,5.995l73.252,21.44Zm74.348,74.43H29.391a9.783,9.783,0,1,1,0-19.565H166.348ZM11.783,113.522A17.629,17.629,0,0,1,29.391,95.913h140.87a1.957,1.957,0,0,1,0,3.913H29.391a13.7,13.7,0,1,0,0,27.391h140.87a1.957,1.957,0,1,1,0,3.913H29.391a17.629,17.629,0,0,1-17.608-17.608Zm164.348,64.565H27.435a21.522,21.522,0,1,1,0-43.044h148.7a1.957,1.957,0,0,1,0,3.913H27.435a17.609,17.609,0,1,0,0,35.217h148.7a1.957,1.957,0,1,1,0,3.913Z"/><circle cx="1.957" cy="1.957" r="1.957" transform="translate(121.348 80.261)"/><circle cx="1.957" cy="1.957" r="1.957" transform="translate(113.522 80.261)"/><circle cx="1.957" cy="1.957" r="1.957" transform="translate(105.696 80.261)"/><circle cx="1.957" cy="1.957" r="1.957" transform="translate(52.87 115.478)"/><path d="M22.73,95.229a1.958,1.958,0,0,0,1.823.2L33.609,91.8l9.055,3.623a1.958,1.958,0,0,0,2.684-1.818v-13.7h3.913a1.957,1.957,0,0,0,0-3.913h-31.3a1.957,1.957,0,0,0,0,3.913H21.87v13.7a1.956,1.956,0,0,0,.86,1.624Zm18.7-4.508-7.1-2.841a1.946,1.946,0,0,0-1.454,0l-7.1,2.841V79.913H41.435Z" transform="translate(13.391 70.783)"/><path d="M74.174,79.957A1.956,1.956,0,0,0,72.217,78H38.957a1.957,1.957,0,0,0,0,3.913h33.26a1.956,1.956,0,0,0,1.957-1.956Z" transform="translate(33.478 72.696)"/><path d="M93.217,79.957A1.956,1.956,0,0,0,91.261,78h-31.3a1.957,1.957,0,0,0,0,3.913h31.3A1.956,1.956,0,0,0,93.217,79.957Z" transform="translate(53.566 72.696)"/><path d="M46.957,86.913H90A1.957,1.957,0,0,0,90,83H46.957a1.957,1.957,0,0,0,0,3.913Z" transform="translate(41.131 77.478)"/><path d="M74.957,86.913H96.478a1.957,1.957,0,0,0,0-3.913H74.957a1.957,1.957,0,0,0,0,3.913Z" transform="translate(67.913 77.478)"/><path d="M24.957,59.913H62.131a1.957,1.957,0,0,0,0-3.913H24.957a1.957,1.957,0,0,0,0,3.913Z" transform="translate(20.087 51.652)"/><path d="M47.957,59.913h31.3a1.957,1.957,0,0,0,0-3.913h-31.3a1.957,1.957,0,0,0,0,3.913Z" transform="translate(42.087 51.652)"/><path d="M73.087,60H33.957a1.957,1.957,0,1,0,0,3.913h39.13a1.957,1.957,0,0,0,0-3.913Z" transform="translate(28.696 55.478)"/><path d="M84.478,60H62.957a1.957,1.957,0,1,0,0,3.913H84.478a1.957,1.957,0,0,0,0-3.913Z" transform="translate(56.435 55.478)"/><path d="M71.957,59.913H93.478a1.957,1.957,0,0,0,0-3.913H71.957a1.957,1.957,0,0,0,0,3.913Z" transform="translate(65.044 51.652)"/><circle cx="1.957" cy="1.957" r="1.957" transform="translate(35.261 84.174)"/><circle cx="1.957" cy="1.957" r="1.957" transform="translate(35.261 76.348)"/><circle cx="1.957" cy="1.957" r="1.957" transform="translate(35.261 68.522)"/><circle cx="1.957" cy="1.957" r="1.957" transform="translate(43.087 84.174)"/><circle cx="1.957" cy="1.957" r="1.957" transform="translate(43.087 76.348)"/><circle cx="1.957" cy="1.957" r="1.957" transform="translate(50.913 84.174)"/><path d="M91.7,78H79.957a1.957,1.957,0,0,0,0,3.913H91.7A1.957,1.957,0,0,0,91.7,78Z" transform="translate(72.696 72.696)"/></g></svg>