<svg xmlns="http://www.w3.org/2000/svg" width="182" height="180" viewBox="0 0 182 180">
  <g id="African_writers" data-name="African writers" transform="translate(-0.001 -20.022)">
    <g id="XMLID_1170_" transform="translate(0.001 20.022)">
      <path id="XMLID_768_" d="M163.517,292.648l-13.84,14.85a9.482,9.482,0,0,1-14.076,0,11.237,11.237,0,0,1,0-15.1l9.752-10.463Z" transform="translate(-85.521 -182.043)" fill="#ffddcf"/>
      <path id="XMLID_1344_" d="M61.671,157.925l-13.84,14.85a9.482,9.482,0,0,1-14.076,0,11.237,11.237,0,0,1,0-15.1l9.752-10.463A62.357,62.357,0,0,1,89.115,126.94c23.714,0,45.516,13.962,56.771,36.358l10.491,20.874-14.183,57.583Z" transform="translate(-19.877 -86.163)" fill="#f15b12"/>
      <path id="XMLID_1313_" d="M373.98,343.777l-27.468-7.9a7.7,7.7,0,0,1-5.027-9.342l15.456-61.89a7.073,7.073,0,0,1,8.707-5.394l27.468,7.9a7.7,7.7,0,0,1,5.027,9.342l-15.456,61.89A7.073,7.073,0,0,1,373.98,343.777Z" transform="translate(-219.941 -167.852)" fill="#9a4319"/>
      <g id="XMLID_2768_" transform="translate(3.554 3.807)">
        <path id="XMLID_2775_" d="M0,0,32.422,1.141l4.342,123.432L4.342,123.432Z" transform="translate(101.564 0) rotate(45)" fill="#84a528"/>
        <path id="XMLID_2774_" d="M10,309.278,27.361,266.92l22.119,23.732Z" transform="translate(-10 -176.563)" fill="#84a528"/>
      </g>
      <path id="XMLID_1251_" d="M182.209,255.244l-21.535-23.106a10.836,10.836,0,0,0-16.087,0,12.843,12.843,0,0,0,0,17.26L166.122,272.5c7.79,19.485,25.651,32.117,45.412,32.117h1.826Z" transform="translate(-91.044 -149.028)" fill="#f15b12"/>
      <path id="XMLID_682_" d="M174.1,115.637l-27.468-7.9a10.149,10.149,0,0,0-9.949,2.61l-7.54-15A72.069,72.069,0,0,0,109.962,71.5l19.8-21.239a4.014,4.014,0,0,0,0-5.394L107.639,21.139a3.387,3.387,0,0,0-5.027,0L69.2,56.986a63.746,63.746,0,0,0-26.006,5.558A67.618,67.618,0,0,0,21.117,78.371L11.365,88.835a15.25,15.25,0,0,0,0,20.5,13.228,13.228,0,0,0,6.117,3.762L.3,155.009a4.021,4.021,0,0,0,.74,4.232,3.436,3.436,0,0,0,2.515,1.117,3.342,3.342,0,0,0,1.43-.323L44.06,141.6a14.691,14.691,0,0,0,3.508,6.573,12.882,12.882,0,0,0,19.1,0l3.87-4.153,1.55,1.663c8.138,19.649,25.828,32.593,45.728,33.663a12.045,12.045,0,0,0,1.357,7.056,10.726,10.726,0,0,0,6.475,5.331l27.468,7.9a9.963,9.963,0,0,0,2.757.391,10.835,10.835,0,0,0,10.3-8.482l3.494-13.991a3.85,3.85,0,0,0-2.514-4.671,3.536,3.536,0,0,0-4.353,2.7l-3.494,13.991a3.54,3.54,0,0,1-4.354,2.7l-27.468-7.9a3.576,3.576,0,0,1-2.158-1.777,4.033,4.033,0,0,1-.355-2.894l15.456-61.89a3.542,3.542,0,0,1,4.354-2.7l27.468,7.9a3.855,3.855,0,0,1,2.513,4.671l-3.68,14.738a3.85,3.85,0,0,0,2.514,4.671,3.537,3.537,0,0,0,4.353-2.7l3.68-14.738c1.522-6.094-1.861-12.38-7.541-14.013Zm-51.878-68.07-49.674,53.3-.4-.429a14.576,14.576,0,0,0-7.26-4.3l51.3-55.042ZM105.125,29.229l6.032,6.472L31.975,120.658l-6.032-6.472ZM16.392,103.937a7.224,7.224,0,0,1,0-9.709l9.752-10.464A59,59,0,0,1,61.623,65.116L25.44,103.937a6.1,6.1,0,0,1-9.048,0Zm5.686,16.889,14.768,15.845-26.36,12.437Zm20.958,11.7L37,126.052l10.03-10.762a16.285,16.285,0,0,0,4,7.8l.4.429ZM61.643,142.78a6.1,6.1,0,0,1-9.049,0,7.233,7.233,0,0,1,0-9.709l3.87-4.153,9.049,9.708Zm57.951,29c-18-.375-34.127-11.978-41.248-29.789a3.843,3.843,0,0,0-.753-1.193L56.057,117.695a8.839,8.839,0,0,1,0-11.866,7.45,7.45,0,0,1,11.059,0l21.535,23.106a3.387,3.387,0,0,0,5.027,0,4.014,4.014,0,0,0,0-5.394L77.57,106.258l27.3-29.292a64.412,64.412,0,0,1,18.009,22l9.952,19.8Z" transform="translate(-0.001 -20.022)"/>
    </g>
    <g id="XMLID_928_" transform="translate(166.828 156.17)">
      <path id="XMLID_273_" d="M472.875,384.631a3.469,3.469,0,0,1-2.517-1.118,4.026,4.026,0,0,1,0-5.4,3.4,3.4,0,0,1,5.03,0,4.016,4.016,0,0,1,0,5.4A3.467,3.467,0,0,1,472.875,384.631Z" transform="translate(-469.32 -377.003)"/>
    </g>
  </g>
</svg>
