<svg xmlns="http://www.w3.org/2000/svg" width="50" height="50" viewBox="0 0 50 50">
  <defs>
    <style>
      .cls-1 {
        fill: #f15b12;
      }

      .cls-2 {
        fill: #9a4319;
      }

      .cls-3 {
        fill: #84a528;
      }

      .cls-4 {
        fill: #02a9f4;
      }

      .cls-5 {
        fill: #0377bc;
      }
    </style>
  </defs>
  <g id="africanPodcastsIcon" transform="translate(10 0.002)">
    <g id="_031---Microphone" data-name="031---Microphone" transform="translate(-10 -0.002)">
      <path id="Shape" class="cls-1" d="M36.333,15.667v10H13v-10a11.667,11.667,0,0,1,23.334,0Z" transform="translate(0.334 -1.496)"/>
      <path id="Shape-2" data-name="Shape" class="cls-2" d="M35,7.417A11.668,11.668,0,0,0,26.75,4a12.3,12.3,0,0,0-1.25.067,11.667,11.667,0,0,1,10.417,11.6v10h2.5v-10A11.667,11.667,0,0,0,35,7.416Z" transform="translate(-1.75 -1.496)"/>
      <path id="Shape-3" data-name="Shape" class="cls-3" d="M18.667,56H32a1.667,1.667,0,0,1,1.667,1.667v1.667H17V57.667A1.667,1.667,0,0,1,18.667,56Z" transform="translate(-0.333 -10.167)"/>
      <path id="Shape-4" data-name="Shape" class="cls-3" d="M34.5,56H32a1.667,1.667,0,0,1,1.667,1.667v1.667h2.5V57.667A1.667,1.667,0,0,0,34.5,56Z" transform="translate(-2.833 -10.167)"/>
      <path id="Shape-5" data-name="Shape" class="cls-3" d="M28.334,52v3.333H25V52" transform="translate(-1.667 -9.5)"/>
      <path id="Shape-6" data-name="Shape" class="cls-3" d="M29.667,47.73v2.725a.833.833,0,0,1-.833.833h-5A.833.833,0,0,1,23,50.455V47.73a13.742,13.742,0,0,0,2.5.225h1.667a13.742,13.742,0,0,0,2.5-.225Z" transform="translate(-1.333 -8.788)"/>
      <path id="Shape-7" data-name="Shape" class="cls-4" d="M39,30.667a14.167,14.167,0,0,1-11.668,13.94,13.742,13.742,0,0,1-2.5.225H23.165a13.742,13.742,0,0,1-2.5-.225A14.167,14.167,0,0,1,9,30.667a1.667,1.667,0,0,1,3.334,0A10.834,10.834,0,0,0,23.168,41.5h1.667A10.834,10.834,0,0,0,35.669,30.667a1.667,1.667,0,0,1,3.334,0Z" transform="translate(1 -5.665)"/>
      <path id="Shape-8" data-name="Shape" class="cls-5" d="M40.083,29a1.667,1.667,0,0,0-1.25.575,1.667,1.667,0,0,1,.418,1.092A14.108,14.108,0,0,1,25.5,44.832h2.083a13.742,13.742,0,0,0,2.5-.225A14.167,14.167,0,0,0,41.75,30.667,1.667,1.667,0,0,0,40.083,29Z" transform="translate(-1.75 -5.665)"/>
      <path id="Shape-9" data-name="Shape" class="cls-1" d="M36.333,30v.833A10.834,10.834,0,0,1,25.5,41.667H23.834A10.834,10.834,0,0,1,13,30.833V30Z" transform="translate(0.334 -5.832)"/>
      <path id="Shape-10" data-name="Shape" class="cls-2" d="M35.917,30v.833A10.834,10.834,0,0,1,25.5,41.667h2.083A10.834,10.834,0,0,0,38.418,30.833V30Z" transform="translate(-1.75 -5.832)"/>
      <g id="Group_249" data-name="Group 249">
        <path id="Shape-11" data-name="Shape" class="cls-3" d="M51.916,16a.833.833,0,0,1-.833-.833A20.564,20.564,0,0,0,46.658,2.352a.837.837,0,0,1,1.317-1.033,22.247,22.247,0,0,1,4.775,13.849A.833.833,0,0,1,51.916,16Z" transform="translate(-2.749 -0.998)"/>
        <path id="Shape-12" data-name="Shape" class="cls-3" d="M.833,16A.833.833,0,0,1,0,15.167,22.221,22.221,0,0,1,4.783,1.318.834.834,0,0,1,6.092,2.351,20.6,20.6,0,0,0,1.666,15.167.833.833,0,0,1,.833,16Z" transform="translate(0 -0.997)"/>
        <path id="Shape-13" data-name="Shape" class="cls-3" d="M48.079,16.437a.833.833,0,0,1-.833-.833,17.323,17.323,0,0,0-3.582-10.6A.833.833,0,1,1,44.98,3.989,18.964,18.964,0,0,1,48.912,15.6a.833.833,0,0,1-.833.833Z" transform="translate(-2.246 -1.435)"/>
        <path id="Shape-14" data-name="Shape" class="cls-3" d="M4.833,16.453A.833.833,0,0,1,4,15.62,18.939,18.939,0,0,1,7.933,4.013.833.833,0,0,1,9.25,5.029,17.323,17.323,0,0,0,5.667,15.62a.833.833,0,0,1-.833.833Z" transform="translate(-0.666 -1.451)"/>
        <path id="Shape-15" data-name="Shape" class="cls-3" d="M44.212,16.84a.833.833,0,0,1-.833-.833,13.956,13.956,0,0,0-2.9-8.574A.833.833,0,1,1,41.8,6.416a15.648,15.648,0,0,1,3.25,9.591.833.833,0,0,1-.833.833Z" transform="translate(-1.712 -1.838)"/>
        <path id="Shape-16" data-name="Shape" class="cls-3" d="M8.833,16.848A.833.833,0,0,1,8,16.014a15.739,15.739,0,0,1,3.242-9.591A.838.838,0,0,1,12.575,7.44a14.04,14.04,0,0,0-2.908,8.574.833.833,0,0,1-.833.833Z" transform="translate(-1.333 -1.845)"/>
      </g>
      <path id="Shape-17" data-name="Shape" d="M37.166,23.832a2.5,2.5,0,0,0-.833.15V15.5a12.5,12.5,0,0,0-25,0v8.481A2.5,2.5,0,0,0,8,26.331,15,15,0,0,0,19.668,40.947V43a1.667,1.667,0,0,0,1.667,1.667V46.33H17.167a2.5,2.5,0,0,0-2.5,2.5V50.5a.833.833,0,0,0,.833.833H32.166A.833.833,0,0,0,33,50.5V48.83a2.5,2.5,0,0,0-2.5-2.5H26.332V44.663A1.667,1.667,0,0,0,28,43v-2.05A15,15,0,0,0,39.667,26.331a2.5,2.5,0,0,0-2.5-2.5ZM23.833,4.667a10.834,10.834,0,0,1,10,6.667h-7.5a.833.833,0,1,0,0,1.667h8.033a11.015,11.015,0,0,1,.3,1.667H26.332a.833.833,0,1,0,0,1.667h8.334V18H26.332a.833.833,0,1,0,0,1.667h8.334v1.667H26.332a.833.833,0,1,0,0,1.667h8.334v1.667H13V23h4.167a.833.833,0,1,0,0-1.667H13V19.667h4.167a.833.833,0,1,0,0-1.667H13V16.333h4.167a.833.833,0,1,0,0-1.667H13.042A11.015,11.015,0,0,1,13.3,13h3.868a.833.833,0,1,0,0-1.667H13.834a10.834,10.834,0,0,1,10-6.667ZM34.667,26.331a10,10,0,0,1-10,10H23a10,10,0,0,1-10-10Zm-3.334,22.5v.833h-15v-.833A.833.833,0,0,1,17.167,48H30.5a.833.833,0,0,1,.831.833Zm-6.667-2.5H23V44.662h1.667ZM26.333,43h-5V41.229a13.767,13.767,0,0,0,1.667.1h1.667a13.766,13.766,0,0,0,1.667-.1Zm-1.667-3.333H23A13.334,13.334,0,0,1,9.665,26.329a.833.833,0,0,1,1.667,0A11.667,11.667,0,0,0,23,38h1.667A11.667,11.667,0,0,0,36.334,26.329a.833.833,0,0,1,1.667,0A13.334,13.334,0,0,1,24.665,39.663Z" transform="translate(1.167 -1.33)"/>
      <path id="Shape-18" data-name="Shape" d="M22.833,18.667h.833a.833.833,0,1,0,0-1.667h-.833a.833.833,0,1,0,0,1.667Z" transform="translate(-1.167 -3.664)"/>
      <path id="Shape-19" data-name="Shape" d="M22.833,22.667h.833a.833.833,0,1,0,0-1.667h-.833a.833.833,0,1,0,0,1.667Z" transform="translate(-1.167 -4.331)"/>
      <path id="Shape-20" data-name="Shape" d="M22.833,14.667h.833a.833.833,0,1,0,0-1.667h-.833a.833.833,0,1,0,0,1.667Z" transform="translate(-1.167 -2.997)"/>
      <path id="Shape-21" data-name="Shape" d="M22.833,26.667h.833a.833.833,0,1,0,0-1.667h-.833a.833.833,0,1,0,0,1.667Z" transform="translate(-1.167 -4.998)"/>
    </g>
  </g>
</svg>
