<svg xmlns="http://www.w3.org/2000/svg" width="180.001" height="161.015" viewBox="0 0 180.001 161.015"><defs><style>.a{fill:#cd5014;}.b{fill:#9a4319;}.c{fill:#ff9155;}.d{fill:#f15b12;}.e{fill:#f6c900;}</style></defs><g transform="translate(0 -27.001)"><path class="a" d="M378.887,282.789l-7.153,28.92,22.777,38.654h23.02Z" transform="translate(-241.047 -165.863)"/><path class="b" d="M358.541,311.709l7.153-28.92L351.388,299.57Z" transform="translate(-227.854 -165.863)"/><path class="a" d="M84.823,359.5l16.584-62.623L145,359.5Z" transform="translate(-55.003 -174.996)"/><g transform="translate(3.515 83.04)"><path class="b" d="M36.3,359.5l16.584-62.623L10,351.11Z" transform="translate(-10 -258.036)"/><path class="c" d="M233.082,186.4l-18.1,80.746L229.4,287.86h63.465Z" transform="translate(-142.919 -186.402)"/><path class="c" d="M233.082,186.4l-18.1,80.746L229.4,287.86h63.465Z" transform="translate(-142.919 -186.402)"/><path class="b" d="M199.279,186.4l-36.426,54.421,18.327,26.325Z" transform="translate(-109.116 -186.402)"/></g><path class="d" d="M233.082,186.4l-18.1,80.746L229.4,287.86h63.465Z" transform="translate(-139.403 -103.362)"/><circle class="e" cx="12.604" cy="12.604" r="12.604" transform="translate(132.37 49.424)"/><path d="M55.076,382.972a3.517,3.517,0,1,0-2.486-1.03A3.517,3.517,0,0,0,55.076,382.972Z" transform="translate(-33.434 -226.266)"/><path d="M140.893,212.058a3.515,3.515,0,0,0-5.727-.535L124.059,224.55,96.708,178.133a3.505,3.505,0,0,0-5.7-.49,1.218,1.218,0,0,0-.249.319L57.2,228.1l-7.906-11.357a3.516,3.516,0,0,0-5.643-.172L26.838,237.829a3.516,3.516,0,1,0,5.515,4.361l6.326-8L27.368,276.906,9.426,271.185l5.421-6.855a3.516,3.516,0,1,0-5.515-4.361L.758,270.81a3.515,3.515,0,0,0,1.69,5.53l26.3,8.387a3.517,3.517,0,0,0,1.068.166H176.484a3.515,3.515,0,0,0,3.052-5.26Zm-10.042,15.363-1.508,6.1-1.508-2.559ZM86.132,197.513,73.9,252.1,61.509,234.3ZM61.471,246.551h-8.62a3.516,3.516,0,1,0,0,7.031H66.366l16.9,24.28H34.388l1.769-6.68H47.93a3.516,3.516,0,1,0,0-7.031H38.02L47.859,227Zm30.365,31.311L79.348,259.924l2.415-10.773H94.877a3.516,3.516,0,1,0,0-7.031H83.339l4.47-19.943a3.518,3.518,0,0,0,.794.094h11.592a3.516,3.516,0,1,0,0-7.032H89.364l5.8-25.876,21.557,36.585H103.945a3.516,3.516,0,1,0,0,7.032h16.92l10.772,18.281h-9.176a3.516,3.516,0,1,0,0,7.032h13.32l11.531,19.571Zm63.638,0-21.029-35.687,4.7-19.007,31.277,54.7Z" transform="translate(0 -96.877)"/><path d="M303.846,396.362a3.517,3.517,0,1,0-2.486-1.03,3.517,3.517,0,0,0,2.486,1.03Z" transform="translate(-194.746 -234.948)"/><path d="M291.793,426H281.642a3.516,3.516,0,1,0,0,7.031h10.151a3.516,3.516,0,1,0,0-7.031Z" transform="translate(-180.348 -258.727)"/><path d="M170.806,444.032h5.076a3.516,3.516,0,1,0,0-7.031h-5.076a3.516,3.516,0,1,0,0,7.031Z" transform="translate(-108.477 -265.86)"/><path d="M382.642,113.015A16.119,16.119,0,1,0,366.523,96.9,16.119,16.119,0,0,0,382.642,113.015Zm0-25.208a9.088,9.088,0,1,1-9.088,9.088A9.088,9.088,0,0,1,382.642,87.807Z" transform="translate(-237.668 -34.87)"/><path d="M475.81,120.143a3.516,3.516,0,0,0,3.516,3.516h5.692a3.516,3.516,0,1,0,0-7.031h-5.692A3.516,3.516,0,0,0,475.81,120.143Z" transform="translate(-308.533 -58.117)"/><path d="M316.264,123.658h5.692a3.516,3.516,0,1,0,0-7.032h-5.692a3.516,3.516,0,1,0,0,7.031Z" transform="translate(-202.798 -58.117)"/><path d="M402.374,193.579v5.692a3.516,3.516,0,1,0,7.032,0v-5.692a3.516,3.516,0,1,0-7.031,0Z" transform="translate(-260.915 -105.736)"/><path d="M405.89,39.724a3.516,3.516,0,0,0,3.516-3.516V30.517a3.516,3.516,0,1,0-7.031,0v5.692A3.516,3.516,0,0,0,405.89,39.724Z" transform="translate(-260.915)"/><path d="M455.331,169.584a3.516,3.516,0,0,0,0,4.972l4.025,4.025a3.516,3.516,0,1,0,4.972-4.972l-4.025-4.025a3.516,3.516,0,0,0-4.972,0Z" transform="translate(-294.586 -91.789)"/><path d="M344.053,63.279a3.516,3.516,0,1,0,4.972-4.972L345,54.282a3.516,3.516,0,1,0-4.972,4.972Z" transform="translate(-219.82 -17.023)"/><path d="M344.054,169.584l-4.025,4.025A3.516,3.516,0,1,0,345,178.581l4.025-4.025a3.516,3.516,0,1,0-4.972-4.972Z" transform="translate(-219.82 -91.789)"/><path d="M457.817,64.308a3.505,3.505,0,0,0,2.486-1.03l4.025-4.025a3.516,3.516,0,1,0-4.972-4.972l-4.024,4.025a3.515,3.515,0,0,0,2.486,6Z" transform="translate(-294.586 -17.022)"/></g></svg>