<svg xmlns="http://www.w3.org/2000/svg" width="180" height="139.866" viewBox="0 0 180 139.866">
  <g id="African_documentaries" data-name="African documentaries" transform="translate(-2 -30.094)">
    <path id="Path_4673" data-name="Path 4673" d="M4,32.094H181.143V169.1H4Z" transform="translate(-0.571 -0.571)" fill="#77981c"/>
    <path id="Path_4674" data-name="Path 4674" d="M4,32.094H29V169.1H4Z" transform="translate(-0.571 -0.571)" fill="#cd5014"/>
    <path id="Path_4675" data-name="Path 4675" d="M217,32.094h25V169.1H217Z" transform="translate(-61.429 -0.571)" fill="#cd5014"/>
    <path id="Path_4676" data-name="Path 4676" d="M207,32.094h7.143V169.1H207Z" transform="translate(-58.571 -0.571)" fill="#9a4319"/>
    <path id="Path_4677" data-name="Path 4677" d="M39,32.094h7.143V169.1H39Z" transform="translate(-10.571 -0.571)" fill="#9a4319"/>
    <g id="Group_274" data-name="Group 274" transform="translate(10.214 42.884)">
      <path id="Path_4678" data-name="Path 4678" d="M13.5,48H24.929V59.429H13.5Z" transform="translate(-13.5 -48)" fill="#e8f1cd"/>
      <path id="Path_4679" data-name="Path 4679" d="M13.5,96H24.929v11.429H13.5Z" transform="translate(-13.5 -61.714)" fill="#e8f1cd"/>
      <path id="Path_4680" data-name="Path 4680" d="M13.5,144H24.929v11.429H13.5Z" transform="translate(-13.5 -75.429)" fill="#e8f1cd"/>
      <path id="Path_4681" data-name="Path 4681" d="M13.5,192H24.929v11.429H13.5Z" transform="translate(-13.5 -89.143)" fill="#e8f1cd"/>
      <path id="Path_4682" data-name="Path 4682" d="M226.5,48h11.429V59.429H226.5Z" transform="translate(-74.357 -48)" fill="#e8f1cd"/>
      <path id="Path_4683" data-name="Path 4683" d="M226.5,96h11.429v11.429H226.5Z" transform="translate(-74.357 -61.714)" fill="#e8f1cd"/>
      <path id="Path_4684" data-name="Path 4684" d="M226.5,144h11.429v11.429H226.5Z" transform="translate(-74.357 -75.429)" fill="#e8f1cd"/>
      <path id="Path_4685" data-name="Path 4685" d="M226.5,192h11.429v11.429H226.5Z" transform="translate(-74.357 -89.143)" fill="#e8f1cd"/>
    </g>
    <path id="Path_4686" data-name="Path 4686" d="M180.571,169.96H3.429A1.429,1.429,0,0,1,2,168.531V31.523a1.429,1.429,0,0,1,1.429-1.429H180.571A1.429,1.429,0,0,1,182,31.523V168.531A1.429,1.429,0,0,1,180.571,169.96ZM4.857,167.1H179.143V32.951H4.857Z" fill="#690589"/>
    <path id="Path_4687" data-name="Path 4687" d="M48.429,52.012A1.429,1.429,0,0,1,47,50.583V42.012a1.429,1.429,0,1,1,2.857,0v8.571A1.429,1.429,0,0,1,48.429,52.012Z" transform="translate(-12.857 -2.997)" fill="#e8f1cd"/>
    <path id="Path_4688" data-name="Path 4688" d="M128,171.522h43.312v12.225H128Z" transform="translate(-36 -40.408)" fill="#84a528"/>
    <path id="Path_4689" data-name="Path 4689" d="M170.741,184.6H127.429A1.429,1.429,0,0,1,126,183.176V170.951a1.429,1.429,0,0,1,1.429-1.429h43.312a1.429,1.429,0,0,1,1.429,1.429v12.225A1.429,1.429,0,0,1,170.741,184.6Zm-41.884-2.857h40.455v-9.368H128.857Z" transform="translate(-35.429 -39.837)" fill="#690589"/>
    <circle id="Ellipse_40" data-name="Ellipse 40" cx="43.312" cy="43.312" r="43.312" transform="translate(48.688 56.715)" fill="#f15b12"/>
    <circle id="Ellipse_41" data-name="Ellipse 41" cx="10.479" cy="10.479" r="10.479" transform="translate(79.301 133.363) rotate(-76.7)" fill="#cd5014"/>
    <circle id="Ellipse_42" data-name="Ellipse 42" cx="10.479" cy="10.479" r="10.479" transform="matrix(0.16, -0.987, 0.987, 0.16, 79.958, 83.19)" fill="#cd5014"/>
    <circle id="Ellipse_43" data-name="Ellipse 43" cx="10.479" cy="10.479" r="10.479" transform="matrix(0.994, -0.113, 0.113, 0.994, 102.35, 103.468)" fill="#cd5014"/>
    <circle id="Ellipse_44" data-name="Ellipse 44" cx="10.479" cy="10.479" r="10.479" transform="matrix(0.968, -0.251, 0.251, 0.968, 57.259, 79.853)" fill="#cd5014"/>
    <circle id="Ellipse_45" data-name="Ellipse 45" cx="10.479" cy="10.479" r="10.479" transform="matrix(0.251, -0.968, 0.968, 0.251, 57.251, 120.215)" fill="#cd5014"/>
    <circle id="Ellipse_46" data-name="Ellipse 46" cx="10.479" cy="10.479" r="10.479" transform="translate(101.849 78.869) rotate(-9.726)" fill="#cd5014"/>
    <circle id="Ellipse_47" data-name="Ellipse 47" cx="4.89" cy="4.89" r="4.89" transform="translate(87.11 95.137)" fill="#77981c"/>
    <path id="Path_4690" data-name="Path 4690" d="M110.1,154.844A44.741,44.741,0,1,1,154.844,110.1,44.792,44.792,0,0,1,110.1,154.844Zm0-86.624A41.884,41.884,0,1,0,151.987,110.1,41.932,41.932,0,0,0,110.1,68.22Z" transform="translate(-18.104 -10.077)" fill="#690589"/>
    <path id="Path_4691" data-name="Path 4691" d="M125.473,131.791a6.319,6.319,0,1,1,6.319-6.319,6.325,6.325,0,0,1-6.319,6.319Zm0-9.78a3.461,3.461,0,1,0,3.461,3.461,3.465,3.465,0,0,0-3.461-3.461Z" transform="translate(-33.473 -25.446)" fill="#690589"/>
    <path id="Path_4692" data-name="Path 4692" d="M123.115,170.842a11.907,11.907,0,1,1,11.907-11.907,11.921,11.921,0,0,1-11.907,11.907Zm0-20.958a9.05,9.05,0,1,0,9.05,9.05,9.061,9.061,0,0,0-9.05-9.05Z" transform="translate(-31.202 -33.41)" fill="#690589"/>
    <path id="Path_4693" data-name="Path 4693" d="M123.237,99.447A11.907,11.907,0,1,1,135.144,87.54,11.921,11.921,0,0,1,123.237,99.447Zm0-20.958a9.05,9.05,0,1,0,9.05,9.05A9.06,9.06,0,0,0,123.237,78.489Z" transform="translate(-31.237 -13.011)" fill="#690589"/>
    <path id="Path_4694" data-name="Path 4694" d="M153.885,152.823a11.944,11.944,0,1,1,3-.385,12,12,0,0,1-3,.385Zm.035-20.966a9.062,9.062,0,1,0,4.577,1.256,9.069,9.069,0,0,0-4.577-1.256Z" transform="translate(-39.998 -28.258)" fill="#690589"/>
    <path id="Path_4695" data-name="Path 4695" d="M92.423,117.472a11.944,11.944,0,1,1,3-.385A11.97,11.97,0,0,1,92.423,117.472Zm.035-20.966a9.062,9.062,0,1,0,4.577,1.256,9.07,9.07,0,0,0-4.577-1.256Z" transform="translate(-22.437 -18.158)" fill="#690589"/>
    <path id="Path_4696" data-name="Path 4696" d="M92.463,152.823a12,12,0,0,1-3-.385,11.839,11.839,0,1,1,3,.385Zm-4.612-19.711a9.05,9.05,0,1,0,6.86-.963,8.991,8.991,0,0,0-6.86.963Z" transform="translate(-22.437 -28.258)" fill="#690589"/>
    <path id="Path_4697" data-name="Path 4697" d="M153.925,117.472a12,12,0,0,1-3-.385,11.839,11.839,0,1,1,3,.385Zm-4.612-19.711a9.05,9.05,0,1,0,6.86-.963A8.991,8.991,0,0,0,149.313,97.761Z" transform="translate(-39.998 -18.158)" fill="#690589"/>
  </g>
</svg>
