<svg xmlns="http://www.w3.org/2000/svg" width="179.986" height="179.999" viewBox="0 0 179.986 179.999"><defs><style>.a{fill:#f15b12;}.b{fill:#9a4319;}.c{fill:#84a528;}.d{fill:#02a9f4;}.e{fill:#0377bc;}</style></defs><g transform="translate(10 0.002)"><g transform="translate(-10 -0.006)"><path class="a" d="M96.992,46V82H13V46a42,42,0,1,1,84,0Z" transform="translate(34.997 5.017)"/><path class="b" d="M59.7,16.3A42,42,0,0,0,30,4a44.275,44.275,0,0,0-4.5.24A42,42,0,0,1,63,46V82h9V46A42,42,0,0,0,59.7,16.3Z" transform="translate(59.993 5.017)"/><path class="c" d="M23,56H71a6,6,0,0,1,6,6v6H17V62a6,6,0,0,1,6-6Z" transform="translate(42.995 109.002)"/><path class="c" d="M41,56H32a6,6,0,0,1,6,6v6h9V62a6,6,0,0,0-6-6Z" transform="translate(72.991 109.002)"/><path class="c" d="M37,52V64H25V52" transform="translate(58.993 101.003)"/><path class="c" d="M47,47.73v9.809a3,3,0,0,1-3,3H26a3,3,0,0,1-3-3V47.73a49.464,49.464,0,0,0,9,.81h6a49.464,49.464,0,0,0,9-.81Z" transform="translate(54.994 92.464)"/><path class="d" d="M116.989,35a51,51,0,0,1-42,50.185,49.464,49.464,0,0,1-9,.81h-6a49.464,49.464,0,0,1-9-.81A51,51,0,0,1,9,35a6,6,0,1,1,12,0A39,39,0,0,0,60,74h6a39,39,0,0,0,39-39,6,6,0,0,1,12,0Z" transform="translate(26.998 55.01)"/><path class="e" d="M78,29a6,6,0,0,0-4.5,2.07A6,6,0,0,1,75,35,50.785,50.785,0,0,1,25.5,85.994H33a49.465,49.465,0,0,0,9-.81A51,51,0,0,0,83.994,35a6,6,0,0,0-6-6Z" transform="translate(59.993 55.01)"/><path class="a" d="M96.992,30v3A39,39,0,0,1,58,72H52A39,39,0,0,1,13,33V30Z" transform="translate(34.997 57.009)"/><path class="b" d="M63,30v3A39,39,0,0,1,25.5,72H33A39,39,0,0,0,72,33V30Z" transform="translate(59.993 57.009)"/><path class="c" d="M66.05,55.007a3,3,0,0,1-3-3A74.032,74.032,0,0,0,47.122,5.871a3.013,3.013,0,0,1,4.74-3.72A80.092,80.092,0,0,1,69.05,52.007,3,3,0,0,1,66.05,55.007Z" transform="translate(110.935 -0.994)"/><path class="c" d="M3,55a3,3,0,0,1-3-3A80,80,0,0,1,17.219,2.142a3,3,0,0,1,4.71,3.72A74.153,74.153,0,0,0,6,52a3,3,0,0,1-3,3Z" transform="translate(0 -0.984)"/><path class="c" d="M60.094,49.753a3,3,0,0,1-3-3A62.364,62.364,0,0,0,44.2,8.6a3,3,0,1,1,4.74-3.66A68.273,68.273,0,0,1,63.093,46.753a3,3,0,0,1-3,3Z" transform="translate(104.892 4.26)"/><path class="c" d="M7,49.538a3,3,0,0,1-3-3A68.183,68.183,0,0,1,18.159,4.752a3,3,0,0,1,4.74,3.66A62.364,62.364,0,0,0,10,46.538a3,3,0,0,1-3,3Z" transform="translate(7.999 4.475)"/><path class="c" d="M54.454,44.894a3,3,0,0,1-3-3A50.245,50.245,0,0,0,41.015,11.027a3,3,0,1,1,4.74-3.66,56.334,56.334,0,0,1,11.7,34.527,3,3,0,0,1-3,3Z" transform="translate(98.533 9.119)"/><path class="c" d="M11,44.808a3,3,0,0,1-3-3A56.664,56.664,0,0,1,19.669,7.282a3.018,3.018,0,0,1,4.8,3.66A50.545,50.545,0,0,0,14,41.809a3,3,0,0,1-3,3Z" transform="translate(15.998 9.204)"/><path d="M112.99,77.993a9,9,0,0,0-3,.54V48A45,45,0,1,0,20,48l0,30.532a9,9,0,0,0-12,8.46,54,54,0,0,0,42,52.615v7.379a6,6,0,0,0,6,6v6H41a9,9,0,0,0-9,9v6a3,3,0,0,0,3,3H94.991a3,3,0,0,0,3-3v-6a9,9,0,0,0-9-9h-15v-6a6,6,0,0,0,6-6v-7.379a54,54,0,0,0,42-52.615,9,9,0,0,0-9-9ZM64.994,9a39,39,0,0,1,36,24h-27a3,3,0,0,0,0,6h28.917a39.657,39.657,0,0,1,1.08,6h-30a3,3,0,0,0,0,6h30v6h-30a3,3,0,0,0,0,6h30v6h-30a3,3,0,0,0,0,6h30v6H26V75H41a3,3,0,0,0,0-6H26V63H41a3,3,0,0,0,0-6H26V51H41a3,3,0,0,0,0-6H26.148a39.656,39.656,0,0,1,.93-6H41a3,3,0,0,0,0-6H29A39,39,0,0,1,64.994,9Zm39,77.992a36,36,0,0,1-36,36h-6a36,36,0,0,1-36-36Zm-12,80.992v3H38v-3a3,3,0,0,1,3-3H89a3,3,0,0,1,2.992,3Zm-24-9h-6v-6h6Zm6-12H56v-6.359a49.555,49.555,0,0,0,6,.36h6a49.552,49.552,0,0,0,6-.36Zm-6-12h-6a48,48,0,0,1-48-48,3,3,0,1,1,6,0,42,42,0,0,0,42,42h6a42,42,0,0,0,42-42,3,3,0,0,1,6,0,48,48,0,0,1-48,48Z" transform="translate(24.998 3.017)"/><path d="M25,23h3a3,3,0,1,0,0-6H25a3,3,0,0,0,0,6Z" transform="translate(52.994 31.013)"/><path d="M25,27h3a3,3,0,1,0,0-6H25a3,3,0,0,0,0,6Z" transform="translate(52.994 39.012)"/><path d="M25,19h3a3,3,0,1,0,0-6H25a3,3,0,0,0,0,6Z" transform="translate(52.994 23.014)"/><path d="M25,31h3a3,3,0,1,0,0-6H25a3,3,0,0,0,0,6Z" transform="translate(52.994 47.011)"/></g></g></svg>