<svg xmlns="http://www.w3.org/2000/svg" width="180.006" height="180" viewBox="0 0 180.006 180">
  <g id="African_poets" data-name="African poets" transform="translate(0 0)">
    <g id="_018---Poem" data-name="018---Poem" transform="translate(0 0)">
      <path id="Shape" d="M127,139H19A18,18,0,1,1,1,157V19A18,18,0,1,1,19,37H81.1C60.49,60.13,68.17,81.43,71.23,87.82a100.37,100.37,0,0,1,8.4-12.12,80.514,80.514,0,0,0-5.22,16.35c9.6,8.01,33.57,7.14,45.57-16.14A33.705,33.705,0,0,1,127,66.58Z" transform="translate(2 2)" fill="#cd5014"/>
      <path id="Shape-2" data-name="Shape" d="M41.98,32.19c-.624,1.2-1.3,2.319-1.98,3.411V95.28h9V22.86a33.705,33.705,0,0,0-7.02,9.33Z" transform="translate(80 45.72)" fill="#9a4319"/>
      <path id="Shape-3" data-name="Shape" d="M133,19a13.215,13.215,0,0,1-.09,1.56c-20.7-.66-41.64-6.09-60.93,13.32-1.02,1.05-2.01,2.07-2.88,3.12H7A18,18,0,1,0,7,1H115A18,18,0,0,1,133,19Z" transform="translate(14 2)" fill="#dc7e50"/>
      <path id="Shape-4" data-name="Shape" d="M49,1H40A18,18,0,0,1,58,19c0,.369-.033.714-.063,1.065,3,.2,5.985.4,8.973.495A13.215,13.215,0,0,0,67,19,18,18,0,0,0,49,1Z" transform="translate(80 2)" fill="#9a4319"/>
      <path id="Shape-5" data-name="Shape" d="M133,65a18,18,0,0,1-18,18H7A18,18,0,0,0,7,47H115A18,18,0,0,1,133,65Z" transform="translate(14 94)" fill="#dc7e50"/>
      <path id="Shape-6" data-name="Shape" d="M49,47H40a18,18,0,0,1,0,36h9a18,18,0,0,0,0-36Z" transform="translate(80 94)" fill="#9a4319"/>
      <path id="Shape-7" data-name="Shape" d="M41.39,25.9a80.514,80.514,0,0,0-5.22,16.35A107.838,107.838,0,0,0,33.8,61.18L20.12,71.2A102.522,102.522,0,0,1,32.99,38.02,100.37,100.37,0,0,1,41.39,25.9Z" transform="translate(40.24 51.8)" fill="#3e4b17"/>
      <path id="Shape-8" data-name="Shape" d="M130.82,5.53s-2.07,33.06-21.24,39.21c-9.42,3.03-19.29,5.79-26.76,12.78a33.705,33.705,0,0,0-7.02,9.33C63.8,90.13,39.83,91,30.23,82.99a80.514,80.514,0,0,1,5.22-16.35,100.369,100.369,0,0,0-8.4,12.12c-3.06-6.39-10.74-27.69,9.87-50.82.87-1.05,1.86-2.07,2.88-3.12C59.09,5.41,80.03,10.84,100.73,11.5a55.725,55.725,0,0,0,30.09-5.97Z" transform="translate(46.18 11.06)" fill="#8ba641"/>
      <path id="Shape-9" data-name="Shape" d="M109.936,9.394c-1.218,8.9-5.7,30.495-20.82,35.346-9.42,3.03-19.29,5.79-26.76,12.78a33.705,33.705,0,0,0-7.02,9.33A36,36,0,0,1,28.822,87.193c11.307,1.785,26.661-3.168,35.514-20.343a33.705,33.705,0,0,1,7.02-9.33c7.47-6.99,17.34-9.75,26.76-12.78,19.17-6.15,21.24-39.21,21.24-39.21a44.82,44.82,0,0,1-9.42,3.864Z" transform="translate(57.644 11.06)" fill="#77981c"/>
      <g id="Group_260" data-name="Group 260">
        <path id="Shape-10" data-name="Shape" d="M178.6,14.052a3,3,0,0,0-3.057-.084,49.857,49.857,0,0,1-25.611,5.655A21,21,0,0,0,129,0H21A21.024,21.024,0,0,0,0,21V159a21.024,21.024,0,0,0,21,21H129a21,21,0,0,0,3-41.76V69.9c6.258-5.373,14.238-7.914,22.536-10.557l2.142-.684C177.555,51.957,179.9,18.21,180,16.776a3,3,0,0,0-1.4-2.724ZM129,6a14.967,14.967,0,0,1,14.841,13.431c-2.235-.117-4.5-.27-6.762-.429a111.342,111.342,0,0,0-25.278.216,1.016,1.016,0,0,0-.213.033A48.768,48.768,0,0,0,83.853,33.765c-.741.747-1.446,1.5-2.133,2.235H35.7a20.973,20.973,0,0,0,0-30ZM6,159V21A15,15,0,1,1,21,36a3,3,0,0,0,0,6H76.776C61.3,63.03,66.642,82.107,69.858,89.64A109.091,109.091,0,0,0,57.879,120H27a3,3,0,0,0,0,6H60.351a3,3,0,0,0,1.773-.579L75.816,115.4a3,3,0,0,0,1.23-2.4,102.036,102.036,0,0,1,1.5-14.1,28.254,28.254,0,0,0,12.363,2.7,34.146,34.146,0,0,0,6.741-.681A37.53,37.53,0,0,0,119.8,86.844c.057-.057.087-.132.141-.192a47.875,47.875,0,0,0,4.728-7.389c.426-.831.879-1.617,1.35-2.373V138H21a3,3,0,0,0,0,6A15,15,0,1,1,6,159ZM72.795,96.777A110.379,110.379,0,0,0,71.1,111.42l-5.916,4.329A107.307,107.307,0,0,1,72.795,96.777ZM144,159a15.018,15.018,0,0,1-15,15H35.7a20.973,20.973,0,0,0,0-30H129A15.018,15.018,0,0,1,144,159ZM154.839,52.944l-2.124.681a95.433,95.433,0,0,0-17.7,7,11.1,11.1,0,0,1-6.9-2.751,3,3,0,1,0-4.242,4.248,14.4,14.4,0,0,0,4.548,3,36.261,36.261,0,0,0-9.114,11.418,42.362,42.362,0,0,1-3.177,5.205,37.455,37.455,0,0,1-15.795-3.426,3,3,0,1,0-2.682,5.37,39.936,39.936,0,0,0,13.479,3.738,31.014,31.014,0,0,1-14.7,7.632,23.628,23.628,0,0,1-16.653-2.28,77.4,77.4,0,0,1,4.422-13.5C107.352,50.7,124.164,44.067,153,40.068a3,3,0,1,0-.825-5.943c-29.919,4.152-48.453,11.439-72.822,41.631-.03.033-.054.066-.081.1-1.959,2.43-3.72,4.869-5.355,7.3a41.55,41.55,0,0,1,6.459-35.817,30.474,30.474,0,0,0,.726,4.4,3,3,0,1,0,5.82-1.476A27.789,27.789,0,0,1,86.493,39.7c.528-.567,1.062-1.134,1.626-1.7A43.563,43.563,0,0,1,106.653,26.55,27.762,27.762,0,0,0,105,36a3,3,0,0,0,6,0,20.8,20.8,0,0,1,3.036-11.049,82.845,82.845,0,0,1,15.072-.42,20.767,20.767,0,0,0-2.808,4.137,3,3,0,0,0,1.356,4.02A2.967,2.967,0,0,0,129,33a3,3,0,0,0,2.7-1.668,17.79,17.79,0,0,1,5.586-6.3c11.871.816,24.078,1.563,36.087-3.366-1.452,9.1-5.88,27.234-18.534,31.278Z" transform="translate(0 0)"/>
        <path id="Shape-11" data-name="Shape" d="M11,41H35a3,3,0,0,0,0-6H11a3,3,0,0,0,0,6Z" transform="translate(16 70)"/>
        <path id="Shape-12" data-name="Shape" d="M11,36H41a3,3,0,0,0,0-6H11a3,3,0,0,0,0,6Z" transform="translate(16 60)"/>
        <path id="Shape-13" data-name="Shape" d="M11,31H41a3,3,0,0,0,0-6H11a3,3,0,0,0,0,6Z" transform="translate(16 50)"/>
        <path id="Shape-14" data-name="Shape" d="M11,26H41a3,3,0,0,0,0-6H11a3,3,0,0,0,0,6Z" transform="translate(16 40)"/>
      </g>
    </g>
  </g>
</svg>
