<svg xmlns="http://www.w3.org/2000/svg" width="181.995" height="180" viewBox="0 0 181.995 180"><defs><style>.a{fill:#ffddcf;}.b{fill:#f15b12;}.c{fill:#9a4319;}.d{fill:#84a528;}</style></defs><g transform="translate(0.003 -20.022)"><g transform="translate(-0.003 20.022)"><path class="a" d="M163.517,292.648l-13.84,14.85a9.482,9.482,0,0,1-14.076,0,11.237,11.237,0,0,1,0-15.1l9.752-10.463Z" transform="translate(-85.518 -182.044)"/><path class="b" d="M61.671,157.925l-13.84,14.85a9.482,9.482,0,0,1-14.076,0,11.237,11.237,0,0,1,0-15.1l9.752-10.463A62.356,62.356,0,0,1,89.114,126.94c23.714,0,45.516,13.962,56.77,36.358l10.491,20.874-14.183,57.582Z" transform="translate(-19.873 -86.164)"/><path class="c" d="M373.98,343.776l-27.468-7.9a7.7,7.7,0,0,1-5.027-9.342l15.456-61.889a7.073,7.073,0,0,1,8.707-5.394l27.468,7.9a7.7,7.7,0,0,1,5.027,9.342l-15.456,61.889a7.073,7.073,0,0,1-8.707,5.394Z" transform="translate(-219.938 -167.853)"/><g transform="translate(3.558 3.807)"><path class="d" d="M0,0,32.422,1.141l4.342,123.431L4.342,123.431Z" transform="translate(101.563) rotate(45)"/><path class="d" d="M10,309.278,27.361,266.92,49.48,290.652Z" transform="translate(-10 -176.564)"/></g><path class="b" d="M182.209,255.244l-21.535-23.106a10.836,10.836,0,0,0-16.087,0,12.843,12.843,0,0,0,0,17.26l21.535,23.1c7.79,19.485,25.651,32.117,45.412,32.117h1.826Z" transform="translate(-91.041 -149.029)"/><path d="M174.1,115.636l-27.468-7.9a10.149,10.149,0,0,0-9.949,2.61l-7.54-15A72.069,72.069,0,0,0,109.961,71.5l19.8-21.239a4.014,4.014,0,0,0,0-5.394L107.638,21.139a3.387,3.387,0,0,0-5.027,0L69.2,56.986a63.745,63.745,0,0,0-26.006,5.558A67.617,67.617,0,0,0,21.117,78.37L11.365,88.834a15.25,15.25,0,0,0,0,20.5,13.228,13.228,0,0,0,6.117,3.762L.3,155.008a4.021,4.021,0,0,0,.74,4.232,3.436,3.436,0,0,0,2.515,1.117,3.342,3.342,0,0,0,1.43-.323L44.06,141.6a14.691,14.691,0,0,0,3.508,6.573,12.882,12.882,0,0,0,19.1,0l3.87-4.153,1.55,1.663c8.138,19.649,25.828,32.593,45.728,33.663a12.045,12.045,0,0,0,1.357,7.056,10.726,10.726,0,0,0,6.475,5.331l27.468,7.9a9.962,9.962,0,0,0,2.757.391,10.835,10.835,0,0,0,10.3-8.482l3.494-13.991a3.85,3.85,0,0,0-2.514-4.671,3.536,3.536,0,0,0-4.353,2.7L159.3,189.569a3.54,3.54,0,0,1-4.354,2.7l-27.468-7.9a3.576,3.576,0,0,1-2.158-1.777,4.033,4.033,0,0,1-.355-2.894l15.456-61.889a3.542,3.542,0,0,1,4.354-2.7l27.468,7.9a3.855,3.855,0,0,1,2.513,4.671l-3.68,14.738a3.85,3.85,0,0,0,2.514,4.671,3.537,3.537,0,0,0,4.353-2.7l3.68-14.738c1.522-6.094-1.861-12.38-7.541-14.013ZM122.221,47.567l-49.674,53.3-.4-.429a14.576,14.576,0,0,0-7.26-4.3l51.3-55.041Zm-17.1-18.338,6.032,6.472L31.975,120.657l-6.032-6.472ZM16.392,103.936a7.224,7.224,0,0,1,0-9.709l9.752-10.464A59,59,0,0,1,61.622,65.116L25.44,103.936a6.1,6.1,0,0,1-9.048,0Zm5.686,16.889L36.846,136.67l-26.36,12.437Zm20.958,11.7L37,126.051l10.03-10.762a16.285,16.285,0,0,0,4,7.8l.4.429Zm18.607,10.254a6.1,6.1,0,0,1-9.049,0,7.233,7.233,0,0,1,0-9.709l3.87-4.153,9.049,9.708Zm57.95,29c-18-.375-34.127-11.978-41.248-29.789a3.843,3.843,0,0,0-.753-1.193l-21.536-23.1a8.839,8.839,0,0,1,0-11.866,7.45,7.45,0,0,1,11.059,0L88.65,128.934a3.387,3.387,0,0,0,5.027,0,4.014,4.014,0,0,0,0-5.394L77.569,106.257l27.3-29.292a64.411,64.411,0,0,1,18.009,22l9.952,19.8Z" transform="translate(0.003 -20.022)"/></g><g transform="translate(166.825 156.167)"><path d="M472.875,384.631a3.469,3.469,0,0,1-2.517-1.118,4.026,4.026,0,0,1,0-5.4,3.4,3.4,0,0,1,5.03,0,4.016,4.016,0,0,1,0,5.4,3.467,3.467,0,0,1-2.513,1.118Z" transform="translate(-469.318 -377.001)"/></g></g></svg>