<svg xmlns="http://www.w3.org/2000/svg" width="132.527" height="140" viewBox="0 0 132.527 140">
  <g id="Group_248" data-name="Group 248" transform="translate(-814 -780)">
    <g id="Layer_2" data-name="Layer 2" transform="translate(854.922 780)">
      <g id="Layer_1" data-name="Layer 1">
        <path id="Path_4571" data-name="Path 4571" d="M30.7,11.964C18.664,21.712,3.929,41.132.48,59.5L15.964,75.813,69.315,95.571l4.049-1.2c10.91-13.422,16.984-38.917,16.721-53.913V35.171L47.982,5.74Z" transform="translate(1.31 15.78)" fill="#ffd919" fill-rule="evenodd"/>
        <path id="Path_4572" data-name="Path 4572" d="M9.692,31.043l26.019-17.4,4.312-2.887.637,5.136L44.41,46.94l.225,1.987-1.612,1.087L17.041,67.41,12.692,70.3l-.637-5.136L8.3,34.155l-.225-1.95,1.612-1.087Zm25.27-9.186L14.9,35.28,17.865,59.2,37.774,45.778Z" transform="translate(22.204 29.581)" fill="#560116" fill-rule="evenodd"/>
        <path id="Path_4573" data-name="Path 4573" d="M30.189,7.24l.562,4.537L34.5,42.82l.225,1.95-1.612,1.087L7.169,63.291,2.857,66.327,2.22,61.153.87,50.093a82.9,82.9,0,0,1,4.911-12.41l2.137,17.4L27.977,41.658l-2.962-24.07L12.6,25.948c1.725-2.474,3.749-4.949,5.661-7.5A89.156,89.156,0,0,1,30.189,7.24Z" transform="translate(2.382 19.904)" fill="#560116" fill-rule="evenodd"/>
        <path id="Path_4574" data-name="Path 4574" d="M17.727,34.313,43.709,16.879l3.749-2.4A92.566,92.566,0,0,1,46.671,30.3c-.45,3.112-1.05,6.186-1.762,9.186l-1.8-14.4L23.088,38.512,26.013,62.47l14.622-9.823a83.234,83.234,0,0,1-6,11.585L25,70.643l-4.312,2.924-.637-5.174L16.3,37.35,16.04,35.4Z" transform="translate(44.087 39.808)" fill="#560116" fill-rule="evenodd"/>
        <path id="Path_4575" data-name="Path 4575" d="M80.713,0A123.724,123.724,0,0,1,91.436,56.238c-8.286-1.275-53.089-21.9-59.612-28.494A124.061,124.061,0,0,1,80.563,0ZM74.977,109.7C55.668,103.89,20.726,88.369,1.717,74.984c-4.836,17.359.6,56.725,15.784,63.736S66.016,122.224,74.977,109.7Z" transform="translate(-0.003)" fill="#f26810" fill-rule="evenodd"/>
        <path id="Path_4576" data-name="Path 4576" d="M20.037,1.66a61.861,61.861,0,0,0,4.274,16.272c2.062,3.3,6.561,1.875,18.409-5.286.375,1.387.75,2.774,1.087,4.2-13.76,8.136-19.383,9.148-23.058,3.3A58.45,58.45,0,0,1,16.1,3.535C17.375,2.935,18.687,2.26,20.037,1.66Z" transform="translate(44.252 4.564)" fill="#ffd919" fill-rule="evenodd"/>
        <path id="Path_4577" data-name="Path 4577" d="M.5,33.134c4.8-3.524,9.86-6.336,13.422-4.949s4.049,5.7,4.537,10.385c.375,4.087.825,8.586,3.749,9.86s6.486-.862,9.748-2.887,6.936-4.387,10.5-3.074,4.612,6.561,5.286,12.26c-1.312.75-2.624,1.5-3.974,2.175-.412-4.949-1.2-9.71-2.924-10.348s-4.087,1.012-6.786,2.7c-4.162,2.624-8.661,5.436-13.685,3.149S14.784,44.344,14.26,39.1c-.337-3.3-.637-6.374-1.875-6.861-2.1-.825-6.561,2.175-10.873,5.549Q.95,35.458.5,33.134Z" transform="translate(1.365 76.493)" fill="#ffd919" fill-rule="evenodd"/>
        <path id="Path_4578" data-name="Path 4578" d="M23.5,71.5l19.646,7.686,4.087-1.275C58.215,64.526,64.176,39.069,63.913,24.072V18.786L33.208,11.7,10,62.727Z" transform="translate(27.482 32.166)" fill="#fcbe12" fill-rule="evenodd"/>
        <path id="Path_4579" data-name="Path 4579" d="M35.38,12.532l.112.862,3.824,31.081.262,1.95-1.65,1.087L11.91,64.909l-1.95-2.1,2.812-6.186.375-.225L32.718,43.276,29.868,20.068l-.075-.6,3.562-7.8Z" transform="translate(27.372 32.083)" fill="#36000e" fill-rule="evenodd"/>
        <path id="Path_4580" data-name="Path 4580" d="M17.727,34.313,43.709,16.879l3.749-2.4A92.566,92.566,0,0,1,46.671,30.3c-.45,3.112-1.05,6.186-1.762,9.186l-1.8-14.4L23.088,38.512,26.013,62.47l14.622-9.823a83.234,83.234,0,0,1-6,11.585L25,70.643l-4.312,2.924-.637-5.174L16.3,37.35,16.04,35.4Z" transform="translate(44.087 39.808)" fill="#36000e" fill-rule="evenodd"/>
        <path id="Path_4581" data-name="Path 4581" d="M67.964,0l.262.562a123.461,123.461,0,0,1,10.46,55.676A191.92,191.92,0,0,1,48.243,44.016h-.3l7.5-16.347L58.1,26.544l-.862-2.774ZM62.228,109.7a297.047,297.047,0,0,1-37.492-15h0L10.826,125l1.35,3.224-3.074.562L4.64,138.5h0C19.937,145.356,53.267,122.224,62.228,109.7Z" transform="translate(12.746)" fill="#d45a0f" fill-rule="evenodd"/>
        <path id="Path_4582" data-name="Path 4582" d="M19.98,11.249h.375c2.624.937,7.5-1.162,16.646-6.749.375,1.387.75,2.774,1.087,4.2C28,14.81,22.3,16.947,18.517,15.373H18.18Z" transform="translate(49.97 12.371)" fill="#fcbe12" fill-rule="evenodd"/>
        <path id="Path_4583" data-name="Path 4583" d="M7.472,38.069h0c2.924,1.125,6.336-1.012,9.523-3s6.936-4.387,10.5-3.074,4.836,6.6,5.511,12.3c-1.312.75-2.624,1.5-3.974,2.175-.412-4.949-1.2-9.71-2.924-10.348s-4.087,1.012-6.786,2.7C15.2,41.405,10.771,44.18,5.86,42.08h0Z" transform="translate(16.1 86.93)" fill="#fcbe12" fill-rule="evenodd"/>
      </g>
    </g>
    <g id="Layer_2-2" data-name="Layer 2" transform="translate(814 780)">
      <g id="Layer_1-2" data-name="Layer 1" transform="translate(0 0)">
        <path id="Path_4584" data-name="Path 4584" d="M61.267.5V.659h0c11.855,23.258,23.71,43.353,23.5,56.139A16.135,16.135,0,0,1,80.75,65.49c14.859,16,36.283,38.755,44.1,47.261,4.412,8.506-26.873,32.163-35.326,26.342-5.9-9.808-21.557-36.575-32.641-55.421a15.949,15.949,0,0,1-9.6,1.17C34.9,81.359,18.9,64.294.051,46.458h0v-.133c-.133-8.559,10.34-20.733,22.992-30.382h0l1.249-.93,1.223-.9h0C38.434,4.646,53.08-1.893,61.267.5Z" transform="translate(-0.05 -0.003)" fill="#340f06" fill-rule="evenodd"/>
        <path id="Path_4585" data-name="Path 4585" d="M41.211,40.724C35.895,44.791,25.262,51.357,17.9,49.363H17.74c6.114,1.542,17.676-6.007,22.434-9.729C45.49,35.488,53.863,28.284,55.458,21.4h0a16.135,16.135,0,0,1-4.014,8.692l.319.346A56.484,56.484,0,0,1,41.211,40.724Z" transform="translate(29.283 35.474)" fill="#f0ab5d" fill-rule="evenodd"/>
        <path id="Path_4586" data-name="Path 4586" d="M1.442,45.757a.93.93,0,1,1,1.116-1.489L46.683,77.016,11.171,30.473A.9.9,0,0,1,11.33,29.2a.93.93,0,0,1,1.223,0h0L57.581,72.258l-31.6-54.65a.926.926,0,0,1,1.489-1.09L70.739,62.689,43.972,7.028A.93.93,0,0,1,44.424,5.7a.9.9,0,0,1,1.2.372l31.9,46.091L58.91,2.722a.93.93,0,1,1,1.728-.665l21.4,56.511h0a.933.933,0,0,1-1.648.877L50.723,16.73l24.295,50.5h0A.93.93,0,0,1,73.5,68.271l-41.892-44.6L62.445,77.016a.93.93,0,0,1-1.435,1.143L19.863,38.819,52.105,81.083a.93.93,0,0,1,0,1.17.957.957,0,0,1-1.3.186Z" transform="translate(1.642 2.266)" fill="#f0ab5d" fill-rule="evenodd"/>
        <path id="Path_4587" data-name="Path 4587" d="M32.6,66.875V64.217c0-2.9,0-6.459,2.392-7.655s4.12.744,6.034,2.658,3.456,3.615,5.316,2.313c1.3-.9.638-2.9,0-4.917-.877-2.658-1.754-5.316.452-7.1,1.728-1.435,4.2,0,6.7,1.462,1.994,1.17,4.014,2.366,4.785,1.568s0-3.269-.93-5.582-1.834-4.917-.851-6.406h0c1.356-2.1,4.386-.585,6.938.691a10.048,10.048,0,0,0,2.445,1.063h0l.718-.159.718.771a1.223,1.223,0,0,1-1.063,1.09,7.1,7.1,0,0,1-3.668-1.223c-1.887-.93-4.093-2.047-4.572-1.329h0c-.452.718.266,2.658,1.037,4.731,1.09,2.871,2.206,5.874.532,7.576s-4.519.319-7.177-1.116c-1.914-1.116-3.828-2.233-4.545-1.621-1.249,1.037-.558,3.057,0,5.077.877,2.658,1.754,5.316-.638,7.017-3.137,2.206-5.476-.213-7.735-2.525-1.409-1.489-2.658-2.9-3.881-2.339s-1.382,3.588-1.329,5.954,0,4.386-1.621,4.519h0l-.133-1.861ZM65.693,42.421a.531.531,0,0,1-.213,0Z" transform="translate(53.789 65.516)" fill="#d70810" fill-rule="evenodd"/>
        <path id="Path_4588" data-name="Path 4588" d="M38.5,44.6A2.392,2.392,0,0,0,39,41.385a2.392,2.392,0,0,0-3.828,2.658A2.392,2.392,0,0,0,38.5,44.6Z" transform="translate(57.912 67.588)" fill="#d70810" fill-rule="evenodd"/>
        <path id="Path_4589" data-name="Path 4589" d="M34.688,47.206a2.374,2.374,0,1,0-3.323-.478A2.374,2.374,0,0,0,34.688,47.206Z" transform="translate(51.09 71.176)" fill="#d70810" fill-rule="evenodd"/>
        <path id="Path_4590" data-name="Path 4590" d="M42.068,41.666a2.374,2.374,0,1,0-3.323-.478A2.374,2.374,0,0,0,42.068,41.666Z" transform="translate(63.327 61.991)" fill="#d70810" fill-rule="evenodd"/>
        <path id="Path_4591" data-name="Path 4591" d="M.75,46.249C3.089,35.218,18.081,22.326,25.736,16.611S50.377.237,61.541,1.274l1.01,2.047a12.334,12.334,0,0,0-2.259-.186c-8.639,0-21.8,6.486-33.412,15.125S5.269,37.557,2.85,45.85a14.566,14.566,0,0,0-.425,1.967Z" transform="translate(1.112 1.987)" fill="#d70810" fill-rule="evenodd"/>
        <path id="Path_4592" data-name="Path 4592" d="M68.017,42.269a13.291,13.291,0,0,1-2.525,5.688,46.49,46.49,0,0,1-8.532,8.931,65.788,65.788,0,0,1-11.137,7.469,22.514,22.514,0,0,1-12.36,3.3L32,65.235c2.658,1.648,7.522.319,12.918-2.5a62.278,62.278,0,0,0,11-7.257A45.028,45.028,0,0,0,63.9,46.948c1.914-2.658,2.658-5.316,1.94-6.938h0Z" transform="translate(52.927 66.332)" fill="#f0ab5d" fill-rule="evenodd"/>
        <path id="Path_4593" data-name="Path 4593" d="M64.157,39.081a15.417,15.417,0,0,1-2.206,4.306,46.49,46.49,0,0,1-8.532,8.931,65.787,65.787,0,0,1-11.137,7.469,25.73,25.73,0,0,1-10.925,3.376L30.24,61.276A20.786,20.786,0,0,0,41.4,58.14a62.28,62.28,0,0,0,10.845-7.257,45.826,45.826,0,0,0,8.187-8.532,11.935,11.935,0,0,0,2.206-4.891Z" transform="translate(50.009 62.103)" fill="#f0ab5d" fill-rule="evenodd"/>
        <path id="Path_4594" data-name="Path 4594" d="M46.144.5V.659h0C58,23.917,69.854,44.013,69.642,56.8a16.135,16.135,0,0,1-4.014,8.692c14.859,16,36.283,38.755,44.1,47.261,2.259,4.333-4.785,12.626-13.29,18.926L9.17,14.933l1.223-.9h0C23.311,4.646,37.957-1.893,46.144.5Z" transform="translate(15.073 -0.003)" fill="#1c0803" fill-rule="evenodd"/>
        <path id="Path_4595" data-name="Path 4595" d="M27.366,40.774l-.319.266-.957-1.249L26.3,39.6c5.316-4.147,13.689-11.35,15.284-18.235h0C41.507,28.068,31.964,37.212,27.366,40.774Z" transform="translate(43.128 35.425)" fill="#ea993e" fill-rule="evenodd"/>
        <path id="Path_4596" data-name="Path 4596" d="M10.39,17.049a.984.984,0,0,1,.452-.718.9.9,0,0,1,1.17.186L55.285,62.689,28.518,7.028A.93.93,0,0,1,28.97,5.7a.9.9,0,0,1,1.2.372l31.9,46.091L43.457,2.722a.93.93,0,1,1,1.728-.665l21.4,56.511h0a.933.933,0,0,1-1.648.877L35.27,16.73l24.295,50.5h0a.93.93,0,0,1-1.515,1.037l-41.892-44.6,2.658,4.811Z" transform="translate(17.096 2.266)" fill="#ea993e" fill-rule="evenodd"/>
        <path id="Path_4597" data-name="Path 4597" d="M37.54,50.4a4.545,4.545,0,0,1,.771-.851c1.728-1.435,4.2,0,6.7,1.462,1.994,1.17,4.014,2.366,4.785,1.568s0-3.269-.93-5.582-1.834-4.917-.851-6.406h0c1.356-2.1,4.386-.585,6.938.691A10.047,10.047,0,0,0,57.4,42.344h0l.718-.159.718.771a1.223,1.223,0,0,1-1.063,1.09A7.1,7.1,0,0,1,54.1,42.823c-1.887-.93-4.093-2.047-4.572-1.329h0c-.452.718.266,2.658,1.037,4.731,1.09,2.871,2.206,5.874.532,7.576s-4.359.239-7.017-1.2c-1.914-1.116-3.828-2.233-4.545-1.621a1.807,1.807,0,0,0-.665,1.17l-1.3-1.754ZM57.4,42.424a.532.532,0,0,1-.213,0h.186Z" transform="translate(62.113 65.565)" fill="#c2080e" fill-rule="evenodd"/>
        <path id="Path_4598" data-name="Path 4598" d="M35.36,40.925A2.366,2.366,0,0,1,38.178,44.7Z" transform="translate(58.498 67.277)" fill="#c2080e" fill-rule="evenodd"/>
        <path id="Path_4599" data-name="Path 4599" d="M39.2,37.75a2.352,2.352,0,1,1-.478,3.269A2.419,2.419,0,0,1,39.2,37.75Z" transform="translate(63.353 62.159)" fill="#c2080e" fill-rule="evenodd"/>
        <path id="Path_4600" data-name="Path 4600" d="M10.19,16.611C17.952,10.843,34.777.237,45.888,1.274L46.9,3.321a12.334,12.334,0,0,0-2.259-.186c-8.612,0-21.717,6.459-33.332,15.045Z" transform="translate(16.764 1.987)" fill="#c2080e" fill-rule="evenodd"/>
        <path id="Path_4601" data-name="Path 4601" d="M55.034,42.269a13.291,13.291,0,0,1-2.525,5.688,46.49,46.49,0,0,1-8.532,8.931c-.983.824-1.994,1.595-3.03,2.366L39.83,57.766c1.037-.744,2.02-1.515,2.977-2.313a45.027,45.027,0,0,0,8.107-8.506c1.914-2.658,2.658-5.316,1.94-6.938h0Z" transform="translate(65.91 66.332)" fill="#ea993e" fill-rule="evenodd"/>
        <path id="Path_4602" data-name="Path 4602" d="M52.285,39.081a15.417,15.417,0,0,1-2.206,4.306,46.49,46.49,0,0,1-8.532,8.931c-.983.8-1.994,1.595-3.03,2.366L37.4,53.2c1.037-.744,2.02-1.515,2.977-2.313a45.826,45.826,0,0,0,8.187-8.532A11.935,11.935,0,0,0,50.77,37.46Z" transform="translate(61.881 62.103)" fill="#ea993e" fill-rule="evenodd"/>
      </g>
    </g>
  </g>
</svg>
