<svg xmlns="http://www.w3.org/2000/svg" width="203.067" height="194.04" viewBox="0 0 203.067 194.04">
  <defs>
    <style>
      .cls-1 {
        fill: #ffeb93;
        stroke: #231f20;
        stroke-miterlimit: 10;
      }
    </style>
  </defs>
  <path id="algeria" class="cls-1" d="M247.436,18.688a7.82,7.82,0,0,0,2.283-.342,7.42,7.42,0,0,0,2.158-1.256c.514-.4,1.062-.765,1.6-1.142s1-.628,1.5-.97a21.86,21.86,0,0,1,2.489-1.712,6.759,6.759,0,0,1,1.256-.32,10.869,10.869,0,0,1,1.61-.08,13.6,13.6,0,0,1,1.53.137,6.953,6.953,0,0,0,1.461,0,5.96,5.96,0,0,0,1.142-.228l.479-.148c.479-.16.948-.331,1.416-.514a9.52,9.52,0,0,0,2.043-1.027,16.885,16.885,0,0,0,1.427-1.142c.879-.742,1.644-1.621,2.534-2.352a9.009,9.009,0,0,1,1.712-.959,12.557,12.557,0,0,1,2.648-.742,27.993,27.993,0,0,1,3.79-.171c1.279,0,2.557,0,3.824.1s2.569.217,3.847.354a32.7,32.7,0,0,0,3.813.217,22.254,22.254,0,0,0,2.466-.091c.822-.091,1.6-.148,2.386-.251a22.661,22.661,0,0,0,2.626-.5,13.777,13.777,0,0,0,2.18-.708h0c.548-.228,1.085-.422,1.655-.605a7.991,7.991,0,0,1,1.324-.228,6.3,6.3,0,0,1,.81-.057H306.5c.354,0,1.039.068,1.564.126a4.018,4.018,0,0,1,.879.183,7.278,7.278,0,0,1,.993.342c.457.194.925.4,1.37.639l1.678.89c.525.274,1.05.537,1.587.776a8.413,8.413,0,0,0,2.843.719h.913a8.117,8.117,0,0,0,2.226-.3c.605-.16,1.2-.342,1.792-.548.32-.114.639-.217.959-.354a5.526,5.526,0,0,0,.97-.491c.183-.114.342-.228.514-.354.5-.365.993-.742,1.518-1.062a5.128,5.128,0,0,1,.605-.331,5.876,5.876,0,0,1,.639-.183h.354a8.206,8.206,0,0,1,1.347.388c.388.171.765.365,1.142.559a11.965,11.965,0,0,0,1.781.685,7.124,7.124,0,0,0,1.838.24,11.918,11.918,0,0,0,1.678-.16c.468,0,.936-.1,1.416-.126a7.044,7.044,0,0,1,1.142,0,7.579,7.579,0,0,1,1.324.365c.525.24,1.016.514,1.541.731l.468.171a1.381,1.381,0,0,0-.3.537c-.148.537-.354,1.062-.457,1.621a8.348,8.348,0,0,0-.1,1.849,33.89,33.89,0,0,0,.514,3.562,6.408,6.408,0,0,1,0,.811c-.171.788-.559,1.5-.8,2.283a6.757,6.757,0,0,0-.217,1.347,11.083,11.083,0,0,1-.126,1.222,7.04,7.04,0,0,1-.137.833c-.091.411-.194.811-.3,1.222s-.228.776-.342,1.142a9.654,9.654,0,0,0-.24,1.142c-.057.457-.114.925-.16,1.393a8.18,8.18,0,0,0,0,1.062,18.817,18.817,0,0,1-.16,2.409,7.192,7.192,0,0,1-.411,1.621,2.771,2.771,0,0,1-.3.5c-.114.126-.228.24-.354.354a5.835,5.835,0,0,1-1.142.616,7.116,7.116,0,0,1-.833.274c-.365.091-.719.16-1.085.217s-.708.1-1.062.183a3.653,3.653,0,0,0-1.062.411,2.044,2.044,0,0,0-.434.342,1.781,1.781,0,0,0-.422.9,6.526,6.526,0,0,0,0,1.336v1.073a17.492,17.492,0,0,0,.228,2.283,20.915,20.915,0,0,0,.491,2.192,9.791,9.791,0,0,0,.628,1.667,9.4,9.4,0,0,0,.651,1.085,11.932,11.932,0,0,0,1.518,1.9,16.612,16.612,0,0,0,1.724,1.381c.217.171.422.331.628.514a7.066,7.066,0,0,1,.959,1.062,5.366,5.366,0,0,1,.525.89c.377.982.616,2.021,1.05,2.98a3.688,3.688,0,0,0,1.016,1.381,3.584,3.584,0,0,0,1.358.662c.445.137.879.285,1.313.457a7.181,7.181,0,0,1,.765.422,1.473,1.473,0,0,1,.183.194,1.338,1.338,0,0,1,.171.308c.24.639.411,1.313.605,1.975s.342,1.336.491,2.009c.331,1.416.674,2.82.993,4.235s.685,3.037,1.039,4.566.719,2.854,1,4.3c.08.4.16.8.228,1.2a6.7,6.7,0,0,1,0,.833,1.074,1.074,0,0,0-.114.263,1.241,1.241,0,0,0,0,.3.685.685,0,0,1-.1.171,2.482,2.482,0,0,1-.251.24c-.388.274-.788.548-1.142.845a3.1,3.1,0,0,0-.993,1.244,2.409,2.409,0,0,0-.091,1.553,3.962,3.962,0,0,0,.422.89,6.331,6.331,0,0,0,.377.582,11.145,11.145,0,0,1,.913,1.5,22.765,22.765,0,0,1,1.039,4.35c.126,1.142.217,2.283.285,3.425s.08,2.283.148,3.5v.833a9.885,9.885,0,0,0,.126,1.142c.114.571.24,1.142.377,1.7s.331,1.085.5,1.621a11.247,11.247,0,0,1,.343,1.518,8.82,8.82,0,0,1,0,1.735,7.992,7.992,0,0,1-.365,1.359c-.171.377-.354.742-.548,1.142a12.333,12.333,0,0,0-.605,1.438,7.614,7.614,0,0,0,.08,4.076c.3,1.5.708,2.968.982,4.464a9.221,9.221,0,0,1,0,1.861,3.883,3.883,0,0,1-.148.605c-.091.171-.183.331-.285.491a3.109,3.109,0,0,1-.285.263,2.864,2.864,0,0,1-.514.3c-.331.126-.662.228-.993.342a8.345,8.345,0,0,0-2.043.89,4.8,4.8,0,0,0-1.062.925,3.681,3.681,0,0,0-.788,3.436,5.376,5.376,0,0,0,.548,1.359,12.327,12.327,0,0,0,1.575,2.123c.251.285.514.571.765.868s.388.457.571.7a8.3,8.3,0,0,1,.788,1.29c.126.24.24.491.354.742.605,1.45,1.142,2.923,1.861,4.35A10.435,10.435,0,0,0,352.8,138.9a3.9,3.9,0,0,0,1.2.856,2.991,2.991,0,0,0,1.45.24,8.613,8.613,0,0,0,1.324-.194h.445c.331.091.651.228.97.331s.605.194.9.274c.616.171,1.233.32,1.861.479a30.347,30.347,0,0,0,3.8.628,6.929,6.929,0,0,1,1.142.285l.171.1.137.148a16.92,16.92,0,0,1,1.142,2.112c.354.719.708,1.427,1.073,2.135s.594,1.142.9,1.712l-.091.057a1.142,1.142,0,0,0-.308.765.926.926,0,0,0,.068.354h0l-.377.183-.765.388-1.507.788c-1.073.548-2.146,1.142-3.174,1.712a35.9,35.9,0,0,0-3,2.055c-.993.7-2.078,1.518-3.105,2.283s-2.283,1.644-3.493,2.42c-.559.377-1.142.753-1.69,1.142s-1.279.742-1.929,1.142l-3.767,1.838c-1.233.674-2.432,1.4-3.653,2.112l-1.952,1.142a18.275,18.275,0,0,0-1.69,1.142c-.548.411-1.142.822-1.747,1.21s-1.244.753-1.884,1.142c-1.142.662-2.4,1.3-3.573,2.009s-2.454,1.5-3.7,2.215-2.363,1.553-3.562,2.283-2.375,1.427-3.573,2.135-2.5,1.381-3.756,2.055c-.639.331-1.267.685-1.884,1.039s-1.244.674-1.861,1.016a15.025,15.025,0,0,0-2.283,1.575,24.783,24.783,0,0,0-1.9,1.724,11.8,11.8,0,0,0-1.507,1.861c-.228.365-.457.719-.674,1.085-.434.708-.89,1.393-1.358,2.078a16.078,16.078,0,0,1-2.283,2.523h-.091a12.089,12.089,0,0,1-2.009.422c-.811.126-1.621.251-2.42.4-1.644.308-3.311.582-4.966.822-2.386.308-4.772.548-7.158.776a1.313,1.313,0,0,0-.913.377,1.267,1.267,0,0,0-.331.559h-.217a13.846,13.846,0,0,0-1.69.068,24.989,24.989,0,0,1-4.133,0,7.308,7.308,0,0,1-1.142-.285l-.434-.228-.08-.091h0a2.2,2.2,0,0,1,0-.274c.137-.731.354-1.438.537-2.169a6.735,6.735,0,0,0-.057-4.635,4.761,4.761,0,0,0-2.283-2.2,7.01,7.01,0,0,0-1.644-.5l-1.142-.217a7.651,7.651,0,0,1-1.267-.331,6.161,6.161,0,0,1-.8-.479l-.948-.822a9.369,9.369,0,0,0-.845-.662,4.5,4.5,0,0,0-1.313-.571c-.479-.126-.97-.24-1.45-.342a10.127,10.127,0,0,1-1.564-.4,3.584,3.584,0,0,1-.354-.205l-.16-.171a8.1,8.1,0,0,1-.639-1.256,5.228,5.228,0,0,0-1.039-1.587,3.8,3.8,0,0,0-1.279-.788,4.818,4.818,0,0,0-.982-.274l-.514-.08A5.047,5.047,0,0,1,259,178.1l-.114-.068-.16-.148-.114-.205a3.423,3.423,0,0,1-.148-.616c-.068-.605-.08-1.21-.183-1.815a1.35,1.35,0,0,0-.091-.354,2.888,2.888,0,0,0-.571-1.016,4.683,4.683,0,0,0-.765-.662c-1.039-.822-2.089-1.6-3.139-2.386s-1.975-1.416-2.968-2.123-2.032-1.461-3.025-2.215l-.742-.571c-.993-.776-1.975-1.587-2.9-2.454s-1.758-1.712-2.614-2.591q-2.671-2.74-5.331-5.491c-.925-.959-1.838-1.918-2.808-2.831s-1.986-1.815-3-2.706c-1.918-1.678-3.859-3.322-5.708-5.057s-3.824-3.6-5.708-5.4c-.925-.879-1.849-1.758-2.808-2.591s-1.884-1.655-2.854-2.454c-2-1.667-4.121-3.174-6.2-4.749s-3.87-3.208-5.845-4.772c-.959-.765-1.929-1.507-2.877-2.283l-3.174-2.557c-1.05-.845-2.135-1.632-3.242-2.4s-2-1.336-2.98-2.009l-3.265-2.2c-.982-.651-1.906-1.359-2.843-2.078s-1.884-1.438-2.8-2.192L177.1,106.66c-1.952-1.655-3.8-3.425-5.708-5.137-1.313-1.142-2.6-2.4-3.984-3.516h0a1.928,1.928,0,0,1,.057-.479c.114-.868.24-1.724.377-2.58s.365-1.884.605-2.808.468-1.918.651-2.9l.308-1.518a14.5,14.5,0,0,1,.582-2.169,6.407,6.407,0,0,1,.559-.982,7.889,7.889,0,0,1,.89-.856,15.081,15.081,0,0,1,2.352-1.438l1.393-.616c.434-.194.856-.411,1.267-.639a13.108,13.108,0,0,0,1.142-.765c.422-.274.822-.594,1.233-.9s.765-.582,1.142-.868a11.141,11.141,0,0,1,1.712-.993,8.221,8.221,0,0,1,1.655-.434,3.093,3.093,0,0,1,.651,0c1.222.183,2.42.479,3.642.616a5.411,5.411,0,0,0,2.283-.183,5.708,5.708,0,0,0,1.644-.868,10.674,10.674,0,0,1,1.747-1.142,15.206,15.206,0,0,1,1.986-.582c.548-.126,1.142-.194,1.644-.274l2.112-.205a7.3,7.3,0,0,0,1.21-.148l.662-.126a7.442,7.442,0,0,0,1.53-.5,8.6,8.6,0,0,0,2.352-1.633c.308-.274.582-.582.856-.879s.468-.491.719-.719.559-.491.845-.731a12.373,12.373,0,0,1,1.5-.9l.731-.354c.594-.3,1.142-.594,1.781-.913s1.142-.616,1.712-.936a15.475,15.475,0,0,1,1.53-.742,12.729,12.729,0,0,1,1.438-.525,15.1,15.1,0,0,1,1.587-.342,7.369,7.369,0,0,0,1.5-.205,5.936,5.936,0,0,0,.776-.194,3.722,3.722,0,0,0,1.336-.731,3.847,3.847,0,0,0,.913-1.142,3.55,3.55,0,0,0,.434-1.632,6.38,6.38,0,0,0-.148-1.233l-.1-.628a4.574,4.574,0,0,1,0-.685,1.631,1.631,0,0,1,.126-.445,5.536,5.536,0,0,1,.331-.559l.171-.171a2.283,2.283,0,0,1,.422-.251,7.523,7.523,0,0,1,1.244-.263,5.058,5.058,0,0,0,.993-.183,11.119,11.119,0,0,0,2.454-.833,7.742,7.742,0,0,0,1.05-.559,5.708,5.708,0,0,0,1.142-.97,21.405,21.405,0,0,0,1.4-1.781,8.566,8.566,0,0,1,1.039-1.142,3.917,3.917,0,0,1,.559-.32,8.744,8.744,0,0,1,1.632-.4,18.265,18.265,0,0,1,3.425.08c.662.091,1.324.217,1.986.331s1.4.251,2.1.445a21.545,21.545,0,0,0,2.375.662,3.425,3.425,0,0,0,2.283-.24,1.907,1.907,0,0,0,.731-1.05c0-.126.1-.24.148-.365a5.569,5.569,0,0,1,.388-.662c.08-.114.171-.228.24-.342a3.733,3.733,0,0,0,.4-.833,2.807,2.807,0,0,0,.137-.868,4.278,4.278,0,0,0,0-.662,8.657,8.657,0,0,0-.148-.925,6.441,6.441,0,0,0-.434-1.142,6.626,6.626,0,0,0-.525-.856c-.148-.217-.308-.422-.468-.628-.331-.445-.685-.879-1.039-1.324a10.455,10.455,0,0,1-1.142-1.861,4.852,4.852,0,0,1-.228-.822,2.467,2.467,0,0,1,0-.411,10.562,10.562,0,0,1,.445-1.667,13.1,13.1,0,0,0,.525-1.69,12.17,12.17,0,0,0,.228-2.032V31.908c0-1.21.08-2.409.183-3.619,0-.651.091-1.29.114-1.941a10.133,10.133,0,0,0,0-1.142,7.329,7.329,0,0,0-.662-2.454c-.263-.594-.537-1.142-.811-1.758-.091-.24-.194-.479-.3-.719s-.251-.719-.388-1.073a3.6,3.6,0,0,1-.183-.628C245.176,18.654,246.306,18.677,247.436,18.688Z" transform="translate(-166.91 -3.45)"/>
</svg>
