<svg xmlns="http://www.w3.org/2000/svg" width="132.911" height="131.172" viewBox="0 0 132.911 131.172">
  <defs>
    <style>
      .cls-1 {
        fill: #093e63;
        stroke: #231f20;
        stroke-miterlimit: 10;
      }
    </style>
  </defs>
  <g id="angola" transform="translate(0.5 0.5)">
    <path id="angola-2" data-name="angola" class="cls-1" d="M344.311,531.745c0-.913-.1-1.827-.091-2.74a23.586,23.586,0,0,1,.205-2.591,54.135,54.135,0,0,1,1.142-5.4c.5-2.055,1-4.11,1.484-6.165.205-.856.4-1.724.559-2.591s.342-1.941.525-2.911a28.544,28.544,0,0,1,1.541-5.56c.263-.571.537-1.142.833-1.678a11.593,11.593,0,0,1,.879-1.324,23.8,23.8,0,0,1,1.758-1.8c.616-.582,1.313-1.324,1.952-2s1.142-1.3,1.769-1.975,1.21-1.461,1.827-2.169a33.1,33.1,0,0,0,3.55-4.715,20.649,20.649,0,0,0,1.4-2.8,12.179,12.179,0,0,0,.422-1.29,11.063,11.063,0,0,0,.285-1.61,1.312,1.312,0,0,0-.171-.616,1.263,1.263,0,0,0-.228-.274c.126-1.21.24-2.432.388-3.642s.388-2.557.537-3.836a12.8,12.8,0,0,0,.114-1.986,14.458,14.458,0,0,0-.365-2.283,7.81,7.81,0,0,0-.308-.913c-.137-.354-.285-.708-.457-1.05-.32-.628-.674-1.244-1.05-1.849a32.037,32.037,0,0,0-2.375-3.185c-.605-.833-1.142-1.724-1.667-2.6a28,28,0,0,1-1.416-2.637,12.147,12.147,0,0,1-.525-1.575,15.978,15.978,0,0,1-.285-1.644,5.709,5.709,0,0,1,0-1.085,2.279,2.279,0,0,1,.08-.3l.08-.137a8.952,8.952,0,0,1,.731-.742,7.315,7.315,0,0,0,1.027-1.279,3.538,3.538,0,0,0,.365-.753,5.588,5.588,0,0,0,.308-.868,4.565,4.565,0,0,0,.16-.959,9.135,9.135,0,0,0,0-1.142,14.078,14.078,0,0,0-.171-1.7c-.091-.525-.194-1.039-.3-1.553a55.523,55.523,0,0,0-1.518-5.434c-.594-1.849-1.256-3.687-1.986-5.48a21.062,21.062,0,0,0-1.427-2.82,23.55,23.55,0,0,0-1.9-2.626l-1.142-1.381-.434-.616c-.194-.263-.342-.559-.514-.833-.274-.468-.5-.982-.742-1.473a5.642,5.642,0,0,1-.365-1.016c-.114-.343-.228-.822-.331-1.233l1.142.16.833.091h.365l.594-.069a3.116,3.116,0,0,0,.731-.274,3.617,3.617,0,0,0,.948-.822c.137-.16.263-.331.388-.5a5.2,5.2,0,0,1,.4-.457l.148-.08a6.046,6.046,0,0,1,.651-.16,17.276,17.276,0,0,1,3.516.126c1.655.263,3.288.571,4.943.833s3.425.48,5.1.674a48.787,48.787,0,0,0,4.977.331h5.137c1.2-.069,2.386-.171,3.585-.3s2.283-.16,3.425-.206,2.283-.1,3.425-.183a22.637,22.637,0,0,1,3.425-.16,3.494,3.494,0,0,1,.468.114h0a4.135,4.135,0,0,1,.308.32,20.159,20.159,0,0,1,1.884,3.619c.822,2.055,1.6,4.133,2.591,6.108.468.959,1.027,1.861,1.541,2.785s.936,1.815,1.347,2.751c.308.753.605,1.518.9,2.283a12.192,12.192,0,0,0,1.142,2.386,12.461,12.461,0,0,0,.822,1.142,8.316,8.316,0,0,0,.616.662,4.01,4.01,0,0,0,.639.525,4.459,4.459,0,0,0,1.027.491,4.178,4.178,0,0,0,.731.16c.32,0,.628.069.948.08s.753,0,1.142,0a8.276,8.276,0,0,0,1.37-.08c1.632-.114,3.254-.331,4.886-.3a17.823,17.823,0,0,1,2.466.114c.822.114,1.667.205,2.512.32s1.37.137,2.055.171a8.838,8.838,0,0,0,2.283-.08,2.752,2.752,0,0,0,1.142-.457,3.2,3.2,0,0,0,.856-.936,4.5,4.5,0,0,0,.491-1.3c.069-.274.1-.559.16-.845.114-.685.16-1.37.24-2.066a22.815,22.815,0,0,1,.491-2.283,17.989,17.989,0,0,1,.594-2.283,1.976,1.976,0,0,1,.114-.217,1.564,1.564,0,0,1,.194-.194,3.63,3.63,0,0,1,.457-.263,9.968,9.968,0,0,1,1.815-.422c.936-.114,1.861-.148,2.8-.171s1.861,0,2.774,0h.148a2.282,2.282,0,0,1,.171.331,4.568,4.568,0,0,0,.708,1.358,3.71,3.71,0,0,0,1.564.959,6.507,6.507,0,0,0,1.142.263,10.791,10.791,0,0,0,1.142.137c1.142.08,2.283.1,3.425.148,2.169.069,4.338.091,6.5.308a2.137,2.137,0,0,1,.388.091l.183.183a3.855,3.855,0,0,1,.217.365,5.909,5.909,0,0,1,.217.913,23.776,23.776,0,0,1,.068,2.991c0,.982-.126,1.941-.194,2.911a24.947,24.947,0,0,0,0,2.774,29.422,29.422,0,0,1,0,3.174c-.16.731-.434,1.416-.628,2.135a13.573,13.573,0,0,0-.377,1.9,5.582,5.582,0,0,0,.365,2.591,9.988,9.988,0,0,0,1.4,2.283l.594.81a6.18,6.18,0,0,1,.514.982,7.883,7.883,0,0,1,.354,1.073c.114.445.194.891.274,1.336.137.845.263,1.69.479,2.511s.5,1.735.742,2.614a21.2,21.2,0,0,1,.525,2.42,6.719,6.719,0,0,1,0,1.267,11.053,11.053,0,0,1-.514,1.986l-.308.868a4.39,4.39,0,0,0-.24,1.085,2.466,2.466,0,0,0,.251,1.484,2.9,2.9,0,0,0,.97,1.062,3.927,3.927,0,0,0,1.324.48,7.615,7.615,0,0,0,2.82-.24l2.146-.559c1.358-.354,2.728-.708,4.11-.936s2.74-.422,4.11-.616c.8-.1,1.6-.183,2.409-.263l1.484-.16a4.649,4.649,0,0,0,.7-.1c0,1.05.068,2.1.126,3.151,0,1.256.16,2.5.251,3.744s.183,2.4.251,3.6.137,2.432.206,3.642a31.494,31.494,0,0,1,.091,3.276,26.12,26.12,0,0,1-.183,2.991,3,3,0,0,1-.148.651h0l-.183.057a6.318,6.318,0,0,1-1.142,0c-1.142-.16-2.363-.377-3.528-.594s-2.375-.525-3.573-.7c-.719-.091-1.438-.194-2.169-.228s-1.279-.069-1.929-.08h-3.63c-1.21,0-2.454-.183-3.687-.263a10.278,10.278,0,0,0-1.678,0,2.854,2.854,0,0,0-1.9.719,3.779,3.779,0,0,0-.765,2.283c-.114,1.324-.137,2.649-.148,3.973s0,2.386.08,3.562.194,2.6.3,3.9.16,2.58.171,3.87a75.374,75.374,0,0,1-.354,7.535c-.194,2.477-.422,4.955-.639,7.443a8,8,0,0,0,0,1.142,8.9,8.9,0,0,0,.685,3.082c.126.354.274.708.422,1.062.251.594.537,1.142.833,1.747a17.406,17.406,0,0,0,1.884,2.74,27.684,27.684,0,0,0,2.489,2.683c.9.845,1.827,1.644,2.717,2.489.468.434.936.879,1.393,1.336s.856.879,1.313,1.279l1.644,1.381c-.719.126-1.45.24-2.18.342h.126c-1.416.183-2.82.411-4.224.616h0l-.377.057c-2.2.285-4.4.594-6.587.9-1.507.194-3.025.354-4.566.457-.822,0-1.644.1-2.466.114a14.714,14.714,0,0,1-2.123-.114c-.422-.068-.845-.16-1.267-.263a9.238,9.238,0,0,1-1.073-.377c-.514-.263-.982-.559-1.473-.833a6.588,6.588,0,0,0-1.438-.594,5.609,5.609,0,0,0-1.142-.148h-.5c-1.267,0-2.523.114-3.79.217s-2.557.194-3.836.32-2.717.343-4.076.548a13.527,13.527,0,0,1-2.877.16l-.3-.08-.205-.126a8.739,8.739,0,0,1-.948-1c-.331-.457-.639-.936-.936-1.416a11.832,11.832,0,0,0-1.6-2.283,4.031,4.031,0,0,0-1.142-.788,3.1,3.1,0,0,0-.708-.263,5.6,5.6,0,0,0-.742-.126l-1.142-.1H411l-8.105.069q-3.939,0-7.866.217c-1.381.08-2.763.16-4.155.206s-2.66.1-4,.183-2.968.285-4.441.514-2.74.445-4.121.639l-1.347.137a13.782,13.782,0,0,1-2.569,0c-.856-.08-1.69-.194-2.534-.263-1.712-.148-3.425-.183-5.149-.377l-.594-.091a8.488,8.488,0,0,1-1.849-.491,9.689,9.689,0,0,1-1.142-.662l-.639-.411c-.4-.251-.811-.491-1.21-.719l-1.256-.685a6.4,6.4,0,0,0-2.831-.9h-.251a4.441,4.441,0,0,0-1.655.514c-.285.16-.559.342-.833.525l-1.267.765a26.485,26.485,0,0,1-2.4,1.244,2.617,2.617,0,0,1-.422.137,9.441,9.441,0,0,1-1.792-.171l-1.53-.194c-.925-.126-1.849-.263-2.763-.411v-3.687C344.357,535.706,344.391,533.72,344.311,531.745Z" transform="translate(-344.219 -418.757)"/>
  </g>
</svg>
