<svg xmlns="http://www.w3.org/2000/svg" width="738.733" height="791.002" viewBox="0 0 738.733 791.002">
  <defs>
    <style>
      .cls-1 {
        fill: #231f20;
        stroke: #231f20;
        stroke-miterlimit: 10;
      }
    </style>
  </defs>
  <path id="background" class="cls-1" d="M808.318,269.8a6.592,6.592,0,0,0-.468-1.221,3.629,3.629,0,0,0-.788-1.062,4.567,4.567,0,0,0-2.089-1.027,5.206,5.206,0,0,0-2.58.091,4.372,4.372,0,0,0-2.112,1.267,9.127,9.127,0,0,0-.651.811c-.137.148-.274.3-.422.434a2.651,2.651,0,0,1-.559.32l-1.142.445c-.365.137-.719.3-1.142.445a7.49,7.49,0,0,0-1.815,1.142,9.794,9.794,0,0,0-1.142,1.142,16.8,16.8,0,0,1-1.609,1.758,6.224,6.224,0,0,1-.891.514,13.006,13.006,0,0,1-2.375.537l-2.386.308a16.737,16.737,0,0,0-2.466.559c-.753.206-1.484.457-2.283.662a16.27,16.27,0,0,1-2.215.479,15.717,15.717,0,0,1-1.792.1,17.013,17.013,0,0,1-1.872-.148c-.617-.069-1.244-.16-1.872-.217a8.3,8.3,0,0,0-1.6,0,6.783,6.783,0,0,0-1.712.388,9.127,9.127,0,0,0-1.815.936,12.2,12.2,0,0,0-1.655,1.324c-.457.434-.9.9-1.381,1.336s-.97.856-1.484,1.267l-.308.228a9.963,9.963,0,0,1-1.621.936,8.114,8.114,0,0,1-1.541.422,5.852,5.852,0,0,1-1.142,0c-.548-.091-1.085-.217-1.621-.354a10.2,10.2,0,0,1-1.142-.445c-.479-.217-.948-.468-1.4-.731a17.62,17.62,0,0,0-2.2-1.142,5.273,5.273,0,0,0-2.146-.354,8.855,8.855,0,0,0-1.233.137,4.941,4.941,0,0,0-.833.205,10.8,10.8,0,0,0-1.827.8,13.229,13.229,0,0,0-2.728,2.283,27.148,27.148,0,0,1-2.283,2.032,6.623,6.623,0,0,1-.856.525,8.368,8.368,0,0,1-1.05.274,15.331,15.331,0,0,1-3.071-.091c-.628-.091-1.244-.194-1.861-.343a13.754,13.754,0,0,1-1.872-.605c-.445-.194-.879-.411-1.313-.628a7.886,7.886,0,0,1-1.142-.811,27.6,27.6,0,0,1-2.6-2.283c-.879-.89-1.7-1.838-2.5-2.8a14.972,14.972,0,0,0-1.142-1.256,7.566,7.566,0,0,0-2.032-1.518,3.425,3.425,0,0,0-2.352-.171,4.564,4.564,0,0,0-1.142.525,14.825,14.825,0,0,1-1.313.742,7.493,7.493,0,0,1-1.142.308H716.3a1.2,1.2,0,0,1,.057-.217,6,6,0,0,1,.434-.742,14.087,14.087,0,0,1,1.541-1.438,40.323,40.323,0,0,1,3.528-2.089,15.671,15.671,0,0,0,1.952-1.3,2.672,2.672,0,0,0,.833-1.142,2.615,2.615,0,0,0,0-1.358,3.247,3.247,0,0,0-.217-.639c-.091-.217-.183-.434-.285-.639a17.75,17.75,0,0,0-1.142-2.021,8.542,8.542,0,0,0-1.416-1.587c-.982-.868-2-1.655-3.025-2.443l.114.091a19.627,19.627,0,0,1-1.724-1.507,23.336,23.336,0,0,1-1.53-1.815l-.525-.685a1.267,1.267,0,0,0-.7-.537h-.1l-.263-.285-.879-.9c-.605-.616-1.21-1.244-1.792-1.9q-1.712-1.918-3.3-3.961c-1.815-2.363-3.539-4.863-6.05-6.564a6.725,6.725,0,0,0-2.283-1c-.388-.091-.776-.137-1.142-.217q-1.039-.24-2.089-.548c-1.347-.4-2.671-.913-4.007-1.347-.5-.16-1-.331-1.5-.525a10.79,10.79,0,0,1-1.142-.548,8.322,8.322,0,0,1-.948-.605c-.365-.308-.719-.628-1.062-.97a15.168,15.168,0,0,0-1.233-1.142,4.808,4.808,0,0,0-1.45-.868,5.707,5.707,0,0,0-1.142-.205,2.945,2.945,0,0,0-1.256.1,2.181,2.181,0,0,0-.788.491c-.274-.4-.525-.811-.765-1.222s-.662-1.062-.959-1.61a32.8,32.8,0,0,1-1.6-3.162c-.445-1.142-.868-2.2-1.324-3.288a.783.783,0,0,0,.125.285l-.16-.377v-.126h0c-.091-.228-.194-.457-.285-.7a26.64,26.64,0,0,1-1.4-3.8c-.343-1.29-.628-2.6-.982-3.881s-.753-2.409-1.142-3.6a37.531,37.531,0,0,0-1.53-3.79,16.61,16.61,0,0,0-2.283-3.368c-.411-.5-.845-.97-1.279-1.438s-.833-.879-1.279-1.29a38.36,38.36,0,0,0-3.151-2.466c-.936-.685-1.861-1.37-2.774-2.078-.639-.491-1.256-.993-1.907-1.473s-1.142-.765-1.644-1.142a15.393,15.393,0,0,1-2.123-2.1,15.587,15.587,0,0,1-1.347-2.512,33.125,33.125,0,0,1-1.2-3.881c-.228-.89-.479-1.769-.742-2.649a.982.982,0,0,0,.331-.24,1.53,1.53,0,0,0,.343-.571,1.77,1.77,0,0,0,0-.811c-.069-.217-.126-.434-.194-.651s-.217-.765-.342-1.142-.274-.868-.411-1.29v-.274c-.24-1.085-.525-2.146-.868-3.2s-.765-2.283-1.142-3.345c-.217-.594-.445-1.2-.685-1.792l-.388-.925c-.388-1.142-.8-2.226-1.2-3.333-.582-1.632-1.142-3.276-1.8-4.875a1.324,1.324,0,0,0,0-1.347c-.285-.479-.617-.948-.936-1.4s-.708-.982-1.085-1.461a31.1,31.1,0,0,0-2.4-2.66,19.134,19.134,0,0,0-2.74-2.283c-.457-.308-.936-.594-1.4-.89s-.856-.559-1.267-.868a20.259,20.259,0,0,1-1.792-1.632,23.925,23.925,0,0,1-1.552-1.838,15.834,15.834,0,0,1-1.827-2.968c-.217-.594-.411-1.142-.582-1.792s-.32-1.438-.457-2.158a12.347,12.347,0,0,0-.525-1.929,17.562,17.562,0,0,0-.9-2.078,69.637,69.637,0,0,0-5.012-7.226c-.856-1.142-1.7-2.283-2.58-3.425s-1.929-2.557-2.843-3.87a41.194,41.194,0,0,1-2.283-3.859c-.708-1.324-1.324-2.706-2.021-4.041s-1.359-2.546-2.055-3.813-1.53-2.683-2.283-4.018-1.5-2.557-2.283-3.836c-.365-.616-.708-1.256-1.142-1.861s-.856-1.313-1.3-1.964c-1.244-1.815-2.546-3.573-3.939-5.263-.708-.856-1.427-1.7-2.169-2.523s-1.4-1.507-2.066-2.283a35.6,35.6,0,0,1-2.34-3.573,37.044,37.044,0,0,1-1.838-3.619,9.219,9.219,0,0,1-.548-1.7,5.376,5.376,0,0,1,0-.959,4.118,4.118,0,0,1,.183-.89,13.979,13.979,0,0,0,.228-1.381,7.2,7.2,0,0,0,.057-1.142,7.11,7.11,0,0,0-.4-1.587,16.746,16.746,0,0,0-.8-2.112l-.48-1.142a10.1,10.1,0,0,1-.4-1.027c.1.1.194.217.3.331.274.388.548.776.788,1.142a11.675,11.675,0,0,1,.651,1.313c.537,1.336,1,2.706,1.655,4s1.393,2.591,2.123,3.87,1.45,2.557,2.112,3.87,1.324,2.626,2.021,3.927a13.991,13.991,0,0,0,1.359,2c.479.616.97,1.21,1.473,1.8.97,1.142,2.021,2.192,3.037,3.265.263.263.514.537.776.788a10.2,10.2,0,0,0,1.7,1.381,4.282,4.282,0,0,0,1.37.582,2.432,2.432,0,0,0,1.073,0,3.425,3.425,0,0,0,.822-.32l.183-.126a6.34,6.34,0,0,0,.514-.422c.068,0,.114-.126.171-.183l.4-.457a10.519,10.519,0,0,0,1.507-2.5,7.994,7.994,0,0,0,.479-1.45,11.486,11.486,0,0,0,.194-1.381V91.235a11.064,11.064,0,0,1,.148-1.621c.251-1.507.651-2.991.833-4.566a11.042,11.042,0,0,0,0-2.215,23.658,23.658,0,0,0-.274-2.375,15.927,15.927,0,0,0-.514-2.18c-.217-.685-.468-1.347-.742-2a18.822,18.822,0,0,0-1.142-2.18l-1.142-1.952c-.685-1.142-1.3-2.4-1.884-3.63s-1.142-2.512-1.815-3.744a10.537,10.537,0,0,0-1.2-1.8c-.114-.137-.24-.263-.354-.388a2.673,2.673,0,0,0-1.142-.765,2.728,2.728,0,0,0-.674-.091h-.091a3,3,0,0,0-.628.1l-.411.137c-1.244.445-2.466.936-3.676,1.461-.434.171-.856.331-1.3.479a7.981,7.981,0,0,1-1.142.251,19.6,19.6,0,0,1-2.455.091h-2.454c-.822,0-1.61.091-2.409.091a19.957,19.957,0,0,1-2.283-.16l-1.2-.217a1.416,1.416,0,0,0-.788,0l-.183-.114c-.388-.228-.742-.479-1.142-.719a12.645,12.645,0,0,0-2.283-1.062,13.859,13.859,0,0,0-4.76-.948,28.209,28.209,0,0,0-5,.479c-.776.126-1.553.274-2.283.457a14.839,14.839,0,0,0-2.2.651,11.737,11.737,0,0,0-1.975.97,9.78,9.78,0,0,0-1.484,1.267,31.372,31.372,0,0,1-2.729,2.637,10.2,10.2,0,0,1-1.712,1.062,8.551,8.551,0,0,1-1.393.434,10.376,10.376,0,0,1-2.146-.114c-1.564-.228-3.105-.571-4.658-.879s-3.174-.731-4.738-1.142-3.082-1.073-4.623-1.61a31.759,31.759,0,0,0-4.669-1.279c-1.359-.251-2.706-.457-4.076-.582s-2.5-.171-3.756-.194h-3.7a32.745,32.745,0,0,1-3.665-.251,12.192,12.192,0,0,1-2.375-.571,5.417,5.417,0,0,1-.856-.5,5.625,5.625,0,0,1-.7-.685c-.251-.3-.491-.616-.765-.913a8.621,8.621,0,0,0-1.918-1.541,15.9,15.9,0,0,0-2.283-1.142c-.719-.274-1.461-.525-2.215-.731s-1.564-.4-2.352-.559a22.411,22.411,0,0,0-2.614-.331c-1.564-.16-3.117-.274-4.681-.468a15.137,15.137,0,0,1-2.557-.605,6.474,6.474,0,0,1-.9-.537,15.012,15.012,0,0,1-1.747-1.952c-.251-.308-.514-.594-.788-.89a5.583,5.583,0,0,0-1.907-1.29,11.75,11.75,0,0,0-1.2-.457,9.385,9.385,0,0,0-1.244-.3,8.562,8.562,0,0,0-1.53-.126h-.948a16.941,16.941,0,0,0-2.523.32c-.856.16-1.7.354-2.546.582-1.553.434-3.082.913-4.658,1.279-.845.194-1.7.342-2.546.537s-1.633.411-2.432.651a16.141,16.141,0,0,0-2.5.959c-.377.183-.742.377-1.142.594a11.07,11.07,0,0,0-1.142.856A9.136,9.136,0,0,0,468.04,57a11.1,11.1,0,0,0-1.393,2.283c-.1.24-.194.479-.285.719a4.566,4.566,0,0,0-.263,1.233,9.4,9.4,0,0,0,0,1.393,9.987,9.987,0,0,0,.126,1.222c.08.434.171.868.263,1.3.137.685.274,1.37.388,2.055a11.49,11.49,0,0,1,.069,2.283,7.519,7.519,0,0,1-.308,1.21,5.321,5.321,0,0,1-.365.605,10.9,10.9,0,0,1-1.142,1.027c-.7.5-1.4.982-2.135,1.438a24.928,24.928,0,0,1-2.569,1.5,5.535,5.535,0,0,1-.879.24,10.912,10.912,0,0,1-1.929-.068c-.8-.126-1.587-.274-2.374-.457-.445-.114-.9-.24-1.347-.377s-.662-.24-.982-.365a23.306,23.306,0,0,1-2.135-1.073l-2.1-1.233c-1.427-.8-2.888-1.518-4.35-2.283s-3.128-1.61-4.749-2.283a21.978,21.978,0,0,0-2.283-.776,18.037,18.037,0,0,0-2.694-.457c-.708-.08-1.427-.114-2.146-.148s-1.438-.091-2.158-.148c-1.324-.114-2.637-.228-3.95-.4h0l-.811-.5c-.331-.194-.651-.388-.97-.616a8.237,8.237,0,0,1-.753-.662,8.511,8.511,0,0,1-.685-.753,9.437,9.437,0,0,1-.845-1.473,18.354,18.354,0,0,1-.548-1.8c-.16-.662-.308-1.336-.514-2a10.2,10.2,0,0,0-.651-1.6,7.571,7.571,0,0,0-1.381-1.7,6.713,6.713,0,0,0-2.843-1.359c-.651-.171-1.3-.308-1.964-.457l-1.964-.457c-1.336-.3-2.694-.457-4.03-.753a32.355,32.355,0,0,1-4.5-1.347,15.028,15.028,0,0,1-1.347-.7,10.112,10.112,0,0,0-1.233-.582,4.886,4.886,0,0,0-1.815-.251,12.375,12.375,0,0,0-1.941.251c-.445.08-.89.194-1.347.263l-1.142.114a4.783,4.783,0,0,1-3.425-.457l-1.518-.731c-.674-.3-1.347-.628-2.032-.89a19.233,19.233,0,0,0-1.952-.594c-.674-.183-1.37-.331-2.032-.571a1.987,1.987,0,0,1-.3-.171c-.1-.1-.205-.194-.308-.308a3.7,3.7,0,0,1-.194-.365c-.16-.411-.285-.845-.411-1.267a6.935,6.935,0,0,0-.4-1.016,3.354,3.354,0,0,0-.491-.651,1.61,1.61,0,0,0-.776-.5,3.139,3.139,0,0,0-1.861.126c-.308.114-.616.251-.925.4-.514.251-.993.571-1.507.833l-.422.114h-.08c-.057-.069-.126-.126-.171-.194-.171-.24-.331-.491-.5-.742l-.434-.582a4.565,4.565,0,0,0-.879-.822c-.673-.479-1.484-.719-2.169-1.142a4.654,4.654,0,0,1-.537-.525,3.315,3.315,0,0,1-.228-.4,2.281,2.281,0,0,1-.091-.3v-.354a7.408,7.408,0,0,1,.445-1.484,15.365,15.365,0,0,1,1.3-2.169c.845-1.016,1.769-1.975,2.66-2.945s1.986-2.066,2.934-3.151a15.172,15.172,0,0,0,2.751-3.881,8.539,8.539,0,0,0,.468-1.507,5.97,5.97,0,0,0,.148-1.8,5.238,5.238,0,0,0-.263-1.324,8.925,8.925,0,0,0-.4-.959,4.349,4.349,0,0,0-.765-.993,8.651,8.651,0,0,0-1.37-1.039c-.308-.194-.616-.4-.913-.616a6.545,6.545,0,0,1-.616-.639,2.966,2.966,0,0,1-.32-.514,2.28,2.28,0,0,1-.1-.377,2.568,2.568,0,0,1,0-.3,2.914,2.914,0,0,1,.091-.3,4.172,4.172,0,0,1,.377-.651,13.413,13.413,0,0,1,1.986-1.781,10.892,10.892,0,0,0,1.792-1.61,12.7,12.7,0,0,0,.925-1.256,10.016,10.016,0,0,0,.674-1.359,2.862,2.862,0,0,0,.16-.594,2.934,2.934,0,0,0,0-.948,3.274,3.274,0,0,0-.171-.422,1.965,1.965,0,0,0-.263-.365,2.284,2.284,0,0,0-.753-.5,3.288,3.288,0,0,0-2.843.422c-.685.434-1.324.948-2.032,1.359a1.06,1.06,0,0,0-.08-.491,3.76,3.76,0,0,0-.1-.491,2.8,2.8,0,0,0-.194-.514,3.128,3.128,0,0,0-.4-.559,2.089,2.089,0,0,0-.97-.616q-.377-.1-.753-.171a6.084,6.084,0,0,1-.925-.228l-.137-.08h0l-.069-.126a1.175,1.175,0,0,0-.148-.388c-.057-.137-.148-.365-.228-.548a2.762,2.762,0,0,0-.468-.7,2.547,2.547,0,0,0-.5-.411,2.283,2.283,0,0,0-.833-.331,2.066,2.066,0,0,0-.457,0,3.928,3.928,0,0,0-1.085.183c-.776.205-1.507.582-2.283.845a20.547,20.547,0,0,0-2.546,1.039c-.7.342-1.381.7-2.089,1a21.405,21.405,0,0,1-2.283.765l-1.621.525a1.9,1.9,0,0,0-.377,0h-.605c-.445-.068-.879-.171-1.313-.251a7.615,7.615,0,0,1-1.324-.377,13.025,13.025,0,0,0-1.484-.605,8.9,8.9,0,0,0-1.633-.377,8.117,8.117,0,0,0-1.724-.171,14.576,14.576,0,0,0-1.849.217,8.95,8.95,0,0,1-1.747.068,10.273,10.273,0,0,1-1.758-.479,15.482,15.482,0,0,0-2.637-1.05,5.047,5.047,0,0,0-1.244-.183,1.78,1.78,0,0,0-.354,0,4.2,4.2,0,0,0-.913.194,5.708,5.708,0,0,0-1.085.479,10.9,10.9,0,0,0-1.45,1.05,9.418,9.418,0,0,1-1.564,1.016c-.457.171-.936.32-1.416.457a14,14,0,0,1-1.815.434,9.132,9.132,0,0,1-1.769,0,11.691,11.691,0,0,1-1.644-.457,36.863,36.863,0,0,0-6.644-2.82,7.844,7.844,0,0,0-1.142-.16l-.845-.08a18.733,18.733,0,0,0-1.964,0,8.345,8.345,0,0,0-1.073.126l-1,.194A10.947,10.947,0,0,0,315,2.795c-.354.137-.7.285-1.039.445a17.33,17.33,0,0,1-2.375.742,21.4,21.4,0,0,1-2.283.411,33.951,33.951,0,0,1-3.733.228,35.388,35.388,0,0,1-3.8-.228c-1.3-.126-2.614-.263-3.927-.331s-2.5,0-3.744,0c-.868,0-1.735,0-2.614.057a12.887,12.887,0,0,0-1.861.205,11.245,11.245,0,0,0-2.032.5,11.314,11.314,0,0,0-2.66,1.244,13.914,13.914,0,0,0-1.587,1.313c-.628.594-1.267,1.142-1.929,1.735l-.674.491a7.216,7.216,0,0,1-1.244.662c-.342.137-.685.274-1.039.388a13.252,13.252,0,0,1-1.587.468,6.1,6.1,0,0,1-1.29,0l-.811-.1a9.647,9.647,0,0,0-1.518-.057,11.61,11.61,0,0,0-1.256.091,10.387,10.387,0,0,0-1.039.183,6.04,6.04,0,0,0-1.221.445,11.508,11.508,0,0,0-1.7,1.073c-.811.571-1.667,1.085-2.5,1.644q-.662.445-1.3.925a10.274,10.274,0,0,1-1.507,1.016,7.329,7.329,0,0,1-.982.263c-.411,0-.822.057-1.244.057h-1.61a29.11,29.11,0,0,1-2.991-.274,31.406,31.406,0,0,0-3.6-.331h-3.676c-1.244,0-2.477-.091-3.722-.194-.605,0-1.2-.126-1.8-.16s-1.313,0-1.975,0a23.7,23.7,0,0,0-2.375.16l-.8-.068q-.742-.205-1.438-.445c-.685-.228-1.359-.514-2.032-.776a12.719,12.719,0,0,1-2.4-1.279,11.13,11.13,0,0,1-1.142-1.039c-.411-.445-.833-.879-1.279-1.29a10.9,10.9,0,0,0-1.073-.845,5.092,5.092,0,0,0-1.872-.776,10.274,10.274,0,0,0-1.667-.228h-.126a7.683,7.683,0,0,0-1.256.137,4.27,4.27,0,0,0-1.906.788A8.483,8.483,0,0,0,220.7,11a10.558,10.558,0,0,0-1.142,1.518c-.342.514-.651,1.062-.948,1.6s-.582,1.05-.845,1.587-.639,1.313-.97,1.964-.731,1.45-1.142,2.146c-.811,1.313-1.69,2.569-2.614,3.79-.263.32-.525.628-.8.936a12.367,12.367,0,0,1-.959.925,20.789,20.789,0,0,1-1.781,1.518,30.617,30.617,0,0,1-3.037,1.884c-1.05.582-2.135,1.142-3.2,1.655-.525.274-1.039.559-1.575.811l-1.644.742c-1.142.479-2.158,1.05-3.219,1.6-.5.263-1.016.491-1.53.708-1.062.445-2.135.879-3.219,1.29-.616.217-1.233.434-1.827.7a14.844,14.844,0,0,0-1.655.822,12.227,12.227,0,0,0-3.482,3.368,13.869,13.869,0,0,0-.925,1.381c-.308.537-.582,1.073-.845,1.632-.445.959-.89,1.929-1.267,2.923s-.7,1.872-1.073,2.8c-.205.479-.411.959-.651,1.416s-.571,1.073-.9,1.587c-.639,1-1.347,1.964-1.986,2.968-.331.537-.662,1.062-.948,1.61a15.588,15.588,0,0,0-.8,1.849,33.648,33.648,0,0,0-.993,3.322c-.24.913-.422,1.838-.628,2.751-.114.468-.228.925-.354,1.393a14.768,14.768,0,0,1-.514,1.712,18.265,18.265,0,0,1-2.135,3.425c-.7.879-1.4,1.747-2.158,2.58a11.973,11.973,0,0,1-1.142,1.142l-.685.674c-.183.183-.388.342-.582.5-.9.651-1.827,1.244-2.763,1.849-.491.32-.982.662-1.507.936s-1.142.594-1.678.879-1.05.479-1.575.742a13.172,13.172,0,0,0-1.553.913,32.506,32.506,0,0,0-3.117,2.26c-.422.365-.845.708-1.279,1.05a10,10,0,0,1-1.518.959c-.217.114-.434.205-.651.308a14.978,14.978,0,0,1-3.071.788c-.514.068-1.016.114-1.53.148s-1.2.068-1.792.126a26.689,26.689,0,0,0-3.676.548,11.986,11.986,0,0,0-1.781.571,7.786,7.786,0,0,0-2.123,1.3,6.188,6.188,0,0,0-1.142,1.438c-.3.434-.537.89-.811,1.336a16.4,16.4,0,0,1-.948,1.381c-.605.765-1.279,1.484-1.918,2.283s-1.347,1.587-2.021,2.375-1.4,1.678-2.158,2.477c-.354.365-.708.731-1.05,1.142s-.559.605-.822.925a7.169,7.169,0,0,0-.434.594,7.351,7.351,0,0,0-.822.479c-.32.217-.616.457-.913.7l-1.039.753c-.445.3-.925.525-1.381.811a10.949,10.949,0,0,0-1.37.936,10.785,10.785,0,0,0-1.05,1.142,36.715,36.715,0,0,0-3.516,5.012c-1.027,1.667-2.043,3.334-3.025,5.012s-2.078,3.55-3.276,5.229h0c-.217.274-.434.548-.662.8s-.708.765-1.073,1.142c-.651.662-1.37,1.244-2.066,1.861s-1.518,1.336-2.283,2.021a21.314,21.314,0,0,0-2.078,2.283,14.316,14.316,0,0,0-1.815,2.569,29.181,29.181,0,0,0-1.347,2.831c-.388.936-.708,1.9-1.039,2.854s-.685,1.8-1.05,2.706l-.091.24c-.263.594-.537,1.2-.833,1.781a9.224,9.224,0,0,1-.868,1.336,8.152,8.152,0,0,1-.948.936c-.217.148-.434.308-.662.434s-.605.3-.9.434a30.165,30.165,0,0,0-2.831,1.279,5.5,5.5,0,0,0-1.69,1.279,6.737,6.737,0,0,0-.879,1.381c-.148.32-.274.639-.4.959a14.682,14.682,0,0,0-.731,2.717c-.091.537-.148,1.142-.205,1.644s-.114,1.016-.148,1.518a36.246,36.246,0,0,0,.16,6.1,11.3,11.3,0,0,0,.285,1.507,9.652,9.652,0,0,0,.32.97,12.083,12.083,0,0,0,.559,1.142c.228.422.5.822.765,1.21l.822,1.244a9.532,9.532,0,0,1,.491.879,8.575,8.575,0,0,1,.422,1.5,14.967,14.967,0,0,1,0,1.9,13.008,13.008,0,0,1-.148,1.5c-.137.845-.274,1.69-.468,2.512a16.235,16.235,0,0,1-.8,2.42c-.4.879-.776,1.758-1.142,2.671a9.6,9.6,0,0,0-.388,1.975,7.479,7.479,0,0,0,0,1.336,54.509,54.509,0,0,0,.719,5.605c.1.8.194,1.6.217,2.4a20.437,20.437,0,0,1-.16,2.637c-.285,1.929-.719,3.824-1.142,5.708-.24.993-.479,1.986-.765,2.957s-.605,1.781-.9,2.671-.639,1.872-.959,2.808-.594,1.872-.879,2.82-.594,1.941-.868,2.923-.559,1.8-.89,2.694l-.171.445c-.308.708-.628,1.4-1,2.078a25.037,25.037,0,0,0-1.142,2.283c-.331.776-.7,1.438-1.062,2.158a19.738,19.738,0,0,1-1.541,2.534,6.645,6.645,0,0,1-.89.9,6.229,6.229,0,0,1-.525.434c-.377.285-.765.559-1.142.856a5.194,5.194,0,0,0-1.05,1.142l-.114.274a1.781,1.781,0,0,0-.194.571,3.424,3.424,0,0,0,0,1.142,4.235,4.235,0,0,0,.411,1.142,6.391,6.391,0,0,0,.308.628l.731,1.336c.274.491.514.993.742,1.507a7.341,7.341,0,0,0,1.142,1.827,4.5,4.5,0,0,0,2.694,1.4c.251,0,.514.069.776.091v.068c-.183.4-.377.811-.548,1.222a4.475,4.475,0,0,0-.274,1.815c0,.9.126,1.8.068,2.706a1.827,1.827,0,0,0,0,.24,11.174,11.174,0,0,0-1.69.639,6.752,6.752,0,0,0-.594.4,7.088,7.088,0,0,0-.9.742,5.126,5.126,0,0,0-1.142,1.69,4.886,4.886,0,0,0-.388,2.089,10.867,10.867,0,0,0,.126,1.21,7.181,7.181,0,0,0,.354,1.461,12.994,12.994,0,0,0,.571,1.438,4.909,4.909,0,0,0,1.244,1.575c.24.205.491.4.742.582a4.042,4.042,0,0,0,1.062.537,6.636,6.636,0,0,0,1.142.24,12.411,12.411,0,0,1,1.838.479l.331.194.126.126a1.99,1.99,0,0,1,.126.205v.24h0v.068l-.1.1a13.334,13.334,0,0,1-1.667.948,6.723,6.723,0,0,0-2.534,1.815,2.751,2.751,0,0,0-.468,1.906,2.4,2.4,0,0,0,.1.571c.068.171.137.331.217.5a3.137,3.137,0,0,0,.217.32,2.112,2.112,0,0,0,.354.422,2.431,2.431,0,0,0,.925.537,3.689,3.689,0,0,0,.925.183,3.643,3.643,0,0,0,.788,0h.445c1.21-.114,2.432-.217,3.642-.285a18.38,18.38,0,0,0,1.941-.068,12.277,12.277,0,0,1,1.7.114,10.5,10.5,0,0,1,1.667.422,3.356,3.356,0,0,1,.525.285h0v.1a1.53,1.53,0,0,1,.08.308.56.56,0,0,1,0,.137,1.61,1.61,0,0,1-.171.548,8.374,8.374,0,0,1-.685,1.142l-.97,1.256c-.1.137-.194.263-.285.411a5.306,5.306,0,0,0-.445.925,3.493,3.493,0,0,0-.1,1.906,3.219,3.219,0,0,0,.811,1.621,2.284,2.284,0,0,0,.514.468,2.536,2.536,0,0,0,.559.343,5.959,5.959,0,0,0,.925.354c.514.171,1.05.3,1.564.479a3.993,3.993,0,0,1,.479.274,8.347,8.347,0,0,1,.948.959l.16.251a14.247,14.247,0,0,1,.457,1.952,9.658,9.658,0,0,0,.9,2.42,4.852,4.852,0,0,0,.571.8,5.71,5.71,0,0,0,.97.833,5.959,5.959,0,0,0,1.518.776c.3.114.616.194.925.3s.525.183.776.285a14.559,14.559,0,0,1,2.477,1.461,18.665,18.665,0,0,1,2.534,2.58l.377.548c.137.217.251.457.365.685a27.769,27.769,0,0,1,.913,3.014,11.656,11.656,0,0,0,.628,1.735l.719,1.575.24.594a.856.856,0,0,0,.377.491.81.81,0,0,0,.628.08h0c.068.1.148.205.217.32.183.32.342.651.5.982a6.029,6.029,0,0,1,.342,1.142,6.7,6.7,0,0,1,0,1.587c-.137.879-.308,1.747-.445,2.614,0,.4-.1.8-.126,1.21a7.513,7.513,0,0,0,.08,1.6,5.83,5.83,0,0,0,.251.9,8.345,8.345,0,0,0,.628,1.553,10.068,10.068,0,0,0,2.283,2.671,9.563,9.563,0,0,0,1.039.788c.377.251.765.457,1.142.708a3.43,3.43,0,0,1,.365.331c.08.126.148.251.217.377.274.742.457,1.507.708,2.283a8.136,8.136,0,0,0,.537,1.21,4.759,4.759,0,0,0,.468.605,3.56,3.56,0,0,0,.5.514,7.56,7.56,0,0,0,1.518.913c.354.183.742.331,1.142.491l1.073.5c.388.171.776.342,1.142.537a6.563,6.563,0,0,1,.982.639,24.958,24.958,0,0,1,2.1,2.009,15.442,15.442,0,0,0,2.283,2.135,27.833,27.833,0,0,0,2.58,1.621,33.847,33.847,0,0,1,2.922,1.724,12.556,12.556,0,0,1,1.7,1.861c.388.514.776,1.016,1.142,1.518a26.489,26.489,0,0,0,2.66,2.991c.97.913,1.964,1.792,2.9,2.728s1.929,1.986,2.934,2.934c.274.263.582.5.879.742l1.142.879L145,348.21c1.05.811,2.032,1.678,3.025,2.546a34.149,34.149,0,0,0,3.368,2.489c1.073.731,2.112,1.518,3.2,2.283a16.451,16.451,0,0,0,2.557,1.427,10.619,10.619,0,0,0,3.014.81c.479.057.948.1,1.427.126l1.3.068a18.054,18.054,0,0,1,2.352.251h.171c.639.08,1.279.16,1.918.217a13.112,13.112,0,0,0,2.009,0,15.266,15.266,0,0,0,2.283-.285c.685-.16,1.347-.32,2.021-.5,1.267-.354,2.546-.674,3.824-.993l1.986-.514c.628-.16,1.244-.331,1.849-.548,1.575-.548,3.117-1.142,4.681-1.77s3.048-1.359,4.566-2.055a17.768,17.768,0,0,1,3.676-1.142,18.075,18.075,0,0,1,3.425,0c1.073.1,2.135.217,3.2.354,1.507.217,3,.468,4.566.594.708.057,1.416.068,2.123.114s1.4.1,2.112.171h-.274l.479.057h-.183a23.96,23.96,0,0,1,2.512.525c.8.205,1.6.422,2.4.594s1.712.285,2.569.422l1.142.228.616.148a4.1,4.1,0,0,1,.4.137l.445.251.263.228c.285.228.571.445.868.651a5.513,5.513,0,0,0,1.142.548l.982.331,1.073.377a6.4,6.4,0,0,0,1.678.308,5.948,5.948,0,0,0,1.621-.194,7.4,7.4,0,0,0,1.4-.571c.32-.148.628-.331.936-.5a19.02,19.02,0,0,1,1.8-.913c.662-.274,1.256-.594,1.884-.89,1.256-.628,2.534-1.233,3.767-1.9.594-.32,1.2-.628,1.815-.9.377-.16.742-.3,1.142-.422a9.674,9.674,0,0,1,1.2-.251c.685-.08,1.381-.171,2.066-.285a19.57,19.57,0,0,0,2-.479,19.915,19.915,0,0,0,2.283-.845c.628-.263,1.244-.559,1.861-.833a16.346,16.346,0,0,1,2.18-.742c.639-.148,1.29-.24,1.941-.354.982-.148,1.964-.308,2.934-.434l1.5-.194a10.613,10.613,0,0,0,1.336-.263,8.655,8.655,0,0,0,1.964-.8,11.782,11.782,0,0,0,1.142-.719h0a.982.982,0,0,0,.856-.491.911.911,0,0,0,.091-.183c.422-.285.845-.571,1.29-.822.833-.479,1.678-.9,2.546-1.313l.445-.183a8.3,8.3,0,0,1,2.043-.537c1.324-.16,2.66-.251,4.007-.32l4.121-.274c1.4-.091,2.82-.228,4.235-.274h4.224c.708,0,1.724-.183,2.591-.263a17.693,17.693,0,0,1,3.425-.08,9.508,9.508,0,0,1,1.929.468,10.272,10.272,0,0,1,1.575.913c1.142.936,2.169,1.964,3.254,2.945.605.548,1.21,1.085,1.827,1.61s1.2.959,1.8,1.416c1.016.788,2.021,1.587,3.082,2.283s2.089,1.4,3.117,2.123l.171.16.069.126a3.254,3.254,0,0,1,.148.548c0,.719,0,1.45,0,2.158l-.1,2.192a14.328,14.328,0,0,0,0,2.1,5.184,5.184,0,0,0,.3,1.324,4.213,4.213,0,0,0,.856,1.358,5.035,5.035,0,0,0,1.142.9,6.867,6.867,0,0,0,.776.365c.4.171.811.354,1.233.491s.651.217.982.3a14.307,14.307,0,0,0,2.089.377,5.97,5.97,0,0,0,3.014-.514,5.046,5.046,0,0,0,2.055-1.735,12.878,12.878,0,0,0,1.05-1.678c.342-.639.605-1.324.993-1.929l.171-.183h.434l.582.148a5.284,5.284,0,0,1,.479.285c.365.3.708.616,1.062.925s1,.833,1.53,1.222a7.726,7.726,0,0,0,1.507.822l.194.091a1.3,1.3,0,0,0,.616,1.142,4.406,4.406,0,0,0,1.781.479,12.707,12.707,0,0,0,1.473.068,8.389,8.389,0,0,0,2.82-.4,6.849,6.849,0,0,0,2.865-1.667,5.7,5.7,0,0,0,.616-.753,2.124,2.124,0,0,0,.251-.479,3.024,3.024,0,0,0,.217-.639l1.393.548c.925.365,1.884.639,2.82.993a13.148,13.148,0,0,1,1.838,1.016,6.638,6.638,0,0,1,.731.765l.993,1.358a8.389,8.389,0,0,0,.948,1.073,5.319,5.319,0,0,0,2.021,1.039,7.3,7.3,0,0,0,1.324.228c.285,0,.582.068.879.08a16.127,16.127,0,0,1,1.678.114,6.246,6.246,0,0,1,.8.183h.057v.068a6.844,6.844,0,0,1,.263,1.062,18.57,18.57,0,0,1-.08,2.523c-.057.811-.114,1.61-.1,2.42a18.272,18.272,0,0,0,.217,2.5c.114.765.263,1.518.388,2.283a10.587,10.587,0,0,1,0,2.283c-.137.845-.285,1.678-.422,2.523s-.342,1.827-.559,2.728-.457,1.941-.662,2.923-.377,1.827-.594,2.728c-.434,1.9-.982,3.756-1.473,5.64s-.97,3.619-1.324,5.468c-.205,1.05-.377,2.112-.479,3.185-.069.868-.126,1.747-.228,2.614-.217,1.53-.422,3.071-.616,4.566a18.575,18.575,0,0,1-.468,2.375c-.251.868-.525,1.724-.856,2.569s-.993,1.975-1.484,2.968a9.725,9.725,0,0,0-.845,2.226,4.8,4.8,0,0,0,0,1.758,5.046,5.046,0,0,0,.434,1.267,11.853,11.853,0,0,0,.845,1.6,15.691,15.691,0,0,0,1.21,1.518,16.133,16.133,0,0,0,1.233,1.142,10.46,10.46,0,0,1,1.142,1.142,5.267,5.267,0,0,1,.422.685,2.331,2.331,0,0,0,.114.468,9.507,9.507,0,0,0,.126,1.884,8.083,8.083,0,0,0,1.313,3.5,8.984,8.984,0,0,0,2.432,2.158l1.644,1.142a8.078,8.078,0,0,1,.719.673,3.1,3.1,0,0,1,.24.422,13.386,13.386,0,0,1,.388,1.621,6.118,6.118,0,0,0,1.655,2.945c.811.822,1.69,1.6,2.523,2.409s1.712,1.7,2.534,2.591,1.507,1.69,2.215,2.591,1.621,2.055,2.4,3.2a28.545,28.545,0,0,0,2.968,3.425c1.027,1.027,2.158,1.929,3.231,2.9.548.491,1.062,1,1.575,1.53a12.3,12.3,0,0,1,1.142,1.381,15.89,15.89,0,0,1,.925,1.359,15.578,15.578,0,0,1,.788,1.5c.3.742.548,1.484.8,2.283s.548,1.69.8,2.557c.5,1.769.982,3.55,1.427,5.331.228.879.4,1.769.639,2.649.126.457.263.9.411,1.347a12.358,12.358,0,0,0,.719,1.644,16.324,16.324,0,0,0,1.484,2.454c.594.822,1.279,1.575,1.929,2.34a23.058,23.058,0,0,1,1.461,2.158,21.84,21.84,0,0,1,1.2,2.432c.788,1.986,1.53,4,2.2,6.039a36.005,36.005,0,0,1,1.553,5.856,10.041,10.041,0,0,1,0,1.758,5.439,5.439,0,0,1-.194.708,4.257,4.257,0,0,1-.457.8,6.721,6.721,0,0,1-.6.662,6.5,6.5,0,0,0-.548.582,4.566,4.566,0,0,0-.514.742,3.667,3.667,0,0,0-.331,1.142,6.53,6.53,0,0,0,0,1.05v.468q.069.616.171,1.233a13.035,13.035,0,0,0,.411,1.872,8.875,8.875,0,0,0,.354.913c.137.342.285.674.457,1.016a34.618,34.618,0,0,0,1.861,3.242,34.063,34.063,0,0,0,2.375,3.2,19.653,19.653,0,0,1,2.169,3.608c.114.308.217.605.32.913a10.7,10.7,0,0,1,.217,1.05,5.921,5.921,0,0,1,.057.776,6.648,6.648,0,0,1-.068,1.142c-.228,1.507-.537,2.991-.731,4.487s-.285,3.117-.445,4.681a1.244,1.244,0,0,0,.342.89,1.435,1.435,0,0,1-.148.422q-.639,1.29-1.4,2.511a23.529,23.529,0,0,1-1.633,2.363c-.491.628-1,1.233-1.518,1.849s-1.062,1.324-1.575,2a56.606,56.606,0,0,1-3.961,4.475l-.982.982a15.45,15.45,0,0,0-1.142,1.416,15.982,15.982,0,0,0-1.5,2.614,22.36,22.36,0,0,0-1.142,3.2,28.387,28.387,0,0,0-.742,3.242c-.194,1.016-.342,2.032-.5,3.037s-.354,1.952-.559,2.922c-.434,2.158-.913,4.315-1.381,6.473-.217,1-.445,2.009-.662,3.014s-.388,2.123-.525,3.2a44.814,44.814,0,0,0,0,6.313v6.519c0,2.169,0,4.315.057,6.461a22.548,22.548,0,0,0,1.016,6.587,24.063,24.063,0,0,0,1.279,2.957c.468.948.9,1.929,1.427,2.854s1.142,1.838,1.61,2.774,1.142,1.952,1.667,2.911,1.073,1.815,1.632,2.717,1.142,1.781,1.621,2.706c1.085,1.941,2.283,3.836,3.425,5.708.571.936,1.142,1.884,1.724,2.808s1.221,1.735,1.849,2.591,1.279,1.792,1.918,2.706,1.267,1.747,1.907,2.6a26.926,26.926,0,0,1,1.747,2.774l.742,1.416c.274.514.548,1.027.811,1.541.514,1,.993,2.021,1.53,3.014s1.142,1.941,1.575,2.945c.251.639.491,1.279.7,1.941a15.465,15.465,0,0,1,.457,2.135q.365,2.98.445,5.959c0,1.142.057,2.158.114,3.231a31.218,31.218,0,0,0,.434,3.425c.354,2.055.788,4.1,1.142,6.165s.8,4.384,1.21,6.576c.32,1.7.639,3.425,1.027,5.092s.822,3.63,1.393,5.4c.274.879.582,1.758.913,2.626s.628,1.747.959,2.614c.662,1.769,1.473,3.425,2.283,5.172.342.845.651,1.7.982,2.557.411,1.085.868,2.146,1.381,3.185a22.593,22.593,0,0,0,1.553,2.489c.548.8,1.142,1.575,1.724,2.363s1.142,1.6,1.7,2.375,1.347,1.769,2.078,2.614,1.2,1.473,1.792,2.2,1.221,1.507,1.838,2.283a50.234,50.234,0,0,1,3.334,4.863,29.951,29.951,0,0,1,1.461,2.728c.388.868.753,1.735,1.142,2.6.594,1.45,1.142,2.9,1.735,4.361s1.142,2.877,1.69,4.3A22.316,22.316,0,0,0,444,750.569c.936,1.359,2.032,2.614,3.071,3.893a.707.707,0,0,0,.639.251l.137.274c.217.559.411,1.142.605,1.7a10.722,10.722,0,0,1,.445,1.758,18.117,18.117,0,0,1-.091,4.087,22.827,22.827,0,0,1-1.393,5.194,13.7,13.7,0,0,0-.925,2.466,4.44,4.44,0,0,0-.069,1.553,4.21,4.21,0,0,0,.411,1.142,10.165,10.165,0,0,0,.514.9c.388.605.811,1.142,1.222,1.792a11.886,11.886,0,0,1,.89,1.575c.32.868.582,1.747.948,2.58a12.456,12.456,0,0,0,1.895,3.322,8.7,8.7,0,0,0,2.283,1.644l1.21.662a22.664,22.664,0,0,1,2.283,1.45l.993.845a16.726,16.726,0,0,0,1.45,1.142,12.107,12.107,0,0,0,1.21.776,7.784,7.784,0,0,0,2.283.936,3.321,3.321,0,0,0,1.735-.114,7.075,7.075,0,0,0,.9-.411,9.138,9.138,0,0,0,1.267-.856c.4-.308.8-.594,1.21-.891l.605-.422c.16-.091.308-.194.457-.3a4.847,4.847,0,0,1,.731-.365,6.366,6.366,0,0,1,.9-.285,6.856,6.856,0,0,1,1.37.057q.856.137,1.712.343l1.8.5a16.927,16.927,0,0,0,2.283.411,9.449,9.449,0,0,0,2.717-.171,13.266,13.266,0,0,0,3.744-1.359c1.142-.536,2.146-1.142,3.265-1.667.388-.148.788-.285,1.2-.4a6.988,6.988,0,0,1,.948-.194,9.915,9.915,0,0,1,1.3,0,11.319,11.319,0,0,1,1.381.126l1.142.183a12.825,12.825,0,0,0,1.484.171,6.4,6.4,0,0,0,1.861-.228c1.142-.285,2.158-.731,3.276-.913a8.65,8.65,0,0,1,1.884,0c.753.126,1.5.3,2.226.48s1.541.388,2.283.514a11.039,11.039,0,0,0,1.507.114h.605l1.142-.057,2.066-.126a24.274,24.274,0,0,0,4.566-.582,10.619,10.619,0,0,0,2.169-.9c.3-.148.594-.331.879-.5l.982-.536c.331-.183.674-.343,1.016-.491a13.849,13.849,0,0,1,1.507-.525,14.416,14.416,0,0,1,1.827-.377,20.419,20.419,0,0,1,2.043-.1c.708,0,1.416.068,2.123.08a16.766,16.766,0,0,0,2.146-.137,16.584,16.584,0,0,0,2.283-.491,15.721,15.721,0,0,0,4.11-1.929c1.142-.753,2.363-1.553,3.5-2.386s2.363-1.758,3.539-2.637l1.712-1.233c.628-.457,1.233-.948,1.827-1.427,1.142-.913,2.283-1.8,3.425-2.706s2.283-1.838,3.425-2.728,2.283-1.724,3.425-2.569,2.283-1.872,3.425-2.854,2.044-1.952,3.071-2.934,2.089-1.986,3.105-3,1.975-2.009,2.945-3.037,2-2.055,3.025-3.071,2.066-2.055,3.048-3.139a33.676,33.676,0,0,0,2.694-3.619,27.623,27.623,0,0,0,1.747-2.911c.274-.525.548-1.05.845-1.575a16.919,16.919,0,0,1,.959-1.461l.822-1a1.141,1.141,0,0,0,.582-.32c.388-.411.788-.822,1.142-1.222a10.179,10.179,0,0,1,.982-.879c.285-.194.559-.377.856-.548s.674-.365,1.016-.537a14.3,14.3,0,0,0,1.861-1.073,17.124,17.124,0,0,0,3.6-3.311,7.648,7.648,0,0,0,.639-.948,9.49,9.49,0,0,0,.56-1.141q.445-1.142.856-2.283c.537-1.5.959-3.037,1.438-4.566.377-1.21.788-2.409,1.142-3.619s.879-2.455,1.313-3.687a16.886,16.886,0,0,0,.571-1.77,12.874,12.874,0,0,0,.377-2.283,8.906,8.906,0,0,0-.114-1.655,7.381,7.381,0,0,0-.388-1.324c-.217-.594-.479-1.142-.731-1.747a14.193,14.193,0,0,1-.7-2.215,3.345,3.345,0,0,1,0-.48,4.873,4.873,0,0,1,.205-.7,7.654,7.654,0,0,1,.765-1.233l-.228.3.263-.331a11.184,11.184,0,0,1,1-1.073,2.848,2.848,0,0,1,.445-.263,3.368,3.368,0,0,1,.605-.16c.582-.068,1.142-.1,1.758-.171a17.642,17.642,0,0,0,1.861-.331,9.977,9.977,0,0,0,1.53-.5c.605-.228,1.142-.457,1.792-.708a13.317,13.317,0,0,0,1.53-.719c.5-.285.97-.605,1.438-.936.993-.731,1.929-1.53,2.888-2.283q1.769-1.336,3.562-2.6a22.146,22.146,0,0,1,3.676-2.1c.742-.285,1.5-.548,2.283-.879.388-.183.776-.377,1.142-.582a10.259,10.259,0,0,0,1.142-.776,5.583,5.583,0,0,0,.879-.845c.205-.24.4-.491.582-.742a4.57,4.57,0,0,0,.582-1.21,8.089,8.089,0,0,0,.274-1.267c.114-.765.24-1.541.388-2.283s.3-1.507.491-2.283.434-1.61.605-2.42a11.2,11.2,0,0,0,.3-2.466c0-.788,0-1.587-.068-2.386s0-1.69,0-2.534a20.139,20.139,0,0,1,.217-2.489,23.656,23.656,0,0,0,.354-4.669,18.173,18.173,0,0,0-.217-2.352c-.1-.788-.251-1.712-.4-2.557a25.125,25.125,0,0,0-1.142-4.475,14.836,14.836,0,0,0-1.05-2.283c-.217-.354-.445-.708-.7-1.05s-.559-.731-.856-1.085l-.217-.3a7.235,7.235,0,0,1-.7-1.142,8.517,8.517,0,0,1-.434-1.667,11.043,11.043,0,0,1,0-2.215,12.936,12.936,0,0,1,.16-1.655,14.675,14.675,0,0,0,.206-2.557,3.481,3.481,0,0,0-.217-1.142,3.687,3.687,0,0,0-.639-1.142l-.514-.651a4.235,4.235,0,0,1-.377-.617.638.638,0,0,1,0-.137h.091a12.857,12.857,0,0,1,2.146.731l.982.354a4.121,4.121,0,0,0,2.352.08,5.617,5.617,0,0,0,1.541-.731c.331-.194.651-.411.97-.628.685-.468,1.336-.959,1.975-1.484s1.142-.97,1.655-1.461l1.9-1.712c1.21-1.142,2.443-2.18,3.7-3.231,2.386-2,4.566-4.213,6.85-6.267,1.142-1.027,2.34-2.078,3.482-3.128l1.655-1.576c.525-.514,1.062-1,1.632-1.473a11,11,0,0,1,1.142-.753c.422-.228.9-.525,1.381-.765.856-.434,1.724-.845,2.6-1.222s2.066-.856,3.071-1.324,2.043-.959,3.06-1.438,2.009-1,3.014-1.5,1.906-.89,2.877-1.3c1.359-.548,2.728-1.073,4.076-1.678.639-.3,1.279-.605,1.895-.959a13.818,13.818,0,0,0,1.8-1.21,60.8,60.8,0,0,0,6.667-6.393A45.294,45.294,0,0,0,691,587a18.214,18.214,0,0,0,1.073-1.575,1.3,1.3,0,0,0,.708-.422h0a1.142,1.142,0,0,0,.137-.171,3.518,3.518,0,0,0,.445-.708c.137-.285.251-.559.365-.845.4-.913.845-1.8,1.233-2.729.091-.228.194-.468.274-.7a5.328,5.328,0,0,0,.331-1.461,9.572,9.572,0,0,0,0-1.621c-.08-1.073-.24-2.146-.308-3.219a15,15,0,0,1,0-1.6,15.977,15.977,0,0,1,.126-1.8c.126-1.142.24-2.283.285-3.425s0-2.283,0-3.425v-6.85a72.9,72.9,0,0,0-.331-8.79c-.183-1.518-.4-3.037-.559-4.566a17.4,17.4,0,0,1,.171-4.076c.125-.822.274-1.632.445-2.443a26.144,26.144,0,0,0,.548-2.66,14.354,14.354,0,0,0,.091-2.523,19.978,19.978,0,0,0-.422-2.968,10.782,10.782,0,0,0-1.142-2.911,7,7,0,0,0-2.683-2.409c-1.53-.89-3.254-1.45-4.692-2.489a5.044,5.044,0,0,1-.605-.605,4.546,4.546,0,0,1-.388-.639,23.3,23.3,0,0,1-.514-2.283c-.137-.731-.251-1.473-.377-2.2,0-.548-.126-1.084-.148-1.621s0-1.142,0-1.724v-3.916a29.593,29.593,0,0,0-.32-3.79c-.16-1.256-.422-2.569-.628-3.847a7.529,7.529,0,0,1,0-1.244,5.751,5.751,0,0,1,.1-1.324c.1-.445.183-1.142.3-1.781s.308-1.37.479-2.044.308-1.279.445-1.918a10.742,10.742,0,0,0,.217-1.21,5.221,5.221,0,0,0,0-1.267,6.654,6.654,0,0,0-.148-1.05,6.072,6.072,0,0,0-.491-1.313c-.126-.274-.251-.548-.388-.822a17.916,17.916,0,0,0-1-1.758c-.343-.571-.742-1.142-1.142-1.678a11.712,11.712,0,0,1-.959-1.69,11.171,11.171,0,0,1-.388-1.142,10.075,10.075,0,0,1-.228-1.142,8.245,8.245,0,0,1,0-1.678,7.889,7.889,0,0,1,.126-1.027c.1-.753.217-1.5.388-2.226s.411-1.678.628-2.512.434-1.735.674-2.6.514-1.575.8-2.34c.445-1.027.97-2.032,1.5-3.014a22.4,22.4,0,0,1,1.838-2.843c.537-.685,1.142-1.359,1.587-2.066.251-.377.491-.742.708-1.142s.377-.742.548-1.142c.377-.776.708-1.575,1.073-2.352a16.6,16.6,0,0,1,1.393-2.283,17.178,17.178,0,0,1,1.29-1.461c.228-.228.468-.434.719-.651a4.9,4.9,0,0,0,1.142-1.142,3.329,3.329,0,0,0,.445-1.062,5.338,5.338,0,0,0,.114-.856,6.27,6.27,0,0,1,.069-1.142c0-.708.069-1.4.137-2.112a10.783,10.783,0,0,1,.457-1.884,2.659,2.659,0,0,1,.24-.434,2.064,2.064,0,0,1,.228-.217,6.214,6.214,0,0,1,.753-.445l1.142-.434a3.973,3.973,0,0,0,1.233-.936,4.989,4.989,0,0,0,.879-1.347c.388-.822.662-1.69,1-2.523a9.674,9.674,0,0,1,.959-1.712c.183-.205.365-.4.571-.594l-.228.183a2.279,2.279,0,0,1,.479-.331,2.761,2.761,0,0,1,.411-.114H705.6l.719-.068a5.2,5.2,0,0,0,.708-.148,6.5,6.5,0,0,0,.982-.388,6,6,0,0,0,1.233-.765,9.57,9.57,0,0,0,1.073-.97c.3-.331.571-.674.856-1.027a22.106,22.106,0,0,0,1.6-2.374c.491-.811.97-1.621,1.45-2.432.948-1.564,1.952-3.071,2.991-4.566s2.078-2.923,3.162-4.35c1.427-1.77,3.014-3.425,4.566-5.126s3.105-3.425,4.635-5.149c.731-.833,1.461-1.667,2.283-2.477s1.564-1.644,2.352-2.489,1.7-1.827,2.58-2.728l2.386-2.4c1.142-1.142,2.169-2.283,3.288-3.356a38.61,38.61,0,0,1,8.927-6.359c.948-.491,1.929-.925,2.865-1.45a24.989,24.989,0,0,0,3.06-1.918,43.058,43.058,0,0,0,4.783-4.681c1.518-1.621,2.888-3.425,4.235-5.149.925-1.21,1.747-2.5,2.591-3.767.388-.571.765-1.142,1.142-1.735l.263-.377h0l.388-.434c.205-.228.411-.468.6-.708.422-.5.833-1.016,1.244-1.518.9-1.073,1.8-2.158,2.717-3.231s1.69-1.952,2.523-2.945,1.792-2.226,2.648-3.368c.422-.559.833-1.142,1.244-1.69s.708-1.05,1.05-1.6c.685-1.085,1.313-2.215,1.952-3.333.32-.571.605-1.142.879-1.735.183-.377.342-.765.5-1.142l.422-.811a32.4,32.4,0,0,0,1.632-3.493,23.087,23.087,0,0,0,.765-3.185l.274-1.21.24-.1a1.747,1.747,0,0,0,.822-1.142,27.425,27.425,0,0,1,.548-2.694c.434-.776.856-1.564,1.267-2.352a1.21,1.21,0,0,0,0-1.085c.582-1.142,1.244-2.352,1.849-3.539.753-1.45,1.644-2.831,2.523-4.212.422-.674.879-1.324,1.3-2.009s.856-1.541,1.244-2.283.719-1.427,1.039-2.158c.422-.947.822-1.918,1.21-2.888.514-1.29,1.062-2.569,1.507-3.893a14.908,14.908,0,0,0,.548-2.009c.16-.753.3-1.518.411-2.283.228-1.632.4-3.276.605-4.92.16-1.267.228-2.557.365-3.824.32-1.838.719-3.665,1.073-5.491s.536-3.6.753-5.4c.1-.651.205-1.3.342-1.941s.331-1.267.5-1.9c.4-1.393.731-2.8.993-4.224.16-.833.3-1.678.4-2.523a8.764,8.764,0,0,0-.4-2.843Z" transform="translate(-70.487 -0.079)"/>
</svg>
