<svg xmlns="http://www.w3.org/2000/svg" width="32.886" height="67.578" viewBox="0 0 32.886 67.578">
  <defs>
    <style>
      .cls-1 {
        fill: #5e2402;
        stroke: #231f20;
        stroke-miterlimit: 10;
      }
    </style>
  </defs>
  <path id="benin" class="cls-1" d="M257.348,295.77c-.1.7-.24,1.381-.4,2.066s-.342,1.29-.514,1.941c-.308,1.142-.605,2.283-.9,3.425l-4.258.32c-1.37.1-2.74.194-4.11.331l-1.747.228a6.59,6.59,0,0,0-1.062.274,5.706,5.706,0,0,1,0-.765,13.111,13.111,0,0,1,.148-1.667c.148-1.062.32-2.123.468-3.185s.16-2.089.205-3.128.091-2.123.091-3.185v-3.219c0-2.1-.1-4.213-.171-6.313,0-1.142-.091-2.169-.068-3.265a16.928,16.928,0,0,0,0-1.7,7.888,7.888,0,0,0-.342-1.7c-.388-1.142-.959-2.135-1.427-3.2a2.386,2.386,0,0,1-.228-1.324c.148-.776.445-1.507.594-2.283a10.936,10.936,0,0,0,.194-1.5,4.166,4.166,0,0,0-.205-1.587,4.04,4.04,0,0,0-.628-1.142,5.386,5.386,0,0,0-.925-.982c-.411-.32-.822-.639-1.256-.936-.662-.479-1.358-.913-2.032-1.393l.228.171a10.739,10.739,0,0,1-1.05-.856c-.354-.342-.685-.7-1-1.073a5.55,5.55,0,0,1-.377-.616.571.571,0,0,1,0-.148,2.76,2.76,0,0,1,.137-.4c.1-.217.206-.434.32-.651a7.708,7.708,0,0,1,.582-.913c.434-.616.9-1.21,1.358-1.815a.959.959,0,0,0,.1-.788.285.285,0,0,0,0-.08,4.294,4.294,0,0,0,.925-.605,5.95,5.95,0,0,0,.856-.993c.171-.217.331-.445.5-.674l.5-.685a5.968,5.968,0,0,1,.742-.776,4.854,4.854,0,0,1,.525-.308,13.8,13.8,0,0,1,1.884-.479h.331a7.452,7.452,0,0,1,1.336,0c.4,0,.8.091,1.2.114a12.375,12.375,0,0,0,1.3,0,5.81,5.81,0,0,0,1.906-.445,4.348,4.348,0,0,0,1.29-.982,10.975,10.975,0,0,0,.89-1.142,5.091,5.091,0,0,0,.685-1.473,2.614,2.614,0,0,0-.057-1.45,6.188,6.188,0,0,0-.7-1.37,10.264,10.264,0,0,1-.605-1.142,4,4,0,0,1-.171-.605,3.853,3.853,0,0,1,0-.514c.091-.582.228-1.142.274-1.735a5.243,5.243,0,0,0,0-.845l.4-.057,1.073-.194c.719-.114,1.427-.263,2.135-.377a5.262,5.262,0,0,1,.845,0l.377.1a3.06,3.06,0,0,1,.365.217,11.9,11.9,0,0,1,1.507,1.7c.525.639,1.05,1.267,1.621,1.861a22.94,22.94,0,0,0,1.712,1.53,19.28,19.28,0,0,1,2.055,1.918,7.252,7.252,0,0,1,.639,1.142,4.769,4.769,0,0,1,.205.719,3.352,3.352,0,0,1,0,.479,15.7,15.7,0,0,0-.274,1.632,4.886,4.886,0,0,0,.708,2.9,11.226,11.226,0,0,0,.845,1.233,5.867,5.867,0,0,1,.765,1.256,12.262,12.262,0,0,1,.651,2.466q.069.639.1,1.267a8,8,0,0,1,0,1.381,6.286,6.286,0,0,1-.183.662c-.24.5-.548.959-.811,1.461a3.733,3.733,0,0,0-.342.856,5.277,5.277,0,0,0-.1.742,1.883,1.883,0,0,1-.08.662,4.56,4.56,0,0,1-.16.651,5.589,5.589,0,0,1-.434.708c-.582.708-1.256,1.336-1.792,2.078a6.777,6.777,0,0,0-.742,1.2,8.278,8.278,0,0,1-.651,1.142,17.438,17.438,0,0,0-1.781,2.112,4.018,4.018,0,0,0-.445,2.215v1.381a2.614,2.614,0,0,1-.08.32v.057h0a10.942,10.942,0,0,1-1.142.274,5.878,5.878,0,0,0-2.032.833,2.8,2.8,0,0,0-.651.616,2.159,2.159,0,0,0-.285.617,4.009,4.009,0,0,0-.091,1.142,12.029,12.029,0,0,0,.114,1.29c.1.868.251,1.747.388,2.614s.24,1.61.354,2.42.205,1.6.263,2.4a25.887,25.887,0,0,1,.091,2.66A46.322,46.322,0,0,1,257.348,295.77Z" transform="translate(-236.066 -237.465)"/>
</svg>
