<svg xmlns="http://www.w3.org/2000/svg" width="179.807" height="180" viewBox="0 0 179.807 180">
  <g id="Books" transform="translate(-0.068 -0.006)">
    <g id="_030---Messy-Books" data-name="030---Messy-Books" transform="translate(0.068 0.006)">
      <path id="Shape" d="M17.612,139.635.384,41.825a21.729,21.729,0,0,1-.31-2.856A22.216,22.216,0,0,1,18.73,16.527L51.974,10.66l-.9,128.975Z" transform="translate(-0.068 22.41)" fill="#1c5193"/>
      <path id="Shape-2" data-name="Shape" d="M133.885,64.885a6.208,6.208,0,0,1-4.935,4.656L31.109,86.8A21.763,21.763,0,0,1,5.624,66.313,22.166,22.166,0,0,1,23.038,44.15l27.409,7.7h-.031L25.739,56.225A9.328,9.328,0,0,0,18.661,68.8a9.592,9.592,0,0,0,10.678,5.712l74.777-13.192Z" transform="translate(11.61 92.875)" fill="#132231"/>
      <path id="Shape-3" data-name="Shape" d="M42.006,46.63,17.328,51.007a9.328,9.328,0,0,0-7.077,12.572A9.592,9.592,0,0,0,20.929,69.29L95.706,56.1Z" transform="translate(20.02 98.094)" fill="#f9eab0"/>
      <path id="Shape-4" data-name="Shape" d="M12.826,102.952,30.075,5.13A6.252,6.252,0,0,1,37.268.1l97.087,17.119a22.235,22.235,0,0,1,18.671,22.458,22.2,22.2,0,0,1-.31,2.843l-17.249,97.822Z" transform="translate(26.776 -0.006)" fill="#f15b12"/>
      <path id="Shape-5" data-name="Shape" d="M95.066,23.056a3.21,3.21,0,0,1-.543-.047l-70.311-12.4a3.1,3.1,0,0,1,1.08-6.1L95.6,16.895a3.1,3.1,0,0,1-.534,6.162Z" transform="translate(45.766 9.436)" fill="#1c5193"/>
      <path id="Shape-6" data-name="Shape" d="M73.766,24.373a2.949,2.949,0,0,1-.543-.05L27.369,16.249a3.1,3.1,0,0,1,1.077-6.112L74.3,18.208a3.1,3.1,0,0,1-.537,6.165Z" transform="translate(52.142 21.237)" fill="#1c5193"/>
      <rect id="Rectangle-path" width="71.394" height="37.249" rx="1" transform="matrix(0.985, 0.174, -0.174, 0.985, 65.123, 47.592)" fill="#ecf0f1"/>
      <path id="Shape-7" data-name="Shape" d="M86.122,28.266a20.625,20.625,0,0,1-.31,2.856l-17.259,97.81L44.62,121.637,58.5,42.979l3.29-18.562,3.352-19,2.328.4A22.238,22.238,0,0,1,86.122,28.266Z" transform="translate(93.673 11.384)" fill="#cd5014"/>
      <path id="Shape-8" data-name="Shape" d="M120.831,48.717l-97.1-17.1a6.419,6.419,0,0,0-1.086-.093,6.208,6.208,0,0,0-1.055,12.323L119.4,61.071a9.353,9.353,0,0,1,7.046,12.6,9.533,9.533,0,0,1-10.647,5.68L18.365,62.188a6.42,6.42,0,0,0-1.086-.093,6.208,6.208,0,0,0-1.086,12.323l97.841,17.228A21.75,21.75,0,0,0,139.518,71.19a22.275,22.275,0,0,0-18.687-22.474Z" transform="translate(23.049 66.301)" fill="#9a4319"/>
      <path id="Shape-9" data-name="Shape" d="M121.494,65.32A9.533,9.533,0,0,1,110.847,71L13.41,53.835,16.638,35.49l97.81,17.228a9.353,9.353,0,0,1,7.046,12.6Z" transform="translate(28.005 74.654)" fill="#f9eab0"/>
    </g>
  </g>
</svg>
