<svg xmlns="http://www.w3.org/2000/svg" width="99.505" height="96.324" viewBox="0 0 99.505 96.324">
  <defs>
    <style>
      .cls-1 {
        fill: #093e63;
        stroke: #231f20;
        stroke-miterlimit: 10;
      }
    </style>
  </defs>
  <g id="botswana" transform="translate(0.497 0.5)">
    <path id="botswana-2" data-name="botswana" class="cls-1" d="M426.951,629.533h0a.272.272,0,0,0,0-.091h0c.457-.514.925-1,1.336-1.541a5.709,5.709,0,0,0,1.05-2.009,5.377,5.377,0,0,0,0-2.375c-.217-1.3-.525-2.58-.822-3.87s-.594-2.454-.948-3.665a34.873,34.873,0,0,0-1.267-3.516,15.243,15.243,0,0,0-1.29-2.454,5.343,5.343,0,0,0-.97-1.142,5.71,5.71,0,0,0-1.53-.9,5.24,5.24,0,0,0-1.769-.388,4.686,4.686,0,0,0-1.575.3.957.957,0,0,0-.411.285c0-1.37,0-2.751,0-4.121v-7.318c0-2.432-.206-4.932-.274-7.386,0-.936,0-1.872-.057-2.808s0-1.975,0-2.968a7.25,7.25,0,0,1,.251-1.142h0l.205-.217.468-.263a11.913,11.913,0,0,1,2.283-.5c1.073-.126,2.158-.217,3.242-.285a12.978,12.978,0,0,0,3.687-.536,1.884,1.884,0,0,0,1.016-.731,3.218,3.218,0,0,0,.4-.959,6.4,6.4,0,0,0,.194-1.142c.068-.605.114-1.142.148-1.815.057-1.142.1-2.363.183-3.55.16-2.477.308-4.955.422-7.443s.148-4.84.171-7.272l.069-3.493V541.39c1.142-.16,2.283-.32,3.425-.5l3.151-.514,3.082-.445c.913-.126,1.827-.285,2.74-.422s2.169-.228,3.231-.457,2.066-.445,3.105-.662l2.9-.662a23.475,23.475,0,0,1,2.683-.457h.217c.354.548.651,1.142,1,1.69a10.465,10.465,0,0,0,.628.947,4.566,4.566,0,0,0,.868.891,3.686,3.686,0,0,0,1.221.548,2.992,2.992,0,0,0,1.233.091,3.7,3.7,0,0,0,1.4-.457,6.349,6.349,0,0,0,1.3-.993c.479-.457.948-.913,1.45-1.336a3.886,3.886,0,0,1,.765-.434,7.147,7.147,0,0,1,1.552-.365,8.3,8.3,0,0,1,1.507,0,7.341,7.341,0,0,1,1.142.308,3.958,3.958,0,0,0,.811.183,3.511,3.511,0,0,0,.913,0,4.2,4.2,0,0,0,1.393-.6c.765-.468,1.461-1.05,2.283-1.461a12.033,12.033,0,0,1,2.432-.605h.48c.068.183.126.365.183.536a27.088,27.088,0,0,0,1.142,3.037,23.986,23.986,0,0,0,1.587,2.911c.582.913,1.256,1.781,1.929,2.637.308.411.616.822.9,1.244s.594.925.879,1.393c.594.982,1.142,2,1.747,2.968s1.313,2.009,2.021,2.968a16.972,16.972,0,0,0,2.363,2.512c.582.514,1.2,1,1.758,1.541a19.889,19.889,0,0,1,1.6,1.655q.771.856,1.575,1.712a6.767,6.767,0,0,0,.868.742,3.756,3.756,0,0,0,1.541.639,9.611,9.611,0,0,1,1.142.251l.126.068.148.16a3.146,3.146,0,0,1,.285.5c.194.514.342,1.05.5,1.575s.308,1.016.468,1.541c.331,1.142.674,2.283,1.016,3.425a21.571,21.571,0,0,0,1.279,3.425,7.661,7.661,0,0,0,2.283,3.048,6.849,6.849,0,0,0,2.443.891c1.027.251,2.055.491,3.094.719.468.091.948.205,1.416.331a9.579,9.579,0,0,1,1.256.434,9.988,9.988,0,0,1,1.324.731c.457.308.913.628,1.358.959l.24.16-.217.171a.99.99,0,0,0-.194.251l-.217.183a6.3,6.3,0,0,1-.811.445,18.574,18.574,0,0,1-3.059,1.039l-1.815.422a9.032,9.032,0,0,0-2.717,1.347c-.559.377-1.085.833-1.632,1.256a13.569,13.569,0,0,0-1.37,1.142c-.457.491-.9.993-1.313,1.53a16.539,16.539,0,0,0-1.142,1.712c-.251.388-.491.788-.753,1.142a4.393,4.393,0,0,1-.32.331,5.009,5.009,0,0,1-.491.285c-.4.137-.822.24-1.233.365a15.273,15.273,0,0,0-1.941.719,4.746,4.746,0,0,0-.925.559,7.739,7.739,0,0,0-1.929,1.952,5.709,5.709,0,0,0-.651,1.381,18.263,18.263,0,0,0-.753,3.756,7.373,7.373,0,0,1-.365,1.415l-.171.308-.24.228-.491.285c-.514.171-1.039.3-1.564.434s-.993.263-1.484.411a12.448,12.448,0,0,0-1.29.479,12.858,12.858,0,0,0-1.45.674,6.279,6.279,0,0,0-1.575,1.324,5.251,5.251,0,0,0-1.027,1.689,7.852,7.852,0,0,0-.445,1.975c-.057.537-.114,1.142-.125,1.621a30.663,30.663,0,0,1-.126,3.242,7.335,7.335,0,0,1-.32,1.313c-.091.171-.183.342-.285.5l-.274.274a2.277,2.277,0,0,1-.365.206c-.628.24-1.279.411-1.918.605l-1.941.605-2.112.662a19.039,19.039,0,0,1-2.728.776,5.529,5.529,0,0,1-.97,0,7.642,7.642,0,0,1-1.575-.491l-3.425-1.5c-1.142-.525-2.363-1.016-3.539-1.541a26.977,26.977,0,0,1-3.288-1.678c-.594-.354-1.142-.719-1.747-1.085l-.811-.5a7.012,7.012,0,0,0-2.283-.97,3.813,3.813,0,0,0-2.523.479,5.977,5.977,0,0,0-1,.765,4.924,4.924,0,0,0-.891,1.142,7.173,7.173,0,0,0-.514,1.142,7.649,7.649,0,0,0-.274.868c-.091.354-.183.708-.263,1.062-.16.651-.285,1.313-.422,1.975a16.59,16.59,0,0,1-.811,2.854,7.284,7.284,0,0,1-.7,1.233,5.943,5.943,0,0,1-.537.536,4.382,4.382,0,0,1-.5.285,13.7,13.7,0,0,1-2.283.457,16.346,16.346,0,0,0-2.455.582,13.134,13.134,0,0,0-2.283,1,9.959,9.959,0,0,0-2.066,1.587c-.731.708-1.4,1.461-2.181,2.112a7.5,7.5,0,0,1-1.244.719,9.584,9.584,0,0,1-1.872.479,11.413,11.413,0,0,1-2.5,0,8.686,8.686,0,0,1-1.769-.5,5.859,5.859,0,0,1-.971-.765Z" transform="translate(-418.398 -535.67)"/>
  </g>
</svg>
