<svg xmlns="http://www.w3.org/2000/svg" width="84.075" height="61.058" viewBox="0 0 84.075 61.058">
  <defs>
    <style>
      .cls-1 {
        fill: #5e2402;
        stroke: #231f20;
        stroke-miterlimit: 10;
      }
    </style>
  </defs>
  <path id="burkinaFaso" class="cls-1" d="M202.879,258.9a9.882,9.882,0,0,0,.137.993c.068.514.16,1,.24,1.507a26.8,26.8,0,0,0,.731,2.968c.171.605.342,1.2.525,1.792a11.268,11.268,0,0,1,.434,1.7,13.779,13.779,0,0,1,0,1.941,15.994,15.994,0,0,1-.148,1.815v.183l-.194-.217a20.03,20.03,0,0,0-2.352-2.146,12.431,12.431,0,0,0-3.927-2.192,8.582,8.582,0,0,0-1.53-.274,6.258,6.258,0,0,0-1.461.091l-1.142.206c-.742.16-1.484.285-2.226.434a14.292,14.292,0,0,0-2.043.571l-1.062.365a13.541,13.541,0,0,1-1.872.559,4.391,4.391,0,0,1-.776,0,4.564,4.564,0,0,1-.651-.183,6.161,6.161,0,0,1-.594-.342,8.322,8.322,0,0,1-1.142-1.29c-.594-.811-1.142-1.667-1.655-2.5a29.131,29.131,0,0,0-1.884-2.375c-.342-.445-.662-.89-1.027-1.313a5.992,5.992,0,0,0-1.05-.959,3.424,3.424,0,0,0-.479-.3c-.251-1.21-.525-2.432-.719-3.665v-.422a19.954,19.954,0,0,0,2.078-2.283,7.648,7.648,0,0,0,.845-2.158,6.165,6.165,0,0,0,.228-1.929,13.263,13.263,0,0,0-.285-1.872,6.618,6.618,0,0,1,0-1.256,3.14,3.14,0,0,1,.183-.639,3.061,3.061,0,0,1,.205-.377l.285-.274a5.377,5.377,0,0,1,.708-.4c1.062-.388,2.2-.5,3.3-.811a15.983,15.983,0,0,0,3.037-1.221l.742-.388a5.993,5.993,0,0,0,.788-.537,5.023,5.023,0,0,0,1.553-2.751,8.072,8.072,0,0,0,.171-1.655c0-1.027-.194-2.055-.1-3.082a1.78,1.78,0,0,1,.114-.422h.057l.445-.114a9.339,9.339,0,0,1,1.5,0c.719,0,1.621.24,2.2-.3a2.283,2.283,0,0,0,.708-1.5,2.645,2.645,0,0,1,.068-.731v-1.393a1.615,1.615,0,0,1,0-.228.147.147,0,0,1,.091-.16l.08-.08h.422a4.564,4.564,0,0,1,.559.171,18.012,18.012,0,0,1,1.69.982,5.183,5.183,0,0,0,2.42.913,1.769,1.769,0,0,0,1.5-.868,3.631,3.631,0,0,0,.445-1.758,14.748,14.748,0,0,1,.057-1.621,3.247,3.247,0,0,1,.08-.32c.057-.1.114-.205.183-.308a2.431,2.431,0,0,1,.3-.3l.308-.183a3.423,3.423,0,0,1,.491-.126,10.593,10.593,0,0,1,1.347,0,3.527,3.527,0,0,0,2.694-1.016,5.206,5.206,0,0,0,.879-1.336,10.638,10.638,0,0,1,.674-1.29,4.671,4.671,0,0,1,.537-.525l.342-.217.285-.068a14.263,14.263,0,0,1,2.409.183c.4,0,.8.069,1.142.08a4.773,4.773,0,0,0,1.336-.183,5.069,5.069,0,0,0,1.256-.594,19.221,19.221,0,0,0,2.066-1.518c.571-.457,1.142-.959,1.69-1.427a10.368,10.368,0,0,1,1-.685c.422-.228.833-.468,1.267-.674.845-.422,1.724-.811,2.58-1.222a23.97,23.97,0,0,0,2.34-1.233,19.79,19.79,0,0,1,2.283-1.324,5.048,5.048,0,0,1,.9-.251,14.569,14.569,0,0,1,2.82.08c.822.08,1.655.16,2.477.263l.959.148a8.229,8.229,0,0,1,1.142.263,2.387,2.387,0,0,1,.32.194l.1.091a.845.845,0,0,0-.5.776.89.89,0,0,0,.879.879H240a8.062,8.062,0,0,1,0,1.05c-.091.616-.183,1.233-.228,1.849a8.232,8.232,0,0,0,.126,2.055,6.528,6.528,0,0,0,.228.959,5.84,5.84,0,0,0,.285.742,5.194,5.194,0,0,0,.685,1.142c.388.479.8.948,1.142,1.427v.069a3.131,3.131,0,0,1,.263.411,3.434,3.434,0,0,1,.091.365,2.407,2.407,0,0,1,0,.285,4.713,4.713,0,0,0,.217,1.142,4.567,4.567,0,0,0,1.142,1.769,16.262,16.262,0,0,0,1.61,1.324A18.654,18.654,0,0,0,247.2,230.9l.833.457c.274.148.571.3.845.479a2.626,2.626,0,0,0-.582,3.824,4.372,4.372,0,0,0,.856.982c.879.8,1.838,1.484,2.774,2.2.457.365.913.731,1.381,1.085a4.737,4.737,0,0,0,.491.342,5.23,5.23,0,0,0,.89.411,3.847,3.847,0,0,0,1.142.24,3.608,3.608,0,0,0,.856-.057H256.4a6.854,6.854,0,0,0,1.062-.171,5.8,5.8,0,0,1,.628,0l.274.069.148.091.1.1.08.126v.1h0a1.142,1.142,0,0,0,.137.548,10.71,10.71,0,0,1,.08,1.6,3.96,3.96,0,0,1-.16.8,4.988,4.988,0,0,0-.148,1.233,3.926,3.926,0,0,0,.342,1.53,8.812,8.812,0,0,0,.582,1.142q.251.411.479.856a2.655,2.655,0,0,1,.08.285v.148a.329.329,0,0,1-.08.251,4.638,4.638,0,0,1-.434.719,6.911,6.911,0,0,1-.925.993,4.091,4.091,0,0,1-.479.285,4.83,4.83,0,0,1-.891.217,5.789,5.789,0,0,1-1.085,0,5.305,5.305,0,0,1-1.2-.091,7.352,7.352,0,0,0-1.735,0,11.42,11.42,0,0,0-1.37.228,11.034,11.034,0,0,0-1.37.377,5.43,5.43,0,0,0-.742.331,4.191,4.191,0,0,0-.7.479,5.491,5.491,0,0,0-.9.879,16.694,16.694,0,0,1-1.724,1.975l-.274.16-.228.057a9.313,9.313,0,0,1-1.381,0l-1.324-.091c-.959-.069-1.906-.091-2.865-.08s-1.8.057-2.706.069h-1.827a3.427,3.427,0,0,0-.491,0,5.4,5.4,0,0,0-1.484-.491,4.325,4.325,0,0,0-.662,0,8.255,8.255,0,0,0-1.313.137,4.864,4.864,0,0,0-1.747.753l-.868.616a5.228,5.228,0,0,1-.788.422,6.308,6.308,0,0,1-.9.274c-.32.08-.639.126-.959.183-.548,0-1.142.1-1.655.114a13.788,13.788,0,0,1-1.676-.1c-.413-.057-.824-.114-1.235-.206l-1.575-.354c-.993-.24-2.009-.445-3.025-.605l-1.621-.24c-.548-.068-1.142-.114-1.655-.16-1.027-.08-2.066-.08-3.094-.137s-2.021-.16-3.014-.263l-1.587-.148a6.189,6.189,0,0,0-2.1.148l-.514.205a1.667,1.667,0,0,0-.468.331,2.808,2.808,0,0,0-.662,1,3.334,3.334,0,0,0-.194.993C202.844,258.568,202.867,258.728,202.879,258.9Z" transform="translate(-176.51 -212.05)"/>
</svg>
