<svg xmlns="http://www.w3.org/2000/svg" width="19.916" height="23.637" viewBox="0 0 19.916 23.637">
  <defs>
    <style>
      .cls-1 {
        fill: #073304;
        stroke: #231f20;
        stroke-miterlimit: 10;
      }
    </style>
  </defs>
  <path id="burundi" class="cls-1" d="M517.25,406.322a.273.273,0,0,0-.091.069c-.069-.183-.126-.377-.194-.559-.32-.925-.731-1.8-1.142-2.694h0l-.114-.274a23.164,23.164,0,0,1-.959-3.139c-.126-.582-.228-1.142-.32-1.735s-.16-1.062-.263-1.587a9.2,9.2,0,0,0-.582-1.906,3.63,3.63,0,0,0-1.313-1.781c-.057-.16-.126-.32-.194-.479-.274-.651-.536-1.313-.822-1.952s-.536-1.142-.833-1.678a17.738,17.738,0,0,1-.833-1.6,1.958,1.958,0,0,1-.08-.24l.091-.091h.285a2.078,2.078,0,0,1,.434.126,9.43,9.43,0,0,1,1.872,1.142c.445.354.879.719,1.313,1.085a7.15,7.15,0,0,0,.651.514,2.876,2.876,0,0,0,1,.411,2.934,2.934,0,0,0,2.4-.491c1.438-1.142,1.861-2.877,2.489-4.475a3.97,3.97,0,0,1,.251-.491l.126-.114h0a3.338,3.338,0,0,1,.582-.148,5.946,5.946,0,0,1,.9,0,6.218,6.218,0,0,1,.788.228,12.307,12.307,0,0,1,2,1.142,2.276,2.276,0,0,1,.286.285h0a10.325,10.325,0,0,1-.068,1.575c0,.468-.069.925-.08,1.381a4.414,4.414,0,0,0,0,.548,1.51,1.51,0,0,0,.068.548,1.939,1.939,0,0,0,.206.5,2.126,2.126,0,0,0,.605.674,6.427,6.427,0,0,0,.822.548c.491.274.982.525,1.438.833a3.96,3.96,0,0,1,.32.3l.08.126v.411a3.988,3.988,0,0,1-.194.628,6.282,6.282,0,0,1-.536.925,24.458,24.458,0,0,1-2.112,2.1,20.352,20.352,0,0,0-1.884,2.089c-.3.377-.571.753-.833,1.142s-.525.833-.776,1.256c-.445.742-.89,1.5-1.4,2.2a7.724,7.724,0,0,1-1.142,1.142C518.883,405.295,518.061,405.808,517.25,406.322Z" transform="translate(-508.953 -383.715)"/>
</svg>
