<svg xmlns="http://www.w3.org/2000/svg" width="32.387" height="35.768" viewBox="0 0 32.387 35.768">
  <defs>
    <style>
      .cls-1 {
        fill: #231f20;
      }

      .cls-1, .cls-2, .cls-3, .cls-4, .cls-5 {
        stroke: #231f20;
        stroke-miterlimit: 10;
      }

      .cls-2 {
        fill: #fff;
      }

      .cls-3, .cls-4, .cls-5 {
        fill: #5e2402;
      }

      .cls-4 {
        stroke-width: 1.5px;
      }

      .cls-5 {
        stroke-width: 1.4px;
      }
    </style>
  </defs>
  <g id="caboVerde" transform="translate(0.5 0.5)">
    <path id="Path_4847" data-name="Path 4847" class="cls-1" d="M1.953,180.795a8.878,8.878,0,0,0,1.142.571c.251.1.491.194.753.274a9.2,9.2,0,0,0,1.655.4,6.846,6.846,0,0,0,1.142,0,2.591,2.591,0,0,0,1.039-.3,3.608,3.608,0,0,0,.879-.731A5.811,5.811,0,0,0,9.7,179.048a1.205,1.205,0,0,1,.08-.525,2.866,2.866,0,0,0,0-.7,3.767,3.767,0,0,0-.445-1.21,3.574,3.574,0,0,0-.605-.765,4.841,4.841,0,0,0-.594-.491l-.525-.32c-.4-.205-.845-.354-1.279-.525a5.6,5.6,0,0,1-.97-.582,4.5,4.5,0,0,1-.537-.5,1.073,1.073,0,0,0,0-.5,1.039,1.039,0,0,0-.491-.628,1.05,1.05,0,0,0-.616-.148,1.644,1.644,0,0,0-.525-.091,1.392,1.392,0,0,0-.365,0,1.347,1.347,0,0,0-.822.639,1.381,1.381,0,0,0-.137,1.062c.08.183.16.377.251.571l-.993,2.215a9.726,9.726,0,0,0-.582,1.438l-.068.457a2.181,2.181,0,0,0,.057.616,4.28,4.28,0,0,0,.24.571,3.186,3.186,0,0,0,.388.491,2.911,2.911,0,0,0,.788.674Z" transform="translate(-0.478 -172.049)"/>
    <path id="Path_4848" data-name="Path 4848" class="cls-2" d="M6.74,177.5a1.142,1.142,0,0,1,0,.194h0Z" transform="translate(0.409 -171.278)"/>
    <path id="Path_4849" data-name="Path 4849" class="cls-2" d="M6.72,177.67Z" transform="translate(0.406 -171.254)"/>
    <path id="Path_4850" data-name="Path 4850" class="cls-3" d="M2.554,178.389c.417-.938.834-1.891,1.265-2.829l.536.372a8.665,8.665,0,0,0,2.248.983l.923.3.625.357.357.342a3.372,3.372,0,0,1,.238.387l.089.328v.238a6.966,6.966,0,0,1-.64,1.117,3.214,3.214,0,0,1-.372.4h0a8.933,8.933,0,0,1-1.489-.119h.208a11.356,11.356,0,0,1-1.489-.3,15.889,15.889,0,0,1-1.682-.551,6.492,6.492,0,0,1-.893-.491l-.119-.1Z" transform="translate(-0.966 -172.115)"/>
    <path id="Path_4851" data-name="Path 4851" class="cls-2" d="M2.52,177.943l-.08-.1h0Z" transform="translate(-0.2 -171.229)"/>
    <path id="Path_4852" data-name="Path 4852" class="cls-2" d="M2.43,177.83Z" transform="translate(-0.201 -171.231)"/>
    <path id="Path_4853" data-name="Path 4853" class="cls-2" d="M2.4,177.82v.1a.411.411,0,0,1,0-.1Z" transform="translate(-0.206 -171.232)"/>
    <path id="Path_4854" data-name="Path 4854" class="cls-2" d="M2.38,177.766v0Z" transform="translate(-0.208 -171.258)"/>
    <path id="Path_4855" data-name="Path 4855" class="cls-1" d="M13.92,186.029a5.035,5.035,0,0,0,1,.194,3.812,3.812,0,0,0,1.016-.069,3.152,3.152,0,0,0,.822-.32,3.333,3.333,0,0,0,1.21-.97,2.546,2.546,0,0,0,.468-1.587,3.79,3.79,0,0,0-1.975-2.877,5.924,5.924,0,0,0-1.632-.639,8.813,8.813,0,0,0-1.964-.251h-.445a9.906,9.906,0,0,0-1.838.16,1.143,1.143,0,0,0-.342,0,1.267,1.267,0,0,0-.879.4H9.3a1.3,1.3,0,0,0-.7.537,1.155,1.155,0,0,0,.422,1.587,1.027,1.027,0,0,0,.445.16l.171.308a7.489,7.489,0,0,0,.822.982c.274.3.571.559.856.833a8.744,8.744,0,0,0,1.815,1.3,5.113,5.113,0,0,0,.788.251Z" transform="translate(0.65 -170.993)"/>
    <path id="Path_4856" data-name="Path 4856" class="cls-3" d="M11.537,181.721a.349.349,0,0,0-.1-.136,21.6,21.6,0,0,1,2.969,0,12.754,12.754,0,0,1,2.387.641,9.078,9.078,0,0,1,1.048.582c.291.252.563.524.835.8l.272.466a.582.582,0,0,1,0,.194.951.951,0,0,1,0,.233v.155a.485.485,0,0,1,0,.136l-.252.233a6.335,6.335,0,0,1-.776.466H16.8a5.123,5.123,0,0,1-1.067-.291,8.15,8.15,0,0,1-1.436-.835,18.767,18.767,0,0,1-2.756-2.639Z" transform="translate(-0.473 -171.52)"/>
    <path id="Path_4857" data-name="Path 4857" class="cls-1" d="M26.323,187.53a3.63,3.63,0,0,0-.811-1.29,4.816,4.816,0,0,0-2.58-1.359,3.759,3.759,0,0,0-.616,0,4.122,4.122,0,0,0-1.039.137,1.336,1.336,0,0,0-.925,1.644,1.233,1.233,0,0,0,.228.457,6.851,6.851,0,0,0-.308.97c-.1.434-.205.868-.3,1.3a4.567,4.567,0,0,0-.126,1.027l.068.434a1.071,1.071,0,0,0,.16.377,2.2,2.2,0,0,0,.251.32l.331.251a3.116,3.116,0,0,0,.7.3,2.99,2.99,0,0,0,.833.16,4.772,4.772,0,0,0,1.61-.091,4.122,4.122,0,0,0,1.256-.548A4.246,4.246,0,0,0,26.2,190.6a2.558,2.558,0,0,0,.434-.7,2.706,2.706,0,0,0,.114-.8,3.425,3.425,0,0,0-.137-.765A7.2,7.2,0,0,0,26.323,187.53Z" transform="translate(2.266 -170.234)"/>
    <path id="Path_4858" data-name="Path 4858" class="cls-3" d="M26.714,190.236a6.437,6.437,0,0,1-.856.815,6.11,6.11,0,0,1-1.059.631,9.039,9.039,0,0,1-1.059.306,12.034,12.034,0,0,1-1.487,0l-.693-.2c.1-.55.2-1.1.326-1.67a25.2,25.2,0,0,1,.835-2.933h1.1a7.613,7.613,0,0,1,.917.244l.794.469.326.326a8.88,8.88,0,0,1,.672,1.222,3.129,3.129,0,0,0,.2.713h0Z" transform="translate(1.371 -170.969)"/>
    <path id="Path_4859" data-name="Path 4859" class="cls-1" d="M28.871,179.861a7.293,7.293,0,0,0-.7-1.108l-.432-.527a4.809,4.809,0,0,0-.648-.527,2.094,2.094,0,0,0-.743-.3,2.241,2.241,0,0,0-.432,0,2.986,2.986,0,0,0-.473,0,5,5,0,0,0-2.391,1.689,7.132,7.132,0,0,0-1.351,2.7.986.986,0,0,0,.662,1.189.837.837,0,0,0,.311,0,4.7,4.7,0,0,0,.648,1.054,2.9,2.9,0,0,0,1.216.878,3.579,3.579,0,0,0,1.635.054,5.4,5.4,0,0,0,1.513-.392,3.026,3.026,0,0,0,.959-.7,3.364,3.364,0,0,0,.7-1.175,2.31,2.31,0,0,0,.122-.865,2.9,2.9,0,0,0-.108-.838,5.281,5.281,0,0,0-.486-1.135Z" transform="translate(1.919 -171.885)"/>
    <path id="Path_4860" data-name="Path 4860" class="cls-2" d="M25.81,181.1Z" transform="translate(3.11 -170.768)"/>
    <path id="Path_4861" data-name="Path 4861" class="cls-2" d="M25.83,181.007h0v-.057S25.841,181.007,25.83,181.007Z" transform="translate(3.112 -170.789)"/>
    <path id="Path_4862" data-name="Path 4862" class="cls-2" d="M26.149,181.278c0,.068-.08.137-.126.194l-.148.16-.148.08a2.283,2.283,0,0,1-.377.1,5.15,5.15,0,0,1-.594,0h-.091l-.16-.08h0c-.068-.1-.126-.205-.183-.308a3.172,3.172,0,0,1-.148-.537,1.85,1.85,0,0,1,0-.5,1.233,1.233,0,0,0-.274-.742l.331-.308a4,4,0,0,1,.491-.3H24.9l.126.08a3.353,3.353,0,0,1,.342.354,6.756,6.756,0,0,1,.662,1.142,3.1,3.1,0,0,1,.126.434v.274a.275.275,0,0,0-.011-.046Z" transform="translate(2.839 -171.06)"/>
    <path id="Path_4873" data-name="Path 4873" class="cls-3" d="M28.822,183.937c0,.15-.175.3-.275.425l-.325.35-.325.175a5,5,0,0,1-.824.225,11.278,11.278,0,0,1-1.3,0h-.2l-.35-.175h0c-.15-.225-.275-.45-.4-.675a6.942,6.942,0,0,1-.325-1.174,4.048,4.048,0,0,1,0-1.1,2.7,2.7,0,0,0-.6-1.624l.724-.675a8.748,8.748,0,0,1,1.074-.65h.4l.275.175a7.347,7.347,0,0,1,.749.774,14.789,14.789,0,0,1,1.449,2.5,6.794,6.794,0,0,1,.275.949v.6a.6.6,0,0,0-.025-.1Z" transform="translate(1.496 -172.713)"/>
    <path id="Path_4863" data-name="Path 4863" class="cls-4" d="M20.94,194.7a14.9,14.9,0,0,0-2.375-1.553,1.358,1.358,0,0,0-.662-.171,1.336,1.336,0,0,0-1.142.651,1.359,1.359,0,0,0,.342,1.724,4.76,4.76,0,0,0,0,1.142,4.418,4.418,0,0,0,.628,2.135,3.285,3.285,0,0,0,.308.388l.411.32a4.452,4.452,0,0,0,.479.217,2.032,2.032,0,0,0,.731.148,3.924,3.924,0,0,0,.514-.057,3.127,3.127,0,0,0,.616-.24,2.432,2.432,0,0,0,.388-.285,2.682,2.682,0,0,0,.411-.468,2.876,2.876,0,0,0,.4-.765,1.758,1.758,0,0,0,.114-.4,2.283,2.283,0,0,0,0-.89A3.2,3.2,0,0,0,20.94,194.7Z" transform="translate(1.804 -169.086)"/>
    <path id="Path_4864" data-name="Path 4864" class="cls-2" d="M19.35,196.8h0l.148.114Z" transform="translate(2.195 -168.545)"/>
    <path id="Path_4865" data-name="Path 4865" class="cls-1" d="M15.247,194.4a1.062,1.062,0,0,0-.936-.537,1.039,1.039,0,0,0-.548.148h0l-.274-.114a1.142,1.142,0,0,0-1.427.811l-.445,2.18a23.163,23.163,0,0,0-.434,2.808,4.213,4.213,0,0,0,.331,2.123,3.63,3.63,0,0,0,1.313,1.473,2.936,2.936,0,0,0,.776.342,2.215,2.215,0,0,0,1.279,0,3.71,3.71,0,0,0,1.564-.993,5.8,5.8,0,0,0,.89-1.336,4.361,4.361,0,0,0,.491-1.575,4.19,4.19,0,0,0-.879-2.466C16.377,196.3,15.783,195.368,15.247,194.4Z" transform="translate(1.035 -168.962)"/>
    <path id="Path_4866" data-name="Path 4866" class="cls-3" d="M17.348,201.091a4.99,4.99,0,0,1-.13.5,10.856,10.856,0,0,1-1.08,1.862,5.579,5.579,0,0,1-.559.6l-.652.372-.41.112-.2-.149a5.068,5.068,0,0,1-.559-.54,7.054,7.054,0,0,1-.372-.633,3.487,3.487,0,0,0-.149-.6,12.549,12.549,0,0,1,0-2.216c.2-1.4.484-2.774.782-4.152.093.13.186.279.3.41.41.577.875,1.136,1.322,1.713a13.78,13.78,0,0,1,1.527,2.309l.112.41Z" transform="translate(0.516 -170.225)"/>
    <path id="Path_4867" data-name="Path 4867" class="cls-5" d="M8.375,196.683a.948.948,0,0,0-1.142-.662,1.05,1.05,0,0,0-.32.16l-.148-.148a.845.845,0,0,0-.616-.263.9.9,0,0,0-.89.89c0,.126,0,.263,0,.4a4.469,4.469,0,0,1-.217.753,5.217,5.217,0,0,0-.251,1.256,3.059,3.059,0,0,0,.24,1.324,3.288,3.288,0,0,0,1.427,1.712,1.713,1.713,0,0,0,.628.171h.16l.388-.057a1.3,1.3,0,0,0,.468-.24,1.655,1.655,0,0,0,.434-.457,2.112,2.112,0,0,0,.32-.856,7.158,7.158,0,0,0,0-1.21,13.7,13.7,0,0,0-.479-2.774Z" transform="translate(0.133 -168.691)"/>
    <path id="Path_4868" data-name="Path 4868" class="cls-2" d="M6.679,199.561a2.545,2.545,0,0,1-.148-.5,1.5,1.5,0,0,1,0-.32,2.436,2.436,0,0,1,.114-.479,2.546,2.546,0,0,1,0,.263,8.2,8.2,0,0,1,0,1.142.308.308,0,0,1,.034-.1Z" transform="translate(0.378 -168.338)"/>
    <path id="Path_4869" data-name="Path 4869" class="cls-5" d="M4.136,198.33a1.142,1.142,0,0,0-.457-1.381,1.039,1.039,0,0,0-.548-.148,1.142,1.142,0,0,0-.959.548,14.842,14.842,0,0,0-.742,1.473,8.734,8.734,0,0,0-.559,1.5,2.283,2.283,0,0,0,.422,2.055,1.861,1.861,0,0,0,1.884.457,1.575,1.575,0,0,0,.811-.651,2.523,2.523,0,0,0,.354-.993,7.3,7.3,0,0,0,0-2.055,6.187,6.187,0,0,0-.205-.8Z" transform="translate(-0.434 -168.545)"/>
    <path id="Path_4870" data-name="Path 4870" class="cls-2" d="M2.58,200.6h0Z" transform="translate(-0.18 -168.007)"/>
    <path id="Path_4871" data-name="Path 4871" class="cls-2" d="M2.5,200.59Z" transform="translate(-0.191 -168.008)"/>
    <path id="Path_4872" data-name="Path 4872" class="cls-2" d="M2.58,200.66Z" transform="translate(-0.18 -167.998)"/>
  </g>
</svg>
