<svg xmlns="http://www.w3.org/2000/svg" width="82.787" height="125.308" viewBox="0 0 82.787 125.308">
  <defs>
    <style>
      .cls-1 {
        fill: #b3b390;
        stroke: #231f20;
        stroke-miterlimit: 10;
      }
    </style>
  </defs>
  <g id="cameroon" transform="translate(0.868 0.5)">
    <path id="cameroon-2" data-name="cameroon" class="cls-1" d="M322.583,330.153a5.8,5.8,0,0,0-1.461-.274c-.89-.091-1.781-.114-2.671-.205a6.958,6.958,0,0,1-1.062-.285l-.388-.217a7.3,7.3,0,0,1-.879-.993c-.365-.468-.719-.936-1.142-1.393a7.226,7.226,0,0,0-2.146-1.6c-.559-.285-1.142-.537-1.724-.765a2.9,2.9,0,0,0,.559-.868c.148-.331.274-.673.4-1.027.217-.559.388-1.142.559-1.712.377-1.2.616-2.42,1.062-3.6h0l.091-.217a13.03,13.03,0,0,1,.9-1.667c.365-.548.731-1.085,1.142-1.621s.8-.947,1.222-1.4a11.847,11.847,0,0,1,1.393-1.221,14.092,14.092,0,0,1,1.256-.833c.5-.285.993-.594,1.473-.913a11.043,11.043,0,0,0,1.986-1.872,9.677,9.677,0,0,1,1.05-1,6.966,6.966,0,0,1,1.05-.639,7.423,7.423,0,0,1,1.233-.274,11.422,11.422,0,0,0,1.838-.365,18.011,18.011,0,0,0,2.009-.959,5.207,5.207,0,0,1,.685-.205,5.712,5.712,0,0,1,.765,0,7.353,7.353,0,0,1,1.553.457,3.556,3.556,0,0,1,.674.388,2.146,2.146,0,0,1,.285.274c.3.411.548.879.822,1.3a8,8,0,0,0,.525.7,4.567,4.567,0,0,0,1.587,1.358c.137.057.285.126.434.171a3.651,3.651,0,0,0,.616.1l.491-.057a2.766,2.766,0,0,0,.582-.217,7.453,7.453,0,0,0,1.142-.868,8.666,8.666,0,0,0,1.37-1.724,13.357,13.357,0,0,0,1.37-2.626c.365-.9.708-1.8,1.073-2.706.183-.434.377-.856.594-1.279a8.325,8.325,0,0,1,.811-1.336l.548-.753a12.984,12.984,0,0,0,.879-1.3c.3-.537.571-1.073.833-1.621.5-.993,1-1.986,1.45-3.014a16.747,16.747,0,0,0,.639-1.792c.148-.491.32-.97.5-1.461a5.082,5.082,0,0,1,.4-.731,4.359,4.359,0,0,1,.331-.32c.434-.3.913-.491,1.37-.742a5.805,5.805,0,0,0,.845-.525,4.739,4.739,0,0,0,.753-.674,5.968,5.968,0,0,0,.628-.89,9.348,9.348,0,0,0,.651-2.078,17.8,17.8,0,0,1,.548-1.724,8.409,8.409,0,0,1,.719-1.244,13.514,13.514,0,0,1,1.05-1.084,11.115,11.115,0,0,0,1.655-1.929,8.6,8.6,0,0,0,.879-2.283c.137-.445.308-.89.491-1.324l-.08.194a9.894,9.894,0,0,1,.868-1.781,9.216,9.216,0,0,1,.742-.753,7.422,7.422,0,0,0,1.233-1.507,8.159,8.159,0,0,0,.434-1.027c.069-.148.126-.308.183-.468s.24-.639.365-.959a10.049,10.049,0,0,1,.925-1.678c.434-.537.89-1.073,1.324-1.621a13.765,13.765,0,0,0,1.358-1.975,10.633,10.633,0,0,0,.571-1.142c.171-.411.308-.662.445-.993a12.376,12.376,0,0,0,.479-1.381c.114-.365.217-.731.354-1.142a4.108,4.108,0,0,1,.354-.616,5.083,5.083,0,0,1,.674-.639,8,8,0,0,1,1.427-.868l1.381-.582a7.523,7.523,0,0,0,3.037-2.363,4.726,4.726,0,0,0,.833-2.843v-1.45a11.837,11.837,0,0,0-.114-1.678,5.4,5.4,0,0,0-.651-1.815,4.931,4.931,0,0,0-.913-1.039,20.074,20.074,0,0,0-2.42-1.587,4.772,4.772,0,0,1-.594-.582c-.091-.137-.183-.274-.263-.422a3.278,3.278,0,0,1-.08-.32,4.382,4.382,0,0,1,0-.548c.08-.491.205-.97.3-1.45a10.188,10.188,0,0,0,.16-1.142,6.587,6.587,0,0,0-.1-1.336h0a6.85,6.85,0,0,1,1.37,0,4.985,4.985,0,0,1,.708.194l.411.251a6.125,6.125,0,0,1,.8.833,15.591,15.591,0,0,1,1.324,2.112c.411.765.8,1.541,1.222,2.283a22.63,22.63,0,0,0,1.45,2.135,13.393,13.393,0,0,1,1.37,2.283,12.171,12.171,0,0,1,.651,2.614c.08.959.1,1.918.1,2.888a26.028,26.028,0,0,1-.08,2.671c-.137.856-.274,1.7-.4,2.546-.068.491-.126.993-.171,1.484a8.193,8.193,0,0,0,0,1.5,6.3,6.3,0,0,0,.445,1.884,9.987,9.987,0,0,0,1.358,2.283c.285.388.571.765.868,1.142.5.651,1.039,1.29,1.553,1.941a8.385,8.385,0,0,1,.628,1.016,2.351,2.351,0,0,1,.137.4v.057h0l-.069.057a2.807,2.807,0,0,1-.514.285,7.843,7.843,0,0,1-1.438.377,13.153,13.153,0,0,1-2.843,0l-2.043-.194c-.628-.069-1.256-.091-1.9-.1a12.436,12.436,0,0,0-2.158.194,19.149,19.149,0,0,0-1.952.411,7.3,7.3,0,0,0-2.374,1.016,7.618,7.618,0,0,0-1.142.868,3.128,3.128,0,0,0-.742,1.142,2.991,2.991,0,0,0-.1,1.553,4.772,4.772,0,0,0,1.393,2.363c.24.263.5.514.765.754,1.393,1.221,2.854,2.352,4.19,3.63a52.51,52.51,0,0,1,3.676,3.836l.388.5,1.027,1.473c.354.525.674,1.062,1,1.6a24.891,24.891,0,0,1,1.655,3.2c.479,1.21.845,2.466,1.427,3.642a4.875,4.875,0,0,0,1.142,1.644h0v.069c-.183.308-.377.616-.582.913a6.323,6.323,0,0,1-.788.776c-.537.388-1.073.765-1.6,1.142-.342.263-.662.525-.993.811a8.154,8.154,0,0,0-1.381,1.553,8.824,8.824,0,0,0-.582,1.073,12.022,12.022,0,0,0-.537,1.244c-.251.628-.468,1.267-.719,1.884a8.461,8.461,0,0,1-.822,1.6,6.563,6.563,0,0,1-.913.868,12.881,12.881,0,0,0-1.142.89,10.1,10.1,0,0,0-.948,1.027c-.171.217-.331.434-.479.662a4.569,4.569,0,0,0-.331.765,2.282,2.282,0,0,0-.1.959,3.425,3.425,0,0,0,.377,1.279,6.268,6.268,0,0,0,.982,1.393l.4.491a4.069,4.069,0,0,1,.457.7,4.567,4.567,0,0,1,.148.525,4.411,4.411,0,0,1,0,.776c-.08.571-.194,1.142-.263,1.7,0,.263-.057.525-.08.788a7.35,7.35,0,0,0,.114,1.872,16.63,16.63,0,0,0,.97,2.9,23.626,23.626,0,0,1,.833,2.957,6.2,6.2,0,0,0,.32,1.085,6.512,6.512,0,0,0,.537,1.05,9.69,9.69,0,0,0,.719.97c.3.365.605.719.913,1.085a17.364,17.364,0,0,1,1.05,1.781,8.166,8.166,0,0,1,.308,1.027,9.13,9.13,0,0,1,0,1.575,4.737,4.737,0,0,0,.274,2.146,6.141,6.141,0,0,0,.673,1.233,9.035,9.035,0,0,0,.856,1,19.487,19.487,0,0,0,1.9,1.6l1.473,1.142a25.883,25.883,0,0,1,3.528,3.368,8.516,8.516,0,0,1,.719,1.256,8.61,8.61,0,0,1,.468,1.77,12.249,12.249,0,0,1,0,2.42,16.218,16.218,0,0,0-.114,2.352,40.1,40.1,0,0,0,.639,4.681v.24a8.525,8.525,0,0,1-1.267-.388,33.531,33.531,0,0,0-3.585-1.541c-1.233-.4-2.569-.948-3.881-1.336a25.416,25.416,0,0,0-3.916-.833,23.418,23.418,0,0,0-4.19-.263c-.605,0-1.21.057-1.8.057a13.3,13.3,0,0,1-1.655-.126c-1.256-.183-2.5-.422-3.756-.674-.605-.114-1.21-.24-1.815-.331a16.322,16.322,0,0,0-2.226-.217c-.616,0-1.222.08-1.838.1a16.307,16.307,0,0,1-1.975,0,37.293,37.293,0,0,0-3.9-.354,12.172,12.172,0,0,0-1.827.091,15.477,15.477,0,0,1-1.781,0,31.464,31.464,0,0,1-3.425-.274c-1.461-.217-2.9-.571-4.361-.753a10.676,10.676,0,0,0-2.409-.091,5.492,5.492,0,0,0-2.363.833c-.4.251-.776.536-1.2.753a5.642,5.642,0,0,1-.628.171,6.63,6.63,0,0,1-1.347,0c-1.142-.183-2.2-.491-3.288-.753l-.776-.171a6.52,6.52,0,0,0-2.352,0l-1.45.24-1.142.091a11.1,11.1,0,0,1-1.381-.057,17.833,17.833,0,0,1-2.34-.217h-.205c.171-.7.331-1.381.479-2.078.194-.879.3-1.781.434-2.683.091-.639.194-1.267.274-1.918a10.557,10.557,0,0,0,.068-1.8,11.825,11.825,0,0,0-.263-2c-.1-.514-.194-1.039-.274-1.564s-.091-1.039-.126-1.564,0-1.142,0-1.644a34.058,34.058,0,0,0,.183-3.573,9.4,9.4,0,0,0-.183-1.267,4.235,4.235,0,0,0-.731-1.712,3.1,3.1,0,0,0-.765-.731A3.86,3.86,0,0,0,322.583,330.153Z" transform="translate(-311.11 -234.92)"/>
  </g>
</svg>
