<svg xmlns="http://www.w3.org/2000/svg" width="141.002" height="94.208" viewBox="0 0 141.002 94.208">
  <defs>
    <style>
      .cls-1 {
        fill: #b3b390;
        stroke: #231f20;
        stroke-miterlimit: 10;
      }
    </style>
  </defs>
  <g id="centralAfricanRepublic" transform="translate(0.571 0.645)">
    <path id="centralAfricanRepublic-2" data-name="centralAfricanRepublic" class="cls-1" d="M386.6,345.988a11.419,11.419,0,0,0-.331-1.473,8.413,8.413,0,0,0-1.9-3.288c-.445-.5-.925-.959-1.416-1.416a34.325,34.325,0,0,0-3.356-2.66l-.822-.605a13.342,13.342,0,0,1-1.724-1.587,5.579,5.579,0,0,1-.388-.662,1.583,1.583,0,0,0-.114-.377,4.735,4.735,0,0,1,0-.8,1.448,1.448,0,0,1,.057-.491,5.448,5.448,0,0,0,.057-.868,5.571,5.571,0,0,0-.308-1.884c-.171-.411-.342-.811-.537-1.2a9.6,9.6,0,0,0-.982-1.553c-.434-.594-.959-1.142-1.438-1.69a6.851,6.851,0,0,1-.525-.879c-.194-.594-.308-1.222-.445-1.838a16.455,16.455,0,0,0-.479-1.621c-.194-.559-.445-1.085-.651-1.632a10.814,10.814,0,0,1-.5-1.747,6.708,6.708,0,0,1,0-1.142,4.487,4.487,0,0,1,.148-.856,10.117,10.117,0,0,0,.285-2.192,4.566,4.566,0,0,0-.445-1.815,5.516,5.516,0,0,0-.628-.982c-.274-.365-.571-.708-.845-1.05a4.562,4.562,0,0,1-.411-.662h0l.137-.228a8.687,8.687,0,0,1,.993-.948c.514-.377,1.039-.731,1.53-1.142a5.628,5.628,0,0,0,1.347-1.633,9.778,9.778,0,0,0,.639-1.4c.24-.628.445-1.267.651-1.906a17.129,17.129,0,0,1,.571-1.621,7.842,7.842,0,0,1,.765-1.393,16.931,16.931,0,0,1,1.6-1.667c.354-.32.731-.639,1.073-.993a10.369,10.369,0,0,0,1.507-2.123l.069-.137.479.137a9.976,9.976,0,0,0,2.283.183,12.353,12.353,0,0,0,1.941-.24,25.491,25.491,0,0,0,3.779-.97c1.233-.411,2.42-.936,3.619-1.438a7.069,7.069,0,0,1,1.267-.388h.594c.651.148,1.244.468,1.9.617a6.3,6.3,0,0,0,1.792.126,5.309,5.309,0,0,0,1.964-.5,16.774,16.774,0,0,0,1.61-.868,14.915,14.915,0,0,1,1.872-1.027,17.379,17.379,0,0,1,2.283-.765c.662-.16,1.324-.285,2.009-.388a29.751,29.751,0,0,0,6.165-1.142,10.207,10.207,0,0,0,2.192-.982,6.656,6.656,0,0,0,1.735-1.61,4.226,4.226,0,0,0,.548-.993,4.111,4.111,0,0,0,.274-1.142,6.164,6.164,0,0,0-.137-2.043,6.256,6.256,0,0,0-.3-.925,13.337,13.337,0,0,1-.457-1.45l.068-.126.171-.16a2.972,2.972,0,0,1,.457-.263,7.229,7.229,0,0,1,1.084-.285,28.887,28.887,0,0,1,4.1,0l1.8.057a17.653,17.653,0,0,0,2.055,0,2.632,2.632,0,0,0,.845-.091,11.169,11.169,0,0,0,1.233-.228c.354-.091.7-.183,1.039-.3s.833-.342,1.244-.514a16.2,16.2,0,0,0,3.493-2.226l.354-.274q.765-.559,1.575-1.142c.5-.331,1.027-.639,1.541-.959a16.77,16.77,0,0,0,1.6-1.05c.617-.468,1.21-.947,1.781-1.45a27.638,27.638,0,0,0,2.717-2.74c.9-1.062,1.781-2.135,2.58-3.276l1.073-1.507c.251-.308.5-.594.776-.89a10.018,10.018,0,0,1,.9-.8q.5-.354,1.027-.685c.4-.24.833-.445,1.244-.662.776-.4,1.564-.765,2.363-1.142a11.841,11.841,0,0,1,1.313-.457,11.484,11.484,0,0,1,1.279-.24,18.85,18.85,0,0,0,2.1-.263,3.712,3.712,0,0,0,.879-.32l.1.148c.183.251.377.491.571.731.32.411.662.8,1,1.2q.947,1.142,1.849,2.283c.947,1.244,1.861,2.512,2.8,3.767.491.674.982,1.324,1.461,2a11.763,11.763,0,0,1,1.142,1.952,6.955,6.955,0,0,1,.468,1.427,3.571,3.571,0,0,1,0,.605,18.466,18.466,0,0,1-.525,2.078c-.16.548-.365,1.085-.571,1.621l-.411.89c-.126.251-.228.525-.331.788a4.908,4.908,0,0,0-.3,1.518,1.631,1.631,0,0,0,0,.331,4.314,4.314,0,0,0,.114.651,5.478,5.478,0,0,0,.24.731A10.579,10.579,0,0,0,468,279.89a5.972,5.972,0,0,0,.753,1.142,3.873,3.873,0,0,0,.742.616,4.281,4.281,0,0,0,.891.434,8.631,8.631,0,0,0,2.706.4h3.87l.068.114a2.544,2.544,0,0,1,.1.445c.068.708.057,1.416.091,2.135a8.2,8.2,0,0,0,.1,1.039,2.633,2.633,0,0,0,.183.651,1.642,1.642,0,0,0,.205.457,3.781,3.781,0,0,0,.3.411,4.566,4.566,0,0,0,2.58,1.438c.639.16,1.29.274,1.941.434a19.19,19.19,0,0,1,1.906.571,8.69,8.69,0,0,1,1.279.708l.3.3a3.143,3.143,0,0,1,.274.468c.171.457.274.936.411,1.416a8,8,0,0,0,.628,1.564,6.466,6.466,0,0,0,.685.97,5.2,5.2,0,0,0,.856.879,12.551,12.551,0,0,0,1.7,1.142c.411.251.856.468,1.279.7.936.525,1.872,1.073,2.808,1.621a29.008,29.008,0,0,1,2.534,1.712l.993.742a11.04,11.04,0,0,1,1.747,1.6,3.887,3.887,0,0,1,.331.548,6.246,6.246,0,0,1,.263.982,2.38,2.38,0,0,0,.057.639,9.023,9.023,0,0,0,.1.97,4.11,4.11,0,0,0,.388,1.142,2.7,2.7,0,0,0,.251.377c.16.205.32.4.491.582s.377.365.571.537l.8.662c.9.731,1.838,1.427,2.763,2.135a6.357,6.357,0,0,1,.993.925,9.005,9.005,0,0,1,.742,1.29,23.319,23.319,0,0,1,.765,3.048c.08.342.148.685.228,1.039l-.24-.057a20.673,20.673,0,0,0-4.441-.171c-.628,0-1.244,0-1.872-.057s-1.142-.068-1.667-.137l-.9-.148a7.915,7.915,0,0,1-1.61-.479c-1.142-.491-2.146-1.142-3.242-1.553-.639-.274-1.267-.537-1.929-.753a13.252,13.252,0,0,0-1.758-.457c-.32-.069-.662-.114-.993-.16a2.907,2.907,0,0,0-.445,0h-.5a3.961,3.961,0,0,0-1.222.411,6.284,6.284,0,0,0-1.142.845l-.674.628c-.445.434-.879.879-1.313,1.336s-.765.845-1.2,1.222l-.354.205-.457.114h-.388c-.24-.057-.468-.126-.708-.206-.457-.228-.9-.479-1.347-.708a4.819,4.819,0,0,0-.765-.3l-.514-.08a3.79,3.79,0,0,0-2.1.662c-.434.251-.845.559-1.267.845l-1.324.856c-.879.548-1.769,1.085-2.66,1.621a26.609,26.609,0,0,1-2.785,1.553,3.821,3.821,0,0,1-.708.194h-.365l-.32-.08c-.845-.422-1.553-1.062-2.4-1.484a3.71,3.71,0,0,0-1.3-.377,5.511,5.511,0,0,0-.97,0,8.578,8.578,0,0,0-1.313.16,4.384,4.384,0,0,0-2.283.993,9.137,9.137,0,0,0-1.53,1.838c-.411.616-.8,1.244-1.221,1.838a7.867,7.867,0,0,1-.674.708c-.16.1-.308.206-.479.3a3.042,3.042,0,0,1-.434.114,2.578,2.578,0,0,1-.594,0c-.594-.1-1.142-.274-1.77-.377a9.131,9.131,0,0,0-2.614,0c-1.21.126-2.42.217-3.642.251a23.322,23.322,0,0,1-3.333-.194c-1.073-.114-2.158-.205-3.231-.342a22.154,22.154,0,0,1-4.041-.868,6.415,6.415,0,0,1-.9-.525,7.183,7.183,0,0,1-1.142-1.142,28.182,28.182,0,0,0-2.66-3.493,6.265,6.265,0,0,0-.925-.719,6.849,6.849,0,0,0-1.039-.525,10.748,10.748,0,0,0-1.2-.445c-.674-.217-1.347-.4-2.021-.571s-1.267-.32-1.907-.457a8,8,0,0,0-1.142-.171c-.411,0-.811-.069-1.222-.08a3.425,3.425,0,0,0-2.123.571,4.635,4.635,0,0,0-1.4,1.861c-.274.605-.514,1.21-.765,1.827a10.893,10.893,0,0,1-.856,1.507c-.365.525-.753,1.028-1.142,1.576s-.685,1.073-1.016,1.621-.639,1.142-.936,1.747a17.319,17.319,0,0,0-.822,1.8,18.488,18.488,0,0,0-.594,1.8c-.171.662-.263,1.142-.422,1.758a1.222,1.222,0,0,1-.126.377,6.5,6.5,0,0,0-.879-.274,10.079,10.079,0,0,0-1.541-.251l-.97-.091c-.765,0-1.53-.08-2.283-.091-1.427,0-2.854-.114-4.27-.228-.674,0-1.359-.126-2.032-.126a19.886,19.886,0,0,0-2.158.08,20.229,20.229,0,0,0-2.066.148,10.128,10.128,0,0,0-1.861.365,5.206,5.206,0,0,0-2.454,1.7,8.2,8.2,0,0,0-1.381,3.242c-.194.81-.3,1.644-.411,2.466s-.228,1.587-.4,2.375a9.909,9.909,0,0,1-1.6,3.665q-.24.274-.479.514a4.212,4.212,0,0,1,.057-.845,7.644,7.644,0,0,0,.057-1.553Z" transform="translate(-368.91 -256.03)"/>
  </g>
</svg>
