<svg xmlns="http://www.w3.org/2000/svg" width="114.028" height="176.023" viewBox="0 0 114.028 176.023">
  <defs>
    <style>
      .cls-1 {
        fill: #b3b390;
        stroke: #231f20;
        stroke-miterlimit: 10;
      }
    </style>
  </defs>
  <g id="chad" transform="translate(0.5 0.5)">
    <path id="chad-2" data-name="chad" class="cls-1" d="M382.021,281.04a3.744,3.744,0,0,0-.228-.594,6.619,6.619,0,0,0-.936-1.438c-.765-.948-1.564-1.861-2.283-2.808a10.585,10.585,0,0,1-1.359-2.066,6.289,6.289,0,0,1-.285-1,15.244,15.244,0,0,1,.228-3.528v.24c.1-.651.206-1.3.3-1.952a13.5,13.5,0,0,0,.068-2.146c0-1.267-.057-2.534-.171-3.79a10.833,10.833,0,0,0-1.53-4.76,18.959,18.959,0,0,0-1.142-1.621,16.817,16.817,0,0,1-1.085-1.724c-.582-1.142-1.062-2.215-1.69-3.276a7.753,7.753,0,0,0-2.055-2.454,4.065,4.065,0,0,0-1.142-.559,4.977,4.977,0,0,0-1.142-.217,4.567,4.567,0,0,0-.559,0,10.713,10.713,0,0,0-1.473.137c-.194-.3-.411-.582-.628-.856s-.7-.833-1.062-1.244c-.753-.845-1.541-1.655-2.283-2.466l-.674-.662a.97.97,0,0,0,0-.571c-.194-.8-.388-1.6-.594-2.4s-.342-1.324-.468-1.986a11.122,11.122,0,0,1,0-2.386,6.419,6.419,0,0,1,.183-.811c.08-.137.16-.274.251-.4a10.625,10.625,0,0,1,1.313-1.142l1.142-1a8.205,8.205,0,0,0,.982-1.142c.24-.32.468-.651.708-.982a11.4,11.4,0,0,0,1-1.427,13.814,13.814,0,0,0,.89-1.735c.16-.4.32-.8.445-1.21a10.533,10.533,0,0,0,.285-1.324c.1-.548.16-1.142.228-1.69a13.854,13.854,0,0,1,.377-1.507c.148-.491.3-.97.479-1.438a15.048,15.048,0,0,1,1.37-2.283c.559-.674,1.142-1.324,1.724-1.964a14.96,14.96,0,0,1,1.838-1.667c.445-.331.89-.639,1.347-.948a10.84,10.84,0,0,0,1.427-1.142,21.686,21.686,0,0,0,2.352-2.751c.628-.89,1.244-1.792,1.9-2.66a7.124,7.124,0,0,0,.925-1.587,8.824,8.824,0,0,0,.479-1.621,19.191,19.191,0,0,0,.228-1.986c0-.548.091-1.142.1-1.667v-3.55c-.114-2.4-.194-4.806-.1-7.2a32.915,32.915,0,0,1,.354-3.973c.1-.662.206-1.336.32-2a13.827,13.827,0,0,1,.571-2.557,11.9,11.9,0,0,1,1-1.724c.16-.228.32-.468.468-.708a8.73,8.73,0,0,0,.708-1.473c.194-.5.365-1.027.548-1.541a13.2,13.2,0,0,0,.491-1.655,5.1,5.1,0,0,0,0-2.523,14.731,14.731,0,0,0-.947-2.078c-.5-.993-1.085-1.952-1.61-2.934-.148-.285-.285-.559-.411-.845a5.432,5.432,0,0,1-.251-.868v-1.735a5.8,5.8,0,0,0-.434-2.283,7.84,7.84,0,0,0-1.393-2l-.788-.947a11.247,11.247,0,0,1-.651-.982c-.183-.331-.354-.674-.5-1.016a27.9,27.9,0,0,1-1.324-5.936c-.137-1.142-.251-2.283-.388-3.425s-.3-2.283-.457-3.425l-.137-1.142v-.365a1.061,1.061,0,0,0-.091-.228l.628-.24c.457-.148.913-.3,1.359-.468a16.646,16.646,0,0,0,2.283-.925c.479-.263.936-.571,1.4-.868l1.142-.708c.365-.251.719-.514,1.085-.753s.788-.491,1.142-.731a7.928,7.928,0,0,1,1.142-.639.87.87,0,0,1,.228-.069h.148a6.384,6.384,0,0,1,1.016.377l.742.308-.171-.068c2.055.925,4.041,1.986,6.039,3.059.982.525,1.975,1.039,2.991,1.507s2.283.982,3.356,1.461,2.055.89,3.071,1.347l3.014,1.324,1.724.811c.548.263,1.073.548,1.61.822.948.479,1.884.97,2.831,1.427,2.112.993,4.247,1.918,6.336,2.968s4.087,2.078,6.108,3.174l3.242,1.769c.982.514,1.986,1,2.98,1.507,2.009,1.016,3.961,2.123,5.982,3.105l3.162,1.553c1.142.548,2.181,1.142,3.265,1.678,1.964,1.039,3.9,2.112,5.856,3.2.993.548,1.986,1.142,3.014,1.6s2.158,1.142,3.219,1.667,1.952,1.142,2.922,1.678,1.975,1.142,2.957,1.815c1.7,1.142,3.425,2.146,5.126,3.254l1.142.731a5.189,5.189,0,0,0,.605.342l.4.16a.6.6,0,0,0,.137,0v.148c.057.479.114.948.16,1.427s.1,1.256.137,1.884c.08,1.142.114,2.283.148,3.425s.069,2.226.126,3.333.171,2.146.251,3.219.171,2.283.285,3.493.251,2.146.365,3.219.228,2.283.32,3.425.148,2.283.205,3.356.1,2.283.171,3.425.16,2.158.217,3.231q.171,3.311.377,6.61a3.8,3.8,0,0,1,0,.628v.068h0a1.2,1.2,0,0,1-.274.069,10.991,10.991,0,0,1-1.735,0l-1.29-.08-2.5-.126a9.865,9.865,0,0,0-3.276.194,4.166,4.166,0,0,0-1.473.742,3.425,3.425,0,0,0-.959,1.359,6.406,6.406,0,0,0-.422,1.7c-.08.628-.08,1.256-.137,1.884a3.745,3.745,0,0,1-.206.7,5.512,5.512,0,0,1-.422.708,25.528,25.528,0,0,1-1.861,1.986,14.177,14.177,0,0,0-1.142,1.3c-.331.434-.559.936-.879,1.393l-.24.228-.571.377a11.294,11.294,0,0,0-1.039.731,4.155,4.155,0,0,0-1.039,1.233,5.435,5.435,0,0,0-.354.879,4.565,4.565,0,0,0-.171.879,5.8,5.8,0,0,0,.091,1.336,2.627,2.627,0,0,0,.114.582c.1.434.251.856.342,1.29h0a6.652,6.652,0,0,1-.491.491,6.748,6.748,0,0,0-1,1.142,4.658,4.658,0,0,0-.628,1.9,6.454,6.454,0,0,0,0,1.484,8.651,8.651,0,0,0,.274,1.518c.126.468.274.925.377,1.393v.571l-.114.194a4.259,4.259,0,0,1-.4.388c-.605.422-1.267.708-1.861,1.142a4.68,4.68,0,0,0-.856.788,3.3,3.3,0,0,0-.571,1.039,3.021,3.021,0,0,0-.114.628v.479a4.175,4.175,0,0,0,.205,1.05,3.048,3.048,0,0,0,1.461,1.61,5.3,5.3,0,0,0,1.815.537l1.587.217a8.172,8.172,0,0,1,1.381.354,3.045,3.045,0,0,1,.491.285,4.1,4.1,0,0,1,.445.445,3.662,3.662,0,0,1,.3.548,9.659,9.659,0,0,1,.434,1.8c.057.468.091.936.114,1.4a14.975,14.975,0,0,0,.125,1.747,8.862,8.862,0,0,0,.365,1.61,9.709,9.709,0,0,0,.753,1.644c.251.457.525.89.765,1.347s.445.868.7,1.29a14.22,14.22,0,0,0,.856,1.3,10.191,10.191,0,0,1,.7,1.244,3.745,3.745,0,0,1,.194.605,3.041,3.041,0,0,1,0,.457,4.442,4.442,0,0,1-.16.753,1.014,1.014,0,0,0,0,.183l-.1.1-.32.183a3.789,3.789,0,0,1-.617.171,16.073,16.073,0,0,0-3.607.582c-.685.24-1.347.537-2.009.833l-1.61.719a15.9,15.9,0,0,0-3.425,2.078,12.846,12.846,0,0,0-1.393,1.336c-.434.491-.845.993-1.256,1.5-.993,1.233-2.032,2.42-3.082,3.608a33.108,33.108,0,0,1-3.425,3.322c-.879.639-1.792,1.21-2.694,1.827s-2.009,1.5-2.991,2.283c-.468.331-.936.662-1.438.959a15.232,15.232,0,0,1-1.427.731,10.478,10.478,0,0,1-1.279.422l-.754.16a4.8,4.8,0,0,1-.708.1h.3c-.5,0-1,.08-1.518.08h-1.6l-3.174-.1a15.464,15.464,0,0,0-1.781,0,5.377,5.377,0,0,0-4.178,1.964,3.275,3.275,0,0,0-.468,1.016,2.865,2.865,0,0,0,0,1.244,6.553,6.553,0,0,0,.217.936,17.51,17.51,0,0,1,.491,1.724,6.223,6.223,0,0,1,0,.8.512.512,0,0,1-.08.331,2.72,2.72,0,0,1-.206.342,4.689,4.689,0,0,1-.594.571,5.714,5.714,0,0,1-.959.559c-.342.137-.685.263-1.039.377a11.422,11.422,0,0,1-1.358.365c-.822.183-1.655.32-2.5.445a20.959,20.959,0,0,0-4.566.948,15.984,15.984,0,0,0-3.356,1.564,21,21,0,0,1-2.283,1.393,4.834,4.834,0,0,1-.7.194,6.736,6.736,0,0,1-.959,0,5.7,5.7,0,0,1-.753-.228l-.354-.148-.457-.16a4.359,4.359,0,0,0-1.142-.194,5.708,5.708,0,0,0-2.74.731c-.537.251-1.05.537-1.575.811s-.925.422-1.393.628a24.706,24.706,0,0,1-4.932,1.45,9.839,9.839,0,0,1-2.169,0,4.791,4.791,0,0,1-.9-.251,4.1,4.1,0,0,1-.719-.422,1.587,1.587,0,0,1-.24-.24,7.427,7.427,0,0,1-.571-1.073c-.217-.616-.422-1.233-.605-1.849s-.411-1.3-.662-1.941A29.506,29.506,0,0,0,377,299.774a32.95,32.95,0,0,0-2.158-3.265,27.407,27.407,0,0,0-2.66-2.968l-1.564-1.553c-.514-.491-1.05-.959-1.587-1.416a24.809,24.809,0,0,1-3.219-2.968,4.135,4.135,0,0,1-.308-.468l-.068-.285v-.263l.354-.354a8.307,8.307,0,0,1,1.142-.719,18.381,18.381,0,0,1,3.208-.822,17.6,17.6,0,0,1,3.2,0l1.884.126h.936a11.416,11.416,0,0,0,1.975-.1,8.538,8.538,0,0,0,2.192-.594,3.139,3.139,0,0,0,1.747-1.5,2.853,2.853,0,0,0,.217-1.027A2.514,2.514,0,0,0,382.021,281.04Z" transform="translate(-359.764 -134.31)"/>
  </g>
</svg>
