<svg xmlns="http://www.w3.org/2000/svg" width="20.268" height="14.616" viewBox="0 0 20.268 14.616">
  <defs>
    <style>
      .cls-1 {
        fill: #073304;
        stroke: #231f20;
        stroke-miterlimit: 10;
      }
    </style>
  </defs>
  <g id="comoros" transform="translate(0.501 0.684)">
    <g id="comoros-2" data-name="comoros" transform="translate(0 3.33)">
      <path id="Path_5063" data-name="Path 5063" class="cls-1" d="M612.227,416.66a2.781,2.781,0,0,0-.623-1.123,3.25,3.25,0,0,0-.4-.377,7.305,7.305,0,0,0-.587-.439,2.78,2.78,0,0,0-1.429-.474,1.689,1.689,0,0,0-.412,0,1.043,1.043,0,0,0-.754.991.789.789,0,0,0-.316.412c-.105.324-.219.64-.307.956a5.343,5.343,0,0,0-.167,1.061,3.349,3.349,0,0,0,.386,1.842,8.7,8.7,0,0,0,1.193,1.4c.351.5.544,1.079.877,1.57a2.272,2.272,0,0,0,.6.631,1.421,1.421,0,0,0,1.079.184,1.885,1.885,0,0,0,.772-.439,1.565,1.565,0,0,0,.272-.324,1.99,1.99,0,0,0,.228-.526,3.457,3.457,0,0,0,.061-.526,2.814,2.814,0,0,0,0-.465,4.47,4.47,0,0,0-.1-.675c-.035-.228-.07-.4-.1-.605-.07-.438-.158-.877-.228-1.3a7.77,7.77,0,0,1,0-.877A2.949,2.949,0,0,0,612.227,416.66Z" transform="translate(-607.218 -414.236)"/>
      <path id="Path_5064" data-name="Path 5064" class="cls-1" d="M612.789,423.918v-.612l-.3.166a9.011,9.011,0,0,0-.858-1.06,7.082,7.082,0,0,0-1.287-1.018,9.868,9.868,0,0,1-.973-.795c-.1-.139-.214-.279-.3-.418a4.61,4.61,0,0,1-.2-.628,6.158,6.158,0,0,1,0-1.1,10.164,10.164,0,0,1,.577-1.812h.1l.561.139a8.113,8.113,0,0,1,1.419.725l.445.349a.406.406,0,0,0,0,.111h0v1.492a11.36,11.36,0,0,0,.33,1.812A7.937,7.937,0,0,1,612.789,423.918Z" transform="translate(-607.866 -415.139)"/>
    </g>
    <g id="comoros-3" data-name="comoros" transform="matrix(0.259, 0.966, -0.966, 0.259, 13.276, 7.478)">
      <path id="Path_5063-2" data-name="Path 5063" class="cls-1" d="M3.824,1.851A2.123,2.123,0,0,0,3.348.994,2.481,2.481,0,0,0,3.04.706,5.572,5.572,0,0,0,2.592.371,2.122,2.122,0,0,0,1.5.01a1.288,1.288,0,0,0-.315,0A.8.8,0,0,0,.61.766a.6.6,0,0,0-.241.315c-.08.248-.167.489-.234.73a4.081,4.081,0,0,0-.127.81A2.557,2.557,0,0,0,.3,4.027,6.64,6.64,0,0,0,1.213,5.1c.268.382.415.823.669,1.2a1.732,1.732,0,0,0,.455.482,1.085,1.085,0,0,0,.823.141,1.439,1.439,0,0,0,.589-.335,1.2,1.2,0,0,0,.208-.248,1.52,1.52,0,0,0,.174-.4,2.633,2.633,0,0,0,.047-.4,2.15,2.15,0,0,0,0-.355,3.416,3.416,0,0,0-.074-.516c-.027-.174-.054-.308-.074-.462-.053-.335-.121-.669-.174-.991a5.935,5.935,0,0,1,0-.67A2.25,2.25,0,0,0,3.824,1.851Z" transform="translate(0 0)"/>
      <path id="Path_5064-2" data-name="Path 5064" class="cls-1" d="M3.162,5.851V5.359l-.239.134a7.246,7.246,0,0,0-.69-.852A5.694,5.694,0,0,0,1.2,3.822a7.946,7.946,0,0,1-.782-.639c-.08-.112-.172-.224-.239-.336a3.694,3.694,0,0,1-.159-.5,4.968,4.968,0,0,1,0-.886A8.187,8.187,0,0,1,.484,0h.08l.451.112a6.531,6.531,0,0,1,1.14.583l.358.28a.33.33,0,0,0,0,.09h0v1.2a9.131,9.131,0,0,0,.265,1.457A6.38,6.38,0,0,1,3.162,5.851Z" transform="translate(0.675 0.998)"/>
    </g>
    <g id="comoros-4" data-name="comoros" transform="translate(16.991 0) rotate(60)">
      <path id="Path_5063-3" data-name="Path 5063" class="cls-1" d="M3.824,1.851A2.123,2.123,0,0,0,3.348.994,2.481,2.481,0,0,0,3.04.706,5.572,5.572,0,0,0,2.592.371,2.122,2.122,0,0,0,1.5.01a1.288,1.288,0,0,0-.315,0A.8.8,0,0,0,.61.766a.6.6,0,0,0-.241.315c-.08.248-.167.489-.234.73a4.081,4.081,0,0,0-.127.81A2.557,2.557,0,0,0,.3,4.027,6.64,6.64,0,0,0,1.213,5.1c.268.382.415.823.669,1.2a1.732,1.732,0,0,0,.455.482,1.085,1.085,0,0,0,.823.141,1.439,1.439,0,0,0,.589-.335,1.2,1.2,0,0,0,.208-.248,1.52,1.52,0,0,0,.174-.4,2.633,2.633,0,0,0,.047-.4,2.15,2.15,0,0,0,0-.355,3.416,3.416,0,0,0-.074-.516c-.027-.174-.054-.308-.074-.462-.053-.335-.121-.669-.174-.991a5.935,5.935,0,0,1,0-.67A2.25,2.25,0,0,0,3.824,1.851Z" transform="translate(0 0)"/>
      <path id="Path_5064-3" data-name="Path 5064" class="cls-1" d="M3.162,5.851V5.359l-.239.134a7.246,7.246,0,0,0-.69-.852A5.694,5.694,0,0,0,1.2,3.822a7.946,7.946,0,0,1-.782-.639c-.08-.112-.172-.224-.239-.336a3.694,3.694,0,0,1-.159-.5,4.968,4.968,0,0,1,0-.886A8.187,8.187,0,0,1,.484,0h.08l.451.112a6.531,6.531,0,0,1,1.14.583l.358.28a.33.33,0,0,0,0,.09h0v1.2a9.131,9.131,0,0,0,.265,1.457A6.38,6.38,0,0,1,3.162,5.851Z" transform="translate(0.675 0.998)"/>
    </g>
  </g>
</svg>
