<svg xmlns="http://www.w3.org/2000/svg" width="233" height="196" viewBox="0 0 233 196">
  <defs>
    <style>
      .cls-1 {
        fill: #84a528;
      }

      .cls-2 {
        fill: #f15b12;
        stroke: rgba(0,0,0,0);
        font-size: 19px;
        font-family: Poppins-SemiBold, Poppins;
        font-weight: 600;
        letter-spacing: 0.04em;
      }
    </style>
  </defs>
  <g id="compass" transform="translate(-1488 -393)">
    <g id="compass-2" data-name="compass" transform="translate(1548.896 431.747)">
      <g id="_031---Compass" data-name="031---Compass" transform="translate(0 0)">
        <path id="Shape" class="cls-1" d="M2.483,62.358l.571.149a57.67,57.67,0,0,0,55.32,55.32l.149.571a1.981,1.981,0,0,0,3.836,0l.149-.571a57.67,57.67,0,0,0,55.32-55.32l.571-.149a1.981,1.981,0,0,0,0-3.836l-.571-.149a57.67,57.67,0,0,0-55.32-55.32l-.149-.571a1.981,1.981,0,0,0-3.836,0l-.149.571a57.67,57.67,0,0,0-55.32,55.32l-.571.149a1.981,1.981,0,0,0,0,3.836Zm61.068,51.468,1.064-4.078a48.938,48.938,0,0,0,14.723-3.541.1.1,0,0,0,.057-.012.382.382,0,0,1,.055-.036,49.358,49.358,0,0,0,26.692-26.682c.014-.028.036-.05.048-.079s0-.038.012-.057a48.976,48.976,0,0,0,3.535-14.723l4.078-1.064a53.731,53.731,0,0,1-50.264,50.272ZM75.857,23.219a1.981,1.981,0,0,0,2.59-1.072l1.224-2.954a45.173,45.173,0,0,1,11.523,7.691l-.454.454a1.981,1.981,0,1,0,2.8,2.8L94,29.686a45.188,45.188,0,0,1,7.691,11.523l-2.954,1.224a1.981,1.981,0,1,0,1.516,3.661l2.972-1.23A44.976,44.976,0,0,1,105.673,55.2l-24.8-6.467,7.063-13.112a1.981,1.981,0,0,0-2.683-2.683L72.146,40,65.679,15.211a45.021,45.021,0,0,1,10.336,2.453l-1.23,2.972a1.981,1.981,0,0,0,1.072,2.584ZM76.93,47.7l-2.972-.777-.777-2.972,8.143-4.389Zm-4.008,3.051,4.5,1.175.053.014,24.974,6.515H65.223Zm29.531,11.666-29.531,7.7-7.7-7.7ZM76.93,73.176l4.389,8.143L73.176,76.93l.777-2.972Zm8.321,14.765a1.981,1.981,0,0,0,2.683-2.683L80.871,72.146l24.792-6.467a45.021,45.021,0,0,1-2.453,10.336l-2.972-1.23a1.981,1.981,0,0,0-1.516,3.661l2.954,1.224a45.173,45.173,0,0,1-7.691,11.523l-.454-.454a1.981,1.981,0,0,0-2.8,2.8l.454.454a45.187,45.187,0,0,1-11.523,7.691l-1.224-2.954a1.981,1.981,0,0,0-3.661,1.516l1.23,2.972a44.976,44.976,0,0,1-10.336,2.453l6.467-24.792Zm28.574-30.611-4.078-1.064a48.96,48.96,0,0,0-3.541-14.725.094.094,0,0,0-.012-.055.5.5,0,0,1-.036-.053A49.373,49.373,0,0,0,79.453,14.724c-.02,0-.032-.028-.053-.036s-.038,0-.057-.012a48.976,48.976,0,0,0-14.723-3.535L63.551,7.054A53.731,53.731,0,0,1,113.826,57.329Zm-51.4-38.893,7.7,29.521-7.7,7.7Zm0,46.8,7.7,7.689-7.7,29.531Zm-3.963,37.221-7.7-29.531,7.7-7.7ZM45.024,97.661a1.981,1.981,0,0,0-2.59,1.072l-1.224,2.954A45.174,45.174,0,0,1,29.686,94l.454-.454a1.981,1.981,0,0,0-2.8-2.8l-.454.454a45.188,45.188,0,0,1-7.691-11.523l2.954-1.224a1.981,1.981,0,0,0-1.516-3.661l-2.972,1.23a44.976,44.976,0,0,1-2.453-10.336L40,72.146,32.94,85.258a1.981,1.981,0,0,0,2.683,2.683l13.112-7.063L55.2,105.669a45.021,45.021,0,0,1-10.336-2.453l1.23-2.972a1.981,1.981,0,0,0-1.072-2.584ZM22.147,42.434,19.193,41.21a45.174,45.174,0,0,1,7.691-11.523l.454.454a1.981,1.981,0,0,0,2.8-2.8l-.454-.454A45.188,45.188,0,0,1,41.21,19.193l1.224,2.954A1.981,1.981,0,0,0,46.1,20.632l-1.23-2.972A44.976,44.976,0,0,1,55.2,15.207L48.735,40,35.622,32.94a1.981,1.981,0,0,0-2.683,2.683L40,48.735,15.211,55.2a45.021,45.021,0,0,1,2.453-10.336l2.972,1.23a1.981,1.981,0,1,0,1.516-3.661ZM18.436,62.421H55.657l-7.7,7.7ZM47.714,76.93l-8.143,4.389,4.389-8.143,2.972.777ZM18.436,58.459,43.4,51.944l.054-.014,4.5-1.175,7.7,7.7Zm21.135-18.9,8.143,4.389-.777,2.972-2.972.777ZM58.459,18.436V55.657l-7.7-7.7ZM57.329,7.064l-1.064,4.078A48.96,48.96,0,0,0,41.54,14.672a.094.094,0,0,0-.055.012.381.381,0,0,1-.055.036A49.378,49.378,0,0,0,14.724,41.428c0,.02-.028.032-.036.053s0,.038-.012.057a48.976,48.976,0,0,0-3.535,14.723L7.064,57.325A53.731,53.731,0,0,1,57.329,7.054Zm-46.2,57.551A48.96,48.96,0,0,0,14.672,79.34a.094.094,0,0,0,.012.055.8.8,0,0,0,.05.081,49.346,49.346,0,0,0,26.692,26.68c.02.01.032.028.053.036s.04,0,.059.012a48.965,48.965,0,0,0,14.721,3.535l1.064,4.078A53.731,53.731,0,0,1,7.054,63.551Z" transform="translate(-0.999 -0.999)"/>
      </g>
    </g>
    <text id="North" class="cls-2" transform="translate(1580 414)"><tspan x="0" y="0">North</tspan></text>
    <text id="South" class="cls-2" transform="translate(1578 581)"><tspan x="0" y="0">South</tspan></text>
    <text id="East" class="cls-2" transform="translate(1677 497)"><tspan x="0" y="0">East</tspan></text>
    <text id="West" class="cls-2" transform="translate(1489 497)"><tspan x="0" y="0">West</tspan></text>
  </g>
</svg>
