<svg xmlns="http://www.w3.org/2000/svg" width="208.944" height="207.045" viewBox="0 0 208.944 207.045">
  <defs>
    <style>
      .cls-1 {
        fill: #b3b390;
        stroke: #231f20;
        stroke-miterlimit: 10;
      }
    </style>
  </defs>
  <g id="democraticRepublicOfCongo" transform="translate(0.649 0.5)">
    <path id="democraticRepublicOfCongo-2" data-name="democraticRepublicOfCongo" class="cls-1" d="M347.49,433.995a1.634,1.634,0,0,0-.08-.32,1.576,1.576,0,0,0,.514,0,1.267,1.267,0,0,0,.8-.605,2.628,2.628,0,0,1,.285-.491,3.045,3.045,0,0,0,.285-.491,5.708,5.708,0,0,0,.548-2.968c-.1-.811-.251-1.61-.388-2.42a6.585,6.585,0,0,1,0-1.142,3.243,3.243,0,0,1,.125-.445,5.9,5.9,0,0,1,.411-.673,17.444,17.444,0,0,1,2.363-2.283,8.474,8.474,0,0,1,1.142-.719l.582-.354,1.393.833.9.582a8.374,8.374,0,0,0,1.016.628,2.283,2.283,0,0,0,1.027.205,3.641,3.641,0,0,0,1.244-.274,4.007,4.007,0,0,0,1.918-1.918c.377-.651.719-1.324,1.142-1.941a1.647,1.647,0,0,1,.24-.251,3.629,3.629,0,0,1,.457-.263,9.03,9.03,0,0,1,1.541-.411c.731-.08,1.45-.148,2.18-.194l1.142-.057h1.142a9.546,9.546,0,0,1-.068,1.14v.824a11.475,11.475,0,0,0,.126,2.169,2.477,2.477,0,0,0,1.393,1.769,3.516,3.516,0,0,0,1.222.32,5.215,5.215,0,0,0,1.142-.068,3.776,3.776,0,0,0,1.039-.377,7.749,7.749,0,0,0,.89-.548,10.273,10.273,0,0,0,1.427-1.2,12.111,12.111,0,0,0,2.009-2.683c.263-.479.548-.948.8-1.427a14.473,14.473,0,0,1,.9-1.655,4.121,4.121,0,0,1,.4-.377,4.819,4.819,0,0,1,.753-.411l.959-.32c.32-.1.651-.183.97-.274a6.086,6.086,0,0,0,1.575-.7,1.61,1.61,0,0,0,1.8-.354c.605-.662,1.142-1.324,1.735-2.044a15.238,15.238,0,0,0,1.358-2.123,10.474,10.474,0,0,0,.879-2.283c.1-.331.171-.674.263-1.016s.1-.571.16-.845a11.225,11.225,0,0,0,.171-1.244,5.959,5.959,0,0,0,0-.9,17.986,17.986,0,0,0-.1-1.918c-.114-1.142-.263-2.4-.342-3.6,0-.559-.057-1.142-.08-1.678a17.221,17.221,0,0,1,0-1.884,2.082,2.082,0,0,1,.08-.285l.114-.217.457-.422c.525-.4,1.062-.788,1.575-1.21a8.2,8.2,0,0,0,1.952-2.432,10.467,10.467,0,0,0,.868-2.8,11.773,11.773,0,0,1,.468-1.9l.274-.48a5.581,5.581,0,0,1,.536-.5,5.933,5.933,0,0,1,.822-.479c.457-.171.9-.308,1.359-.434s1.027-.228,1.53-.342a7.99,7.99,0,0,0,1.518-.525,4.167,4.167,0,0,0,1.964-1.9,11.209,11.209,0,0,0,.822-3.5c.08-.525.183-1.027.308-1.53a11.422,11.422,0,0,1,.468-1.37c.571-1.256,1.221-2.466,1.849-3.7a16.642,16.642,0,0,0,1.564-3.961,26.007,26.007,0,0,0,.457-4.5c.057-1.393.057-2.8,0-4.19,0-1.085,0-2.18-.057-3.265V352.77c0-.537.069-1.142.114-1.621a13.848,13.848,0,0,1,.274-1.473,14.216,14.216,0,0,1,.445-1.553c.331-1,.731-1.986,1.142-2.957.537-1.233,1.05-2.466,1.587-3.687a43.984,43.984,0,0,0,1.7-4.315c.434-1.324.8-2.671,1.142-4.018a16.559,16.559,0,0,0,.411-1.986,5.141,5.141,0,0,0,.1-1.027,2.048,2.048,0,0,0,0-.263h0a1.208,1.208,0,0,0,.148-.445,4.968,4.968,0,0,0,.263-.685c.069-.24.126-.491.183-.731.114-.479.205-.959.308-1.427s.228-.959.354-1.427a12.547,12.547,0,0,1,.468-1.3,19.361,19.361,0,0,1,1.142-2.283c.434-.719.948-1.621,1.438-2.42.251-.388.525-.753.776-1.142a13.225,13.225,0,0,0,.708-1.233c.206-.388.365-.8.548-1.2a12.014,12.014,0,0,1,.925-1.735,1.527,1.527,0,0,1,.228-.24l.114-.08.285-.068a10.545,10.545,0,0,1,1.7,0l1.221.251,1.267.32a22.388,22.388,0,0,1,2.706.822,6.846,6.846,0,0,1,1.085.616,8.291,8.291,0,0,1,1.027,1.073c.388.548.742,1.142,1.142,1.655a15.465,15.465,0,0,0,1.062,1.393,7.106,7.106,0,0,0,.868.788,5.3,5.3,0,0,0,1.142.742,17.193,17.193,0,0,0,4.258,1.142c.811.148,1.632.228,2.454.308s1.473.16,2.215.228,1.427.126,2.146.148a16.694,16.694,0,0,0,2.135-.08,28.92,28.92,0,0,1,4.441-.3c.6.114,1.142.263,1.8.354a4.294,4.294,0,0,0,1.324,0,3.422,3.422,0,0,0,.491-.1,4.4,4.4,0,0,0,.731-.285,4.934,4.934,0,0,0,.948-.673,4.158,4.158,0,0,0,.536-.559,16.82,16.82,0,0,0,1.142-1.575c.331-.514.651-1.05,1-1.553a6.2,6.2,0,0,1,.708-.742,3.823,3.823,0,0,1,.514-.308,7.522,7.522,0,0,1,2.432-.32l.377.1a13.337,13.337,0,0,1,1.473.936,9.92,9.92,0,0,0,1.073.605,3.013,3.013,0,0,0,1.142.3,4.487,4.487,0,0,0,1.027-.069,5.248,5.248,0,0,0,1.507-.571l.719-.377,1.473-.89,2.9-1.838,1.4-.925a12.549,12.549,0,0,1,1.575-.982,2.741,2.741,0,0,1,.434-.137h.354c.308.148.594.32.879.479a6.508,6.508,0,0,0,1.8.731,3.71,3.71,0,0,0,2.6-.457,5.124,5.124,0,0,0,1.085-.9c.514-.525,1-1.073,1.518-1.587a18.923,18.923,0,0,1,1.461-1.324,4.567,4.567,0,0,1,.594-.365,2.587,2.587,0,0,1,.422-.126h.742a14.576,14.576,0,0,1,1.975.457c.673.217,1.336.479,1.986.753.936.422,1.838.913,2.786,1.336a11.725,11.725,0,0,0,1.61.571l.742.148c.605.1,1.21.194,1.827.24,1.05.091,2.1.171,3.151.16s2.089,0,3.128.08a7.66,7.66,0,0,1,1.142.24l1.142.365h0a1.359,1.359,0,0,0,1.5.616l.171-.069,1.142.434c.491.217.97.434,1.438.7s.628.365.936.571l.582.411c.537.445,1.062.9,1.587,1.37s1.142,1.039,1.735,1.5c.308.228.605.434.925.639a8.071,8.071,0,0,0,1.142.571,5.48,5.48,0,0,0,2.443.468h1.142c1.484-.057,2.957-.171,4.429-.285a8.907,8.907,0,0,0,1.336-.171,7.8,7.8,0,0,0,2-.742c.651-.308,1.279-.685,1.9-1.05s1.039-.639,1.587-.9l.32-.091h0a19.144,19.144,0,0,1,1.872,1.975c.594.662,1.142,1.336,1.758,2.032.24.331.491.651.719.993s.628.925.936,1.393.594.89.925,1.313a5.857,5.857,0,0,0,1.541,1.416,5.969,5.969,0,0,0,.822.388,5.243,5.243,0,0,0,.753.228,11.471,11.471,0,0,0,1.142.16,10.549,10.549,0,0,1,1.575.377l.388.217h0a19.177,19.177,0,0,1-.126,3.231c-.137.833-.308,1.655-.514,2.489s-.5,1.655-.776,2.477a14.457,14.457,0,0,0-.457,1.518,3.664,3.664,0,0,0,0,1.792,2.946,2.946,0,0,0,.388.81,2.75,2.75,0,0,0,.582.673,4.566,4.566,0,0,0,2.18.891,11.74,11.74,0,0,1,1.427.308l.308.183a2.368,2.368,0,0,1,.24.24.462.462,0,0,1,0,.1,3.275,3.275,0,0,1,.125.479v1.5a9.567,9.567,0,0,1-.445,1.792,7.986,7.986,0,0,1-.742,1.142,11.018,11.018,0,0,0-1.416,1.929,7.747,7.747,0,0,0-.479,1.336q-.137.445-.308.89a7,7,0,0,1-.594,1.142,7.555,7.555,0,0,1-1.142,1.142,6.478,6.478,0,0,1-1.244.731l-.616.274-1.142.457a12.363,12.363,0,0,0-1.336.7,10.055,10.055,0,0,0-1.347.97,9.636,9.636,0,0,0-3.105,4.212c-.274.742-.525,1.484-.765,2.283a9.769,9.769,0,0,0-.491,2.922c-.091,1.484-.263,2.968-.4,4.452s-.24,3.014-.331,4.566c-.126,2.112-.1,4.235-.069,6.359a4.565,4.565,0,0,0-1.085.639,6.332,6.332,0,0,0-.9.845,7.428,7.428,0,0,0-1.233,1.986c-.24.548-.468,1.085-.685,1.632s-.354.97-.514,1.45-.331.993-.468,1.5-.228.948-.32,1.427a9.136,9.136,0,0,1-.354,1.438l-.148.263-.171.16a4.8,4.8,0,0,1-.628.342l-.662.285a2.6,2.6,0,0,0-.548.445,2.718,2.718,0,0,0-.514.856,4.126,4.126,0,0,0-.206.9,5.424,5.424,0,0,0,0,.605,5.147,5.147,0,0,0,.091.719.971.971,0,0,0,.24.422,1.144,1.144,0,0,0,.343.217c.1.24.228.479.354.708s.411.742.617,1.142c.422.8.8,1.6,1.142,2.42.126.32.263.639.388.948l-.183.148a2.122,2.122,0,0,0-.365.537,5.71,5.71,0,0,0-.228.559,6.856,6.856,0,0,0-.308,1.507c-.068.525-.114,1.05-.16,1.587-.068,1.142-.16,2.283-.228,3.425s-.126,2.363-.217,3.539-.194,2.169-.308,3.242a18,18,0,0,0-.205,3.322,39.954,39.954,0,0,0,1.027,5.457c.205.89.377,1.781.536,2.671s.274,1.5.388,2.283v.5h0l-.114.171-.525.674a4.178,4.178,0,0,0-.719,2.489,7.545,7.545,0,0,0,.137,1.233,7.139,7.139,0,0,0,.251.97,9.3,9.3,0,0,0,.434,1.142,7.143,7.143,0,0,0,.457.879,29.925,29.925,0,0,0,2.169,3.037c.719.9,1.473,1.758,2.2,2.648s1.53,1.861,2.283,2.8l.5.616a15.208,15.208,0,0,1,1.221,2.283c.4,1.05.742,2.135,1.142,3.2a18.41,18.41,0,0,0,.822,1.815,11.727,11.727,0,0,0,1.142,1.6l-.137-.183.479.616.137.183c-.742.217-1.484.422-2.283.605s-1.861.377-2.8.514l-3.779.5.422-.057c-.7.091-1.4.171-2.112.24s-1.712.16-2.569.308a8,8,0,0,0-1.267.354,4.932,4.932,0,0,0-1.564.89,4.407,4.407,0,0,0-1.016,1.279c-.171.32-.308.674-.457,1a7.915,7.915,0,0,1-.708,1.256c-.32.388-.662.753-1.016,1.142l-.582.594a6.108,6.108,0,0,0-1.3,2,5.708,5.708,0,0,0-.685,1.941,7.4,7.4,0,0,0,.057,1,7.991,7.991,0,0,0,.206,1.142c.16.582.331,1.142.5,1.724.331,1.05.639,2.112.9,3.2s.4,2.021.548,3.048c.068.605.137,1.222.16,1.838a17.011,17.011,0,0,1,0,2.021,9.685,9.685,0,0,1-.491,2.043c-.274.616-.594,1.2-.9,1.8s-.571,1.142-.845,1.735a5.707,5.707,0,0,0-.594,2.169,3.149,3.149,0,0,0,.308,1.358,6.18,6.18,0,0,0,.594,1.142,21.281,21.281,0,0,0,1.7,1.975,12.128,12.128,0,0,1,1.29,2.283,19.537,19.537,0,0,0,.925,2.123,17.742,17.742,0,0,0,1.142,1.781,6.034,6.034,0,0,0,1,1.085,5.707,5.707,0,0,0,1.644.891,7.8,7.8,0,0,0,2.454.411,10.119,10.119,0,0,0,1.142,0l1.21-.091.925-.08v.685c0,.228-.057.8-.091,1.142,0,.719-.08,1.45-.1,2.169a40.5,40.5,0,0,1-.171,4.566,2.82,2.82,0,0,1-.126.536l-.068.114c-.148.091-.308.171-.468.251a6.311,6.311,0,0,1-1.142.32,10.747,10.747,0,0,1-1.815-.08,6.7,6.7,0,0,1-1.244-.342,8.942,8.942,0,0,1-1.438-.9,20.086,20.086,0,0,1-2.763-2.808c-.274-.388-.548-.788-.811-1.141s-.536-.913-.8-1.37l-.4-.708a12.57,12.57,0,0,0-.925-1.37,5.138,5.138,0,0,0-1.53-1.267c-.274-.148-.548-.274-.833-.411a22.3,22.3,0,0,0-3.037-1.3c-1.05-.342-2.18-.525-3.219-.925a5.384,5.384,0,0,1-.776-.468,6.132,6.132,0,0,1-.788-.753,12.112,12.112,0,0,1-1.016-1.9c-.16-.32-.3-.639-.468-.947a6.553,6.553,0,0,0-1.347-1.758,4,4,0,0,0-1.336-.765,3.3,3.3,0,0,0-.582-.126,7.267,7.267,0,0,0-.993-.068,3.059,3.059,0,0,0-1.541.445,3.481,3.481,0,0,0-.959.959,9.139,9.139,0,0,0-.639,1.142,7.854,7.854,0,0,1-.651,1.142l-.388.388-.194.114H505a13.329,13.329,0,0,1-1.963-.685c-.674-.274-1.347-.548-2.044-.765s-1.29-.411-1.941-.571a16.411,16.411,0,0,0-2.352-.32c-.7-.057-1.381-.126-2.066-.206a7.052,7.052,0,0,1-1.221-.285,3.163,3.163,0,0,1-.537-.32,2.383,2.383,0,0,1-.251-.228l-.171-.285a8.748,8.748,0,0,1-.3-1.142c-.057-.308-.114-.616-.194-.913a3.721,3.721,0,0,0-1.142-1.861,3.254,3.254,0,0,0-2.066-.765,4.007,4.007,0,0,0-1.713.32,10.556,10.556,0,0,0-1.027.479l-1.279.639a15.515,15.515,0,0,1-2.671.765,2.283,2.283,0,0,0,.274-1.393,2.352,2.352,0,0,0-1.142-1.427,9.265,9.265,0,0,0-.845-.514c-.468-.263-.948-.514-1.427-.742s-1.142-.525-1.747-.753v-.114a1.221,1.221,0,0,0-.913-1.142,1.393,1.393,0,0,0-.845-.308,15.091,15.091,0,0,0-2.158.057c-.651,0-1.313.08-1.964.137-1.484.148-2.968.354-4.441.616s-2.717.525-4.064.868c-1.564.4-3.094.947-4.681,1.233a4.883,4.883,0,0,1-.708,0h-.16c.114-.537.331-1.05.491-1.575a11.917,11.917,0,0,0,.365-1.53,10.692,10.692,0,0,0,.16-1.37,8.093,8.093,0,0,0-.148-1.575c-.091-.536-.217-1.073-.354-1.6-.251-.959-.537-1.918-.811-2.865a19.863,19.863,0,0,1-.525-2.706,13.852,13.852,0,0,0-.651-3.185,9.982,9.982,0,0,0-.616-1.381,7.764,7.764,0,0,0-.468-.719,14.124,14.124,0,0,1-1.221-1.861,4.875,4.875,0,0,1-.206-.776,6.108,6.108,0,0,1,0-.913,11.686,11.686,0,0,1,.434-1.53,11.649,11.649,0,0,0,.639-2.123,21.391,21.391,0,0,0,.148-2.957c0-.788,0-1.564,0-2.34s0-1.6.069-2.4,0-1.53,0-2.283a20.629,20.629,0,0,0-.274-3.254,5.091,5.091,0,0,0-1.438-2.717,3.916,3.916,0,0,0-2.283-.925,15.978,15.978,0,0,0-2.66-.183c-1.439,0-2.877,0-4.315.091a34.757,34.757,0,0,1-4.224,0,4.42,4.42,0,0,1-.788-.194l-.171-.091h0l-.069-.126a5.116,5.116,0,0,0-.708-1.541,2.66,2.66,0,0,0-2.043-.833,18.611,18.611,0,0,0-2.112,0,22.234,22.234,0,0,0-2.283.08,21.937,21.937,0,0,0-2.42.308,6.142,6.142,0,0,0-2.34.845,3.619,3.619,0,0,0-1.393,1.724,23.738,23.738,0,0,0-.8,2.283c-.217.731-.422,1.473-.571,2.226s-.194,1.427-.285,2.135a8.091,8.091,0,0,1-.32,1.381v.068l-.4.1a15.009,15.009,0,0,1-3.037-.148c-1.039-.148-2.078-.308-3.117-.434a22.418,22.418,0,0,0-3.276-.126c-.993,0-1.986.114-2.968.206a23.521,23.521,0,0,1-4.1.24l-.411-.1a2.569,2.569,0,0,1-.3-.183,9.777,9.777,0,0,1-.993-1.073,16.273,16.273,0,0,1-.856-1.5c-.331-.811-.605-1.632-.913-2.454s-.811-1.975-1.279-2.945-.9-1.575-1.336-2.363-.9-1.758-1.313-2.66c-.274-.674-.548-1.347-.788-2.021s-.537-1.575-.833-2.352-.708-1.815-1.142-2.706a10.209,10.209,0,0,0-1.381-2.283,3.425,3.425,0,0,0-1.233-.9,5.709,5.709,0,0,0-1.438-.445,32.4,32.4,0,0,0-5.263-.274c-1.644,0-3.276,0-4.92.126-.822.08-1.644.194-2.466.3s-1.678.16-2.512.217c-1.724.114-3.425.171-5.171.205a40.31,40.31,0,0,1-5.012-.171c-1.667-.171-3.162-.228-4.726-.411a50.718,50.718,0,0,0-5.08-.525h-.377a18.929,18.929,0,0,0-2.4.16,4.018,4.018,0,0,0-2.557,1.244c-.32.377-.559.788-.845,1.142l-.194.194a.1.1,0,0,1-.057,0h-.137a10.269,10.269,0,0,1-1.758-.137Z" transform="translate(-347.41 -309.4)"/>
  </g>
</svg>
