<svg xmlns="http://www.w3.org/2000/svg" width="14.905" height="18.411" viewBox="0 0 14.905 18.411">
  <defs>
    <style>
      .cls-1 {
        fill: #073304;
        stroke: #231f20;
        stroke-miterlimit: 10;
      }
    </style>
  </defs>
  <path id="djibouti" class="cls-1" d="M639.187,234.845a3.71,3.71,0,0,0,.651-1.735l.753.651a9.528,9.528,0,0,1,1.416,1.381,12.858,12.858,0,0,1,1.4,2.283,2.365,2.365,0,0,1,.114.377h0v.069a1.934,1.934,0,0,1-.217.217,13.887,13.887,0,0,1-1.5.879c-.616.343-1.244.639-1.861.948a14.844,14.844,0,0,0-1.712.982,12.128,12.128,0,0,0-1.61,1.347,6.528,6.528,0,0,0-1.313,1.69,3.037,3.037,0,0,0-.3,2.283,2.112,2.112,0,0,0,1.918,1.473,6.942,6.942,0,0,0,2-.24,6.527,6.527,0,0,0,1.142-.4,7.826,7.826,0,0,0,.959-.525c-.32.742-.628,1.484-.936,2.226l-.206.445-.251-.068a4.693,4.693,0,0,1-.445-.274,4.361,4.361,0,0,0-1.267-.811,2.877,2.877,0,0,0-1.244-.114,3.9,3.9,0,0,0-.708.148,3.306,3.306,0,0,0-.651.285c-.308.16-.605.354-.9.525l-.891.445a11.815,11.815,0,0,1-2.283.674,4.324,4.324,0,0,1-.662,0,1.615,1.615,0,0,1-.251-.068l-.171-.091v-1.29A13.315,13.315,0,0,0,630,246.9c-.1-.742-.263-1.473-.377-2.2v-.731a.993.993,0,0,1,.114-.434,10.976,10.976,0,0,1,1.244-1.884,20.617,20.617,0,0,0,1.359-2.055,17.221,17.221,0,0,0,1.141-2,14.82,14.82,0,0,0,.536-1.4,5.27,5.27,0,0,0,.183-.731,10.274,10.274,0,0,0,2.1.5,4.225,4.225,0,0,0,1,0,3.128,3.128,0,0,0,1.073-.3,2.8,2.8,0,0,0,.811-.822Z" transform="translate(-629.12 -232.107)"/>
</svg>
