<svg xmlns="http://www.w3.org/2000/svg" width="128.873" height="105.36" viewBox="0 0 128.873 105.36">
  <defs>
    <style>
      .cls-1 {
        fill: #ffeb93;
        stroke: #231f20;
        stroke-miterlimit: 10;
      }
    </style>
  </defs>
  <g id="egypt" transform="translate(0.5 0.848)">
    <path id="Path_4715" data-name="Path 4715" class="cls-1" d="M562.674,135.411c.182-.205.365-.434.525-.651a19.613,19.613,0,0,0,3.105,2.888,15.919,15.919,0,0,0,1.8,1.142,9.364,9.364,0,0,1,1.644,1.142,22.833,22.833,0,0,1,3.585,3.756l.354.5h-.9l-1.906.091c-1.256.069-2.5.148-3.745.24s-2.386.126-3.585.171-2.5.126-3.756.148c-2.409,0-4.806,0-7.215.068H552a4.941,4.941,0,0,1,.16-.913c.08-.525.171-1.062.217-1.6a10.114,10.114,0,0,1,.08-1.142,5.7,5.7,0,0,1,.833.171,3.184,3.184,0,0,0,1.313,0l.388-.171a1.832,1.832,0,0,0,.343-.24,3.084,3.084,0,0,0,.617-.765,7.092,7.092,0,0,0,.7-2.843,4.945,4.945,0,0,1,.16-.685v-.057h.148a13.1,13.1,0,0,1,1.5,0,11.57,11.57,0,0,0,1.541,0,4.258,4.258,0,0,0,1.781-.537A3.794,3.794,0,0,0,562.674,135.411Z" transform="translate(-446.282 -44.516)"/>
    <path id="egypt-2" data-name="egypt" class="cls-1" d="M461.444,56.521l.331-.342a2.923,2.923,0,0,0,.228-.3,1.242,1.242,0,0,0,.091-.171l.342.32a12.215,12.215,0,0,0,1.142.833,6.382,6.382,0,0,0,1.667.731,22.193,22.193,0,0,0,4.966.788c1.564.126,3.139,0,4.7,0a33.789,33.789,0,0,1,4.3.3c1.61.24,3.219.525,4.783.913s3.139.9,4.681,1.427,3.094.936,4.669,1.313,3.265.719,4.92.948c1.324.194,2.66.365,4,.457h.845a5.3,5.3,0,0,0,1.69-.274,11.723,11.723,0,0,0,2-.833c.5-.274.97-.628,1.45-.948a16.427,16.427,0,0,0,1.632-1.313c.434-.388.89-.776,1.324-1.142s.719-.685,1.142-1a7.993,7.993,0,0,1,1.324-.753,14.046,14.046,0,0,1,1.655-.548c.7-.171,1.393-.285,2.112-.388,1.085-.148,2.18-.274,3.276-.365a16.6,16.6,0,0,1,3.105,0,15.044,15.044,0,0,1,2.637.731,11.7,11.7,0,0,1,1.769.993c.342.24.674.491,1.016.719a6.073,6.073,0,0,0,1.541.708,1.347,1.347,0,0,0,1.324-.331,25.183,25.183,0,0,0,3.082.331h3.779a29.681,29.681,0,0,0,3.767,0,9.282,9.282,0,0,0,2.215-.434c.719-.24,1.416-.525,2.112-.822l-.365.16c.571-.24,1.142-.468,1.724-.685.263-.1.537-.194.8-.308l.548-.205a6.148,6.148,0,0,1,.594.628,18.923,18.923,0,0,1,1.5,2.706c.5,1.05.959,2.112,1.461,3.151s1.027,2.055,1.575,3.06,1.028,1.838,1.461,2.8c.217.582.4,1.142.582,1.781s.285,1.21.4,1.827a19.461,19.461,0,0,1,.183,2.1,14.454,14.454,0,0,1-.08,2.283c-.126.708-.274,1.4-.434,2.1s-.32,1.735-.422,2.6a17.845,17.845,0,0,0-.126,2.215,19.156,19.156,0,0,1-.08,2.146,6.7,6.7,0,0,1-.3,1.142,9.069,9.069,0,0,1-.868,1.473c-.16.183-.308.354-.479.525-.274-.16-.525-.331-.788-.5a20.12,20.12,0,0,1-1.655-1.61c-.514-.548-1.039-1.039-1.541-1.564-.97-1.016-1.975-2.021-2.9-3.094-.331-.468-.662-.936-.959-1.427s-.662-1.142-.993-1.678c-.662-1.142-1.3-2.283-1.964-3.333a67.612,67.612,0,0,1-3.95-6.747c-.468-1.142-.856-2.375-1.4-3.5a10.273,10.273,0,0,0-2.34-3.162,2.283,2.283,0,0,0-2.283-.662,2.352,2.352,0,0,0-1.393,1.906,3.074,3.074,0,0,0,0,.559,3.791,3.791,0,0,0,.08.616,5.5,5.5,0,0,0,.205.742c.1.3.206.594.32.89a22.039,22.039,0,0,1,1.142,3.425,5.7,5.7,0,0,1,0,.879c-.1.605-.274,1.142-.411,1.8a6.668,6.668,0,0,0,.274,3.836,31.878,31.878,0,0,0,1.7,4.224c.354.651.719,1.3,1.142,1.941s.811,1.267,1.233,1.884.993,1.37,1.541,2.032.913,1.027,1.381,1.553c1.427,1.61,2.831,3.254,4.178,4.943.868,1.142,1.7,2.283,2.523,3.425a15.58,15.58,0,0,1,1.142,1.906l1.142,1.906c.776,1.3,1.518,2.626,2.283,3.95s1.438,2.569,2.135,3.859,1.279,2.283,1.872,3.5,1.221,2.477,1.872,3.687a48.077,48.077,0,0,0,4.566,6.85c1.473,1.929,2.888,3.893,4.349,5.822.719.925,1.416,1.861,2.089,2.82.308.457.616.913.9,1.381a11.324,11.324,0,0,1,.822,1.564,13.244,13.244,0,0,1,.594,1.712c.171.662.3,1.336.422,2.009a19.878,19.878,0,0,0,.537,2.043,11.155,11.155,0,0,0,.856,2.089,20.493,20.493,0,0,0,1.142,1.838l.251.331c-.263.331-.5.685-.753,1.027a3.7,3.7,0,0,1-.411.434l-.274.148a2.762,2.762,0,0,1-.525.148,9.132,9.132,0,0,1-1.575,0h-1.142a4.167,4.167,0,0,0-.845.1,2.032,2.032,0,0,0-.879.491,1.573,1.573,0,0,0-.411.537,2.762,2.762,0,0,0-.274.7,11.191,11.191,0,0,0-.24,1.61,4.891,4.891,0,0,1-.228.982,2.189,2.189,0,0,1-.205.354h-.16c-.354-.068-.685-.16-1.028-.24a2.409,2.409,0,0,0-1.393,0,1.952,1.952,0,0,0-1.142,1.21,9.543,9.543,0,0,0-.263,1.142,4.877,4.877,0,0,1-.194.97c-.171.685-.343,1.37-.48,2.055l-.1.491h-.068a12.571,12.571,0,0,0-1.724.16c-.582.08-1.142.171-1.667.251a12.743,12.743,0,0,1-1.621.08l-1.861.068-1.45.08a1.535,1.535,0,0,0-.126-.16.8.8,0,0,0-.982-.126.834.834,0,0,0-.342.4l-.685.068c-1.142.114-2.283.114-3.493.126s-2.489,0-3.733.08-2.774.114-4.155.217c-.662,0-1.324.08-1.986.137a16.87,16.87,0,0,1-2.146.091,3.959,3.959,0,0,1-.628-.183,4.376,4.376,0,0,1-.5-.285,6.847,6.847,0,0,1-.742-.788l-.468-.559a1.623,1.623,0,0,0-.468-.32,1.279,1.279,0,0,0-.685-.114,1.587,1.587,0,0,0-1.142.685,3.606,3.606,0,0,0-.422.605,11.425,11.425,0,0,0-.5,1.142,4.556,4.556,0,0,1-.445.765,2.9,2.9,0,0,1-.331.32,3.048,3.048,0,0,1-.491.285,4.712,4.712,0,0,1-.856.217,25.785,25.785,0,0,1-3.516.091l-3.824-.114q-3.8-.1-7.58-.285c-2.569-.114-5.137-.114-7.706-.057-1.244,0-2.489.1-3.744.126s-2.591,0-3.893,0-2.706-.1-4.053-.171l-3.779-.148c-1.3-.057-2.591-.1-3.881-.126s-2.649,0-3.973,0c-2.512,0-5.023,0-7.535-.057-1.256,0-2.5-.057-3.744-.114q-.913,0-1.815-.068H468.1l-.4.057a1.723,1.723,0,0,0-.434.114q-.137-1.712-.24-3.425l-.24-4.315c-.068-1.37-.126-2.728-.205-4.1s-.206-2.6-.32-3.9-.228-2.831-.331-4.247c-.194-2.694-.354-5.4-.491-8.094-.068-1.324-.126-2.637-.217-3.961s-.205-2.888-.3-4.338-.1-2.58-.16-3.87-.126-2.854-.194-4.281-.114-2.706-.16-4.064-.126-2.774-.194-4.155-.148-2.637-.217-3.95-.194-2.637-.3-3.961c-.206-2.694-.377-5.388-.537-8.083s-.411-5.308-.674-7.991a16.819,16.819,0,0,0-.468-3.037c-.263-.936-.582-1.849-.936-2.763a24.829,24.829,0,0,1-1.678-5.468,4.414,4.414,0,0,1,0-.776,3.781,3.781,0,0,1,.194-.639c.32-.639.765-1.21,1.062-1.872a7.7,7.7,0,0,0,.628-2.123,5.868,5.868,0,0,0,0-1.416,3.825,3.825,0,0,0-.091-.616c-.091-.594-.24-1.142-.365-1.747s-.217-1.142-.308-1.678a9.326,9.326,0,0,1,0-1.872,4.806,4.806,0,0,1,.137-.548l.126-.217A3.086,3.086,0,0,1,461.444,56.521Z" transform="translate(-459.395 -55.71)"/>
  </g>
</svg>
