<svg xmlns="http://www.w3.org/2000/svg" width="35.241" height="32.196" viewBox="0 0 35.241 32.196">
  <defs>
    <style>
      .cls-1 {
        fill: #b3b390;
      }

      .cls-1, .cls-2 {
        stroke: #231f20;
        stroke-miterlimit: 10;
      }

      .cls-2 {
        fill: #231f20;
      }
    </style>
  </defs>
  <g id="equatorialGuinea" transform="translate(-73.79 0.5)">
    <path id="equatorialGuinea-2" data-name="equatorialGuinea" class="cls-1" d="M320.11,350.1c.5-1.815.993-3.642,1.5-5.457.4-1.438.685-2.9,1-4.361h.285l.936.114c.7.08,1.393.126,2.089.171a12.361,12.361,0,0,0,2.158-.057c.674-.068,1.336-.183,2.009-.3a6.129,6.129,0,0,1,1.21,0c1.085.171,2.146.468,3.231.685a8.813,8.813,0,0,0,3.425.205,1.5,1.5,0,0,0,.091.628l.308,1.6c.194.993.434,1.964.582,2.957,0,.3.068.582.091.868a7.22,7.22,0,0,1,0,.993v.365a9.5,9.5,0,0,1-.4,1.587,4.13,4.13,0,0,1-.274.491h0l-.205.114a7.862,7.862,0,0,1-1.347.285l-1.381.205c-.925.16-1.838.354-2.751.5a38.387,38.387,0,0,1-4.726.148c-.742,0-1.507,0-2.283-.068a6.218,6.218,0,0,1-1.222-.08l-1.142-.137-.879-.137a3.255,3.255,0,0,1-.742-.126l-1.8-.434Z" transform="translate(-230.513 -320.668)"/>
    <g id="equatorialGuineaIsland" transform="translate(-279.28 -368.758)">
      <path id="Path_4841" data-name="Path 4841" class="cls-2" d="M314.239,329.734a6.181,6.181,0,0,0,.4-.947,4.979,4.979,0,0,0,.3-1.359,3.9,3.9,0,0,0-.342-1.416c-.126-.365-.24-.742-.377-1.142a3.06,3.06,0,0,0-.274-.616,2.284,2.284,0,0,0-.674-.719,2.867,2.867,0,0,0-.617-.32,2.429,2.429,0,0,0-.856-.126h0a1.142,1.142,0,0,0-.776.331.719.719,0,0,0-.377-.228.788.788,0,0,0-.616.08.9.9,0,0,0-.354.468l-.1.24c-.126.274-.24.548-.365.833s-.274.537-.411.8a13.807,13.807,0,0,1-.868,1.416,15.609,15.609,0,0,0-.936,1.5,2.385,2.385,0,0,0-.285.8,2.683,2.683,0,0,0,.069,1.142,5.375,5.375,0,0,0,.388,1,3.22,3.22,0,0,0,.674.89,2.523,2.523,0,0,0,.8.536,3.569,3.569,0,0,0,.582.217,3.962,3.962,0,0,0,.628.091,2.683,2.683,0,0,0,1.142-.183,6.264,6.264,0,0,0,.685-.32,3.717,3.717,0,0,0,.7-.5,7.7,7.7,0,0,0,1.484-1.781A6.364,6.364,0,0,0,314.239,329.734Z" transform="translate(46.898 45.669)"/>
      <path id="Path_4842" data-name="Path 4842" class="cls-1" d="M313.964,327.972v.108a10.776,10.776,0,0,1-1.277,2.047,12.946,12.946,0,0,1-1.539,1.539,4.394,4.394,0,0,1-.646.369l-.415.138h-.246l-.339-.077-.369-.215-.262-.277a4.258,4.258,0,0,1-.339-.569,1.142,1.142,0,0,1,0-.215v-.092a5.315,5.315,0,0,1,.277-.877c.446-.954.954-1.862,1.446-2.785s.754-1.539,1.092-2.324a1.369,1.369,0,0,0,.877.631,4.18,4.18,0,0,1,.754.2h0a7.055,7.055,0,0,1,.4.754l.262.646c.123.323.246.631.339.954Z" transform="translate(46.458 44.943)"/>
    </g>
  </g>
</svg>
