<svg xmlns="http://www.w3.org/2000/svg" width="69.703" height="57.305" viewBox="0 0 69.703 57.305">
  <defs>
    <style>
      .cls-1 {
        fill: #073304;
        stroke: #231f20;
      }
    </style>
  </defs>
  <path id="eritrea" class="cls-1" d="M594.41,184.546a7.692,7.692,0,0,1-3.216,4.11c-1.483.819-4.323.51-5.327,1.065-.785.434-.865,3.61-2.207,4.947-1.668,1.656-4.7,1.294-4.7,1.294v8.219l-.932,6.317-1.883,5.86.894,5.384,7.325-2.112,1.5.761,1.237,1.979,1.5-5.1,1.218-1.6,2.15-1.294a3.264,3.264,0,0,1,2.036.59,16.352,16.352,0,0,1,2.607,2.3,17.057,17.057,0,0,0,4.852.685,41.118,41.118,0,0,0,5.762-.423c1.085-.107,1.98-.4,3.175-.56a6.572,6.572,0,0,1,1.889-.082c.272.08,6.169,2.38,7.192,2.74s2.485.676,3.1.881a15.292,15.292,0,0,1,3.253,1.373c.585.489,4.684,5.261,4.684,5.261s2.452,2.4,3.671,3.715,3.864,4.428,3.864,4.428a20.31,20.31,0,0,0,2.511,3.659,3.954,3.954,0,0,0,1.838,1.113c.6.219,1.341.656,1.784.214s.4-.814.571-1.327c0,0-.746-.725-1.641-1.723s-1.941-2.269-1.941-2.269l-4.215-4.421-5.442-6.349s-1.188-1.317-2.123-2.137a7.913,7.913,0,0,0-1.616-1.144s-2.875-.8-5.2-1.567a39.627,39.627,0,0,1-4.092-1.513,12.261,12.261,0,0,1-3.311-1.77c-1.484-1.17-2.545-2.429-3.254-2.569a1.171,1.171,0,0,1-.742.885c-.7.328-.645.558-1.77.257,0,0-1.54-1.2-3.7-5.266s-4.949-10.986-4.949-10.986a49.573,49.573,0,0,0-2.664-8.415A18.6,18.6,0,0,0,594.41,184.546Z" transform="translate(-575.631 -183.631)"/>
</svg>
