<svg xmlns="http://www.w3.org/2000/svg" width="12.43" height="15.503" viewBox="0 0 12.43 15.503">
  <defs>
    <style>
      .cls-1 {
        fill: #093e63;
        stroke: #231f20;
        stroke-miterlimit: 10;
      }
    </style>
  </defs>
  <path id="eswatini" class="cls-1" d="M527.652,623.195a8.761,8.761,0,0,1,0,.947,4.2,4.2,0,0,1-.183.616,1.285,1.285,0,0,1-.137.24c-.251.171-.525.308-.788.457s-.559.32-.856.457a4.4,4.4,0,0,1-.662.194,6.727,6.727,0,0,1-1.142,0,5.366,5.366,0,0,1-.959-.251l-.24-.091a4.786,4.786,0,0,1-.879-.514,12.752,12.752,0,0,1-1.541-1.6,16.2,16.2,0,0,1-1.952-3.014,4.057,4.057,0,0,1-.183-.605,1.391,1.391,0,0,1,0-.217,15.267,15.267,0,0,1,.9-2.6c.32-.833.594-1.69.891-2.534a7.359,7.359,0,0,1,.674-1.142,11.3,11.3,0,0,1,1.575-1.473,3.808,3.808,0,0,1,.457-.285,3.877,3.877,0,0,1,.457-.126,4.818,4.818,0,0,1,.993,0,7.4,7.4,0,0,1,1.141.3l1.279.605c.251.126.491.24.742.342a4.856,4.856,0,0,0,.536.171,5.844,5.844,0,0,0,.628.068,1.686,1.686,0,0,0,.479,0,8.638,8.638,0,0,0,.148,1.141c.1.662.206,1.313.3,1.964a15.679,15.679,0,0,1,.217,3.185v.126c0,.1-.114.206-.183.308a6.106,6.106,0,0,1-.48.457,3.3,3.3,0,0,0-1.039,1.507,2.873,2.873,0,0,0-.091.6v.434C527.754,623,527.652,623.081,527.652,623.195Z" transform="translate(-517.626 -611.128)"/>
</svg>
