<svg xmlns="http://www.w3.org/2000/svg" width="161.554" height="127.239" viewBox="0 0 161.554 127.239">
  <defs>
    <style>
      .cls-1 {
        fill: #073304;
        stroke: #231f20;
        stroke-miterlimit: 10;
      }
    </style>
  </defs>
  <path id="ethiopia" class="cls-1" d="M581.187,219.259a.971.971,0,0,0,1.193.679l2.9-.89,1.142-.377a14.469,14.469,0,0,1,1.552-.5h.343l.1.057.148.171.479.685c.114.16.251.32.377.468a2.729,2.729,0,0,0,.263.251,1.781,1.781,0,0,0,.708.445,1.45,1.45,0,0,0,1.142-.08,2.922,2.922,0,0,0,.822-.628,4.761,4.761,0,0,0,.788-1.142,10.461,10.461,0,0,0,.811-2.078c.171-.628.32-1.256.537-1.861l-.1.228.126-.308c.114-.228.24-.457.377-.674a2.938,2.938,0,0,1,.331-.32,2.535,2.535,0,0,1,.479-.285h.1l.171.057a2.68,2.68,0,0,1,.525.32c1.142.97,2.283,2.215,3.813,2.614a16.22,16.22,0,0,0,3.79.434l3.767.114a19.165,19.165,0,0,0,3.882-.068c.788-.137,1.564-.365,2.352-.5a7.374,7.374,0,0,1,.868,0,9.294,9.294,0,0,1,1.564.514c.639.274,1.29.571,1.918.879a27.948,27.948,0,0,0,2.591,1.2,17.592,17.592,0,0,0,2.42.651,12.388,12.388,0,0,1,2.386.685l.251.1a8.411,8.411,0,0,1,1,.525,6.334,6.334,0,0,1,.719.514c.479.411.948.833,1.4,1.279s.879.913,1.313,1.381a29.681,29.681,0,0,0,2.683,2.546c.479.411.97.8,1.45,1.2s.89.788,1.324,1.142.833.845,1.267,1.267.833.811,1.244,1.233a22.055,22.055,0,0,1,1.61,1.861c.879,1.142,1.6,2.466,2.557,3.562a4.1,4.1,0,0,0,.457.434v.411a6.605,6.605,0,0,1-.411,1.4,24.526,24.526,0,0,1-1.53,2.454c-.274.411-.536.811-.822,1.21s-.616.822-.9,1.256a7.8,7.8,0,0,0-.674,1.21,5.23,5.23,0,0,0-.308.8,4.688,4.688,0,0,0-.137,1.142,7.739,7.739,0,0,0,.171,1.45c.08.479.205.959.3,1.438s.16.868.228,1.3,0,.582.057.879a3.4,3.4,0,0,1,0,.479v.411a2.338,2.338,0,0,0,.194.8,2.409,2.409,0,0,0,1.016,1.039,3.425,3.425,0,0,0,1.53.411,5.616,5.616,0,0,0,1.381-.126,3.9,3.9,0,0,0,.616-.114,11.883,11.883,0,0,0,2.283-.765,6,6,0,0,0,.811-.411c.308-.194.616-.422.948-.594l.251-.057h.274c.331.171.628.422.948.605a4.487,4.487,0,0,0,.8.354l-.1.228c-.183.445-.354.9-.491,1.359a5.526,5.526,0,0,0-.069,3.276,8.4,8.4,0,0,0,1.7,2.706c.32.4.673.776,1.016,1.142.7.776,1.393,1.553,2.055,2.363a11.394,11.394,0,0,1,.856,1.244c.274.468.548.948.788,1.438a25,25,0,0,0,1.735,3.048,18.621,18.621,0,0,0,2.283,2.637c.422.422.845.822,1.3,1.2.263.228.548.434.833.639a7.919,7.919,0,0,0,1.69.948,10.352,10.352,0,0,0,2.009.5c.457.08.913.114,1.37.148.868.057,1.724.068,2.591.068h2.283a19.961,19.961,0,0,1,2.283.205,10.511,10.511,0,0,1,1.655.377c.32.1.639.194.948.32l.879.365c1.028.468,2.044.982,3.06,1.507s1.827,1.027,2.751,1.53a33.29,33.29,0,0,0,3.185,1.61c1.039.434,2.112.788,3.185,1.142a26.955,26.955,0,0,0,3.231.856c1.1.217,2.283.457,3.5.605.548.068,1.142.148,1.655.183s1.142,0,1.678,0a15.755,15.755,0,0,0,3.265-.559,17.292,17.292,0,0,1,1.735-.354c.594-.091,1.142-.126,1.632-.16a13.7,13.7,0,0,1,1.678-.057,11.961,11.961,0,0,1-1.142,1.142,14.286,14.286,0,0,0-1.062,1.142c-.8.811-1.678,1.553-2.523,2.283a30.457,30.457,0,0,0-2.386,2.283c-.753.845-1.5,1.712-2.283,2.58s-1.37,1.655-2.123,2.42-1.621,1.644-2.4,2.5-1.507,1.667-2.283,2.477l-1.142,1.2a17.014,17.014,0,0,0-1.142,1.4l-.16.205c-1.347,1.724-2.82,3.345-4.19,5.046l-1.062,1.313c-.4.514-.765,1.039-1.142,1.575a31.894,31.894,0,0,0-1.69,2.728c-.285.5-.571,1.016-.845,1.541a11.5,11.5,0,0,1-.776,1.3,8.733,8.733,0,0,1-.879.845,7.7,7.7,0,0,1-1.4.856,4.77,4.77,0,0,1-.879.24,9.036,9.036,0,0,1-1.473,0,15.187,15.187,0,0,1-1.587-.148c-1.142-.1-2.226-.171-3.333-.3s-2.283-.251-3.356-.308a6.975,6.975,0,0,0-1.758.1,6.851,6.851,0,0,0-2.123.833,24.934,24.934,0,0,0-4.749,3.653c-.651.628-1.267,1.313-1.9,1.964-.354.354-.685.719-1.028,1.085a11.9,11.9,0,0,1-1,1,1.463,1.463,0,0,1-.285.171,14.134,14.134,0,0,1-1.941.468l-1.587.32a13.612,13.612,0,0,0-1.632.4,9.349,9.349,0,0,0-4.235,2.945l-.354.434q-1.712.36-3.425.651-.913.126-1.815.171h-2.26a.561.561,0,0,1-.137-.148,16.533,16.533,0,0,1-.948-1.7,5.9,5.9,0,0,0-.891-1.142,4.292,4.292,0,0,0-1.632-.959,3.607,3.607,0,0,0-1.21-.217,2.512,2.512,0,0,0-1.039.24,4.711,4.711,0,0,0-1.016.7c-.331.263-.628.582-.936.879l-.617.628c-.788.788-1.61,1.541-2.443,2.283s-1.644,1.438-2.489,2.123-1.575,1.142-2.34,1.792a8.773,8.773,0,0,0-.97.982,10.862,10.862,0,0,1-.811.81h-.068c-.217-.057-.434-.137-.651-.217-.753-.331-1.484-.685-2.283-.959a16.7,16.7,0,0,0-1.964-.548,7.434,7.434,0,0,0-2.352-.228,8.938,8.938,0,0,0-1.438.3l-.833.274a10.91,10.91,0,0,1-1.781.422,7.156,7.156,0,0,1-1.484,0,15.377,15.377,0,0,1-3.014-.856l-.651-.32c-.308-.171-.594-.342-.89-.537-.491-.308-.959-.662-1.427-1.016-.948-.742-1.9-1.5-2.831-2.283-.445-.377-.891-.753-1.347-1.142a13.587,13.587,0,0,0-1.8-1.29,10.537,10.537,0,0,0-4.681-1.073,13.012,13.012,0,0,1-1.884-.091l-1.929-.171a11.7,11.7,0,0,0-1.416,0,12.881,12.881,0,0,1-1.484,0,9.135,9.135,0,0,1-1.484-.4c-.422-.194-.833-.422-1.233-.639l.148-.183a1.017,1.017,0,0,0,.126-.411,3.424,3.424,0,0,0-.32-1.655c-.126-.342-.251-.685-.388-1.027-.514-1.37-1.085-2.728-1.69-4.064a13.518,13.518,0,0,0-1-1.827c-.217-.308-.434-.616-.674-.913a7.2,7.2,0,0,0-.8-.868c-.206-.183-.422-.331-.639-.5a7.5,7.5,0,0,0-2.363-1c-.536-.16-1.073-.32-1.6-.514h-.057c-.194-.1-.388-.205-.559-.32a4.641,4.641,0,0,1-.571-.594c-.354-.5-.7-1.016-1-1.541s-.639-1.142-.97-1.758c-.708-1.244-1.438-2.489-2.135-3.744s-1.347-2.489-2.009-3.733-1.324-2.489-2.055-3.687a20.917,20.917,0,0,0-1.735-2.512,12.571,12.571,0,0,0-.97-1.142c-.354-.354-.708-.7-1.085-1.027a10.519,10.519,0,0,0-1.53-1.142,7.673,7.673,0,0,0-1.61-.685c-.491-.148-.982-.251-1.484-.354s-1.142-.137-1.712-.194l-1.142-.114a7.223,7.223,0,0,1-1.279-.32,5.5,5.5,0,0,1-.719-.4l-.251-.263a.378.378,0,0,1-.068-.114.949.949,0,0,1-.068-.24h0a1.244,1.244,0,0,1,.091-.171c.171-.194.331-.377.491-.582a3.9,3.9,0,0,0,.868-1.735,17.7,17.7,0,0,0,.114-2.283h.137a6.717,6.717,0,0,1,1.142,0,5.826,5.826,0,0,1,.776.148c.342.091.685.205,1.027.32.651.228,1.279.5,1.918.742l.936.354a3.577,3.577,0,0,0,.685.183,1.747,1.747,0,0,0,.731,0,1.713,1.713,0,0,0,.479-.171,1.348,1.348,0,0,0,.354-.32,3.1,3.1,0,0,0,.536-1.884l.069-1.142c.08-1.45.126-2.9.183-4.35a30.716,30.716,0,0,0,0-4.224,5.928,5.928,0,0,0-.137-.9,3.621,3.621,0,0,0-.354-.9l-.308-.4-.228-.24c-.137-.137-.274-.274-.4-.422a2.063,2.063,0,0,1-.171-.308,2.56,2.56,0,0,1-.114-.422,4.948,4.948,0,0,1,0-.822c.137-.753.388-1.484.5-2.283a3.927,3.927,0,0,0,0-.811h.069a1.016,1.016,0,0,0,.616-.468c.251-.582.491-1.142.731-1.747.148-.354.3-.708.422-1.085s.274-.788.388-1.142.251-.925.354-1.393a14.456,14.456,0,0,0,.354-2.523v-2.283a2.077,2.077,0,0,1,.08-.285h.137a3.164,3.164,0,0,1,.468.137c1.313.628,2.283,1.975,3.813,2.089a2.444,2.444,0,0,0,.948-.126,2.935,2.935,0,0,0,.959-.571,4.007,4.007,0,0,0,1.141-1.872,11.254,11.254,0,0,0,.434-2.683,12.8,12.8,0,0,0,0-1.324v-1.484c0-.948-.1-1.9-.171-2.843a20.564,20.564,0,0,1,0-3.836,12.768,12.768,0,0,1,.571-1.952c.183-.537.377-1.062.582-1.6q.171-.411.377-.822a12.574,12.574,0,0,1,.7-1.2,4.863,4.863,0,0,1,.594-.594,3.99,3.99,0,0,1,.479-.274,3.828,3.828,0,0,1,.708-.194,3.71,3.71,0,0,0,.868-.069,8.975,8.975,0,0,0,1.461-.183,3.664,3.664,0,0,0,1.142-.479,3.425,3.425,0,0,0,.993-1.142,3.961,3.961,0,0,0,.468-1.142,5.46,5.46,0,0,0,.137-.731,17.324,17.324,0,0,0,.205-2.021,14.456,14.456,0,0,1,.171-1.861,7.461,7.461,0,0,1,.194-.982,9.884,9.884,0,0,1,.354-.97c.194-.434.377-.879.559-1.324a12.674,12.674,0,0,0,.457-1.233c.263-.9.457-1.827.628-2.74.1-.491.16-.993.217-1.484s.1-1.016.137-1.518C580.428,221.137,581.045,218.742,581.187,219.259Z" transform="translate(-547.845 -212.6)"/>
</svg>
