<svg xmlns="http://www.w3.org/2000/svg" width="100" height="100" viewBox="0 0 100 100">
  <g id="First_page" data-name="First page" transform="translate(-255 -4822)">
    <rect id="Rectangle_284" data-name="Rectangle 284" width="100" height="100" transform="translate(255 4822)" fill="#dce8b9"/>
    <g id="Group_382" data-name="Group 382" transform="translate(0)">
      <path id="Icon_ionic-ios-arrow-forward" data-name="Icon ionic-ios-arrow-forward" d="M19.864,31.187,38.785,12.281a3.558,3.558,0,0,0,0-5.046,3.6,3.6,0,0,0-5.061,0L12.287,28.656a3.567,3.567,0,0,0-.1,4.927l21.526,21.57a3.574,3.574,0,0,0,5.061-5.046Z" transform="translate(269.753 4840.804)" fill="#373737"/>
      <path id="Icon_ionic-ios-arrow-forward-2" data-name="Icon ionic-ios-arrow-forward" d="M19.864,31.187,38.785,12.281a3.558,3.558,0,0,0,0-5.046,3.6,3.6,0,0,0-5.061,0L12.287,28.656a3.567,3.567,0,0,0-.1,4.927l21.526,21.57a3.574,3.574,0,0,0,5.061-5.046Z" transform="translate(289.753 4840.804)" fill="#373737"/>
    </g>
  </g>
</svg>
