<svg xmlns="http://www.w3.org/2000/svg" width="59.54" height="66.025" viewBox="0 0 59.54 66.025">
  <defs>
    <style>
      .cls-1 {
        fill: #b3b390;
        stroke: #231f20;
        stroke-miterlimit: 10;
      }
    </style>
  </defs>
  <path id="gabon" class="cls-1" d="M337.244,403.983l-.354.228-.308.228-.1-.148a42.166,42.166,0,0,0-2.671-3.368c-.97-1.05-1.963-2.066-2.979-3.071-.457-.445-.925-.879-1.393-1.313a18.252,18.252,0,0,1-1.518-1.45,5.875,5.875,0,0,1-.377-.639,17.142,17.142,0,0,1-.434-1.712,5.284,5.284,0,0,0-.8-1.769,6.645,6.645,0,0,0-1.21-1.256,16.721,16.721,0,0,0-1.575-1.142c-.5-.342-.982-.685-1.461-1.039h0a4.19,4.19,0,0,1-.514-.491,6.856,6.856,0,0,1-.5-.89,7.8,7.8,0,0,1-.4-1.427,13.213,13.213,0,0,0-.194-2.112,5.617,5.617,0,0,0-1.781-2.945c-.491-.468-1.027-.879-1.53-1.324a11.238,11.238,0,0,1-1.244-1.313,10.663,10.663,0,0,1-.948-1.69c-.057-.16-.1-.32-.148-.491v-.377a8.676,8.676,0,0,1,.308-1.062c.582-1.313,1.3-2.569,1.861-3.893a20.224,20.224,0,0,0,1.359-4.566c.263-1.507.445-3.014.7-4.566.137-.822.285-1.655.354-2.477s.114-1.484.194-2.226a22.672,22.672,0,0,1,.514-2.671h0l1.724.422c.571.137,1.142.205,1.747.3.32.057.639.08.948.126l.845.091,2.032.148c1.142.057,2.283.08,3.425.091h1.815a14.988,14.988,0,0,0,1.9-.183c1.142-.183,2.352-.388,3.516-.594a5.913,5.913,0,0,0,2.112-.651,3.528,3.528,0,0,0,1.381-1.815,6.754,6.754,0,0,0,.365-1.244c.068-.3.114-.605.16-.9a6.913,6.913,0,0,0,.068-1.085q0-.308,0-.617a11.944,11.944,0,0,0-.251-1.906c-.1-.628-.205-1.05-.32-1.575s-.217-1.142-.331-1.678a5.932,5.932,0,0,0-.183-.982,3.653,3.653,0,0,0-.08-.491,1.655,1.655,0,0,0-.057-.228c.228-.137.468-.274.708-.388a4.563,4.563,0,0,1,.708-.194,8.651,8.651,0,0,1,1.438,0c1.21.183,2.386.491,3.573.731a36.663,36.663,0,0,0,4.155.559c.7,0,1.393.091,2.089.08s1.336-.057,2.009-.091a13.146,13.146,0,0,1,1.9.068l1.941.228a19.271,19.271,0,0,1,.069,2.146v1.267c-.057.856-.126,1.712-.126,2.58a8.438,8.438,0,0,0,.068,1.781,1.941,1.941,0,0,0,.993,1.244,2.84,2.84,0,0,0,.742.251,2.9,2.9,0,0,0,1.142,0,8.917,8.917,0,0,0,2.614-.97L366,349l.5-.205a7.311,7.311,0,0,1,1.381-.388h.32l.388.1.4.24a8.651,8.651,0,0,1,.993,1.05c.285.4.571.788.845,1.2l.491.776c.137.24.251.491.377.731a9.309,9.309,0,0,1,.571,1.815,7.016,7.016,0,0,1,0,1.142,1.6,1.6,0,0,1-.114.445,1.822,1.822,0,0,1-.148.251,3.641,3.641,0,0,1-.342.342,9.377,9.377,0,0,1-1.336.719,7.591,7.591,0,0,0-1.678.811,2.914,2.914,0,0,0-.8.788,4.2,4.2,0,0,0-.457.97,4.568,4.568,0,0,0-.206,1.142,6.382,6.382,0,0,0,0,.936c0,.5.091,1,.126,1.507a11.2,11.2,0,0,1,0,1.381,3.985,3.985,0,0,1-.057.822,4.875,4.875,0,0,0,1.29,3.528,6.713,6.713,0,0,0,.742.651c.3.228.594.445.9.651.731.48,1.5.89,2.2,1.4a4.412,4.412,0,0,1,.468.457c.091.137.183.274.263.411a5.356,5.356,0,0,1,.194.822,4.777,4.777,0,0,1,0,.9c-.183,1.027-.559,2.021-.811,3.037a33.572,33.572,0,0,0-.674,3.356,5.259,5.259,0,0,1-.091.742,6.4,6.4,0,0,0,0,.811,9.749,9.749,0,0,0,0,1.416,11.121,11.121,0,0,1,0,1.632,9.443,9.443,0,0,1-.114,1.142,7.918,7.918,0,0,1-.32,1.267,5.423,5.423,0,0,1-.537.89,8.989,8.989,0,0,1-.753.856h-.183a14,14,0,0,1-1.05-1.142c-.126-.137-.251-.274-.388-.4l-.285-.274-.342-.263a2.363,2.363,0,0,0-.571-.263,2.668,2.668,0,0,0-.8-.137,2.433,2.433,0,0,0-1.027.206,5.71,5.71,0,0,0-1.507.97l-1.016.822-.719.525a7.89,7.89,0,0,1-1.313.765,4.8,4.8,0,0,1-.7.183,3.173,3.173,0,0,1-.571,0h-.114a2.277,2.277,0,0,1-.285-.16,3.412,3.412,0,0,1-.342-.365c-.308-.445-.548-.913-.811-1.381a6.849,6.849,0,0,0-1.9-2.363,4.373,4.373,0,0,0-1.941-.731,5.711,5.711,0,0,0-.982-.1,2.979,2.979,0,0,0-1.324.354,2.4,2.4,0,0,0-.822.765,4.715,4.715,0,0,0-.514,1.05c-.171.468-.263.97-.422,1.45a1.982,1.982,0,0,1-.171.3h0l-.114.068-.377.091a7.994,7.994,0,0,1-1.381,0c-.639-.114-1.267-.251-1.906-.388a7.683,7.683,0,0,0-2.4-.308,4.162,4.162,0,0,0-.525.08,2.821,2.821,0,0,0-.673.251,3.422,3.422,0,0,0-.525.388,2.515,2.515,0,0,0-.342.354,6.324,6.324,0,0,0-.936,1.644l-.171.445a2.946,2.946,0,0,0-.114,1.3,5.822,5.822,0,0,0,.9,2.432c.354.559.788,1.073,1.142,1.61s.605.833.9,1.244a15.657,15.657,0,0,1,1.541,2.5,6,6,0,0,1,.228.89,4.8,4.8,0,0,1,0,.811,1.917,1.917,0,0,1-.1.365,3.831,3.831,0,0,1-.24.411l-.217.217h-.126l-.274-.091a4.75,4.75,0,0,1-.537-.274,5.839,5.839,0,0,0-1.142-.571,3.993,3.993,0,0,0-.9-.126,4.5,4.5,0,0,0-.879.08,3.488,3.488,0,0,0-.833.171,12.115,12.115,0,0,0-1.77.639Z" transform="translate(-314.3 -339.124)"/>
</svg>
