<svg xmlns="http://www.w3.org/2000/svg" width="46.001" height="67.588" viewBox="0 0 46.001 67.588">
  <defs>
    <style>
      .cls-1 {
        fill: #5e2402;
        stroke: #231f20;
        stroke-miterlimit: 10;
      }
    </style>
  </defs>
  <path id="ghana" class="cls-1" d="M241.7,306.97a10.748,10.748,0,0,1-2.089.514c-1.712.205-3.425.457-5.126.719-.457.069-.925.148-1.381.251a12.194,12.194,0,0,0-2.18.719c-.765.308-1.507.651-2.283.97a20.543,20.543,0,0,1-2.18.776,21.126,21.126,0,0,1-2.352.525c-.639.08-1.267.137-1.9.274a14.322,14.322,0,0,0-2.283.788c-1.256.537-2.432,1.222-3.653,1.815s-2.546,1.256-3.824,1.861c-.616.3-1.21.605-1.8.948s-1.027.616-1.564.879a5.05,5.05,0,0,1-.594.16H207.8a14.315,14.315,0,0,1-1.644-.5c-.479-.16-.97-.285-1.438-.457a10.619,10.619,0,0,1-1.359-.879l-.16-.137a1.347,1.347,0,0,0-.4-.263l.068-.388c.069-.388.126-.776.16-1.142a4.658,4.658,0,0,0-.148-1.587,7.229,7.229,0,0,0-.422-1.073l-.217-.422a5.536,5.536,0,0,0-.605-.856,6.85,6.85,0,0,0-.525-.616c-.411-.445-.833-.89-1.222-1.359a7.033,7.033,0,0,1-.708-1.2,17.048,17.048,0,0,1-.5-2c-.114-.537-.228-1.085-.365-1.621s-.285-1.039-.434-1.553a12.908,12.908,0,0,1-.4-1.587,2.968,2.968,0,0,1,.217-1.621,20.238,20.238,0,0,1,1.142-2.044,8.288,8.288,0,0,0,.8-1.667,9.683,9.683,0,0,0,.331-1.256c.069-.365.114-.731.183-1.142s.148-.753.24-1.142a17.369,17.369,0,0,1,.651-1.975,7.806,7.806,0,0,1,.5-.97,10.3,10.3,0,0,1,.639-.925c.354-.457.708-.9,1.039-1.37a11.95,11.95,0,0,0,1.21-1.815,5.445,5.445,0,0,0,.411-1.142c.057-.274.08-.537.114-.811s.08-.639.114-.959a8.31,8.31,0,0,0,0-1.507,27.879,27.879,0,0,0-.582-3.493c-.114-.5-.263-.993-.388-1.5s-.228-.959-.308-1.45a18.545,18.545,0,0,1,0-1.952v-.753a9.876,9.876,0,0,0-.137-1.142q.148-1.747.342-3.493a27.541,27.541,0,0,0,.194-3.071v-.81a8.14,8.14,0,0,0-.24-1.381c-.114-.5-.285-.982-.445-1.473-.308-.959-.616-1.918-.879-2.888a29.47,29.47,0,0,1-.674-3.425,3.655,3.655,0,0,1,0-.605,3.069,3.069,0,0,1,.08-.308,1.483,1.483,0,0,1,.114-.171l.16-.1a2.43,2.43,0,0,1,.479-.114,16.783,16.783,0,0,1,3.025.126c.845.091,1.69.16,2.534.228s1.553.08,2.283.137,1.484.114,2.215.205c1.016.148,2.009.32,3.014.5s2.032.445,3.06.651c.559.114,1.142.183,1.7.251a13.707,13.707,0,0,0,1.461.1,15.207,15.207,0,0,0,3.219-.365,7.159,7.159,0,0,0,1.667-.628,4.892,4.892,0,0,0,.651-.422l.685-.537a7.384,7.384,0,0,1,.811-.5,4.7,4.7,0,0,1,.788-.205,6.6,6.6,0,0,1,1.062,0l.514.137a1.291,1.291,0,0,0,0,.514,1.255,1.255,0,0,0,.342.594,1.233,1.233,0,0,0,.274.205,1.861,1.861,0,0,0,1.21.24h.4v.137a3.309,3.309,0,0,1,0,.582,4.294,4.294,0,0,1-.194.753c-.091.194-.194.4-.3.594a3.265,3.265,0,0,0-.434,1.073,2.6,2.6,0,0,0,0,.788,2.2,2.2,0,0,0,.3.913,6.769,6.769,0,0,0,1.142,1.324,23.4,23.4,0,0,1,1.975,1.872,4.329,4.329,0,0,1,.228.388,3.423,3.423,0,0,1,.148.594,1.382,1.382,0,0,0,.057.479,7.076,7.076,0,0,1,0,1.3c-.126.776-.331,1.541-.514,2.283s-.24,1.267-.354,1.906c-.057.308-.114.605-.16.9s-.069.5-.1.753a1.872,1.872,0,0,0,.285,1.347,4.167,4.167,0,0,0,1.484,1.142c.308.171.651.308.948.514h0v.217a5.236,5.236,0,0,1,0,.845,7.18,7.18,0,0,1-.354,1.142c-.171.377-.354.753-.525,1.142-.068.126-.126.274-.194.411a4.659,4.659,0,0,0-.205.559,4.245,4.245,0,0,0-.091.651,3.117,3.117,0,0,0,.091,1.027,5.24,5.24,0,0,0,.331.925c.411.936,1.085,1.724,1.53,2.649v.183a1.762,1.762,0,0,1-.057.194,2.014,2.014,0,0,1-.16.263c-.354.422-.765.788-1.073,1.221a5.434,5.434,0,0,0-.674,1.336c-.057.171-.126.354-.171.537a9.441,9.441,0,0,0-.217,1.5,10.546,10.546,0,0,1-.057,1.347,5.148,5.148,0,0,1-.32,1.142c-.1.228-.205.445-.3.685a3.616,3.616,0,0,0-.228.982,2.4,2.4,0,0,0,0,.582,2.648,2.648,0,0,0,.148.514,6.851,6.851,0,0,0,.742,1.313c.148.205.308.411.468.605a6.331,6.331,0,0,1,.479.742,3.046,3.046,0,0,1,.08.308,1,1,0,0,1,0,.263,14.046,14.046,0,0,1-.594,1.815,4.82,4.82,0,0,0-.274.959,2.7,2.7,0,0,0,0,.605,5.052,5.052,0,0,0,.068.582,4.076,4.076,0,0,0,.331,1.016,7.8,7.8,0,0,0,1.45,2.055c.32.377.674.731,1.016,1.073.674.7,1.4,1.336,2.135,1.975l.5.445Z" transform="translate(-196.951 -251.081)"/>
</svg>
