<svg xmlns="http://www.w3.org/2000/svg" width="29.242" height="17.507" viewBox="0 0 29.242 17.507">
  <defs>
    <style>
      .cls-1 {
        fill: #5e2402;
        stroke: #231f20;
        stroke-miterlimit: 10;
      }
    </style>
  </defs>
  <path id="guineaBissau" class="cls-1" d="M89.536,244.645a.856.856,0,0,0,0,1.142c-.388-.1-.776-.217-1.142-.354l-.183-.1-.1-.1L88,245.033v-.616a4.292,4.292,0,0,1,.354-.571l.97-1.2a6.062,6.062,0,0,0,1.359-2.751A3.665,3.665,0,0,0,90.1,237.3a3.8,3.8,0,0,0-1.929-1.381,11.108,11.108,0,0,0-2.911-.662c-.685-.068-1.37-.114-2.066-.126s-1.336,0-2.009,0l-1.952.126-.833.068a9.254,9.254,0,0,1-1.244.091h0a.778.778,0,0,1,.137-.137,21.063,21.063,0,0,1,2.283-1.233,8.676,8.676,0,0,0,1.416-.936,2.625,2.625,0,0,0,.4-.468,2.591,2.591,0,0,0,.4-.742,2.877,2.877,0,0,0,.1-1.427,2.341,2.341,0,0,0-.08-.388c.776.228,1.553.457,2.283.651a6.323,6.323,0,0,0,1.849.171,10.181,10.181,0,0,0,1.142-.16c.434-.068.879-.171,1.324-.263.822-.16,1.655-.32,2.489-.445.594-.057,1.142-.126,1.792-.171s1.29-.068,1.941-.1,1.279-.069,1.929-.08a13.254,13.254,0,0,1,1.644.114,19.962,19.962,0,0,1,2.18.457,23.544,23.544,0,0,0,2.523.525,17.215,17.215,0,0,0,1.769.171c-.08.228-.148.468-.228.7l-.171.3h0l-.628.114a4,4,0,0,0-1.142.377,2.283,2.283,0,0,0-1.142,1.267,3.208,3.208,0,0,0-.068,1.507,4.823,4.823,0,0,0,.228,1.142,9.259,9.259,0,0,0,.479,1.37,4.669,4.669,0,0,1,.205.559h0c-.1.183-.205.354-.32.525l-.274.274-.411.24-.217.068H99.845a11.748,11.748,0,0,0-1.267,0,9.25,9.25,0,0,0-1.484.183,7.5,7.5,0,0,0-2.443.948,12.409,12.409,0,0,0-2.865,2.055C90.986,243.321,90.29,243.994,89.536,244.645Z" transform="translate(-76.124 -229.19)"/>
</svg>
