<svg xmlns="http://www.w3.org/2000/svg" width="78.429" height="61.97" viewBox="0 0 78.429 61.97">
  <defs>
    <style>
      .cls-1 {
        fill: #5e2402;
        stroke: #231f20;
        stroke-miterlimit: 10;
      }
    </style>
  </defs>
  <path id="guinea" class="cls-1" d="M106.164,268.679l-.651-.788a8.593,8.593,0,0,1-.605-.925.742.742,0,0,0-.308-.285,7.99,7.99,0,0,1-.308-1.05c-.16-.7-.285-1.4-.434-2.1a11.87,11.87,0,0,0-.616-1.964,8.449,8.449,0,0,0-1.279-2.009c-.468-.571-.948-1.142-1.461-1.655a14.9,14.9,0,0,0-1.792-1.484,18.965,18.965,0,0,0-1.61-1.062,13.981,13.981,0,0,0-1.827-.856,8.494,8.494,0,0,1-.788-.4,4.579,4.579,0,0,1-.388-.263,4.314,4.314,0,0,1-.571-.548,6.847,6.847,0,0,1-.422-.811,12.834,12.834,0,0,1-.5-1.975c-.057-.3-.137-.605-.205-.9a4.784,4.784,0,0,0-1.142-1.941,7.146,7.146,0,0,0-.582-.594l-.377-.308a5.091,5.091,0,0,0-1.416-.8h-.16a.89.89,0,0,0,.365-.205c.89-.811,1.735-1.69,2.649-2.466a14.158,14.158,0,0,1,2.42-1.393,7.387,7.387,0,0,1,1.393-.377,13.708,13.708,0,0,1,1.678,0c.605,0,1.21.114,1.815.148a2.854,2.854,0,0,0,1.2-.194,3.825,3.825,0,0,0,1.267-.742,4.566,4.566,0,0,0,1.142-1.8,2.283,2.283,0,0,0,.091-.559,2.42,2.42,0,0,0-.08-.7,2.773,2.773,0,0,0-.217-.537l-.137-.308c-.114-.217-.228-.422-.331-.639a10.789,10.789,0,0,1-.422-1.553,2.2,2.2,0,0,1,0-.274h0l.148-.091a6.026,6.026,0,0,1,.651-.16,4.42,4.42,0,0,0,.936-.137,2.283,2.283,0,0,0,1.267-1.039,4.418,4.418,0,0,0,.468-.788,1,1,0,0,1,.08-.263,5.842,5.842,0,0,0,.137-.731,1.14,1.14,0,0,0,0-.194l.913.1a8.533,8.533,0,0,1,.936.205l.32.114c.3.137.582.285.868.445a8.273,8.273,0,0,1,.8.559,10.742,10.742,0,0,0,1.381,1.016,4.737,4.737,0,0,0,1.427.514c.32.068.651.1.97.148a50.064,50.064,0,0,0,6.781.617,24.8,24.8,0,0,0,3.653-.251,9.062,9.062,0,0,0,1.461-.342c.263-.091.525-.194.776-.308a9.841,9.841,0,0,1-.126.993c-.034.331,0,.811-.068,1.221a1.484,1.484,0,0,0,.16.662,1.908,1.908,0,0,0,.354.537,2.135,2.135,0,0,0,.913.571l.434.068a2.857,2.857,0,0,0,.628,0,4.876,4.876,0,0,0,.982-.3,7.114,7.114,0,0,0,1.336-.822c.411-.274.788-.616,1.21-.868l.183.114a4.75,4.75,0,0,1,.479.479c.308.457.582.948.868,1.427a6.1,6.1,0,0,0,.616.913,3.607,3.607,0,0,0,.7.628,2.284,2.284,0,0,0,.559.274,3.093,3.093,0,0,0,.651.1,1.6,1.6,0,0,0,.4,0,3.587,3.587,0,0,0,.7-.137,4.144,4.144,0,0,0,.993-.525,5.332,5.332,0,0,0,1.016-.948,10.917,10.917,0,0,1,1.085-1.142l.308-.194h.126a5.493,5.493,0,0,1,.742.205,7.043,7.043,0,0,1,1.142.731c.605.491,1.142,1.027,1.815,1.5a3.665,3.665,0,0,0,3.174.377,7.054,7.054,0,0,0,1.667-.879c.639-.422,1.256-.879,1.849-1.359a3.653,3.653,0,0,0,.616-.571,3.2,3.2,0,0,0,.708-1.53,3.425,3.425,0,0,0,.069-.833,11.485,11.485,0,0,1,.982.674,8.257,8.257,0,0,1,.993,1l.331.411a7,7,0,0,1,.765,1.324,15.811,15.811,0,0,1,.97,3.6c0,.5.08,1,.114,1.507a15.319,15.319,0,0,0,.251,1.747,6.69,6.69,0,0,0,1.29,2.728l.833,1.142c-.365.091-.742.171-1.142.285a5.959,5.959,0,0,0-.856.32A3.425,3.425,0,0,0,155.2,250a2.155,2.155,0,0,0-.228.308l-.08.171a1.141,1.141,0,0,0-.148.548,2.008,2.008,0,0,0,.08.514,1.689,1.689,0,0,0,.4.617l.365.285a1.575,1.575,0,0,0,.388.205c.274.126.559.24.845.342.468.16.948.263,1.4.422a4.755,4.755,0,0,1,.525.3,2.85,2.85,0,0,1,.263.263l.091.148a.233.233,0,0,0,.057.183c.057.057,0,.263,0,.388a10.171,10.171,0,0,0-.183,1.427,4.11,4.11,0,0,0,.811,2.523c.354.491.742.959,1.142,1.438-.285.205-.571.411-.845.628a5.536,5.536,0,0,0-.8.754,5.088,5.088,0,0,0-.377.491,3.892,3.892,0,0,0-.342.731,3.426,3.426,0,0,0-.114.491,4.76,4.76,0,0,0-.069.811,9.068,9.068,0,0,0,.206,1.541,1.4,1.4,0,0,0,.091.6,10.279,10.279,0,0,1,0,1.142v.856a3.769,3.769,0,0,0,.114,1,3.276,3.276,0,0,0,.342.765,4.179,4.179,0,0,0,.582.776,3.016,3.016,0,0,0,.582.491c.217.148.434.285.662.411s.719.365,1.073.582c-.171.263-.365.525-.548.788a1.827,1.827,0,0,0-.251.639,1.986,1.986,0,0,0,0,.776,4.338,4.338,0,0,0,.491,1.461c.32.628.7,1.233,1,1.872a5.312,5.312,0,0,1,.274.947,6.358,6.358,0,0,1,0,1.142h0a9.664,9.664,0,0,1-1.29,0l-.89-.069a5.481,5.481,0,0,1-.856-.068,3.631,3.631,0,0,0-.788,0,2.843,2.843,0,0,0-1.142.354,2.283,2.283,0,0,0-1.142,1.849,4.658,4.658,0,0,0,.537,2.283c.205.468.445.936.651,1.4.057.16.114.32.16.479v.137a.286.286,0,0,0,0,.08c-.057.1-.114.205-.183.308a8.632,8.632,0,0,1-1.279,1.142l-.776.616a3.766,3.766,0,0,1-.582.354,5.413,5.413,0,0,1-.571.171,7.326,7.326,0,0,1-1.142,0l-.89-.148a4.053,4.053,0,0,0-3.242.537,5.115,5.115,0,0,0-.948.913c-.16.194-.308.4-.457.605s-.365.537-.537.8a3.112,3.112,0,0,1-.274.274l-.091.057h-.1l-.205-.126a1.308,1.308,0,0,1-.126-.126l-.08-.137a1.988,1.988,0,0,1-.057-.251,11.67,11.67,0,0,1,.1-2c.068-.616.16-1.222.228-1.827a6.21,6.21,0,0,0-.263-2.283,9.818,9.818,0,0,0-.8-1.929,11.591,11.591,0,0,0-1.142-1.667,7.177,7.177,0,0,0-.708-.833,4.292,4.292,0,0,0-1.3-.856c-.5-.228-1.016-.411-1.518-.605a11.413,11.413,0,0,0-2.215-.559c-.388-.057-.788-.114-1.142-.137a4.493,4.493,0,0,0-.879.091,2.877,2.877,0,0,0-.7.205,3.117,3.117,0,0,0-.674.342,5.293,5.293,0,0,0-.559.468c-.137.126-.251.274-.377.411a6.851,6.851,0,0,0-.753,1.062l-.091.183h-.091c-.388-.126-.765-.263-1.142-.411a7.529,7.529,0,0,1-1.279-.662,3.78,3.78,0,0,1-.308-.3l-.126-.217a.412.412,0,0,1,0-.114,2.283,2.283,0,0,1,0-.491,6.338,6.338,0,0,1,.3-1.142,5.71,5.71,0,0,1,.5-.845c.422-.514.913-.97,1.381-1.438.183-.183.354-.377.525-.582a3.425,3.425,0,0,0,.8-1.4,4.258,4.258,0,0,0-.89-2.877c-.24-.422-.468-.868-.674-1.313-.377-1-.708-2.021-1.142-2.991-.217-.479-.445-.959-.7-1.427s-.514-.948-.8-1.416-.514-.833-.788-1.244a6.963,6.963,0,0,0-.7-.948,3.208,3.208,0,0,0-2.032-.936,19.2,19.2,0,0,0-2.808-.137h-3.139a15.958,15.958,0,0,0-2.4.445,5.8,5.8,0,0,1-.89,0c-.628-.114-1.222-.342-1.838-.479a10.283,10.283,0,0,0-1.438-.263h-.3a5.622,5.622,0,0,0-.982.114,2.809,2.809,0,0,0-1.3.651,5.308,5.308,0,0,0-1.461,2.226c-.137.331-.251.662-.365.982-.183.514-.331,1.039-.525,1.553a8.623,8.623,0,0,1-.788,1.324,7.282,7.282,0,0,1-.9.879c-.217.16-.434.3-.662.434a7.774,7.774,0,0,0-.8.411Z" transform="translate(-85.101 -230.395)"/>
</svg>
