<svg xmlns="http://www.w3.org/2000/svg" width="64.903" height="66.295" viewBox="0 0 64.903 66.295">
  <defs>
    <style>
      .cls-1 {
        fill: #5e2402;
        stroke: #231f20;
        stroke-miterlimit: 10;
      }
    </style>
  </defs>
  <path id="ivoryCoast" class="cls-1" d="M208,314.028c-.068.411-.217.8-.3,1.21l-1.142-.4c-1.244-.434-2.466-.936-3.687-1.427a18.147,18.147,0,0,0-1.918-.674,18.832,18.832,0,0,0-1.975-.377,35.038,35.038,0,0,0-4.247-.263c-.708,0-1.4,0-2.112-.068s-1.29-.1-1.941-.16c-1.336-.126-2.671-.228-4-.285h-1.906a15.98,15.98,0,0,0-1.8.148c-.537.08-1.062.205-1.587.331a12.561,12.561,0,0,0-1.712.582c-.731.3-1.461.605-2.169.947l-2.215,1.05-3.425,1.347-1.918.719c-.605.205-1.233.365-1.849.537-1.279.331-2.58.616-3.859.936s-2.649.731-3.984,1.027l-.5.091a16.355,16.355,0,0,1-2.283.137l-.845-.057v-.32a17.468,17.468,0,0,1,.5-2.557,13.006,13.006,0,0,1,.468-1.267c.194-.468.4-.948.582-1.427s.331-.868.479-1.313c.08-.24.148-.48.217-.731a5.308,5.308,0,0,0,.285-1.792,3.79,3.79,0,0,0-.32-1.221,4.2,4.2,0,0,0-.548-.856,6.174,6.174,0,0,0-.616-.605,12.954,12.954,0,0,1-1.142-1.142,12.554,12.554,0,0,1-.97-1.7,9.258,9.258,0,0,0-1.142-1.678,6.521,6.521,0,0,0-1.324-1.244,4.466,4.466,0,0,0-1.073-.457,3.533,3.533,0,0,0-.765-.171c-.628-.1-1.256-.148-1.9-.217a7.746,7.746,0,0,1-1.518-.365,4.738,4.738,0,0,1-.731-.434,3.9,3.9,0,0,1-.491-.479,3.849,3.849,0,0,1-.217-.365v-.194a1.38,1.38,0,0,1,.057-.206.936.936,0,0,1,.137-.228c.263-.3.571-.571.845-.868a6.289,6.289,0,0,0,.833-1.073,3.916,3.916,0,0,0,.479-1.621,6.68,6.68,0,0,0-.194-1.769c-.068-.4-.148-.811-.228-1.21a12.372,12.372,0,0,0-.571-2.146c-.263-.651-.537-1.267-.845-1.9h.194a4.658,4.658,0,0,0,2.169-.993l1.142-.868.445-.365a6.145,6.145,0,0,0,.936-1.027,2.979,2.979,0,0,0,.559-1.438,3.048,3.048,0,0,0-.205-1.427,24.815,24.815,0,0,1-.959-2.671.149.149,0,0,1,0-.068h.137a20.052,20.052,0,0,1,2.192,0,4.84,4.84,0,0,0,2.352-.285,1.929,1.929,0,0,0,.9-.879,3.653,3.653,0,0,0,.285-1.313v-.5a6.2,6.2,0,0,0-.1-1.3,6.734,6.734,0,0,0-.559-1.541,10.09,10.09,0,0,0-.491-.913c-.16-.285-.308-.571-.445-.868a3.154,3.154,0,0,1-.091-.308.251.251,0,0,1,.057-.091c.205-.263.411-.537.594-.811a3.15,3.15,0,0,0,.411-1.244,1.987,1.987,0,0,0-.377-1.142,3.893,3.893,0,0,0-1.427-1.142,11.409,11.409,0,0,1-1.142-.662,2.855,2.855,0,0,1-.263-.263,4.044,4.044,0,0,1-.217-.377h0a8.967,8.967,0,0,1,0-.959c0-.354,0-.708,0-1.05-.08-.7-.194-1.393-.3-2.089a3.037,3.037,0,0,1,0-.719,3.261,3.261,0,0,1,.08-.32l.171-.285a6.037,6.037,0,0,1,.925-.868,4.852,4.852,0,0,0,1.2-1.142.912.912,0,0,0,.091-.183,9.4,9.4,0,0,0,1.69-.776,5.182,5.182,0,0,0,1.142-.9,7.613,7.613,0,0,0,.491-.7h.114a9.3,9.3,0,0,1,1.256.845l-.194-.148.879.685H160.5c1.256.97,2.763,2.123,4.464,1.678a3.608,3.608,0,0,0,1.347-.8,4.558,4.558,0,0,0,.548-.594,5.583,5.583,0,0,0,.468-.685c.114-.183.205-.377.308-.571a5.631,5.631,0,0,1,.491-.845,3.727,3.727,0,0,1,.354-.377c.137-.091.285-.171.434-.251a3.174,3.174,0,0,1,.445-.114,4.566,4.566,0,0,1,.788,0c.434.068.868.148,1.3.194h1.142v.091a4.736,4.736,0,0,1,.217.788,2.683,2.683,0,0,0,.354.879,1.827,1.827,0,0,0,.479.5,3.245,3.245,0,0,0,.605.285,2.594,2.594,0,0,0,.594.1,2.756,2.756,0,0,0,.616,0,5.946,5.946,0,0,0,.651-.1,4.568,4.568,0,0,0,.753-.263l.879-.388a8.53,8.53,0,0,1,1.827-.514,4.635,4.635,0,0,1,.89,0,2.726,2.726,0,0,1,.616.171,3.631,3.631,0,0,1,.5.3,5.363,5.363,0,0,1,.8.81c.285.4.559.822.833,1.233s.594.845.9,1.256c.616.833,1.142,1.758,1.678,2.626a15.005,15.005,0,0,0,1.073,1.461l.537.628a5.046,5.046,0,0,0,3.733,1.587,6.985,6.985,0,0,0,2.146-.445l1.621-.548c.434-.148.879-.3,1.324-.411s.925-.217,1.393-.32c.868-.171,1.724-.377,2.6-.525a6.486,6.486,0,0,1,1.142,0,7.326,7.326,0,0,1,1.4.4,14.373,14.373,0,0,1,2.477,1.484,15.136,15.136,0,0,1,1.359,1.21q.692.692,1.313,1.45a9.431,9.431,0,0,1,.788,1.347,1.584,1.584,0,0,0,.1.4.467.467,0,0,1,0,.126.994.994,0,0,0,.148.525v2.968a9.888,9.888,0,0,0,.137.993,10,10,0,0,0,.205,1.016c.148.639.343,1.256.5,1.884a19.325,19.325,0,0,1,.365,1.941c0,.445.1.89.126,1.336a7.991,7.991,0,0,1,0,1.381,3.076,3.076,0,0,1,0,.32,4.566,4.566,0,0,1-.263,1.027,12.485,12.485,0,0,1-1.427,2.055l-.8,1.016c-.228.3-.457.594-.662.913a11.418,11.418,0,0,0-1.05,2.352,14.077,14.077,0,0,0-.559,2.375,12.09,12.09,0,0,1-.559,2.626c-.514,1.142-1.324,2.055-1.8,3.174a5.5,5.5,0,0,0-.468,2.009,6.953,6.953,0,0,0,.206,1.53c.1.5.3,1,.434,1.507a28.671,28.671,0,0,1,.708,3.082,5.6,5.6,0,0,0,.148.856,6.941,6.941,0,0,0,.731,1.986,11.018,11.018,0,0,0,1.53,2.032c.32.343.639.7.948,1.062a6.517,6.517,0,0,1,.559.993,6.289,6.289,0,0,1,.183.616,4.887,4.887,0,0,1-.137.48Z" transform="translate(-145.91 -253.645)"/>
</svg>
