<svg xmlns="http://www.w3.org/2000/svg" width="84.926" height="101.725" viewBox="0 0 84.926 101.725">
  <defs>
    <style>
      .cls-1 {
        fill: #073304;
        stroke: #231f20;
        stroke-miterlimit: 10;
      }
    </style>
  </defs>
  <path id="kenya" class="cls-1" d="M638.984,384.719a8.222,8.222,0,0,1-1.142.662,4.34,4.34,0,0,1-.5.171l-.422.091h-1.9a3.584,3.584,0,0,0-2.123.913,6.85,6.85,0,0,0-1.142,1.37,23.182,23.182,0,0,0-1.644,3.539,6.44,6.44,0,0,1-.571,1.073c-.148.16-.3.308-.457.457l-.343.194-.731.285a8.328,8.328,0,0,0-1.016.491,4.643,4.643,0,0,0-.993.833,3.172,3.172,0,0,0-.582.959,6.819,6.819,0,0,0-.308.8c-.114.388-.217.776-.3,1.142a40.307,40.307,0,0,0-.434,4.235,1.588,1.588,0,0,1-.114.457l-.057.1c-.342.377-.742.685-1.142,1.05a10.6,10.6,0,0,0-1.142,1.142c-.388.491-.776.982-1.142,1.5a16.458,16.458,0,0,0-.89,1.484c-.514.925-.879,1.929-1.336,2.877a14.3,14.3,0,0,1-.685,1.313c-.3.468-.605.9-.936,1.347-.548.7-1.142,1.393-1.621,2.112a2.842,2.842,0,0,0-.3-.217c-.5-.331-1.016-.605-1.53-.9s-1.05-.582-1.553-.913-1.027-.674-1.541-1-1.085-.685-1.61-1.062-1.073-.776-1.621-1.142-.959-.639-1.45-.948-1.085-.674-1.633-1c-.879-.514-1.792-.97-2.614-1.564-.148-.126-.285-.263-.422-.4a6.1,6.1,0,0,1-.354-.651,4.807,4.807,0,0,1-.262-.982c-.126-1.438.251-2.865.171-4.292a3.734,3.734,0,0,0-.639-1.986,3.915,3.915,0,0,0-1.461-1.233c-.457-.263-.948-.468-1.427-.7-1.039-.48-2.078-.959-3.151-1.381l-2.888-1.142c-2.18-.936-4.361-1.861-6.507-2.877-1.142-.537-2.215-1.142-3.345-1.6s-2.192-.925-3.288-1.381c-2.283-.993-4.407-2.078-6.564-3.208l-1.884-1.016c-.5-.274-1-.559-1.473-.879-1.142-.765-2.283-1.564-3.425-2.386l-.08-.057c-.434-.342-.879-.674-1.3-1.027-.628-.537-1.267-1.073-1.872-1.621a1.318,1.318,0,0,0-.217-.16,4.36,4.36,0,0,0,.308-1.016c.08-.5.1-1.016.16-1.518a10.183,10.183,0,0,1,.479-2.1c.091-.171.183-.342.285-.514l.183-.183.114-.069c.445-.148.925-.205,1.381-.308s.776-.16,1.142-.263a5.16,5.16,0,0,0,2.283-1.256,2.072,2.072,0,0,0,.377-.571c.069-.148.126-.3.183-.445a4.078,4.078,0,0,0,.228-.662,2.285,2.285,0,0,0-.114-.776,2.512,2.512,0,0,0-.525-.913,3.754,3.754,0,0,0-1.244-.959,2.751,2.751,0,0,0-1.438-.274,13.142,13.142,0,0,0-1.347.148c-.776.114-1.541.308-2.283.434H560.8l-.228-.069-.091-.057a1.377,1.377,0,0,1-.183-.183l-.205-.365a8.152,8.152,0,0,1-.263-.9v-.5a5.193,5.193,0,0,1,.263-.845,3.439,3.439,0,0,1,.32-.559l.16-.171.536-.3a6.072,6.072,0,0,0,.97-.662,8.38,8.38,0,0,0,1.461-1.77c.388-.582.788-1.142,1.142-1.735s.81-1.279,1.233-1.918.731-1.062,1.142-1.575.879-1.039,1.29-1.575a7.329,7.329,0,0,0,.879-1.507c.148-.342.32-.685.445-1.027s.194-.5.263-.742c.114-.411.217-.811.3-1.221a9.816,9.816,0,0,0,.137-1.142,5.882,5.882,0,0,0-.091-1.142,4.053,4.053,0,0,0-.16-.89c-.217-1.027-.525-2.032-.742-3.059s-.411-2.123-.639-3.174a12.739,12.739,0,0,0-.7-2.146,11.007,11.007,0,0,0-1.142-2.169l-.343-.5c-.137-.217-.32-.411-.479-.616a8.841,8.841,0,0,0-.765-.833c-.571-.582-1.141-1.142-1.689-1.77a4.568,4.568,0,0,1-.331-.559,3.118,3.118,0,0,1-.171-.639c-.057-.571-.091-1.142-.137-1.712a9.641,9.641,0,0,0-.228-1.712c-.068-.3-.148-.594-.24-.879a5.328,5.328,0,0,0-.343-.833,2.569,2.569,0,0,0-.73-.833c-.434-.331-.913-.616-1.359-.913a5.387,5.387,0,0,1-.776-.754,5.8,5.8,0,0,1-.479-.81,5.434,5.434,0,0,1-.308-1.039,2.471,2.471,0,0,1,0-.582,2.55,2.55,0,0,1,.057-.285c.411-.5.845-.982,1.279-1.473a15.077,15.077,0,0,1,1.427-1.4h0l.97-.685c.331-.24.639-.491.948-.753a.982.982,0,0,0,.514,0h.251c1.142-.148,2.283-.274,3.425-.331H569a11.4,11.4,0,0,0,1.53-.148,9.138,9.138,0,0,1,1.575,0c.594.091,1.142.24,1.747.32a2.992,2.992,0,0,0,.845,0l.605-.08.514-.1h.08a4.7,4.7,0,0,0,1.735.251,1.142,1.142,0,0,0,.525.982,11.577,11.577,0,0,0,2.671,1.3,6.853,6.853,0,0,0,1.986.308c.491,0,.993-.057,1.5-.069a26.924,26.924,0,0,1,2.717.183c.89.08,1.781.137,2.66.228.354.057.7.126,1.05.206a6.335,6.335,0,0,1,1.142.354,7.574,7.574,0,0,1,1.142.719c.925.788,1.8,1.621,2.717,2.409s2.032,1.792,3.117,2.58a16.746,16.746,0,0,0,1.69,1.142,12.87,12.87,0,0,0,2.043.856,16.659,16.659,0,0,0,2.283.571,10.571,10.571,0,0,0,1.336.126,7.831,7.831,0,0,0,1.37-.114,6.22,6.22,0,0,0,1.142-.183c.811-.171,1.587-.491,2.409-.651a5.218,5.218,0,0,1,.845,0,20.549,20.549,0,0,1,3.071.9c.628.285,1.244.582,1.884.845a4.271,4.271,0,0,0,.993.274,3.328,3.328,0,0,0,.571.057h.171a2.282,2.282,0,0,0,.559-.1,4.074,4.074,0,0,0,1.37-.856,11.145,11.145,0,0,0,1.039-1.039,10.346,10.346,0,0,1,1.142-1.016c.7-.525,1.393-1.05,2.066-1.61s1.393-1.2,2.066-1.815,1.393-1.267,2.032-1.941l1.142-1.142a15.839,15.839,0,0,1,1.233-1.244h.263a3.427,3.427,0,0,1,.514.137,1.512,1.512,0,0,1,.228.137,1.655,1.655,0,0,1,.24.251,11.26,11.26,0,0,1,.742,1.3c.08.171.148.331.24.491a3.9,3.9,0,0,0,.674.879,2.9,2.9,0,0,0,1.084.639h.206a3.917,3.917,0,0,0,.514,0,2.364,2.364,0,0,0,.571-.069c1.45-.171,2.9-.285,4.338-.548l.628-.126-1.222,1.37c-.616.685-1.142,1.438-1.712,2.18s-.948,1.336-1.416,2.009-.822,1.267-1.279,1.872-.833,1-1.267,1.5c-.251.274-.5.548-.731.833s-.32.411-.468.628a1.371,1.371,0,0,0-.3.936,1.016,1.016,0,0,0,.137.514,1.134,1.134,0,0,0,.091.126c.068,1.142.126,2.2.171,3.311s0,2.432.068,3.642,0,2.512.08,3.767.16,2.512.217,3.756.091,2.477.126,3.722.08,2.557.057,3.836c0,2.477-.137,4.943-.308,7.4-.091,1.21-.171,2.42-.206,3.63a29.474,29.474,0,0,0,.068,3.756c.126,1.222.274,2.443.422,3.653.091.674.183,1.347.331,2.009a8.319,8.319,0,0,0,.628,1.633,7.66,7.66,0,0,0,.4.742c.559.9,1.21,1.735,1.8,2.6.308.457.616.925.89,1.4a10.921,10.921,0,0,1,.594,1.244c.183.422.32.8.5,1.142.08.16.171.32.262.479A2.143,2.143,0,0,0,638.984,384.719Z" transform="translate(-557.995 -314.33)"/>
</svg>
