<svg id="Last_page" data-name="Last page" xmlns="http://www.w3.org/2000/svg" width="100" height="100" viewBox="0 0 100 100">
  <rect id="Rectangle_284" data-name="Rectangle 284" width="100" height="100" fill="#cd5014"/>
  <g id="Group_382" data-name="Group 382" transform="translate(25.412 25)">
    <path id="Icon_ionic-ios-arrow-forward" data-name="Icon ionic-ios-arrow-forward" d="M31.217,31.187,12.3,12.281a3.558,3.558,0,0,1,0-5.046,3.6,3.6,0,0,1,5.061,0L38.794,28.656a3.567,3.567,0,0,1,.1,4.927L17.372,55.154a3.574,3.574,0,0,1-5.061-5.046Z" transform="translate(8.754 -6.196)" fill="#fff"/>
    <path id="Icon_ionic-ios-arrow-forward-2" data-name="Icon ionic-ios-arrow-forward" d="M31.217,31.187,12.3,12.281a3.558,3.558,0,0,1,0-5.046,3.6,3.6,0,0,1,5.061,0L38.794,28.656a3.567,3.567,0,0,1,.1,4.927L17.372,55.154a3.574,3.574,0,0,1-5.061-5.046Z" transform="translate(-11.246 -6.196)" fill="#fff"/>
  </g>
</svg>
