<svg xmlns="http://www.w3.org/2000/svg" width="28.615" height="24.568" viewBox="0 0 28.615 24.568">
  <defs>
    <style>
      .cls-1 {
        fill: #231f20;
      }

      .cls-1, .cls-2 {
        stroke: #231f20;
        stroke-miterlimit: 10;
      }

      .cls-2 {
        fill: #093e63;
      }
    </style>
  </defs>
  <g id="lesotho" transform="translate(0.539 0.5)">
    <path id="Path_4834" data-name="Path 4834" class="cls-1" d="M504.651,640.114a33.826,33.826,0,0,0-3.607-2.283l-1.416-.8a8.737,8.737,0,0,0-1.918-.925,4.561,4.561,0,0,0-1.142-.137h-.148a7.992,7.992,0,0,0-.913.068,9.781,9.781,0,0,0-1.142.206,6.612,6.612,0,0,0-.8.274,15.38,15.38,0,0,0-1.827.822c-.48.251-.936.559-1.381.845a16.707,16.707,0,0,0-1.416,1.142c-.833.685-1.6,1.438-2.432,2.1s-1.6,1.313-2.375,2-1.4,1.347-2.158,1.964a8.938,8.938,0,0,1-.959.582l-.194.057h-.217a1.518,1.518,0,0,0-1.473,1.142,1.541,1.541,0,0,0,1.073,1.872,2.391,2.391,0,0,0,.571.1h.491l2.192,3.2c.4.582.788,1.142,1.142,1.758a10.277,10.277,0,0,1,1.039,1.827.791.791,0,0,0-.057-.148,10.193,10.193,0,0,0,.422.959,5.605,5.605,0,0,0,1.336,1.724,3.71,3.71,0,0,0,5.286-.057,8.086,8.086,0,0,0,1.781-2.2c.194-.331.377-.662.559-.993a18.28,18.28,0,0,1,1.142-1.929,5.063,5.063,0,0,1,.422-.434l.24-.137a3.548,3.548,0,0,1,.685-.171,18.456,18.456,0,0,1,2.283,0,7.5,7.5,0,0,0,1.6-.125,4.2,4.2,0,0,0,1.324-.537,3.766,3.766,0,0,0,1.142-.925,6.754,6.754,0,0,0,.868-1.461,9.068,9.068,0,0,0,.479-1.2c.1-.354.194-.708.308-1.05a7.792,7.792,0,0,1,.354-1.028,14.512,14.512,0,0,0,.7-1.815,3.526,3.526,0,0,0,.148-1.142,2.923,2.923,0,0,0-.3-1.142,4.967,4.967,0,0,0-1.712-2Z" transform="translate(-479.086 -635.97)"/>
    <path id="lesotho-2" data-name="lesotho" class="cls-2" d="M504.019,643.775c-.331.719-.719,1.4-1,2.146a10.64,10.64,0,0,0-.308,1.027c-.1.354-.217.685-.331,1.039a9.387,9.387,0,0,1-.674,1.244l-.217.217a5.555,5.555,0,0,1-.559.331,4.554,4.554,0,0,1-.651.171,13.857,13.857,0,0,1-2.066-.068,7.688,7.688,0,0,0-1.256,0,4.906,4.906,0,0,0-1.45.308,3.983,3.983,0,0,0-1.324.89,8.371,8.371,0,0,0-1.4,2.283,20.64,20.64,0,0,1-1.5,2.751,6.653,6.653,0,0,1-.845.856,4.968,4.968,0,0,1-.674.4l-.377.114h-.422a3.17,3.17,0,0,1-.468-.137,4.9,4.9,0,0,1-.856-.491,5.5,5.5,0,0,1-.571-.582,6.491,6.491,0,0,1-.651-1.085c-.16-.354-.331-.708-.525-1.05s-.434-.708-.662-1.05-.559-.833-.845-1.256c-.765-1.142-1.541-2.283-2.283-3.425h.057a12.171,12.171,0,0,0,1.084-.811,10.633,10.633,0,0,0,1.142-1.142l1.05-1.142c.365-.377.742-.742,1.142-1.142.765-.753,1.541-1.484,2.283-2.283l1.142-1.21c.365-.354.742-.685,1.142-1a12.332,12.332,0,0,1,1.324-.913,17.078,17.078,0,0,1,1.587-.833,7.055,7.055,0,0,1,1.358-.377,6.843,6.843,0,0,1,1.142,0,2.2,2.2,0,0,1,.365.1,14.2,14.2,0,0,1,1.381.822l1.37.8a36.443,36.443,0,0,1,3.425,2.146,4.861,4.861,0,0,1,.742.708,2.784,2.784,0,0,1,.228.4,1.683,1.683,0,0,0,.091.32v.217A4.565,4.565,0,0,1,504.019,643.775Z" transform="translate(-478.659 -635.749)"/>
  </g>
</svg>
