<svg xmlns="http://www.w3.org/2000/svg" width="44.14" height="42.723" viewBox="0 0 44.14 42.723">
  <defs>
    <style>
      .cls-1 {
        fill: #5e2402;
        stroke: #231f20;
        stroke-miterlimit: 10;
      }
    </style>
  </defs>
  <path id="liberia" class="cls-1" d="M159.056,312.22a11.325,11.325,0,0,0-.479,1.61c-.114.479-.217.97-.308,1.461a6.279,6.279,0,0,1-.126.788.674.674,0,0,0,0,.148c-.628-.068-1.256-.126-1.872-.148h-1.3a7.144,7.144,0,0,1-1.393-.091.939.939,0,0,1-.434-.068,11.781,11.781,0,0,1-1.53-.457,26.337,26.337,0,0,1-4.315-2.671c-.571-.4-1.142-.788-1.747-1.142a14.1,14.1,0,0,1-1.587-1.142c-.822-.662-1.61-1.347-2.432-2.009s-1.747-1.3-2.626-1.952c-.479-.4-.936-.81-1.393-1.244l-1.507-1.507c-.925-.936-1.906-1.838-2.888-2.717-.491-.445-.982-.89-1.438-1.37s-.925-.993-1.381-1.507c-.856-.959-1.632-2-2.489-2.945a9.417,9.417,0,0,0-1.621-1.393,11.124,11.124,0,0,0-1.142-.673c-.4-.217-1.016-.537-1.518-.811a29.975,29.975,0,0,1-3.048-1.884,20.889,20.889,0,0,1-1.621-1.541,1.05,1.05,0,0,0,.32.057,1.141,1.141,0,0,0,.571-.148l.137-.057h0l.114-.057a3.932,3.932,0,0,0,.411-.32l.308-.3.674-.651a16.291,16.291,0,0,1,1.336-1.142l1.142-.879a20.691,20.691,0,0,0,1.621-1.3c.251-.228.491-.479.719-.731a5.81,5.81,0,0,0,1-1.6c.274-.605.5-1.222.753-1.838a5.127,5.127,0,0,1,.331-.605l.091-.091c.445-.285.959-.491,1.427-.753a4.1,4.1,0,0,0,1.427-1.336,5,5,0,0,0,.422-.9,5.527,5.527,0,0,1,.628-1.062,3.025,3.025,0,0,1,.377-.388,1.14,1.14,0,0,1,.274-.16l.411-.114a5.523,5.523,0,0,1,.753,0,13.418,13.418,0,0,1,1.632.354c.605.183,1.142.411,1.781.651a2.877,2.877,0,0,1,1.427,1.142c.205.3.4.582.582.879a8.194,8.194,0,0,1,.993,2.774,3.83,3.83,0,0,1,0,.628c-.1.7-.217,1.381-.308,2.066a6.439,6.439,0,0,0,.08,3.2,3.424,3.424,0,0,0,.685,1.062,4.009,4.009,0,0,0,.605.457,2.865,2.865,0,0,0,.742.32,3.422,3.422,0,0,0,.674.08,2.523,2.523,0,0,0,.811-.137,3.173,3.173,0,0,0,1.2-.765,6.36,6.36,0,0,0,.856-1.2c.137-.228.285-.457.445-.674a6.469,6.469,0,0,1,.479-.491h.091l.388-.114a4.935,4.935,0,0,1,.822,0c.434,0,.856.114,1.29.148h0c.171.32.32.639.479.959s.228.525.342.788l-.068-.16a14.311,14.311,0,0,1,.5,1.644c.126.525.183,1.062.263,1.587a1,1,0,0,1,0-.194,10.9,10.9,0,0,1,.16,2.112,1.992,1.992,0,0,1-.16.548,2.068,2.068,0,0,1-.263.468,11.7,11.7,0,0,1-1.347,1.256,2.637,2.637,0,0,0-.662.8,2.888,2.888,0,0,0-.331,1.142,2.283,2.283,0,0,0,.183.959c.08.171.148.331.24.491a4,4,0,0,0,.422.559,4.09,4.09,0,0,0,.639.616,6.006,6.006,0,0,0,2.763,1.21c.514.1,1.039.183,1.564.251a7.148,7.148,0,0,1,1.553.365,2.7,2.7,0,0,1,.4.217,7.786,7.786,0,0,1,1.039,1.085,7.328,7.328,0,0,1,.582.913c.217.4.411.822.628,1.233l.194.354a5,5,0,0,0,.559.8,6.643,6.643,0,0,0,.525.605c.32.32.651.639.948.982l.148.263a3.635,3.635,0,0,1,.114.377,1.384,1.384,0,0,1,0,.217,16.587,16.587,0,0,1-1.085,3.345A11.363,11.363,0,0,0,159.056,312.22Z" transform="translate(-117.167 -274.069)"/>
</svg>
