<svg xmlns="http://www.w3.org/2000/svg" width="36" height="36" viewBox="0 0 36 36">
  <defs>
    <style>
      .cls-1 {
        fill: #373737;
      }
    </style>
  </defs>
  <path id="linkedIn" class="cls-1" d="M33.4,0H2.6A2.6,2.6,0,0,0,0,2.6V33.4A2.6,2.6,0,0,0,2.6,36H33.4A2.6,2.6,0,0,0,36,33.4V2.6A2.6,2.6,0,0,0,33.4,0ZM12.77,27.211H8.386V14.022H12.77Zm-2.192-14.99h-.029a2.285,2.285,0,1,1,.058-4.557,2.286,2.286,0,1,1-.029,4.557Zm18,14.99H24.193V20.155c0-1.773-.635-2.983-2.221-2.983a2.4,2.4,0,0,0-2.249,1.6,3,3,0,0,0-.144,1.07v7.365H15.2s.057-11.952,0-13.189h4.384V15.89a4.352,4.352,0,0,1,3.951-2.177c2.884,0,5.047,1.885,5.047,5.936Zm0,0" transform="translate(0)"/>
</svg>
