<svg xmlns="http://www.w3.org/2000/svg" width="136" height="30" viewBox="0 0 136 30">
  <g id="Group_466" data-name="Group 466" transform="translate(-490 -521)">
    <text id="LinkedIn" transform="translate(540 543)" fill="#1c5193" stroke="rgba(0,0,0,0)" stroke-width="1" font-size="20" font-family="Poppins-SemiBold, Poppins" font-weight="600"><tspan x="0" y="0">LinkedIn</tspan></text>
    <g id="linkedin-2" data-name="linkedin" transform="translate(490 521)">
      <g id="Group_465" data-name="Group 465" transform="translate(0.586 0.586)">
        <path id="Path_4643" data-name="Path 4643" d="M37.656,10H11.172A1.175,1.175,0,0,0,10,11.172V37.656a1.175,1.175,0,0,0,1.172,1.172H37.656a1.175,1.175,0,0,0,1.172-1.172V11.172A1.175,1.175,0,0,0,37.656,10Zm0,0" transform="translate(-10 -10)" fill="#0274b3" fill-rule="evenodd"/>
        <path id="Path_4644" data-name="Path 4644" d="M85.51,83.755a2.5,2.5,0,1,1-2.5-2.5A2.5,2.5,0,0,1,85.51,83.755Zm0,0" transform="translate(-76.369 -77.075)" fill="#fff" fill-rule="evenodd"/>
        <path id="Path_4645" data-name="Path 4645" d="M86.5,196.75h4.307v13.711H86.5Zm0,0" transform="translate(-82.018 -185.808)" fill="#fff" fill-rule="evenodd"/>
        <path id="Path_4646" data-name="Path 4646" d="M204,192.043v13.711h4.307V197.84a2.358,2.358,0,1,1,4.717,0v7.914h4.307v-8.892a5.108,5.108,0,0,0-9.243-3v-1.817Zm0,0" transform="translate(-192.633 -181.101)" fill="#fff" fill-rule="evenodd"/>
      </g>
      <path id="Path_4647" data-name="Path 4647" d="M22.383,28.828H1.758a.586.586,0,0,1-.586-.586V1.758a.586.586,0,0,1,.586-.586H2.93A.586.586,0,0,0,2.93,0H1.758A1.76,1.76,0,0,0,0,1.758V28.242A1.76,1.76,0,0,0,1.758,30H22.383a.586.586,0,0,0,0-1.172Zm0,0"/>
      <path id="Path_4648" data-name="Path 4648" d="M141.211,0H120.586a.586.586,0,0,0,0,1.172h20.625a.586.586,0,0,1,.586.586V28.242a.586.586,0,0,1-.586.586h-1.172a.586.586,0,0,0,0,1.172h1.172a1.76,1.76,0,0,0,1.758-1.758V1.758A1.76,1.76,0,0,0,141.211,0Zm0,0" transform="translate(-112.969)"/>
      <path id="Path_4649" data-name="Path 4649" d="M73.591,77.432A3.091,3.091,0,1,0,70.5,74.341,3.094,3.094,0,0,0,73.591,77.432Zm0-5.01a1.919,1.919,0,1,1-1.919,1.919A1.921,1.921,0,0,1,73.591,72.422Zm0,0" transform="translate(-66.369 -67.075)"/>
      <path id="Path_4650" data-name="Path 4650" d="M202.8,181.75A5.7,5.7,0,0,0,199.259,183v-.368a.586.586,0,0,0-.586-.586h-4.087a.586.586,0,0,0-.586.586V196.34a.586.586,0,0,0,.586.586h4.307a.586.586,0,0,0,.586-.586v-7.914a1.772,1.772,0,0,1,3.545,0v7.914a.586.586,0,0,0,.586.586h4.307a.586.586,0,0,0,.586-.586v-8.892A5.7,5.7,0,0,0,202.8,181.75Zm4.526,14H204.2v-7.328a2.944,2.944,0,0,0-5.889,0v7.328h-3.135V183.215h2.915v1.231a.586.586,0,0,0,1.059.345,4.522,4.522,0,0,1,8.184,2.657Zm0,0" transform="translate(-182.633 -171.101)"/>
      <path id="Path_4651" data-name="Path 4651" d="M77.086,186.75a.586.586,0,0,0-.586.586v13.711a.586.586,0,0,0,.586.586h4.307a.586.586,0,0,0,.586-.586V187.336a.586.586,0,0,0-.586-.586Zm3.721,13.711H77.672V187.922h3.135Zm0,0" transform="translate(-72.018 -175.808)"/>
      <path id="Path_4652" data-name="Path 4652" d="M80.586,1.172a.586.586,0,0,0,0-1.172h0a.586.586,0,0,0,0,1.172Zm0,0" transform="translate(-75.313)"/>
      <path id="Path_4653" data-name="Path 4653" d="M412.586,492h0a.586.586,0,1,0,.586.586A.586.586,0,0,0,412.586,492Zm0,0" transform="translate(-387.859 -463.172)"/>
    </g>
  </g>
</svg>
