<svg xmlns="http://www.w3.org/2000/svg" width="162.314" height="146.829" viewBox="0 0 162.314 146.829">
  <defs>
    <style>
      .cls-1 {
        fill: #ffeb93;
        stroke: #231f20;
        stroke-miterlimit: 10;
      }
    </style>
  </defs>
  <path id="lybia" class="cls-1" d="M347.26,50.849a4.327,4.327,0,0,0,1.541-1.758,3.518,3.518,0,0,0,.251-.833c0-.228.069-.479.091-.719a5.925,5.925,0,0,0,0-.639c0-.879-.069-1.769-.069-2.649v-1.7c.662.228,1.336.445,1.986.7a42.338,42.338,0,0,0,5.274,2.443,9.372,9.372,0,0,0,3.653,0c.925-.091,1.838-.263,2.751-.4a7.122,7.122,0,0,1,1.393-.069,3.423,3.423,0,0,1,.662.194c.559.263,1.142.594,1.667.856s1.359.559,2.043.822a31.106,31.106,0,0,0,3.859,1.267c1.324.308,2.671.525,3.984.89s2.523.674,3.744,1.142a8.633,8.633,0,0,1,1.016.537,3.892,3.892,0,0,1,.422.445c.137.183.263.377.388.559a3.445,3.445,0,0,1,.285.582c.342.868.605,1.758.925,2.637a14.065,14.065,0,0,0,2.283,4.258,7.994,7.994,0,0,0,.959,1.016A7.729,7.729,0,0,0,387.81,61.5a7.809,7.809,0,0,0,1.633.674.97.97,0,0,0,.947.879l3.082.217a14,14,0,0,1,1.553.137,12.743,12.743,0,0,0,1.393.137,1.05,1.05,0,0,0,.982-.731h.3a16.747,16.747,0,0,1,4.429,1.2c1.461.651,2.877,1.4,4.3,2.146s2.98,1.518,4.441,2.283,2.728,1.678,4.178,2.375a17.123,17.123,0,0,0,2.454,1.016c.81.228,1.621.457,2.443.616a23.968,23.968,0,0,0,2.546.365,7.3,7.3,0,0,0,2.763-.285,10.071,10.071,0,0,0,2.021-.993c.651-.377,1.279-.788,1.906-1.142a18.8,18.8,0,0,0,2.169-1.564c.32-.251.628-.514.913-.788a5.8,5.8,0,0,0,1.518-2.557,8.9,8.9,0,0,0,.274-1.541,7.013,7.013,0,0,0,0-1.2,12.049,12.049,0,0,0-.16-1.438c-.263-1.518-.7-2.991-.982-4.5a7.721,7.721,0,0,1,0-1.359,5.792,5.792,0,0,1,.251-.868,12.447,12.447,0,0,1,1.142-2.032,11.279,11.279,0,0,1,1.37-1.393,6.757,6.757,0,0,1,.845-.559c.4-.205.8-.411,1.21-.605a26.155,26.155,0,0,1,3.356-1.142l1.986-.468c.628-.137,1.267-.274,1.9-.457,1.142-.342,2.386-.708,3.573-1.073a27.571,27.571,0,0,1,3.733-.833c.422,0,.856-.1,1.29-.114a10.378,10.378,0,0,1,1.336,0,10.159,10.159,0,0,1,1.427.4,8.152,8.152,0,0,1,1.393.742,14.84,14.84,0,0,1,1.849,2.123,10.591,10.591,0,0,0,1.142,1.256A6.53,6.53,0,0,0,463.75,52l1.461.3c.571.091,1.142.137,1.724.194.845.08,1.69.148,2.534.251s1.358.205,2.032.342,1.438.354,2.146.571c1.347.411,2.66.89,3.961,1.4a12.937,12.937,0,0,1,2.283,1.256,1.069,1.069,0,0,0,.114.114.354.354,0,0,0-.125.1c-.171.217-.354.422-.548.628a11.418,11.418,0,0,0-.788.879,2.945,2.945,0,0,0-.514,1.381,8.512,8.512,0,0,0-.114,1.324,15.019,15.019,0,0,0,.3,2.58c.137.811.32,1.61.445,2.42a4.838,4.838,0,0,1,0,1.073,7.35,7.35,0,0,1-.445,1.632,8.8,8.8,0,0,1-.559,1.016,7.8,7.8,0,0,0-.422.742,5.3,5.3,0,0,0-.4,1.142,4.007,4.007,0,0,0,.068,1.393,16.852,16.852,0,0,0,.833,3.5c.388,1.142.822,2.283,1.2,3.356.183.548.342,1.142.5,1.655a10,10,0,0,1,.285,1.438c.137,1.336.24,2.683.354,4.03s.217,2.6.3,3.9c.171,2.683.308,5.366.525,7.991.1,1.324.205,2.649.285,3.973s.137,2.671.194,4.007.126,2.728.16,4.1.057,2.717.1,4.076.1,2.865.16,4.292.091,2.717.148,4.076.148,2.58.24,3.87c.1,1.461.206,2.923.285,4.4.16,2.683.32,5.366.514,7.991.1,1.427.205,2.854.32,4.281s.24,2.58.342,3.87c.206,2.683.251,5.377.388,8.06.068,1.484.148,2.957.251,4.441s.205,2.717.331,4.076.24,2.569.342,3.859c.125,1.553.228,3.117.331,4.669s.183,2.82.263,4.235.126,2.728.194,4.1l.069,1.827h-.685q-.765,0-1.541.068h-4.658l-.788.068a5.591,5.591,0,0,0-1.233.228,2.386,2.386,0,0,0-.89.571,2.477,2.477,0,0,0-.514.948,5.356,5.356,0,0,0-.183,1.039c0,.251,0,.514,0,.765v.068a1.142,1.142,0,0,0-.628.491.993.993,0,0,0-.137.662c-.217-.126-.434-.274-.651-.411l-1.4-.913-2.877-1.769c-.913-.571-1.8-1.142-2.706-1.735s-2.032-1.267-3.048-1.884-1.906-1.142-2.888-1.667-2.021-1.062-3.025-1.621-1.952-1.142-2.934-1.678-2.089-1.142-3.151-1.747c-2.078-1.142-4.2-2.169-6.324-3.185-.97-.468-1.929-.9-2.888-1.393l-3.025-1.541c-1.142-.548-2.2-1.073-3.311-1.575s-2.032-.982-3.025-1.507c-2.032-1.05-4.041-2.112-6.1-3.117-1.027-.514-2.066-1.027-3.105-1.518l-3.276-1.484c-1.073-.479-2.112-.982-3.162-1.5s-1.952-1.016-2.957-1.5c-1.45-.7-2.934-1.3-4.407-1.952s-3.208-1.393-4.806-2.078c-.479-.205-.97-.4-1.438-.616s-1.142-.537-1.735-.822c-1-.491-1.986-1.039-2.968-1.575s-2.021-1.085-3.037-1.61a33.855,33.855,0,0,0-3.139-1.427,4.729,4.729,0,0,0-.674-.24,2.067,2.067,0,0,0-.457,0,2.536,2.536,0,0,0-.582.069,3.424,3.424,0,0,0-.742.285c-.171.08-.331.171-.491.263a18.063,18.063,0,0,0-1.632.97l-1.667,1.142a18.264,18.264,0,0,1-2.386,1.461c-1.347.548-2.728.97-4.064,1.507a.925.925,0,0,0-.4.274.742.742,0,0,0-.445,0c-.5.194-1,.377-1.5.594h.126l-.171.068h.126l-.171.068-.217.091h0a18.72,18.72,0,0,0-1.861.913c-.548.308-1.085.616-1.655.89a6.849,6.849,0,0,1-1.279.388h-.308l-.308-.171a6.072,6.072,0,0,1-.537-.548c-.571-.788-1.039-1.644-1.564-2.466a7.181,7.181,0,0,0-1.233-1.518,11.248,11.248,0,0,0-1.564-1.085,14.17,14.17,0,0,0-3.037-1.279c-.97-.308-1.941-.582-2.934-.811s-1.655-.354-2.477-.548-1.632-.388-2.454-.594l-2.591-.628a19.157,19.157,0,0,1-2.957-.89A10.274,10.274,0,0,1,349.2,143.1c-.377-.719-.754-1.438-1.142-2.158-.491-.948-.925-1.941-1.347-2.923v.068l-.057-.126h0c-.194-.445-.377-.89-.582-1.336a4.886,4.886,0,0,0-1.142-1.667,3.139,3.139,0,0,0-1.3-.628,6.423,6.423,0,0,0-.674-.16c-.468-.08-.936-.137-1.4-.194a22.649,22.649,0,0,1-4.9-1.313l-.491-.228a6.145,6.145,0,0,0-.628-.274,3.528,3.528,0,0,0-.97-.16,6.018,6.018,0,0,0-.9.08,6.316,6.316,0,0,1-.81,0h-.194l-.16-.091a5.719,5.719,0,0,1-.582-.594,14.035,14.035,0,0,1-1.336-2.523l-.8-1.964c-.32-.811-.639-1.621-.993-2.42a12.561,12.561,0,0,0-.639-1.233,14.355,14.355,0,0,0-1.142-1.484c-.48-.582-1-1.142-1.484-1.712a8.709,8.709,0,0,1-.822-1.313,5.444,5.444,0,0,1-.171-.616,1.953,1.953,0,0,1,0-.365,1.393,1.393,0,0,1,.057-.205c.069-.126.137-.251.217-.377a3.555,3.555,0,0,1,.365-.354,4.427,4.427,0,0,1,.719-.4c1.381-.525,2.98-.788,3.939-2.009a5.078,5.078,0,0,0,.514-.776,5.8,5.8,0,0,0,.331-.879,5.2,5.2,0,0,0,.16-1.027,4.36,4.36,0,0,0,0-.662,8.949,8.949,0,0,0-.148-1.747c-.16-.936-.388-1.838-.605-2.763s-.422-1.884-.571-2.843a5.867,5.867,0,0,1,0-1.142,8.272,8.272,0,0,1,.331-1.027l.388-.822c.1-.217.205-.434.3-.651a8.631,8.631,0,0,0,.7-4.1,11.416,11.416,0,0,0-.263-1.644c-.171-.685-.388-1.347-.571-2.032A17.853,17.853,0,0,1,330,90.429c-.091-1.313-.114-2.637-.148-3.961a10.622,10.622,0,0,0-.091-1.7c-.091-.559-.08-1.29-.16-1.929a24.239,24.239,0,0,0-.754-4.041,11.292,11.292,0,0,0-.948-2.283,7.593,7.593,0,0,0-.89-1.142l-.514-.639a3.516,3.516,0,0,1-.365-.548h0v-.16h0a3.851,3.851,0,0,1,.308-.3c.251-.183.514-.342.776-.514l.4-.285c.148-.114.3-.228.434-.354a2.854,2.854,0,0,0,.457-.582,2.558,2.558,0,0,0,.263-.605h0l.845-.365c1.21-.468,2.454-.9,3.619-1.484.274-.137.537-.285.8-.445A3.276,3.276,0,0,0,335.319,67a12.548,12.548,0,0,0,.217-1.712v-.845c.057-1.256.091-2.523.08-3.779s-.08-2.42,0-3.63V56.6l.251-.137c.7-.251,1.438-.388,2.146-.582a15.159,15.159,0,0,0,1.986-.7,7.509,7.509,0,0,0,.959-.479,10.451,10.451,0,0,0,1-.7c.5-.4.982-.811,1.473-1.21a7.926,7.926,0,0,1,1.244-.708,12.34,12.34,0,0,0,2.58-1.244Z" transform="translate(-324.023 -41.849)"/>
</svg>
