<svg xmlns="http://www.w3.org/2000/svg" width="87.305" height="152.095" viewBox="0 0 87.305 152.095">
  <defs>
    <style>
      .cls-1 {
        fill: #231f20;
      }

      .cls-1, .cls-2 {
        stroke: #231f20;
        stroke-miterlimit: 10;
      }

      .cls-2 {
        fill: #073304;
      }
    </style>
  </defs>
  <g id="madagascar" transform="translate(0.5 0.534)">
    <path id="madagascar-2" data-name="madagascar" class="cls-1" d="M718.151,508.986a14.208,14.208,0,0,1-.491-1.541,13.935,13.935,0,0,1-.3-1.53c0-.354-.068-.708-.08-1.062v-9.932a22.907,22.907,0,0,0-.263-2.591,11.883,11.883,0,0,0-1.393-3.779c-.308-.582-.616-1.142-.9-1.758a8.429,8.429,0,0,1-.514-1.769,6.575,6.575,0,0,0-1.461-3.242,5.537,5.537,0,0,0-2.66-1.142l-1.142-.263a9.339,9.339,0,0,0-1.256-.228,8.592,8.592,0,0,0-1.21,0,1.073,1.073,0,0,0-1.3.457,3.279,3.279,0,0,0-.206.457,1.749,1.749,0,0,0-.126.548,4.043,4.043,0,0,0,0,.639,14.552,14.552,0,0,0,.057,1.575,23.983,23.983,0,0,1-.1,3,8.266,8.266,0,0,1-.32,1.142,6.043,6.043,0,0,1-.457.8c-.81.925-1.8,1.678-2.6,2.614a12.077,12.077,0,0,0-1.347,1.861c-.32.548-.594,1.142-.948,1.644a3.5,3.5,0,0,1-.411.411,3.2,3.2,0,0,1-.468.285h0c-.571-.16-1.142-.411-1.69-.525a2.112,2.112,0,0,0-1.9.457,2.808,2.808,0,0,0-.559.765,4.227,4.227,0,0,0-.308.879,5.591,5.591,0,0,0-.149,1.564c0,.263,0,.514,0,.776a7.988,7.988,0,0,1,0,1.484v.057l-.171.1-.753.206a3.274,3.274,0,0,0-.868.377,1.849,1.849,0,0,0-.8,1.039,2.133,2.133,0,0,0,0,1.039,2.556,2.556,0,0,0,.582,1.142,6.39,6.39,0,0,0,.8.674,3.724,3.724,0,0,1,.377.354l.137.217.091.331h0l-.16.148c-.491.342-1.016.639-1.507.982s-1.142.868-1.655,1.3a9.3,9.3,0,0,1-1.142.708,2.685,2.685,0,0,1-.491.148,2.077,2.077,0,0,1-.377,0h-.331a4.356,4.356,0,0,0-.536-.08,3.313,3.313,0,0,0-.822,0,3.014,3.014,0,0,0-2.283,1.735,4.442,4.442,0,0,0-.285,1.678l-.069.8a7.794,7.794,0,0,1-.228.993,5.6,5.6,0,0,1-.434.708,6.458,6.458,0,0,1-.856.822l-.114.091a.646.646,0,0,0-.08-.377,5.511,5.511,0,0,0-.365-1.027,2.013,2.013,0,0,0-.365-.457,1.724,1.724,0,0,0-.731-.377,1.69,1.69,0,0,0-1.313.285c-.148.08-.3.194-.434.285l-.845.582-.776.536a6.849,6.849,0,0,0-1.576,1.507,2.969,2.969,0,0,0-.525,1.4c0,.24,0,.479,0,.731v1.2h0l-.1.114a7.416,7.416,0,0,1-.868.217h-.731a12.74,12.74,0,0,1-1.29-.365,7.3,7.3,0,0,0-1.849-.377,3.357,3.357,0,0,0-2.386,1.027c-.422.365-.811.765-1.244,1.142a4.337,4.337,0,0,1-.388.228,5.7,5.7,0,0,1-.868.228,13.752,13.752,0,0,1-1.815,0l-1.838-.114a12.271,12.271,0,0,0-1.587,0,14.5,14.5,0,0,0-1.575.183,5.705,5.705,0,0,0-1.222.4,3.2,3.2,0,0,0-.97.571,4.68,4.68,0,0,0-.559.605,4.87,4.87,0,0,0-.491.936c-.1.263-.205.536-.3.811a11.207,11.207,0,0,0-.4,1.621c-.1.571-.171,1.142-.263,1.712a11.079,11.079,0,0,1-.536,2.283,6.856,6.856,0,0,1-.651,1.21l-.5.685c-.491.605-1,1.2-1.461,1.827a10,10,0,0,0-1.142,2.135,7.491,7.491,0,0,0-.559,2.957c0,1.541.114,3.071.194,4.566.16,3.208.594,6.393,1.05,9.567a1.027,1.027,0,0,0,.057.411c.08.742.16,1.484.171,2.283a22.116,22.116,0,0,1-.126,2.283,21.856,21.856,0,0,1-1.336,4.646c-.6,1.4-1.29,2.751-1.906,4.155s-1.233,2.991-1.849,4.487c-.1.217-.194.434-.285.651a9,9,0,0,1-.776,1.37,15.389,15.389,0,0,1-1.473,1.518c-.411.377-.833.742-1.267,1.084s-1.2.811-1.792,1.221a7.7,7.7,0,0,0-2.078,2.043,8.811,8.811,0,0,0-.822,1.678c-.594,1.427-1.142,2.888-1.678,4.327-.377.822-.811,1.621-1.142,2.455a8.355,8.355,0,0,0-.765,3.482,6.27,6.27,0,0,0,.263,1.655,7.175,7.175,0,0,0,.605,1.507c.468.868,1,1.678,1.541,2.5a16.865,16.865,0,0,1,1.29,2.283,4.864,4.864,0,0,1,.217.8,6.1,6.1,0,0,1,0,.913,17.917,17.917,0,0,1-.582,1.986c-.206.6-.4,1.221-.548,1.838-.08.377-.126.765-.171,1.142a6.429,6.429,0,0,0,0,1.4c.068.445.137.9.251,1.347a6.254,6.254,0,0,0,.308.856,5.254,5.254,0,0,1,.24.856,10.325,10.325,0,0,1-.068,1.575,12.869,12.869,0,0,1-.137,1.473c-.057.491-.1,1.073-.16,1.61s-.068,1.142-.08,1.644a10.4,10.4,0,0,0,.148,1.667,7.524,7.524,0,0,0,.525,1.861,6.116,6.116,0,0,0,.468.9,5.849,5.849,0,0,0,.628.776,4.153,4.153,0,0,0,.776.628,6.4,6.4,0,0,0,1.142.639c.948.4,1.918.708,2.865,1.142a8.449,8.449,0,0,1,1.256.708,14.7,14.7,0,0,1,1.61,1.758c.205.24.411.479.628.708a6.143,6.143,0,0,0,2.112,1.473,5.708,5.708,0,0,0,2.683.342,9.31,9.31,0,0,0,1.256-.217,6.334,6.334,0,0,0,1.416-.571,7.965,7.965,0,0,0,1.05-.7l.776-.605,1.21-.9.525-.365a5.616,5.616,0,0,1,.925-.514c.685-.251,1.393-.457,2.112-.662s1.45-.422,2.169-.651,1.461-.514,2.192-.788a12.273,12.273,0,0,0,6.142-4.441,23.758,23.758,0,0,0,2.283-4.03c.651-1.4,1.324-2.785,1.986-4.178.354-.719.7-1.45,1.05-2.169s.685-1.324,1-2c.685-1.461,1.267-2.957,1.964-4.418s1.313-2.786,1.918-4.2,1.359-3.151,2.021-4.726l-.137.32q1.142-2.74,2.283-5.491c.662-1.644,1.3-3.3,1.964-4.943,1.244-2.877,2.591-5.708,3.961-8.505s3.037-5.845,4.566-8.756c.388-.742.731-1.507,1.142-2.283s.7-1.45,1.039-2.181c.674-1.416,1.37-2.831,2.055-4.247,1.37-2.831,2.8-5.628,4.155-8.471.468-.97.948-1.929,1.393-2.9.24-.525.457-1.039.662-1.575a14.757,14.757,0,0,0,.479-1.575,18.382,18.382,0,0,0,.4-4.258,27.1,27.1,0,0,1,.183-2.888,12.182,12.182,0,0,1,.536-2.2,7.769,7.769,0,0,1,.491-.845c.536-.605,1.21-1.085,1.712-1.724a4.322,4.322,0,0,0,.559-.868c.1-.24.194-.491.285-.731a6.276,6.276,0,0,0,.24-.879,12.749,12.749,0,0,0,.251-2.078,16.463,16.463,0,0,0-.068-1.8c-.091-1.233-.183-2.477-.32-3.722-.057-.605-.137-1.222-.205-1.827a4.212,4.212,0,0,0-.08-1,8.084,8.084,0,0,1,0-1.29,4.293,4.293,0,0,1,.206-.776.645.645,0,0,1,.057-.091v-.069a3.766,3.766,0,0,1,.468-.263,1.6,1.6,0,0,1,.251-.068h.343a2.152,2.152,0,0,1,.388.1l.217.114.126.137a3.51,3.51,0,0,1,.194.354,12.867,12.867,0,0,1,.388,1.484,7.41,7.41,0,0,0,.514,1.541,1.849,1.849,0,0,0,1.473,1.142,1.343,1.343,0,0,0,.525,0l.445-.205.411-.308a4.365,4.365,0,0,0,.331-.32,7.346,7.346,0,0,0,.9-1.244,12.986,12.986,0,0,0,.822-1.518,12.063,12.063,0,0,0,.662-2.158,10.049,10.049,0,0,0,.228-2.021,7.656,7.656,0,0,0-.285-2.032,22.442,22.442,0,0,0-1.2-3.059Z" transform="translate(-633.33 -480.079)"/>
    <path id="madagascar-3" data-name="madagascar" class="cls-2" d="M717.067,514.867a10.489,10.489,0,0,1-.571,2.283,11.809,11.809,0,0,1-1.062,1.941,2.511,2.511,0,0,1-.228.263.287.287,0,0,0,0-.08c-.285-.776-.365-1.61-.616-2.4a3.425,3.425,0,0,0-1.2-1.758,3.572,3.572,0,0,0-1.964-.628,3.5,3.5,0,0,0-2.215.833,3.813,3.813,0,0,0-1.142,2.648,8.214,8.214,0,0,0-.068,1.5,4.861,4.861,0,0,0,.069.993c.148,1.438.251,2.888.377,4.327.057.674.1,1.347.137,2.032a12.552,12.552,0,0,1,0,1.964,7.791,7.791,0,0,1-.354,1.438c-.08.148-.16.3-.251.434a12.811,12.811,0,0,1-1.142,1.142,6.142,6.142,0,0,0-1.667,2.489,13.264,13.264,0,0,0-.7,2.9c-.114.879-.171,1.758-.205,2.649s0,2.021-.126,3.014c-.114.605-.274,1.2-.434,1.792a12.55,12.55,0,0,1-.514,1.381c-.594,1.359-1.256,2.683-1.9,4.018s-1.461,2.843-2.18,4.258c-1.5,2.934-2.922,5.891-4.338,8.87-.685,1.45-1.416,2.9-2.158,4.327s-1.53,2.854-2.283,4.281c-1.473,2.751-2.831,5.571-4.224,8.368-.514,1.039-1,2.078-1.473,3.139s-.856,2.1-1.256,3.162c-.81,2.112-1.655,4.224-2.523,6.313s-1.781,4.178-2.683,6.267c-.457,1.05-.936,2.089-1.438,3.128s-.982,2.226-1.438,3.356c-.1.24-.217.491-.32.742-.434,1.016-.959,2-1.438,3s-1.142,2.283-1.655,3.425c-.263.559-.548,1.142-.811,1.678s-.514,1.142-.788,1.655a20.788,20.788,0,0,1-1.792,2.934c-.262.32-.536.605-.833.9a10.824,10.824,0,0,1-.936.833,9.787,9.787,0,0,1-.833.571c-.354.194-.708.377-1.062.536-.9.331-1.8.674-2.729.959s-1.884.525-2.82.776a15.283,15.283,0,0,0-3.2,1.142c-.274.148-.537.354-.811.536l-.525.388-1.3,1a9.923,9.923,0,0,1-1.61,1.039,5.926,5.926,0,0,1-1.05.274,10.039,10.039,0,0,1-1.016,0,6,6,0,0,1-.605-.171,4.291,4.291,0,0,1-.571-.354,11.8,11.8,0,0,1-1.416-1.507l-.594-.685a8.253,8.253,0,0,0-1.712-1.427,14.319,14.319,0,0,0-2.409-1.142c-.479-.183-.959-.342-1.438-.536a7.245,7.245,0,0,1-.925-.5,5.179,5.179,0,0,1-.571-.308,5.276,5.276,0,0,1-.354-.605,7.8,7.8,0,0,1-.365-1.37,25.2,25.2,0,0,1,.148-4.566c0-.7.091-1.4.114-2.1a5.331,5.331,0,0,0-.228-1.8c-.1-.32-.24-.617-.365-.925a6.089,6.089,0,0,1-.285-.879,5.7,5.7,0,0,1-.125-.639,6.836,6.836,0,0,1,0-1.142,23.981,23.981,0,0,1,.822-2.945c.068-.206.125-.4.183-.605a6.265,6.265,0,0,0,.251-1.838,5.181,5.181,0,0,0-.308-1.667,7.986,7.986,0,0,0-.548-1.142,21.913,21.913,0,0,0-1.438-2.283,18.535,18.535,0,0,1-1.5-2.454,6.11,6.11,0,0,1-.331-1.142,5.257,5.257,0,0,1,0-1.142,8.12,8.12,0,0,1,.434-1.644c.194-.422.4-.845.6-1.267s.422-.936.616-1.4v.091c.308-.765.582-1.541.868-2.283s.525-1.393.811-2.089a11,11,0,0,1,.742-1.4,8.011,8.011,0,0,1,1.05-1.016c.742-.536,1.541-.97,2.283-1.518a24.738,24.738,0,0,0,2.2-1.9,8.687,8.687,0,0,0,1.484-1.929,15.77,15.77,0,0,0,.833-1.849c.342-.845.674-1.69,1.027-2.534.582-1.37,1.21-2.728,1.861-4.076a26.255,26.255,0,0,0,1.7-4.292,17.233,17.233,0,0,0,.537-2.283,21.373,21.373,0,0,0,.24-2.546,13.573,13.573,0,0,0-.091-2.283c-.091-.913-.228-1.815-.365-2.717a7.334,7.334,0,0,0-.114-.856c-.251-2.032-.491-4.076-.594-6.119,0-.993-.068-1.986-.114-2.98l-.069-1.4a19.218,19.218,0,0,1,0-2.146,6.465,6.465,0,0,1,.342-1.222,9.652,9.652,0,0,1,.868-1.575c.16-.228.32-.457.491-.674.354-.445.708-.891,1.039-1.347.16-.217.32-.445.468-.674a8.493,8.493,0,0,0,.753-1.553,9.322,9.322,0,0,0,.525-2.158c.091-.548.16-1.142.24-1.655a13.7,13.7,0,0,1,.708-2.854c.057-.114.114-.228.182-.342l.308-.308.434-.217a6.516,6.516,0,0,1,1.233-.32,27.85,27.85,0,0,1,4.361.171,6.657,6.657,0,0,0,3.425-.445,12.558,12.558,0,0,0,2.215-1.827l.365-.228.251-.068h.263a10.541,10.541,0,0,1,1.667.548,6.466,6.466,0,0,0,.753.251,4,4,0,0,0,1.644.091,5.368,5.368,0,0,0,1.142-.205h.171a2.642,2.642,0,0,0,.7-.343,2.578,2.578,0,0,0,.605-.616,1.918,1.918,0,0,0,.377-.685,12.93,12.93,0,0,0,.217-2.489v-.251a5.927,5.927,0,0,1,.708-.708c.4-.285.822-.537,1.233-.8l.365-.24a3.229,3.229,0,0,1,.08.354,2.374,2.374,0,0,0,.536,1.21,1.725,1.725,0,0,0,.674.457l.194.069a1.143,1.143,0,0,0,.616,0,2.775,2.775,0,0,0,1.142-.411l.468-.3a9.266,9.266,0,0,0,.982-.788,6.585,6.585,0,0,0,.731-.856,5.709,5.709,0,0,0,.742-1.461,8.16,8.16,0,0,0,.32-1.827,5.011,5.011,0,0,1,.069-1v-.171l.126-.126.1-.057h.228a8.786,8.786,0,0,0,1.541.217,3.574,3.574,0,0,0,1.416-.331,5.921,5.921,0,0,0,1.142-.594,22.12,22.12,0,0,0,1.918-1.5,10.124,10.124,0,0,1,.925-.628,9.747,9.747,0,0,0,1.541-1.142,2.116,2.116,0,0,0,.422-.582,2.4,2.4,0,0,0,.251-.959,3.732,3.732,0,0,0-.365-1.61,3.674,3.674,0,0,0-1.141-1.393,3.425,3.425,0,0,0,1.3-.708l.183-.16.354-.468a.694.694,0,0,0,0-.137,1.5,1.5,0,0,0,.171-.445,3.425,3.425,0,0,0,.1-1.142,10.841,10.841,0,0,0-.114-1.21,7.069,7.069,0,0,1,0-1.553,2.973,2.973,0,0,1,.1-.457l.514.171.594.251a3.852,3.852,0,0,0,.616.194,2.773,2.773,0,0,0,1.062,0,3.753,3.753,0,0,0,.7-.3,3.988,3.988,0,0,0,.434-.263,4.763,4.763,0,0,0,1.142-1.142,11.559,11.559,0,0,0,.765-1.142c.24-.4.491-.788.754-1.142a13.225,13.225,0,0,1,1.141-1.142c.388-.377.811-.731,1.21-1.142a8.608,8.608,0,0,0,1.336-1.473,5.7,5.7,0,0,0,.491-1.027,6.535,6.535,0,0,0,.3-.947,11.8,11.8,0,0,0,0-3.642l-.137-1.427.012-.97h.548c.582.1,1.142.251,1.747.411a11.108,11.108,0,0,1,1.244.388l.3.171.205.194c.069.1.114.206.171.308a14.743,14.743,0,0,1,.514,2.283,8.182,8.182,0,0,0,.388,1.6,19.668,19.668,0,0,0,.89,1.929c.274.537.559,1.062.811,1.6a10.71,10.71,0,0,1,.5,1.792,4.269,4.269,0,0,0,.126.731c.08.628.137,1.267.183,1.906s0,1.393.057,2.089c0,1.484.091,2.968.114,4.452a30.839,30.839,0,0,0,.251,4.35,16.451,16.451,0,0,0,.525,2.215,19.947,19.947,0,0,0,.822,2.066,12.222,12.222,0,0,1,.822,2.614,7.986,7.986,0,0,1-.046,1.77Z" transform="translate(-633.068 -479.808)"/>
  </g>
</svg>
