<svg xmlns="http://www.w3.org/2000/svg" width="32.842" height="83.579" viewBox="0 0 32.842 83.579">
  <defs>
    <style>
      .cls-1 {
        fill: #093e63;
        stroke: #231f20;
        stroke-miterlimit: 10;
      }
    </style>
  </defs>
  <path id="malawi" class="cls-1" d="M553.627,454.5a6.582,6.582,0,0,1,1.142.3,8.162,8.162,0,0,1,1.256.651h0a2.272,2.272,0,0,1,.126.228c.3.765.514,1.564.765,2.34s.536,1.587.856,2.363c.616,1.473,1.37,2.877,2.009,4.35a8.053,8.053,0,0,1,.365,1.267,10.494,10.494,0,0,1-.1,2.283q-.126,1.016-.206,2.021c-.114,1.244-.1,2.512-.251,3.756a10.561,10.561,0,0,1-.24,1.142,6.419,6.419,0,0,1-.32,1,17.265,17.265,0,0,1-1.233,2.135,8.563,8.563,0,0,0-1.644,3.493,8.311,8.311,0,0,0,.8,4.406c.32.731.674,1.461,1,2.192.137.365.274.719.388,1.142a9.792,9.792,0,0,1,.228,1.142c.137,1.142.263,2.283.468,3.493s.457,2.283.674,3.425.32,2.169.548,3.242c.057.285.114.571.194.856a9.569,9.569,0,0,0,.731,1.975,9.128,9.128,0,0,0,1.141,1.792,7.216,7.216,0,0,0,1.884,1.484c.833.514,1.69.993,2.512,1.518l.594.365a4.637,4.637,0,0,0,.731.331,1.426,1.426,0,0,0,.617.069,1.817,1.817,0,0,0,.7-.194,1.667,1.667,0,0,0,.662-.594,3.243,3.243,0,0,0,.365-1.142,8.778,8.778,0,0,0,0-.948,5.784,5.784,0,0,0-.16-1.085,12.227,12.227,0,0,0-1.678-3.9,27.845,27.845,0,0,1-1.347-2.512h0a28.032,28.032,0,0,0,1.827,2.42c1.142,1.438,2.386,2.854,3.528,4.315.377.5.765.993,1.142,1.5h0a1.543,1.543,0,0,1-.126-.16l.126.171c.08.1.16.194.228.3h0a1.275,1.275,0,0,0,.114.148h0l.114.148h0v-.057h0a11.317,11.317,0,0,1,1.221,1.884,9.375,9.375,0,0,1,.525,2,12.415,12.415,0,0,1,0,2.763c-.091.959-.194,1.929-.285,2.9s-.217,1.918-.285,2.888a21.3,21.3,0,0,0,0,2.831,9.4,9.4,0,0,1,0,1.393,6.5,6.5,0,0,1-.194.959.468.468,0,0,0-.057.1l-.137.126-.342.183a8.138,8.138,0,0,1-1.576.377l-.936.1a5.89,5.89,0,0,0-1.416.3,4.946,4.946,0,0,0-1.313.731,5.776,5.776,0,0,0-1.062,1.05,5.913,5.913,0,0,0-.731,1.347,9.376,9.376,0,0,0-.525,2.511,17.386,17.386,0,0,0-.069,2.283,5.823,5.823,0,0,0,.08,1.142,9.9,9.9,0,0,1,.1,1.427.355.355,0,0,1,0,.091h-.148a2.273,2.273,0,0,1-.4-.125,6.137,6.137,0,0,1-1.05-.639,9.9,9.9,0,0,1-1.507-1.507,7.431,7.431,0,0,1-.913-1.53,12.556,12.556,0,0,1-.628-2.763,10.641,10.641,0,0,0-.377-1.792,8.388,8.388,0,0,0-1.016-2.021l-.457-.628a8.106,8.106,0,0,1-.788-1.324,6.134,6.134,0,0,1-.343-1.21,3.964,3.964,0,0,1,0-.822,5.244,5.244,0,0,1,.274-1A12.341,12.341,0,0,1,560.865,520a14.5,14.5,0,0,0,.742-1.29,10.174,10.174,0,0,0,.982-3.425,16.307,16.307,0,0,0-.137-3.162c-.057-.537-.114-1.073-.194-1.61a3.558,3.558,0,0,0-.126-.7,4.9,4.9,0,0,0-.262-.788,2.282,2.282,0,0,0-.3-.434,3.623,3.623,0,0,0-.342-.377,3.342,3.342,0,0,0-1-.685,4.238,4.238,0,0,0-.628-.251,2.605,2.605,0,0,0-.674-.114,6.248,6.248,0,0,0-1.381.091,2.588,2.588,0,0,0-.822.137l-1.827.285a8.529,8.529,0,0,1-1.712.08l-.3-.08-.308-.183a4.864,4.864,0,0,1-.479-.491c-.5-.685-.891-1.45-1.324-2.169s-.811-1.29-1.256-1.918a10.274,10.274,0,0,0-1.142-1.393,9.347,9.347,0,0,0-1.359-1.073c-.571-.377-1.142-.742-1.69-1.142a6.436,6.436,0,0,1-.639-.605,5.513,5.513,0,0,1-.422-.708,2.121,2.121,0,0,0-.114-.422,5.783,5.783,0,0,1,0-.891,5.436,5.436,0,0,1,.263-.936,6.88,6.88,0,0,1,.514-.879l.662-.811a6.747,6.747,0,0,0,1.37-2.569,2.728,2.728,0,0,1,.1-.514,6.13,6.13,0,0,0,.08-.753,4.574,4.574,0,0,0,0-.559v-1.244h0l.069-.114a2.481,2.481,0,0,1,.251-.24,11.419,11.419,0,0,1,1.233-.742c.457-.251.913-.491,1.347-.765a5.976,5.976,0,0,0,.685-.514,3.893,3.893,0,0,0,1.05-1.416c.068-.16.126-.331.183-.5a2.768,2.768,0,0,0,.069-.525,1.923,1.923,0,0,0,0-.514,2.8,2.8,0,0,0-.206-.616,6.233,6.233,0,0,0-.674-.982v.057c-.148-.206-.32-.411-.457-.628a6.1,6.1,0,0,1-.377-.719,4.263,4.263,0,0,1-.194-.651,8.864,8.864,0,0,1,.114-1.906c.194-1.359.4-2.717.468-4.087,0-.674.069-1.359.114-2.032V469.31l.057-.1v-.057l.16-.091.628-.228a5.2,5.2,0,0,0,1.233-.742,4.179,4.179,0,0,0,1.587-2.477,4.568,4.568,0,0,0-.16-2c-.091-.3-.217-.594-.331-.879s-.377-.9-.559-1.359a11.681,11.681,0,0,1-.491-1.381c-.126-.445-.217-.89-.308-1.347a13.036,13.036,0,0,0-.285-1.324,4.412,4.412,0,0,0-.285-.731,4.658,4.658,0,0,0-.582-.97c-.24-.331-.5-.651-.776-.959h.274l.833-.08a6.542,6.542,0,0,1,1.815-.08Z" transform="translate(-543.635 -453.974)"/>
</svg>
