<svg xmlns="http://www.w3.org/2000/svg" width="175.178" height="164.987" viewBox="0 0 175.178 164.987">
  <defs>
    <style>
      .cls-1 {
        fill: #5e2402;
        stroke: #231f20;
        stroke-miterlimit: 10;
      }
    </style>
  </defs>
  <path id="mali" class="cls-1" d="M183.642,271.295c.137.776.3,1.53.457,2.283h-.137a5.056,5.056,0,0,0-1.5.171,6.319,6.319,0,0,0-.765.206c-.605.217-1.142.491-1.781.765a5.431,5.431,0,0,1-.936.263h-.491l-.068-.137c-.251-.753-.24-1.69-1-2.158a2.84,2.84,0,0,0-.537-.24,2.938,2.938,0,0,0-.457-.068h-.959l-.936-.194a6.078,6.078,0,0,0-1.142-.114h-.308a4.883,4.883,0,0,0-.7.1,4.705,4.705,0,0,0-.788.308,3.186,3.186,0,0,0-1.142.9,4.362,4.362,0,0,0-.651,1.05c-.091.183-.171.377-.251.559a5.888,5.888,0,0,1-.525.948,3.689,3.689,0,0,1-.422.422,1.6,1.6,0,0,1-.3.183H167.8a5.217,5.217,0,0,1-.559-.171,6.275,6.275,0,0,1-.925-.537l-.3-.228c-.639-.5-1.256-1.05-1.906-1.518a4.781,4.781,0,0,0-.765-.479,1.986,1.986,0,0,0-.616-.217,2.407,2.407,0,0,0-.811,0,1.507,1.507,0,0,0-.5.206,1.746,1.746,0,0,0-.571.548c-.148.206-.263.422-.411.628a4.767,4.767,0,0,1-.411.422,7.7,7.7,0,0,1-1.142.674l-.285-.377c-.194-.24-.411-.457-.616-.7s-.342-.388-.514-.582a4.981,4.981,0,0,1-.4-.674,2.074,2.074,0,0,1-.08-.285,3.321,3.321,0,0,1,0-.674,6.109,6.109,0,0,0,.183-1.644,3.014,3.014,0,0,0-.411-1.29,3.8,3.8,0,0,0-1.062-1.073,5.9,5.9,0,0,0-2.043-.811l.434-.126a6.508,6.508,0,0,0,1.792-.605,1.678,1.678,0,0,0,.571-.559c.057-.114.1-.24.16-.354a1.678,1.678,0,0,0,0-.674,2.169,2.169,0,0,0-.514-.97l-.8-1.016a8.54,8.54,0,0,1-.993-1.553,8.824,8.824,0,0,1-.457-1.952c-.091-.948-.183-1.9-.365-2.831a18.4,18.4,0,0,0-.868-3.128,8.71,8.71,0,0,0-1.21-2.215c-.171-.228-.354-.479-.548-.708a7,7,0,0,0-.993-1.027c-.32-.274-.651-.525-.993-.765a4.406,4.406,0,0,0-1.792-.776,1.254,1.254,0,0,0-.354,0h-.114a1.769,1.769,0,0,0-.753.205,1.621,1.621,0,0,0-.662.639,1.861,1.861,0,0,0-.24.925l.068.548h0a4.431,4.431,0,0,1,0,.674,1.455,1.455,0,0,1-.114.422v.069a12.048,12.048,0,0,1-1.142,1.039l-.9.753a7.065,7.065,0,0,1-.936.571,2.853,2.853,0,0,1-.445.126h-.434l-.3-.08a5.458,5.458,0,0,1-.479-.3c-.331-.263-.639-.548-.97-.822s-.434-.354-.651-.537l-.685-.514a5.173,5.173,0,0,0-1.142-.548,2.923,2.923,0,0,0-2.283,0,5.707,5.707,0,0,0-1.244.9c-.479.411-.833.948-1.313,1.37a3.426,3.426,0,0,1-.434.263l-.3.08h0a.468.468,0,0,1-.126-.08l-.16-.148a13.7,13.7,0,0,1-.719-1.256,5.331,5.331,0,0,0-2.055-2.4l-.445-.194a2.406,2.406,0,0,0-.639-.1l-.445.057a2.845,2.845,0,0,0-.514.205,2.135,2.135,0,0,0-.434.274l-.445.342-1.062.89a4.408,4.408,0,0,1-.742.445,2.365,2.365,0,0,1-.377.114,12.388,12.388,0,0,1,.068-1.587,4.954,4.954,0,0,1,.148-.9,1.016,1.016,0,0,0-.091-.708,1.142,1.142,0,0,0-.148-.183,3.422,3.422,0,0,0,.274-.674,4.817,4.817,0,0,0,.137-1.4q0-.993,0-1.986a10.483,10.483,0,0,0-.137-2.066,5.839,5.839,0,0,0-.137-.97,4.874,4.874,0,0,0-.205-.776,4.349,4.349,0,0,0-1.313-1.986c-.582-.491-1.222-.89-1.838-1.336a4.852,4.852,0,0,1-.548-.537,6.845,6.845,0,0,1-.411-.685,5.912,5.912,0,0,1-.16-.605v-.16a7.987,7.987,0,0,1,.331-1.05,5.387,5.387,0,0,0,.205-.605,4.429,4.429,0,0,0,.091-1.69c-.1-.845-.274-1.678-.411-2.523a12.472,12.472,0,0,1-.091-1.313c0-.537,0-1.142,0-1.632v-2.021a.616.616,0,0,0,.137-.1l.559-.183a4.887,4.887,0,0,0,1.461-.925,4.008,4.008,0,0,0,.525-.639,3.424,3.424,0,0,0,.479-.9,8.15,8.15,0,0,0,.354-1.279c.183-.97.24-1.952.354-2.923a7.487,7.487,0,0,1,.388-1.507,9.715,9.715,0,0,1,.742-1.4,2.545,2.545,0,0,1,.308-.3,5.442,5.442,0,0,1,.719-.388h.183c.126.126.24.263.354.388.388.559.731,1.142,1.073,1.735a14.844,14.844,0,0,0,1.027,1.667,3.779,3.779,0,0,0,1.416,1.233,3.025,3.025,0,0,0,1.142.24,2.933,2.933,0,0,0,1.142-.32c.548-.228,1.062-.491,1.587-.742a8.177,8.177,0,0,1,1.336-.411,3.883,3.883,0,0,1,.731,0c.868.137,1.712.377,2.58.5a9.364,9.364,0,0,0,1.5.16,13.132,13.132,0,0,0,1.5-.08c.925-.08,1.872-.171,2.786-.331s1.792-.354,2.694-.491a16.4,16.4,0,0,1,2.112-.137c.776,0,1.541.091,2.283.16,1.416.126,2.843.183,4.27.32s3.059.32,4.566.445,2.98.16,4.464.251l4.566.274c.753,0,1.507.126,2.283.16h4.35c.708,0,1.553-.08,2.283-.148s1.507-.114,2.283-.16a16,16,0,0,1,2.215,0h.274l.422.057h-.217a22.256,22.256,0,0,0,2.466.24,14.384,14.384,0,0,1,1.975.091l1,.069a3.964,3.964,0,0,0,.639,0,2.444,2.444,0,0,0,.719-.148,2.374,2.374,0,0,0,.776-.445,3.687,3.687,0,0,0,1.05-2.032c.091-.342.16-.7.24-1.039.137-.674.263-1.347.422-2.009s.354-1.267.559-1.884c.126-.342.24-.674.354-1.016l.183-.479a.922.922,0,0,1,.08-.251,3.356,3.356,0,0,0,.148-.765,2.636,2.636,0,0,0,0-.948,3.322,3.322,0,0,0-.331-.868,5.01,5.01,0,0,0-.388-.571c-.217-.3-.445-.571-.674-.856a4.836,4.836,0,0,1-.285-.479,6.4,6.4,0,0,1-.24-.754c-.069-.32-.137-.628-.183-.947a85.851,85.851,0,0,1-.285-8.9c0-3.071-.114-6.13-.08-9.2,0-1.541,0-3.094.068-4.635s.114-3.162.217-4.749.137-3.014.16-4.566.114-3.162.183-4.749c.148-3.014.091-6.039.183-9.053,0-1.541.137-3.071.171-4.566s0-3.082.068-4.566,0-3.231,0-4.84,0-3-.08-4.5c-.16-3.105-.365-6.21-.342-9.327,0-1.53.137-3.048.24-4.566s.148-2.923.148-4.384-.1-2.843-.228-4.27c-.069-.674-.126-1.359-.171-2.032a15.631,15.631,0,0,1-.068-2.066q0-.086,0-.171h0a2.284,2.284,0,0,1,.285-.16,6.623,6.623,0,0,1,.936-.24,11.246,11.246,0,0,1,1.861,0c.788.137,1.553.365,2.34.525s1.781.411,2.671.594a18.175,18.175,0,0,0,3.037.422,16.78,16.78,0,0,0,2.717-.228c.913-.1,1.838-.114,2.751-.308a1.724,1.724,0,0,0,1.073-.845c1.6,1.142,3.174,2.386,4.783,3.528,1.4.982,2.82,1.952,4.19,2.991,1.929,1.53,3.79,3.139,5.56,4.84s3.767,3.676,5.64,5.525c.959.936,1.906,1.884,2.888,2.786s1.929,1.758,2.888,2.637c1.918,1.712,3.859,3.425,5.708,5.24s3.6,3.642,5.4,5.457c.913.925,1.815,1.838,2.74,2.751a33.832,33.832,0,0,0,2.763,2.512c1.964,1.553,4.041,2.957,6.062,4.418l2.957,2.1c.913.674,1.849,1.324,2.751,2a3.633,3.633,0,0,1,.377.342h0a3.867,3.867,0,0,1,.148.628,6.461,6.461,0,0,0,.651,3.014,3.288,3.288,0,0,0,2.283,1.313,8.391,8.391,0,0,1,1.484.32,2.284,2.284,0,0,1,.422.251l.183.183a4.048,4.048,0,0,1,.342.616,17.489,17.489,0,0,0,.616,1.644,3.824,3.824,0,0,0,2.5,1.861c.925.274,1.9.377,2.808.7a4.776,4.776,0,0,1,.571.354c.331.285.651.605.993.89s.571.457.879.674a6.051,6.051,0,0,0,1.587.719,10.726,10.726,0,0,0,1.461.308,11.88,11.88,0,0,1,1.7.388,4.983,4.983,0,0,1,.628.365,4.375,4.375,0,0,1,.32.331,1.6,1.6,0,0,1,.388.89,6.465,6.465,0,0,1,0,1.142c-.183,1.062-.616,2.043-.822,3.082a5.9,5.9,0,0,0-.137,1.267,2.66,2.66,0,0,0,.982,1.918,6.747,6.747,0,0,0,4.258,1.142c1.142,0,2.18-.1,3.276-.194.559,0,1.142-.08,1.667-.1h.217l-.068,1.313c-.068,1.039-.183,2.078-.285,3.128s-.217,2.066-.263,3.105-.08,2.123-.068,3.174,0,1.941.091,2.9.126,1.884.205,2.82.148,1.884.228,2.831.228,2.021.377,3.025a2.675,2.675,0,0,0,0-.3,7.764,7.764,0,0,1,.126,1.621,1.429,1.429,0,0,1-.091.365,1.189,1.189,0,0,1-.205.342c-.32.4-.662.788-.982,1.142a14.426,14.426,0,0,0-.833,1.221,11.3,11.3,0,0,0-.639,1.29,6.252,6.252,0,0,0-.24.582,4.163,4.163,0,0,0-.24,1.142,3.757,3.757,0,0,0,0,1.142c.057.5.148,1,.217,1.507a8.081,8.081,0,0,1,.08,1.393l-.068.228a1.578,1.578,0,0,1-.16.274,2.057,2.057,0,0,1-.217.228,10.972,10.972,0,0,1-1.039.514,5.8,5.8,0,0,0-.536.263,4.328,4.328,0,0,0-.8.582,6.689,6.689,0,0,0-1.142,1.244,7.845,7.845,0,0,1-.719.788,2.624,2.624,0,0,1-.457.263l-.308.08a4.026,4.026,0,0,1-.525,0,16.624,16.624,0,0,1-2.569-.765,7.408,7.408,0,0,0-1.085-.331,8.378,8.378,0,0,0-1.05-.171,4.168,4.168,0,0,0-1.244.091c-.765.126-1.507.342-2.283.491s-1.518.285-2.283.4c-.491.057-.97.114-1.461.126H267.15a25.39,25.39,0,0,0-6.644.354,5.708,5.708,0,0,0-2.9,1.438,5.058,5.058,0,0,0-.8,1.027,12.319,12.319,0,0,0-.605,1.073c-.194.365-.377.788-.594,1.142h0l-.171.091a3.971,3.971,0,0,1-.5.114c-1.05.114-2.1.228-3.151.285-.605,0-1.21.068-1.827.1l-.08-.183a3.9,3.9,0,0,0-1.29-1.678,4.5,4.5,0,0,0-2.043-.731c-.594-.1-1.142-.183-1.792-.251-1.073-.137-2.146-.24-3.231-.331a9.854,9.854,0,0,0-1,0,8.392,8.392,0,0,0-1.507.126,5.629,5.629,0,0,0-1.461.537c-.263.137-.514.285-.776.445-.445.274-.879.582-1.313.879a14.982,14.982,0,0,1-1.313.753c-.982.491-1.964.97-2.957,1.427-.479.228-.97.457-1.438.731s-1,.616-1.484.959-1,.822-1.5,1.244-.822.685-1.244,1.027a9.9,9.9,0,0,1-1.484.993,4.844,4.844,0,0,1-.7.194,14.113,14.113,0,0,1-1.553,0c-.537,0-1.085-.068-1.633-.068a4.4,4.4,0,0,0-1.381.194,3.7,3.7,0,0,0-1.473,1.027,4.145,4.145,0,0,0-.811,1.222q-.171.377-.308.753a6.177,6.177,0,0,1-.559,1.05,1.587,1.587,0,0,1-.24.24,2.663,2.663,0,0,1-.388.228l-.331.091h-1.381a6.271,6.271,0,0,0-1.027.1,3.048,3.048,0,0,0-1.678.982,2.785,2.785,0,0,0-.719,1.438,5.274,5.274,0,0,0,0,1.039,9.782,9.782,0,0,1,0,1.53,2.133,2.133,0,0,1-.091.388l-.137.217h-.411a3.525,3.525,0,0,1-.674-.205,11.473,11.473,0,0,1-1.4-.811,5.126,5.126,0,0,0-2.66-1.062,2.032,2.032,0,0,0-.925.24,1.4,1.4,0,0,0-.32.263,3.594,3.594,0,0,0-.251.331,2.82,2.82,0,0,0-.354,1.427,9.788,9.788,0,0,1-.091,1.632,2.138,2.138,0,0,1-.091.365.855.855,0,0,1-.08.137h0a6.714,6.714,0,0,1-1.142-.068h-.856a6.6,6.6,0,0,0-.822,0,4.721,4.721,0,0,0-.559.08,2.729,2.729,0,0,0-.605.217,1.667,1.667,0,0,0-.719.765,3.425,3.425,0,0,0-.285,1,12.778,12.778,0,0,0-.08,1.872,13.846,13.846,0,0,1-.08,1.69,5.877,5.877,0,0,1-.354,1.313,4.305,4.305,0,0,1-.445.731,2.946,2.946,0,0,1-.365.388,10.275,10.275,0,0,1-1.347.731c-.377.183-.753.365-1.142.525a15.8,15.8,0,0,1-1.872.651,23.481,23.481,0,0,0-2.8.753c-.24.1-.479.217-.708.342a6.263,6.263,0,0,0-.765.559,3.014,3.014,0,0,0-.856,1.233,4.34,4.34,0,0,0-.331,1.416,3.209,3.209,0,0,0,0,.662,9.649,9.649,0,0,0,.171,1.267c.068.331.137.674.194,1.016a6.415,6.415,0,0,1,0,.936,9.36,9.36,0,0,1-.514,1.815,6.229,6.229,0,0,1-.468.856c-.365.434-.788.811-1.142,1.21a5.262,5.262,0,0,0-.422.457,1.838,1.838,0,0,0-.514.913A4.9,4.9,0,0,0,183.642,271.295Z" transform="translate(-118.23 -112.059)"/>
</svg>
