<svg xmlns="http://www.w3.org/2000/svg" width="129.571" height="139.213" viewBox="0 0 129.571 139.213">
  <defs>
    <style>
      .cls-1 {
        fill: #5e2402;
        stroke: #231f20;
        stroke-miterlimit: 10;
      }
    </style>
  </defs>
  <path id="mauritania" class="cls-1" d="M82.889,199.631c.3-.845.582-1.678.868-2.523s.571-1.632.822-2.466c.514-1.724.948-3.425,1.381-5.229.205-.845.411-1.69.571-2.557a23.232,23.232,0,0,0,.32-2.808,17.341,17.341,0,0,0-.114-2.432c-.1-.925-.228-1.849-.354-2.763a21.222,21.222,0,0,1-.3-4.806,8.541,8.541,0,0,1,.411-1.587,15.326,15.326,0,0,1,.811-1.621,18.823,18.823,0,0,0,1.062-2.283,13.049,13.049,0,0,0,.616-2.169c.183-.845.3-1.69.4-2.534a21.06,21.06,0,0,0,.171-2.283,8.425,8.425,0,0,0-.114-1.61,7.809,7.809,0,0,0-.628-1.975,12.809,12.809,0,0,0-1.29-2.1,17.055,17.055,0,0,1-1.279-2.089c-.148-.388-.263-.788-.377-1.142a7.569,7.569,0,0,1-.183-1.016,30.169,30.169,0,0,1-.217-3.037l.183.057a3.859,3.859,0,0,0,1.142.114h.9c.594,0,1.142-.08,1.77-.137a18.15,18.15,0,0,1,3.916-.354,26.192,26.192,0,0,1,2.8.662c.948.251,1.884.514,2.843.753a56.236,56.236,0,0,0,6.313,1.29h-.148l.822.114h.205l2.146.251,2.169.263c1.016.16,2.021.331,3.037.468a16.614,16.614,0,0,0,1.69.171h1.724c1.016,0,2.032-.114,3.037-.171l1.7-.091a7.992,7.992,0,0,0,2.078-.377,3.919,3.919,0,0,0,.5-.217,3.186,3.186,0,0,0,.434-.342,2.283,2.283,0,0,0,.605-.9,6.29,6.29,0,0,0,.251-1.29,11.826,11.826,0,0,0,.1-1.427c0-1.027,0-2.055,0-3.094,0-2.1.091-4.19.205-6.279a15.621,15.621,0,0,1,.137-1.667v-.16h0v-.365h0a7.139,7.139,0,0,1,.16-.833,14.845,14.845,0,0,1,.445-1.541,3.629,3.629,0,0,1,.263-.457,4.569,4.569,0,0,1,.468-.468,3.324,3.324,0,0,1,.514-.3,5.425,5.425,0,0,1,.948-.217l.811-.1a4.506,4.506,0,0,0,1.142-.183,11.972,11.972,0,0,0,2.078-.685,16.963,16.963,0,0,0,3.55-2.066,11.723,11.723,0,0,0,2-1.758c.285-.354.571-.708.833-1.073a9.727,9.727,0,0,0,.811-1.21,4.453,4.453,0,0,0,.377-1.37c.057-.434.114-.868.148-1.3.068-.776.137-1.541.24-2.283s.217-1.541.331-2.283a1.006,1.006,0,0,0,0-.183c.171-1.21.331-2.42.468-3.642.1-.97.171-1.941.251-2.911s.205-2.066.342-3.094c.183-1.393.354-2.8.479-4.2.1-1.142.183-2.409.251-3.619h.046a9.663,9.663,0,0,0,.913.32l.822.217,1.621.445,1.747.5c.548.148,1.142.331,1.644.491a16.792,16.792,0,0,0,3.847.605l1.758.08a16.613,16.613,0,0,1,1.838.148c.616.069,1.541.24,2.283.388a16.267,16.267,0,0,0,2.957.388,13.139,13.139,0,0,0,2.831-.331c.765-.148,1.541-.285,2.283-.4h1.861c.594,0,1.142.057,1.781.1s1.142.126,1.8.194a6.393,6.393,0,0,0,2.751-.148,2.945,2.945,0,0,0,.982-.537,2.809,2.809,0,0,0,.628-.833,5.309,5.309,0,0,0,.525-1.553c.126-.651.228-1.313.308-1.964.16-1.222.194-2.443.251-3.676.057-1.484.217-2.968.342-4.452a12.468,12.468,0,0,1,.126-1.313c.605.525,1.2,1.073,1.769,1.632.925.913,1.838,1.849,2.751,2.774s1.667,1.735,2.546,2.557,1.872,1.678,2.831,2.5c2.032,1.758,4.167,3.425,6.336,5.023,1,.731,2.066,1.381,3.094,2.078l3.242,2.283c1.518,1.027,2.98,2.1,4.429,3.219l-.148-.114c1.142.868,2.283,1.735,3.425,2.58l.651.468-1.747.3-.982.08a7.491,7.491,0,0,1-1.142,0l-2.454-.331c-.731-.1-1.461-.194-2.2-.24s-1.381-.126-2.078-.126h-.137a11.417,11.417,0,0,0-2.706.434,5.708,5.708,0,0,0-1.678.822,2.5,2.5,0,0,0-.9,1.142,3.63,3.63,0,0,0-.251,1.313v2.043a20.1,20.1,0,0,0,.08,2.169c.08.719.091,1.553.114,2.283s0,1.473,0,2.2c0,1.518-.08,3.048-.194,4.566,0,.776-.114,1.541-.137,2.283s0,1.667,0,2.5c0,1.575,0,3.162.114,4.749s.137,3.025.194,4.566,0,3.014,0,4.566v4.76c0,1.587,0,3.105-.068,4.658s-.1,2.991-.137,4.486,0,3.048-.114,4.566-.137,3.059-.228,4.566c-.183,3.105-.16,6.21-.4,9.315s-.331,6.267-.411,9.4-.137,6.119-.148,9.133c0,2.146,0,4.3.08,6.45a26.347,26.347,0,0,0,.342,3.276,6.371,6.371,0,0,0,.8,2.169c.251.388.525.765.742,1.142-.08.4-.171.788-.24,1.142s-.16.936-.228,1.393c-.16.948-.274,1.884-.388,2.831a14.982,14.982,0,0,1-.354,1.758l-.411-.114c-.354-.1-.708-.205-1.062-.285-.674-.16-1.347-.263-2.021-.377a21.266,21.266,0,0,0-4.806-.491,19.035,19.035,0,0,0-2.283.183c-.753.091-1.541.205-2.283.274s-1.507.08-2.283.126l-2.283.126h-4.372c-1.507,0-3,0-4.566.091a40.62,40.62,0,0,1-4.566,0c-1.553-.08-2.991-.068-4.486-.08s-3.242-.148-4.863-.148a9.8,9.8,0,0,0-1.142.1,9.583,9.583,0,0,0-1.5.194c-.776.114-1.541.274-2.283.388a18.247,18.247,0,0,1-2.009.16l-1.142.057a7.768,7.768,0,0,1-.89-.057c-1.45-.251-2.843-.788-4.327-.9a5.56,5.56,0,0,0-1.564.217,7.292,7.292,0,0,0-.845.274c-.571.217-1.142.491-1.69.742l-.342.114h0l-.251-.148c-.148-.137-.285-.285-.422-.434-.559-.822-1.039-1.69-1.575-2.534a7.637,7.637,0,0,0-.913-1.142,2.626,2.626,0,0,0-1.815-.811,2.991,2.991,0,0,0-1.381.445,5.355,5.355,0,0,0-1.05.719,3.573,3.573,0,0,0-.788,1.05c-.114.228-.228.468-.331.708s-.217.525-.32.788a7.465,7.465,0,0,0-.354,1.29,14.171,14.171,0,0,0-.194,1.69,10.207,10.207,0,0,1-.137,1.324,10.021,10.021,0,0,1-.354,1.427c-.091.171-.183.32-.285.479a4.37,4.37,0,0,1-.32.331,4.169,4.169,0,0,1-.616.365l-.32.091a3.733,3.733,0,0,0-.4-.8,4.76,4.76,0,0,0-.868-.993c-.4-.342-.822-.662-1.21-1.016a19.475,19.475,0,0,1-2.123-2.215,26.452,26.452,0,0,1-1.5-2.192,20.886,20.886,0,0,1-1.29-2.454c-.171-.422-.331-.845-.479-1.279s-.365-.993-.571-1.484a9.531,9.531,0,0,0-1.142-2,5.524,5.524,0,0,0-.639-.731,7.235,7.235,0,0,0-.742-.582,8.818,8.818,0,0,0-1-.582,28.4,28.4,0,0,0-2.66-1.142,6.542,6.542,0,0,1-.982-.582,7.672,7.672,0,0,1-1.142-1.222,14.727,14.727,0,0,0-1.29-1.507,6.507,6.507,0,0,0-1.632-1.142,8.1,8.1,0,0,0-1.324-.5c-.354-.114-.708-.228-1.05-.365s-.89-.514-1.347-.765a11.54,11.54,0,0,0-1.724-.742c-.5-.171-1-.331-1.507-.468a13.392,13.392,0,0,0-3.014-.4,27.119,27.119,0,0,0-3.333.126c-1.324.126-2.649.331-3.984.388a19.521,19.521,0,0,1-2.82-.205L82.25,201.3A14.079,14.079,0,0,0,82.889,199.631Z" transform="translate(-81.505 -87.763)"/>
</svg>
