<svg xmlns="http://www.w3.org/2000/svg" width="3.868" height="3.556" viewBox="0 0 3.868 3.556">
  <defs>
    <style>
      .cls-1 {
        fill: #231f20;
      }

      .cls-1, .cls-2 {
        stroke: #231f20;
        stroke-miterlimit: 10;
      }

      .cls-2 {
        fill: #33a02c;
        stroke-width: 0.1px;
      }
    </style>
  </defs>
  <g id="mauritius" transform="translate(2.54 0.684) rotate(60)">
    <path id="Path_5063" data-name="Path 5063" class="cls-1" d="M1.179.571A.654.654,0,0,0,1.032.306.757.757,0,0,0,.937.218,1.724,1.724,0,0,0,.8.114.655.655,0,0,0,.463,0a.4.4,0,0,0-.1,0A.246.246,0,0,0,.188.236a.186.186,0,0,0-.074.1C.089.41.062.484.042.558A1.26,1.26,0,0,0,0,.808a.789.789,0,0,0,.091.433,2.048,2.048,0,0,0,.281.33c.083.118.128.254.206.369a.534.534,0,0,0,.14.149.334.334,0,0,0,.254.043.444.444,0,0,0,.182-.1.369.369,0,0,0,.064-.076.469.469,0,0,0,.054-.124.813.813,0,0,0,.014-.124.673.673,0,0,0,0-.109,1.059,1.059,0,0,0-.023-.159c-.008-.054-.017-.095-.023-.142-.016-.1-.037-.206-.054-.306a1.822,1.822,0,0,1,0-.206A.693.693,0,0,0,1.179.571Z" transform="translate(0 0)"/>
    <path id="Path_5064" data-name="Path 5064" class="cls-2" d="M.975,1.8V1.652L.9,1.693a2.226,2.226,0,0,0-.213-.263A1.752,1.752,0,0,0,.37,1.178a2.445,2.445,0,0,1-.241-.2C.1.947.076.912.055.878A1.122,1.122,0,0,1,.006.722a1.517,1.517,0,0,1,0-.273A2.529,2.529,0,0,1,.149,0H.174L.313.035a2.013,2.013,0,0,1,.352.18L.775.3a.1.1,0,0,0,0,.028h0V.7a2.809,2.809,0,0,0,.082.449A1.966,1.966,0,0,1,.975,1.8Z" transform="translate(0.208 0.308)"/>
  </g>
</svg>
