<svg xmlns="http://www.w3.org/2000/svg" width="122.917" height="83.644" viewBox="0 0 122.917 83.644">
  <defs>
    <style>
      .cls-1 {
        fill: #ffeb93;
        stroke: #231f20;
        stroke-miterlimit: 10;
      }
    </style>
  </defs>
  <path id="morocco" class="cls-1" d="M130.4,89.828a7.465,7.465,0,0,1,1.336-.788,18.505,18.505,0,0,1,4.144-1.027c1-.126,2.009-.194,3.014-.3a8.49,8.49,0,0,0,1.69-.24c.548-.114,1.039-.24,1.541-.388a12.683,12.683,0,0,0,1.587-.616,11.143,11.143,0,0,0,2.283-1.438l2.386-1.941a21.085,21.085,0,0,1,2.9-1.9c1.016-.525,2.089-.936,3.105-1.484s2.1-1.279,3.139-1.941a19.6,19.6,0,0,0,2.923-2.2c.913-.868,1.758-1.781,2.591-2.728.4-.457.776-.936,1.142-1.4s.833-1.039,1.21-1.587a12.957,12.957,0,0,0,.925-1.45,11.57,11.57,0,0,0,.7-1.473,11.8,11.8,0,0,0,.377-1.233c.308-1.142.514-2.283.765-3.425a39.5,39.5,0,0,1,1.541-5.3c.194-.411.388-.822.616-1.222s.548-.948.845-1.416c.537-.89,1.142-1.724,1.667-2.626.263-.468.537-.948.776-1.438s.479-1.039.7-1.564c.457-1.039.845-2.112,1.267-3.162a27.882,27.882,0,0,1,1.222-2.591c.24-.457.491-.89.765-1.324a11.482,11.482,0,0,1,.765-1.073c.251-.308.514-.639.8-.936a14.35,14.35,0,0,1,1.244-1.142,12.183,12.183,0,0,1,1.324-.822,9.877,9.877,0,0,1,.993-.468c.7-.263,1.416-.5,2.123-.776s1.621-.639,2.432-.982l-.3.126c.605-.251,1.233-.5,1.815-.788s1.085-.548,1.621-.845,1.142-.616,1.667-.9,1.142-.5,1.644-.753c1.05-.468,2.043-1.05,3.071-1.564s2.283-1.142,3.311-1.792a23.106,23.106,0,0,0,3.014-2.123,18.746,18.746,0,0,0,2.592-2.534,39.384,39.384,0,0,0,4.2-6.256c.548-1.073,1.062-2.18,1.667-3.231a29.486,29.486,0,0,1,1.907-2.945,7.992,7.992,0,0,1,1.142-1.222,2.627,2.627,0,0,1,.457-.263,7.478,7.478,0,0,1,1.427-.365,5.377,5.377,0,0,1,1.05,0,5.16,5.16,0,0,1,.993.217,6.376,6.376,0,0,1,.753.468,9.062,9.062,0,0,1,.993.993c.3.331.571.7.868,1.027a12.315,12.315,0,0,0,1.016,1.027A8.14,8.14,0,0,0,224.064,15a22.969,22.969,0,0,0,2.843,1.142,13.288,13.288,0,0,0,3.2.674,1.126,1.126,0,0,0,1.1-.822h1.4l.7.068h1.792c1.655.228,3.311.457,4.989.582.571,0,1.142.08,1.735.1,1.05.1,2.123.16,3.174.3l1.507.217h.354l.377.068c.114.377.217.765.331,1.142a1.77,1.77,0,0,0,.171.525c.057.171.171.548.285.811.388.97.8,1.918,1.222,2.877a7.9,7.9,0,0,1,.468,1.69,35.722,35.722,0,0,1-.068,4.943c0,.822,0,1.632,0,2.454a21.259,21.259,0,0,1-.08,2.283,17.256,17.256,0,0,1-.616,2.283c-.137.434-.274.856-.4,1.3a3.141,3.141,0,0,0-.1.571,4.028,4.028,0,0,0,0,1.05,6.028,6.028,0,0,0,.525,1.587c.731,1.632,2.135,2.854,2.9,4.464a6.509,6.509,0,0,1,.32,1.142,3.671,3.671,0,0,1,0,.708,1.758,1.758,0,0,1-.114.4c-.16.331-.365.639-.525.959a7.32,7.32,0,0,0-.445,1.142l-.285.08a4.945,4.945,0,0,1-.708,0,11.417,11.417,0,0,1-2.021-.605q-.833-.308-1.712-.548c-1.142-.3-2.283-.605-3.425-.8q-.97-.171-1.952-.274a3.52,3.52,0,0,1-.845-.068,5.16,5.16,0,0,0-.936,0,9.374,9.374,0,0,0-1.142.206,6.315,6.315,0,0,0-.97.377,4.3,4.3,0,0,0-1.142.765,6.941,6.941,0,0,0-.925,1.073c-.183.251-.354.5-.525.765s-.5.788-.776,1.142a5.707,5.707,0,0,1-.685.7,8.449,8.449,0,0,1-1.142.616,9.316,9.316,0,0,1-2.009.537l-1.142.126-.605.08a3.653,3.653,0,0,0-.845.274,4.354,4.354,0,0,0-.639.354,3.929,3.929,0,0,0-.468.4,3.093,3.093,0,0,0-.411.525,4.292,4.292,0,0,0-.491.936,3.858,3.858,0,0,0-.217.811,3.541,3.541,0,0,0,0,.982,4.165,4.165,0,0,0,.091.628c.068.445.194.879.274,1.336v.342a2.283,2.283,0,0,1-.091.3,2.357,2.357,0,0,1-.171.285,1.38,1.38,0,0,1-.183.183l-.331.194a5.709,5.709,0,0,1-.993.24l-1.53.171a11.017,11.017,0,0,0-1.918.4A17.89,17.89,0,0,0,216.8,63.7c-1.142.605-2.2,1.142-3.333,1.747l-.662.342a10.411,10.411,0,0,0-1.621,1.016,12.378,12.378,0,0,0-1.518,1.381l-.753.822a9.443,9.443,0,0,1-1.142,1.142,7.785,7.785,0,0,1-1.3.765,9.727,9.727,0,0,1-1.975.457,15.558,15.558,0,0,0-1.906.171c-.639.08-1.553.183-2.34.308a12.363,12.363,0,0,0-1.941.479,6.85,6.85,0,0,0-1.735.845c-.308.205-.594.434-.879.662a5.286,5.286,0,0,1-.868.548,3.687,3.687,0,0,1-.674.183,6.724,6.724,0,0,1-1.267,0c-.936-.137-1.849-.377-2.774-.525a7.021,7.021,0,0,0-1.381-.16,8.1,8.1,0,0,0-1.039.137,8.815,8.815,0,0,0-.948.228,10.548,10.548,0,0,0-2.42,1.142c-.434.251-.845.571-1.256.868l-1.142.833c-.411.285-.822.548-1.244.8a10.972,10.972,0,0,1-1.267.639l-1.61.685a15.674,15.674,0,0,0-1.655.925,11.62,11.62,0,0,0-1.678,1.393,7.2,7.2,0,0,0-2.043,3.824c-.263,1.142-.468,2.409-.708,3.607s-.5,2.283-.719,3.425v.171a3.869,3.869,0,0,0-.514,0H167.6c-.662,0-1.393-.126-2.1-.194s-1.359-.126-2.032-.205c-2.078-.308-4.121-.845-6.2-1.2l-1.507-.217c-.639-.091-1.267-.183-1.906-.251A25.809,25.809,0,0,0,150.6,90.4a60.689,60.689,0,0,0-6.6.354c-1.073.114-2.158.171-3.242.274s-2.18.263-3.276.32a21.487,21.487,0,0,1-3.208,0,16.482,16.482,0,0,1-2.283-.639c-.559-.194-1.142-.422-1.644-.651Z" transform="translate(-129.782 -9.447)"/>
</svg>
