<svg xmlns="http://www.w3.org/2000/svg" width="144.473" height="127.725" viewBox="0 0 144.473 127.725">
  <defs>
    <style>
      .cls-1 {
        fill: #093e63;
        stroke: #231f20;
        stroke-miterlimit: 10;
      }
    </style>
  </defs>
  <g id="namibia" transform="translate(0.5 0.5)">
    <path id="namibia-2" data-name="namibia" class="cls-1" d="M394.068,650.47l-.571-.719c-.479-.628-.959-1.244-1.45-1.861s-.936-1.142-1.4-1.69c-.571-.742-1.142-1.507-1.667-2.283s-1.256-1.69-1.884-2.534-1.244-1.724-1.815-2.626a18.363,18.363,0,0,1-1.416-2.8c-.445-1.142-.845-2.2-1.3-3.288s-.982-2.18-1.461-3.276c-.788-1.918-1.473-3.87-2.135-5.845a53.133,53.133,0,0,1-1.575-6.519c-.411-2.032-.685-4.1-1.016-6.153-.183-1.142-.377-2.18-.571-3.265s-.388-2.283-.605-3.425c-.411-2.283-.948-4.464-1.3-6.724-.126-1-.205-2.021-.24-3.037s-.069-1.986-.114-2.979-.114-2.066-.194-3.105A23.549,23.549,0,0,0,372.9,585a18.27,18.27,0,0,0-1.142-3.265c-.205-.457-.422-.913-.662-1.347l-.8-1.438c-.5-.97-.993-1.952-1.473-2.934s-.959-1.849-1.438-2.774a21.464,21.464,0,0,0-1.621-2.751c-.628-.868-1.279-1.735-1.906-2.614s-1.244-1.769-1.9-2.648-1.324-1.735-1.941-2.637-1.142-1.8-1.747-2.728l-1.758-2.9c-.571-.948-1.142-1.884-1.69-2.843s-1.062-1.838-1.621-2.74c-1.393-2.283-2.728-4.566-4.064-6.85-.32-.548-.651-1.142-.982-1.621a17.469,17.469,0,0,1-1.027-1.872c-.32-.639-.571-1.142-.856-1.724s-.479-.993-.708-1.507a15.356,15.356,0,0,1-.628-1.9c-.16-.685-.308-1.37-.422-2.078-.205-1.872-.24-3.756-.263-5.708v-.114l2.466.365c1.039.137,2.078.308,3.117.434a3.424,3.424,0,0,0,1.564-.182c.308-.114.628-.251.936-.4l1.336-.651c.457-.24.9-.491,1.347-.742s1.039-.685,1.6-.959a3.273,3.273,0,0,1,.445-.125h.3a6.321,6.321,0,0,1,1,.3c.651.3,1.29.639,1.918,1s1.142.674,1.712,1.062c.24.16.479.331.731.479a7.654,7.654,0,0,0,1.142.559,9.26,9.26,0,0,0,1.907.525c.731.137,1.473.217,2.215.285,1.313.1,2.626.148,3.939.251l1.906.194.97.091a13.189,13.189,0,0,0,2.123,0c1.142-.068,2.283-.217,3.356-.377l3.082-.434c1.256-.16,2.512-.285,3.767-.331s2.671-.068,4.007-.1c2.66,0,5.308-.16,7.991-.194H412.06a9.086,9.086,0,0,1,1.381.126,3.938,3.938,0,0,1,.822.206,3.266,3.266,0,0,1,.434.251,5.329,5.329,0,0,1,.5.514c.479.639.925,1.29,1.381,1.941.3.422.628.822.959,1.21a4.429,4.429,0,0,0,2.283,1.587,8.5,8.5,0,0,0,2.637,0,10.013,10.013,0,0,0,1.53-.194l2.74-.434c1.518-.183,3.048-.331,4.566-.491l2.283-.228a13.815,13.815,0,0,1,2.569-.08,3.743,3.743,0,0,1,1.2.445l.753.468a9.962,9.962,0,0,0,1.769.822,8.655,8.655,0,0,0,1.781.445,11.936,11.936,0,0,0,2.021.137,34.651,34.651,0,0,0,3.55-.308c1.176-.126,2.512-.32,3.767-.491h-.274l1.781-.24c1.21-.16,2.432-.285,3.653-.411s2.637-.251,3.939-.468l1.735-.331,1.77-.285c.97-.16,1.941-.32,2.888-.548a5.388,5.388,0,0,0,.913.582,1.141,1.141,0,0,0,.582.149,1.291,1.291,0,0,0,.571-.148l.514-.068a8.132,8.132,0,0,0,1.381-.342c.548-.194,1.073-.445,1.6-.674l1.279-.582a8.579,8.579,0,0,1,1.747-.537,15.092,15.092,0,0,0,1.747-.068c.605-.069,1.062-.069,1.6-.114a14.6,14.6,0,0,1,2.911.148l1.439.217,1.336.171a6.206,6.206,0,0,1,1.027.285,3.165,3.165,0,0,1,.628.377,4.893,4.893,0,0,1,.639.548,9.417,9.417,0,0,1,.639.708l.365.514-.731.171a9.452,9.452,0,0,0-1.564.559,11.517,11.517,0,0,0-2.34,1.575,8.333,8.333,0,0,1-1.233.833l-.308.08h-.057a3.868,3.868,0,0,1-.936-.228,6.563,6.563,0,0,0-1.244-.194,4.925,4.925,0,0,0-1,0l-1.142.171-.468.08a6.117,6.117,0,0,0-1.244.411,4.873,4.873,0,0,0-1.142.651c-.206.16-.4.343-.594.525-.48.457-.9.97-1.4,1.393a5.578,5.578,0,0,1-.662.388l-.308.08h-.331a3.625,3.625,0,0,1-.5-.148l-.24-.137a4.352,4.352,0,0,1-.32-.331,12.954,12.954,0,0,1-.97-1.621c-.171-.32-.331-.651-.5-.959a2.385,2.385,0,0,0-.811-.936,2.282,2.282,0,0,0-1.142-.365,11.786,11.786,0,0,0-2.2.183c-.617.091-1.233.194-1.849.331-1.256.3-2.523.559-3.779.833l-1.884.445c-.628.148-1.267.263-1.906.377-1.062.171-2.112.388-3.162.605s-2.169.388-3.265.582l-3.242.571c-1.324.217-2.66.422-4,.605h-.091a.856.856,0,0,0-.822.616,6.115,6.115,0,0,0-.205.879,7.644,7.644,0,0,0-.1,1.016,14.32,14.32,0,0,1-.068,1.712c0,1.142,0,2.283-.068,3.356q0,3.665-.08,7.34v7.021c0,2.432-.114,4.852-.217,7.283-.057,1.575-.16,3.139-.24,4.715l-.1,2.226c0,.731-.08,1.45-.148,2.18a7.23,7.23,0,0,1-.24.982,6.326,6.326,0,0,1-.925.194c-1.073.125-2.158.183-3.242.285a31.848,31.848,0,0,0-3.607.491,7.483,7.483,0,0,0-1.4.377,3.54,3.54,0,0,0-1.838,1.461,3.619,3.619,0,0,0-.354,1.142,6.311,6.311,0,0,0-.126,1.027v3.47c0,1.256,0,2.512.08,3.756s.114,2.489.16,3.733c.1,2.386.091,4.783.1,7.169s0,4.829.08,7.249c0,1.244.091,2.489.148,3.733s.137,2.283.171,3.425.08,2.58.114,3.87.091,2.283.114,3.493,0,2.489,0,3.745-.091,2.283-.137,3.425,0,2.18,0,3.276l.068,3.425c0,1.05.069,2.1.148,3.151l.126,1.724a12.94,12.94,0,0,1,0,2.4,9.8,9.8,0,0,1-.479,2c-.069.148-.148.285-.228.422a2.919,2.919,0,0,1-.377.377,9.542,9.542,0,0,1-1.541.833c-.525.24-1.039.48-1.553.742s-1.142.594-1.655.9-1.142.571-1.655.833a10.342,10.342,0,0,1-1.827.594,7.6,7.6,0,0,1-1.347,0,20.126,20.126,0,0,1-2.18-.5c-.7-.205-1.37-.445-2.078-.616a7.546,7.546,0,0,0-1.827-.308h-1.142a16.946,16.946,0,0,1-2.283,0,7.64,7.64,0,0,1-1.5-.411,9.919,9.919,0,0,1-1.758-1.073,4.571,4.571,0,0,1-.537-.514,3.484,3.484,0,0,1-.32-.571,16.786,16.786,0,0,0-.9-2.078,8.636,8.636,0,0,0-.651-.9,4.748,4.748,0,0,0-1.221-1.142,3.049,3.049,0,0,0-2.146-.3,4.1,4.1,0,0,0-1.61.628,3.254,3.254,0,0,0-.833.891,5.339,5.339,0,0,0-.4.81c-.354.811-.582,1.655-.9,2.477a4.7,4.7,0,0,1-.422.7A5.367,5.367,0,0,1,394.068,650.47Z" transform="translate(-344.26 -525.75)"/>
  </g>
</svg>
