<svg xmlns="http://www.w3.org/2000/svg" width="169.407" height="127.399" viewBox="0 0 169.407 127.399">
  <defs>
    <style>
      .cls-1 {
        fill: #5e2402;
        stroke: #231f20;
        stroke-miterlimit: 10;
      }
    </style>
  </defs>
  <path id="niger" class="cls-1" d="M376.13,238.951c.16.582.32,1.142.468,1.769l-.114-.057a2.284,2.284,0,0,0-.731-.194,1.211,1.211,0,0,0-.285,0,4.874,4.874,0,0,0-.913.114,3.336,3.336,0,0,0-.8.171,14.73,14.73,0,0,0-1.564.514,34.008,34.008,0,0,0-3.276,1.507,28.973,28.973,0,0,0-2.8,1.7c-.445.3-.879.628-1.336.9a9.362,9.362,0,0,1-1.37.742,10.756,10.756,0,0,1-1.769.5,5.5,5.5,0,0,1-.868,0,5.138,5.138,0,0,1-.993-.274c-.845-.4-1.633-.9-2.454-1.347a7.99,7.99,0,0,0-1.632-.639,7.479,7.479,0,0,0-1.507-.205,9.41,9.41,0,0,1-1.381-.068c-1.986-.068-3.984-.171-5.971-.422-.559-.068-1.142-.16-1.667-.217a11.415,11.415,0,0,0-1.644-.114,11.584,11.584,0,0,0-1.884.194,16.98,16.98,0,0,0-1.667.422,7.661,7.661,0,0,0-3.082,1.872c-.377.377-.742.776-1.142,1.142s-.674.833-1.039,1.233a5.83,5.83,0,0,1-.537.525c-.308.228-.617.434-.936.651a1.038,1.038,0,0,0-.422-.091h0l-.514-.08h-.148c-1.142-.16-2.283-.32-3.425-.445-.582-.068-1.142-.148-1.769-.205s-1.05-.068-1.575-.126a3.581,3.581,0,0,1-.833-.16,7.693,7.693,0,0,1-1.142-.331c-1.016-.468-2-1.027-2.98-1.541l-1.53-.811c-.548-.3-1.142-.605-1.667-.856a15.135,15.135,0,0,0-1.518-.616,7.5,7.5,0,0,0-2.135-.32,6.312,6.312,0,0,0-.811,0,8.262,8.262,0,0,0-1.3.148c-.422.068-1.142.205-1.747.342a12.121,12.121,0,0,0-1.986.719l-.753.32a4.489,4.489,0,0,1-.753.251h-.514a4.076,4.076,0,0,1-.753-.205,7.726,7.726,0,0,1-1.256-.742,14.843,14.843,0,0,1-1.461-1.6,8.711,8.711,0,0,0-1.564-1.4,19.03,19.03,0,0,0-3.6-1.747c-1.142-.468-2.352-.89-3.55-1.267s-2.443-.7-3.665-1.027c-.833-.217-1.644-.537-2.5-.674a5.6,5.6,0,0,0-.616,0,4.322,4.322,0,0,0-.925.1,5.273,5.273,0,0,0-.685.217l-1.142.445-2.283.9c-.765.32-1.507.651-2.283.982a23.146,23.146,0,0,1-2.283.719,8.391,8.391,0,0,0-3.528,1.541,2.866,2.866,0,0,0-.48.628,4.232,4.232,0,0,0-.32.7,5.628,5.628,0,0,0-.342,1.438c0,.388-.08.776-.091,1.142a12.906,12.906,0,0,1-.137,2.283,1.4,1.4,0,0,1-.091.605,8.942,8.942,0,0,1-.468,1.7,4.8,4.8,0,0,1-.331.582,3.212,3.212,0,0,1-.4.388,7.355,7.355,0,0,1-1.5.753,3.128,3.128,0,0,0-1.3.959,3.916,3.916,0,0,0-.479.982,12.558,12.558,0,0,0-.536,2.5c-.091.582-.137,1.142-.183,1.758a6.118,6.118,0,0,0-.833-.8l-.845-.685-1.438-1.142a15.112,15.112,0,0,1-1.3-1.222c-.434-.468-.856-.959-1.279-1.438a13.448,13.448,0,0,0-1.21-1.336c-.217-.194-.434-.365-.662-.537a3.653,3.653,0,0,0-2.2-.662h-.354a17.64,17.64,0,0,0-2.169.285l-1.336.16-.651.08h-.183a2.284,2.284,0,0,0-.491-.639,2.786,2.786,0,0,0-1.952-.731,4.417,4.417,0,0,0-1.027.1l-.765.148a3.684,3.684,0,0,1-.5,0,4.559,4.559,0,0,1-.651-.183,8.569,8.569,0,0,1-1.222-.788l-1.05-.753c-.616-.434-1.233-.868-1.849-1.324a7.578,7.578,0,0,1-1.039-.97,4.374,4.374,0,0,1-.251-.445,1.948,1.948,0,0,1-.1-.342v-.1a2.011,2.011,0,0,1,.16-.263,5.462,5.462,0,0,1,.514-.514,2.032,2.032,0,0,0,.7-.879,1.644,1.644,0,0,0,.091-.582,1.3,1.3,0,0,0-.194-.639,2.283,2.283,0,0,0-.776-.765l-.422-.228-.845-.422c-.514-.251-1.027-.514-1.507-.811s-.925-.594-1.359-.913a8,8,0,0,1-1.062-1,2.717,2.717,0,0,1-.205-.342,2.431,2.431,0,0,1-.148-.491v-1.142a2.945,2.945,0,0,0-.594-1.518c-.377-.525-.8-1-1.142-1.507a4.247,4.247,0,0,1-.434-.731,8.678,8.678,0,0,1-.377-1.393,8.161,8.161,0,0,1-.08-1.29,14.646,14.646,0,0,1,.126-1.575,12.171,12.171,0,0,0,.1-1.575h0c1.142-.057,2.34-.114,3.5-.205l1.267-.091a3.664,3.664,0,0,0,1.313-.3,2.6,2.6,0,0,0,.7-.525,2.864,2.864,0,0,0,.365-.525,23.123,23.123,0,0,1,1.313-2.158,3.424,3.424,0,0,1,.445-.457,4.843,4.843,0,0,1,.822-.457,10.423,10.423,0,0,1,1.941-.457c.457,0,.913-.114,1.37-.126s1.142,0,1.678,0c1.142,0,2.169.068,3.265.1l1.61.057h1.518a23.784,23.784,0,0,0,3.425-.32c.708-.126,1.4-.251,2.1-.411s1.279-.388,1.929-.514h.594c1.221.228,2.386.7,3.6.959a5.149,5.149,0,0,0,1.324.1,3.526,3.526,0,0,0,.594-.08,2.9,2.9,0,0,0,.742-.274,4.475,4.475,0,0,0,1.575-1.347c.194-.228.365-.468.571-.685a6.352,6.352,0,0,1,.571-.537,8.586,8.586,0,0,1,1.29-.662,3.87,3.87,0,0,0,1.142-.788,3.333,3.333,0,0,0,.422-.548,3.427,3.427,0,0,0,.342-.754,3.769,3.769,0,0,0,.1-.719,3.975,3.975,0,0,0,0-.639,2.872,2.872,0,0,0-.08-.822c-.08-.274-.1-.765-.16-1.142a5.887,5.887,0,0,1,0-1.267,3.877,3.877,0,0,1,.228-.788,12.136,12.136,0,0,1,1.233-2.192c.285-.342.571-.674.868-1l.263-.308a3.2,3.2,0,0,0,.559-.948,3.893,3.893,0,0,0,.228-1.849c-.1-1.142-.263-2.169-.365-3.265s-.148-2.1-.228-3.139-.137-2.2-.183-3.311-.057-2.146,0-3.219v-1.484a11.518,11.518,0,0,1,.069-1.53c.16-2.123.4-4.235.365-6.37v-.868a1.016,1.016,0,0,0,.331-.365c2.5-.24,4.989-.468,7.478-.753,1.438-.16,2.877-.343,4.292-.594l2.032-.331a7.033,7.033,0,0,0,2.078-.571l.388-.194a5.047,5.047,0,0,0,.868-.7c.24-.24.479-.479.7-.731.5-.571.993-1.142,1.473-1.758s.993-1.359,1.473-2.066.868-1.359,1.347-2.009a20.31,20.31,0,0,1,2.98-2.8l.605-.434,1.016-.628c.616-.342,1.233-.685,1.838-1.05,1.21-.731,2.454-1.4,3.7-2.089s2.477-1.427,3.722-2.146c.594-.342,1.142-.685,1.758-1.039s1.142-.765,1.7-1.142c1.142-.822,2.42-1.553,3.642-2.283s2.352-1.438,3.573-2.089,2.58-1.324,3.8-2.089,2.283-1.587,3.425-2.283l3.767-2.158c1.244-.708,2.512-1.381,3.779-2.032s2.546-1.3,3.79-2.009c.571-.32,1.142-.7,1.667-1.05l1.8-1.142c1.073-.742,2.089-1.541,3.094-2.352l2.18-1.644c.765-.582,1.53-1.142,2.283-1.747a17.891,17.891,0,0,1,2.283-1.347c.788-.4,1.553-.833,2.34-1.2a4.887,4.887,0,0,1,.491-.16c.3-.08.571-.194.868-.285a1.3,1.3,0,0,0,.662-.434.765.765,0,0,0,.411.16c.514.263,1.05.491,1.6.708a15.377,15.377,0,0,0,1.861.605c1.039.251,2.089.491,3.128.753s1.975.5,2.968.731,2.1.445,3.128.742a38.514,38.514,0,0,1,3.722,1.256,13.7,13.7,0,0,1,2.34,1.279,7.992,7.992,0,0,1,1.085,1.142c.434.571.833,1.142,1.256,1.724a5.41,5.41,0,0,0,1.587,1.553,2.386,2.386,0,0,0,1.45.3,7.663,7.663,0,0,0,1.016-.217,10.723,10.723,0,0,0,2.192-.959c.628-.354,1.267-.662,1.929-.959l.685-.274c.183,1.039.377,2.089.559,3.128s.388,2.34.559,3.516.377,2.34.605,3.5c.114.582.251,1.142.388,1.724a15.666,15.666,0,0,0,.457,1.587,11.516,11.516,0,0,0,1.324,2.717c.32.457.662.89,1.016,1.324s.594.7.879,1.062a3.16,3.16,0,0,1,.377.628,5.853,5.853,0,0,1,.228.879,14.152,14.152,0,0,0,.354,2.865,8.562,8.562,0,0,0,.594,1.37,10.57,10.57,0,0,0,.559.993,33.554,33.554,0,0,1,2.283,3.87,3.571,3.571,0,0,1,.183.594,4.875,4.875,0,0,1-.365,2.146l-.548,1.347a9.007,9.007,0,0,1-.879,1.632c-.354.445-.719.89-1.039,1.37a8.677,8.677,0,0,0-.525.89,6.622,6.622,0,0,0-.605,1.667c-.126.548-.205,1.142-.285,1.678s-.183,1.142-.263,1.792q-.24,1.8-.342,3.63a29.063,29.063,0,0,0,0,3.6c0,1.815.148,3.63.228,5.445a38.013,38.013,0,0,1-.183,5.468,8.64,8.64,0,0,1-.194,1.062,7.529,7.529,0,0,1-.285.856,8.062,8.062,0,0,1-.731,1.244q-.422.605-.822,1.233c-.537.845-1.073,1.678-1.667,2.489a16.038,16.038,0,0,1-2.18,2.283c-.4.3-.822.571-1.233.868s-1.027.765-1.53,1.142a23.284,23.284,0,0,0-2.443,2.42,12.056,12.056,0,0,0-2.683,4.566,14.377,14.377,0,0,0-.514,1.644c-.1.479-.16.97-.251,1.461a11.48,11.48,0,0,1-.571,2.215c-.16.342-.32.685-.491,1.027s-.491.868-.753,1.279-.468.651-.7.959-.491.708-.731,1.062a10.273,10.273,0,0,1-.913.959c-.411.377-.833.731-1.256,1.142a5.978,5.978,0,0,0-1.142,1.142,3.972,3.972,0,0,0-.468.868,4.027,4.027,0,0,0-.16.639,10.422,10.422,0,0,0,.343,4.7Z" transform="translate(-233.419 -132.074)"/>
</svg>
