<svg xmlns="http://www.w3.org/2000/svg" width="130.158" height="103.435" viewBox="0 0 130.158 103.435">
  <defs>
    <style>
      .cls-1 {
        fill: #5e2402;
        stroke: #231f20;
        stroke-miterlimit: 10;
      }
    </style>
  </defs>
  <g id="nigeria" transform="translate(0.665 0.5)">
    <path id="nigeria-2" data-name="nigeria" class="cls-1" d="M318.218,321.463a24.965,24.965,0,0,1-.788,2.42c-.091.194-.171.377-.274.571a1.141,1.141,0,0,0-.148.5c-.342-.126-.685-.274-1.016-.411-.514-.217-1.039-.411-1.564-.616a4.959,4.959,0,0,0-.822-.274h-.422a1.347,1.347,0,0,0-.719.183,1.609,1.609,0,0,0-.594.582,2.352,2.352,0,0,0-.251,1.244v.651l-.126.217a5.853,5.853,0,0,1-.536.525,7.479,7.479,0,0,1-.959.594,9.138,9.138,0,0,1-1.461.388,12.669,12.669,0,0,1-1.975,0,.526.526,0,0,0-.171-.1c-.525-.251-1.062-.468-1.575-.708a12.644,12.644,0,0,1-1.53-.879c-.651-.514-1.256-1.142-1.861-1.655a6.428,6.428,0,0,0-1.073-.856,5.562,5.562,0,0,0-1.324-.537,4.317,4.317,0,0,0-.765-.148,2.786,2.786,0,0,0-1.792.479,4.92,4.92,0,0,0-1.5,1.975,17.017,17.017,0,0,1-1.244,1.986,6.155,6.155,0,0,1-.662.674,2.419,2.419,0,0,1-.411.24,5.349,5.349,0,0,1-.868.217,4.764,4.764,0,0,1-.9,0,13.859,13.859,0,0,1-2.831-.833,8.708,8.708,0,0,1-1.142-.605L286.6,327a1.249,1.249,0,0,1-.091-.171,4.114,4.114,0,0,1-.137-.5,19.183,19.183,0,0,1,0-2.432l.057-1.416v-1.473a8.473,8.473,0,0,0-.08-1.518,4.855,4.855,0,0,0-.228-.89,3.539,3.539,0,0,0-.685-1.21,10.433,10.433,0,0,0-1.964-1.484l-1.393-.936a26.49,26.49,0,0,1-2.283-1.644c-1.073-.833-2.135-1.69-3.151-2.591s-2.055-1.918-3.06-2.9c-.479-.468-.97-.925-1.484-1.37a9.738,9.738,0,0,0-3.95-2.032,12.17,12.17,0,0,0-2.808-.308h-.491a20.228,20.228,0,0,0-2.192.171l-1.393.194c-.719.08-1.438.114-2.169.126s-1.4,0-2.1,0a13.811,13.811,0,0,0-1.964.091c.171-.685.354-1.359.548-2.032s.342-1.142.514-1.712.331-1.21.468-1.827a24.142,24.142,0,0,0,.525-3.95,35.216,35.216,0,0,0,.057-3.8,36.4,36.4,0,0,0-.48-4.315c-.183-1.21-.365-2.42-.537-3.63-.057-.468-.114-.936-.148-1.4a8.161,8.161,0,0,1-.057-1.5h0c.148-.091.285-.183.445-.263a9.7,9.7,0,0,1,1.4-.342l.594-.114a2.8,2.8,0,0,0,1.221-.639,1.884,1.884,0,0,0,.4-.548,2.969,2.969,0,0,0,.285-.936,6.322,6.322,0,0,0,.08-1.142v-1.416a.5.5,0,0,1,.08-.32,4.7,4.7,0,0,1,.274-.445c.24-.285.491-.548.742-.822a8.992,8.992,0,0,0,.97-1.21,12.113,12.113,0,0,0,.582-1.073,8.925,8.925,0,0,1,.628-.982c.491-.605,1.027-1.142,1.507-1.781a5.627,5.627,0,0,0,.936-1.7,7.2,7.2,0,0,0,.263-1.5,4.576,4.576,0,0,1,.126-.537c.217-.422.5-.8.753-1.21a5.445,5.445,0,0,0,.616-1.507,7.8,7.8,0,0,0,.183-1.781q0-.719,0-1.438a14.831,14.831,0,0,0-.205-1.575c-.091-.468-.183-.936-.32-1.393a7.325,7.325,0,0,0-.674-1.5,9.427,9.427,0,0,0-.89-1.142,6.538,6.538,0,0,1-.548-.9,2.9,2.9,0,0,1-.16-.537,2.477,2.477,0,0,1,0-.411,21.088,21.088,0,0,0,.479-2.078,5.57,5.57,0,0,0-.1-1.3,4.26,4.26,0,0,0-.194-.616c0-1.279.137-2.546.263-3.813q.08-.662.205-1.336a8.446,8.446,0,0,1,.377-1.5l.091-.148c.057-.057.1-.114.171-.171a4.225,4.225,0,0,1,.628-.354l.685-.274a4.36,4.36,0,0,0,1.77-1.233,5.582,5.582,0,0,0,.947-2.043,9.626,9.626,0,0,0,.24-1.027c.1-.605.194-1.221.24-1.838s.068-1.142.125-1.655a6.645,6.645,0,0,1,.274-1.142,4,4,0,0,1,.377-.685l.217-.228a4.423,4.423,0,0,1,.514-.274,23.022,23.022,0,0,1,3.014-.811c.48-.126.959-.251,1.427-.411s.868-.308,1.3-.457c.879-.3,1.769-.559,2.66-.822q.708-.183,1.4-.411c.457-.148.9-.331,1.37-.445h.274c.708.137,1.37.411,2.055.594l2.283.639A39.968,39.968,0,0,1,292.52,229a20.036,20.036,0,0,1,3.722,1.975,7.989,7.989,0,0,1,.845.8c.331.354.651.719.982,1.085a7.141,7.141,0,0,0,.708.731,11.417,11.417,0,0,0,1.2.868,6.046,6.046,0,0,0,.89.479,6.731,6.731,0,0,0,1.142.388,7.822,7.822,0,0,0,1.142.148,4.681,4.681,0,0,0,1.632-.24l.651-.183c.445-.148.9-.285,1.347-.411a17.872,17.872,0,0,1,2.2-.422,12.484,12.484,0,0,1,2.283-.091,9.618,9.618,0,0,1,1.6.5l3.185,1.427,1.575.719a15.609,15.609,0,0,0,1.975.811,13.847,13.847,0,0,0,3.824.422c1.2,0,2.4.1,3.6.217l1.461.171a7.052,7.052,0,0,0,1.21.057.993.993,0,0,0,1.062,0l1.473-1a6.975,6.975,0,0,0,1.142-.959l.5-.594a16.23,16.23,0,0,1,2.044-2.2,7.992,7.992,0,0,1,1.381-.811,13.037,13.037,0,0,1,2.283-.594,11.03,11.03,0,0,1,1.621,0,13.941,13.941,0,0,1,1.827.183c.605.08,1.438.183,2.158.263s1.416.091,2.123.126l2.169.069a16.54,16.54,0,0,1,2.374.114,6.85,6.85,0,0,1,1.05.3c1.142.514,2.078,1.267,3.174,1.792a5.971,5.971,0,0,0,3.665.5,13.694,13.694,0,0,0,1.507-.331,14.042,14.042,0,0,0,3.253-1.575l1.473-.913c.434-.274.856-.571,1.3-.822.674-.388,1.37-.753,2.066-1.142a23.833,23.833,0,0,1,2.169-1.062h-.1a6.452,6.452,0,0,1,1.336-.479h.228a5.711,5.711,0,0,1,.9.571c.9.788,1.758,1.632,2.591,2.489s1.621,1.712,2.363,2.626c.126.16.24.32.354.491a.935.935,0,0,0,0,.251,1.028,1.028,0,0,0,.308.479,6.942,6.942,0,0,1,.183.845,4.4,4.4,0,0,1,0,.868c-.1.548-.251,1.073-.4,1.61a4.383,4.383,0,0,0-.183,1.381,3.425,3.425,0,0,0,.879,2.009,5.33,5.33,0,0,0,.982.845,4.225,4.225,0,0,0,.7.4l.776.434a4.883,4.883,0,0,1,.5.342,4.77,4.77,0,0,1,.594.582,3.427,3.427,0,0,1,.274.479,4.336,4.336,0,0,1,.205.753,11.887,11.887,0,0,1,0,1.564,12.442,12.442,0,0,1-.069,1.3,6.536,6.536,0,0,1-.228.959,4.116,4.116,0,0,1-.354.616,6.562,6.562,0,0,1-.9.879,7.669,7.669,0,0,1-1.3.742l-1.45.548a7.992,7.992,0,0,0-2.043,1.142,7.008,7.008,0,0,0-.89.765,4.966,4.966,0,0,0-.708.959,8.326,8.326,0,0,0-.571,1.3c-.16.445-.32.89-.491,1.336a9.771,9.771,0,0,1-.674,1.336,7.9,7.9,0,0,1-.434.742c-.171.263-.342.514-.525.765s-.537.708-.833,1.039a20.388,20.388,0,0,0-1.484,1.8,7.818,7.818,0,0,0-.639,1.142,10.358,10.358,0,0,0-.445,1.142c-.194.525-.377,1.073-.582,1.6a3.925,3.925,0,0,1-.251.434c-.342.388-.731.731-1.142,1.142a6.462,6.462,0,0,0-1.027,1.393c-.126.251-.24.514-.354.765-.251.582-.5,1.142-.719,1.747s-.331,1.142-.525,1.633a7.533,7.533,0,0,1-.457.765c-.365.434-.765.811-1.142,1.21a10.4,10.4,0,0,0-1.61,1.929,11.507,11.507,0,0,0-1.142,2.968c-.16.559-.263,1.142-.445,1.712l-.217.365a3.676,3.676,0,0,1-.365.365,12.568,12.568,0,0,1-1.438.8,4.806,4.806,0,0,0-1.518,1.142,5.959,5.959,0,0,0-.959,1.781c-.354.9-.605,1.849-.948,2.763a29.7,29.7,0,0,1-1.358,2.786c-.251.491-.491.982-.753,1.45s-.605.97-.936,1.45l-.434.594a11.163,11.163,0,0,0-.868,1.416,14.74,14.74,0,0,0-.8,1.815c-.4.982-.754,1.986-1.142,2.98a13.447,13.447,0,0,1-.628,1.29q-.445.719-.925,1.4a7.328,7.328,0,0,1-.788.788l-.308.194-.228-.137a7.848,7.848,0,0,1-.89-.959c-.285-.4-.559-.811-.856-1.21a4.569,4.569,0,0,0-.639-.685,6.115,6.115,0,0,0-.708-.5,6.323,6.323,0,0,0-.936-.422c-.342-.137-.7-.263-1.05-.365A6.346,6.346,0,0,0,338.9,303a4.772,4.772,0,0,0-1.633.365c-.479.205-.936.434-1.416.651a7.69,7.69,0,0,1-1.45.354,10.464,10.464,0,0,0-1.69.3,7.125,7.125,0,0,0-2.363,1.37,9.981,9.981,0,0,0-.982.982,11.408,11.408,0,0,1-1.313,1.358,13.885,13.885,0,0,1-1.473.925c-.491.285-.982.582-1.45.913A16.468,16.468,0,0,0,322.5,312.5a14.977,14.977,0,0,0-1.2,1.473,14.317,14.317,0,0,0-2.42,4.726C318.617,319.648,318.458,320.561,318.218,321.463Z" transform="translate(-255.03 -226.31)"/>
  </g>
</svg>
