<svg xmlns="http://www.w3.org/2000/svg" width="81.604" height="93.892" viewBox="0 0 81.604 93.892">
  <defs>
    <style>
      .cls-1 {
        fill: #b3b390;
        stroke: #231f20;
        stroke-miterlimit: 10;
      }
    </style>
  </defs>
  <path id="republicofCongo" class="cls-1" d="M344.974,418.813c-.24-.377-.5-.731-.765-1.085a20.247,20.247,0,0,0-2.032-2.375c-1.085-1.05-2.283-2-3.356-3.014a30.029,30.029,0,0,1-2.98-3.162l-.651-.89h.091l.354-.228c.217-.137.457-.251.685-.365a10.017,10.017,0,0,1,1.815-.525,2.943,2.943,0,0,1,.548,0h.194c.354.183.708.4,1.073.571a4.724,4.724,0,0,0,.879.308,2.854,2.854,0,0,0,1.142,0,2.124,2.124,0,0,0,.89-.377,3.356,3.356,0,0,0,.7-.639,4.156,4.156,0,0,0,.868-1.735,5.708,5.708,0,0,0-.057-2.192,6.325,6.325,0,0,0-.811-2.044c-.457-.822-1-1.587-1.53-2.363-.24-.365-.491-.719-.742-1.085a12.657,12.657,0,0,1-1.142-1.815,5.2,5.2,0,0,1-.24-.822v-.194a1.348,1.348,0,0,1,.126-.4v.091l.08-.16a4.943,4.943,0,0,1,.445-.8l.126-.24h.1a4.71,4.71,0,0,1,.7,0c1.142.194,2.283.434,3.425.537a6.918,6.918,0,0,0,2.055-.1,2.694,2.694,0,0,0,1.6-.959,4.258,4.258,0,0,0,.776-1.838,7.212,7.212,0,0,1,.274-.97l.171-.3h.514a5.715,5.715,0,0,1,1.05.263l.251.148a4.991,4.991,0,0,1,.479.5,12,12,0,0,1,.856,1.541,7.991,7.991,0,0,0,1.142,1.667,3.494,3.494,0,0,0,1.69,1.039,3.084,3.084,0,0,0,1.073.08,5.025,5.025,0,0,0,1.073-.183,5.255,5.255,0,0,0,.913-.365c.263-.126.5-.274.754-.422a8.589,8.589,0,0,0,.776-.582l-.217.171c.377-.285.753-.571,1.142-.879s.788-.674,1.2-1a3.878,3.878,0,0,1,.514-.32l.274-.08h.206a10.443,10.443,0,0,1,.913.97c.171.205.342.411.525.605a4.328,4.328,0,0,0,.742.628,2.856,2.856,0,0,0,.856.308,2.58,2.58,0,0,0,.936,0,2.17,2.17,0,0,0,.856-.354,4.752,4.752,0,0,0,.868-.788c.3-.308.548-.651.811-.982a5.833,5.833,0,0,0,.89-1.861,11.631,11.631,0,0,0,.331-1.758c.08-.582.126-1.142.148-1.735s0-.833,0-1.256a10.194,10.194,0,0,1,.08-1.518.771.771,0,0,1-.057.354,6.4,6.4,0,0,1,.114-.8c.16-.9.331-1.792.536-2.671s.457-1.815.685-2.717a10.862,10.862,0,0,0,.24-1.484,6.392,6.392,0,0,0-.194-1.975,4.783,4.783,0,0,0-2.021-2.763c-.879-.617-1.827-1.142-2.694-1.735a5.339,5.339,0,0,1-.639-.605,3.937,3.937,0,0,1-.228-.365,4.564,4.564,0,0,1-.183-.651,8.131,8.131,0,0,1,.057-1.393v-1.027c0-.868-.148-1.735-.08-2.6a1.932,1.932,0,0,1,.148-.559l.069-.137h0a8.773,8.773,0,0,1,1.027-.537l1.016-.5a6.153,6.153,0,0,0,1.747-1.359,4.064,4.064,0,0,0,.674-1.142,5.01,5.01,0,0,0,.274-1.473,5.485,5.485,0,0,0,0-1.062,6.973,6.973,0,0,0-.251-1.29,12.987,12.987,0,0,0-.662-1.667,10.582,10.582,0,0,0-.925-1.6c-.411-.605-.845-1.21-1.3-1.781a6.28,6.28,0,0,0-1.632-1.473,3.539,3.539,0,0,0-1.21-.457,4.052,4.052,0,0,0-1.53,0,10.116,10.116,0,0,0-2.671,1.027c-.719.377-1.4.788-2.135,1.142a6.235,6.235,0,0,1-.753.217h-.434a.406.406,0,0,1,0-.114,26.107,26.107,0,0,1,0-2.991v-2.945a5.288,5.288,0,0,0-.057-.993h1.324c.445,0,.913-.057,1.381-.057a8.987,8.987,0,0,1,1.233.1c2.283.342,4.5.925,6.781,1.21a17.5,17.5,0,0,0,1.747.114c.605.011,1.085,0,1.621,0a12.1,12.1,0,0,1,1.7,0l1.575.16a34.128,34.128,0,0,1,4.4,1.039c.719.228,1.427.491,2.135.742s1.473.525,2.192.8l1.644.742a9.246,9.246,0,0,0,3.082.97,2.933,2.933,0,0,0,1.53-.274,2.352,2.352,0,0,0,1.142-1.313,4.566,4.566,0,0,0,.068-2.192c-.1-.719-.228-1.438-.342-2.158a.945.945,0,0,0,.057.388c-.068-.457-.137-.925-.171-1.381a26.66,26.66,0,0,0,2.546-2.66,10.125,10.125,0,0,0,1.142-2.078,10.815,10.815,0,0,0,.628-1.861c.137-.616.263-1.233.365-1.849s.183-1.222.263-1.827a15.312,15.312,0,0,1,.822-3.334,5.369,5.369,0,0,1,.445-.788,5.712,5.712,0,0,1,.445-.468,6.086,6.086,0,0,1,.7-.4,8.2,8.2,0,0,1,1.039-.274c1.016-.114,2.032-.114,3.06-.148h1.655c.514,0,1.073.08,1.61.126,1.142.1,2.283.194,3.425.24s2.283.126,3.425.228a11.7,11.7,0,0,1,2.066.445l.217.137h0a5.612,5.612,0,0,1,0,.765c-.137.9-.32,1.8-.514,2.694s-.48,2.032-.765,3.037a54.386,54.386,0,0,1-2.158,5.594c-.571,1.336-1.142,2.671-1.667,4.03-.263.708-.5,1.416-.708,2.146a16.912,16.912,0,0,0-.434,2.112,24.694,24.694,0,0,0-.263,4.407c0,1.393,0,2.786.057,4.178a48.836,48.836,0,0,1-.16,6.2,13.24,13.24,0,0,1-.388,1.644c-.148.48-.342.948-.525,1.416s-.571,1.256-.868,1.884-.662,1.37-.959,2.066c-.171.411-.365.833-.514,1.256s-.263.776-.388,1.142a16.145,16.145,0,0,0-.388,2.34,8.857,8.857,0,0,1-.445,2.032,4.139,4.139,0,0,1-.274.491,3.5,3.5,0,0,1-.3.285,3.072,3.072,0,0,1-.331.183,9.629,9.629,0,0,1-2.135.468,12.235,12.235,0,0,0-2.386.628,6.059,6.059,0,0,0-1.427.742,7.573,7.573,0,0,0-.81.662,4.989,4.989,0,0,0-1.142,2c-.069.228-.148.457-.206.685-.217.822-.377,1.667-.662,2.466a7.6,7.6,0,0,1-.594,1.016,10.593,10.593,0,0,1-1.279,1.2c-.331.251-.662.491-1,.719a7.771,7.771,0,0,0-1.3,1.062,4.11,4.11,0,0,0-.993,1.9,9.235,9.235,0,0,0-.114,2.1v1.781c0,1.05.091,2.1.194,3.151a21.134,21.134,0,0,1,.1,3.984,9.658,9.658,0,0,1-2.283,5.3c-.365.445-.753.879-1.142,1.3a1.348,1.348,0,0,0-.251.194l-.354.274a7.112,7.112,0,0,1-1,.639c-.685.263-1.393.457-2.066.731a8.2,8.2,0,0,0-1.655.8,4.875,4.875,0,0,0-1.142,1.142,7.675,7.675,0,0,0-.457.719c-.183.3-.342.605-.5.913s-.377.662-.571.982-.411.742-.628,1.142a5,5,0,0,1-.514.742,11.749,11.749,0,0,1-1.644,1.724,6.175,6.175,0,0,1-.89.571l-.354.091h-.434l-.24-.068-.114-.069h0l-.069-.251a11.3,11.3,0,0,1,0-1.644,3.985,3.985,0,0,1,.057-.822,6.286,6.286,0,0,0,.08-1.53,2.513,2.513,0,0,0-.206-.776,1.862,1.862,0,0,0-.342-.5,2.284,2.284,0,0,0-1-.616h-.137a2.174,2.174,0,0,0-.468,0h-.811l-1.655.1a11.905,11.905,0,0,0-1.553.148c-.514.069-.936.1-1.393.194a7.391,7.391,0,0,0-1.142.32,6.234,6.234,0,0,0-1.142.5,4.566,4.566,0,0,0-1.724,2.215,15.112,15.112,0,0,1-.993,1.906l-.228.24-.285.148a2.786,2.786,0,0,1-.525.16h-.183a16.46,16.46,0,0,1-1.644-.982L356.9,417.5v-.091a1.049,1.049,0,0,0,0-.422,2.659,2.659,0,0,0,0-.3,1.071,1.071,0,0,0-.16-.377,2.283,2.283,0,0,0-.662-.731,3.653,3.653,0,0,0-1.45-.742,2.2,2.2,0,0,0-.537-.057,5.1,5.1,0,0,0-1.9.514c-.514.206-1.016.411-1.518.651s-.97.491-1.45.754c-1.21.662-2.283,1.507-3.573,2.1a5.707,5.707,0,0,1-.685.011Z" transform="translate(-334.205 -326.06)"/>
</svg>
