<svg xmlns="http://www.w3.org/2000/svg" width="21.154" height="18.467" viewBox="0 0 21.154 18.467">
  <defs>
    <style>
      .cls-1 {
        fill: #073304;
        stroke: #231f20;
        stroke-miterlimit: 10;
      }
    </style>
  </defs>
  <path id="rwanda" class="cls-1" d="M529.451,384.009l-.068.114h-.068l-.3.08a11.5,11.5,0,0,1-1.884-.057L525.546,384a.925.925,0,0,0-.651.263,1.036,1.036,0,0,0-.126.183l-.194-.1c-.183-.1-.377-.194-.559-.274a5.711,5.711,0,0,0-1.872-.582h-.525a6.849,6.849,0,0,0-1.45.171,3.07,3.07,0,0,0-.925.365,2.17,2.17,0,0,0-.457.342,2.684,2.684,0,0,0-.411.468,5.433,5.433,0,0,0-.639,1.381c-.068.183-.126.377-.183.571-.137.468-.274.936-.445,1.393a7.116,7.116,0,0,1-.582,1.039l-.3.3-.194.114-.217.057h-.354a1.141,1.141,0,0,1-.285-.069,7.2,7.2,0,0,1-.982-.685l.091.069-1.062-.811a8.314,8.314,0,0,0-.982-.674,6.849,6.849,0,0,0-1.906-.845,5.024,5.024,0,0,0,.537-.308,3.345,3.345,0,0,0,1.313-1.884c.137-.617.228-1.233.354-1.849a23.389,23.389,0,0,1,1.222-3.7A12.8,12.8,0,0,1,515,376.645a6.659,6.659,0,0,1,.913-.879,4.562,4.562,0,0,1,.708-.445l.308-.08h.24a6.069,6.069,0,0,1,.913.285c.3.137.582.3.879.445a4.419,4.419,0,0,0,.833.342,2.51,2.51,0,0,0,1.142.08,3.893,3.893,0,0,0,1.941-1.244c.32-.32.651-.651.948-.993a15.581,15.581,0,0,1,1.473-1.644h.08a1.139,1.139,0,0,0,.285,0,1,1,0,0,0,.662-.263h0a1.913,1.913,0,0,1,.365.1,2.677,2.677,0,0,1,.525.32,6.388,6.388,0,0,1,.891.868,4.478,4.478,0,0,1,.377.639,7.209,7.209,0,0,1,.32,1.473c.171,1.37.377,2.728.582,4.087a16.45,16.45,0,0,1,.171,3.665,3.326,3.326,0,0,1-.1.605Z" transform="translate(-508.935 -371.715)"/>
</svg>
