<svg xmlns="http://www.w3.org/2000/svg" width="8.112" height="8.377" viewBox="0 0 8.112 8.377">
  <defs>
    <style>
      .cls-1 {
        fill: #231f20;
      }

      .cls-1, .cls-2 {
        stroke: #231f20;
        stroke-miterlimit: 10;
      }

      .cls-2 {
        fill: #b3b390;
      }
    </style>
  </defs>
  <g id="saoTomeAndPrincipe" transform="translate(0.508 0.5)">
    <path id="Path_4843" data-name="Path 4843" class="cls-1" d="M302.478,343.852a2.17,2.17,0,0,0-.422-.719,4.568,4.568,0,0,0-.936-.822,3.423,3.423,0,0,0-1.142-.525h-.057a.7.7,0,0,0-.137-.183.959.959,0,0,0-.674-.263.8.8,0,0,0-.616.263,17.116,17.116,0,0,0-1.712,2.283c-.24.4-.445.81-.662,1.221a5.392,5.392,0,0,0-.525,1.279,1.53,1.53,0,0,0,.422,1.4,3.116,3.116,0,0,0,2.569.9l.617-.114a3.863,3.863,0,0,0,.788-.3,4.854,4.854,0,0,0,1.073-.708,3.628,3.628,0,0,0,.753-.811,5.442,5.442,0,0,0,.674-1.244,2.42,2.42,0,0,0,.171-1.062A2.378,2.378,0,0,0,302.478,343.852Z" transform="translate(-295.561 -341.34)"/>
    <path id="Path_4844" data-name="Path 4844" class="cls-2" d="M302.758,345.153l-.182.585a7.822,7.822,0,0,1-.686,1.11,4.458,4.458,0,0,1-.525.545,10.4,10.4,0,0,1-1.372.848,6.88,6.88,0,0,1-1.15.323,3.454,3.454,0,0,1-.646,0l-.5-.141-.4-.222.161-.464c.242-.525.5-1.049.767-1.574a16.384,16.384,0,0,1,1.493-2.5,2.239,2.239,0,0,0,.706.323,11.669,11.669,0,0,1,1.433.424,6.178,6.178,0,0,1,.727.4l.121.121v.161Z" transform="translate(-296.504 -342.079)"/>
  </g>
</svg>
