<svg xmlns="http://www.w3.org/2000/svg" width="55.222" height="50.726" viewBox="0 0 55.222 50.726">
  <defs>
    <style>
      .cls-1 {
        fill: #5e2402;
        stroke: #231f20;
        stroke-miterlimit: 10;
      }
    </style>
  </defs>
  <path id="senegal" class="cls-1" d="M78.74,233.081l-.594-.137c-.445-.1-.9-.171-1.347-.32a3.279,3.279,0,0,1-.491-.32,5.844,5.844,0,0,1-.674-.628,6.325,6.325,0,0,1-.342-.605,10.058,10.058,0,0,1-.5-1.827q0-.274,0-.548h0a4.8,4.8,0,0,0,.879.331,3.781,3.781,0,0,0,.719.114c.388,0,.765.08,1.142.1.674,0,1.359.08,2.032.08h2.123a4.772,4.772,0,0,0,2.283-.616,11.9,11.9,0,0,0,1.142-1.142,1.345,1.345,0,0,1,.217-.126,2.285,2.285,0,0,1,.4-.1H88.01l.594-.091a3.2,3.2,0,0,0,.765-.263,4.314,4.314,0,0,0,.856-.5,8.986,8.986,0,0,1,1.039-.674l.263-.069h.525c.685.114,1.37.274,2.055.411.377.068.742.148,1.142.24a5.576,5.576,0,0,1,.833.3c.925.411,1.8.89,2.694,1.347a7.991,7.991,0,0,0,2.466.89,4.164,4.164,0,0,0,1.062,0,3.779,3.779,0,0,0,.959-.217,5.5,5.5,0,0,0,1.37-.685,4.326,4.326,0,0,0,.8-.708,2.82,2.82,0,0,0,.479-.822,2.114,2.114,0,0,0,.069-.445,1.5,1.5,0,0,0,0-.32,3.345,3.345,0,0,0-.24-.925,3.265,3.265,0,0,0-.422-.788,3.927,3.927,0,0,0-.342-.4,3.716,3.716,0,0,0-.411-.331,2.968,2.968,0,0,0-.856-.411,3.768,3.768,0,0,0-.948-.183c-.525-.057-1.05-.057-1.575-.068a9.662,9.662,0,0,1-1.53-.091h-.377L98.2,222.35c-.365-.091-.731-.194-1.142-.32a5.453,5.453,0,0,1-.742-.434c-.274-.217-.525-.457-.788-.7l-.514-.457-.457-.343a3.426,3.426,0,0,0-.936-.468,3.278,3.278,0,0,0-.879-.126h0a2.762,2.762,0,0,0-.537.068l-.411.091a4.464,4.464,0,0,0-1.507.845,6.676,6.676,0,0,0-.993,1.142,10.628,10.628,0,0,1-1.37,1.4,5.63,5.63,0,0,1-.913.537,3.344,3.344,0,0,1-.753.205,13.124,13.124,0,0,1-2.911-.228c-.731-.1-1.473-.183-2.2-.263l-1.815-.3a2.794,2.794,0,0,1,0-.308c0-.171,0-.342,0-.5,0-.97-.194-1.952-.126-2.923a7.478,7.478,0,0,1,.594-1.256,8.459,8.459,0,0,0,.354-1.381,2.089,2.089,0,0,0-.126-1.359,1.792,1.792,0,0,0-.365-.457,2.055,2.055,0,0,0-.993-.468,11.622,11.622,0,0,0-1.244-.171,6.851,6.851,0,0,1-.7-.171,2.856,2.856,0,0,1-.4-.24,5.072,5.072,0,0,1-.434-.422,25.116,25.116,0,0,1-1.3-2.637c-.377-.731-.8-1.427-1.142-2.169a1.42,1.42,0,0,0-.114-.354,4.154,4.154,0,0,1,.514-.491,19.473,19.473,0,0,0,2.283-1.906c.228-.24.411-.525.616-.788a6.19,6.19,0,0,0,.422-.639l.354-.594c.263-.479.5-.959.742-1.45.422-.9.811-1.827,1.21-2.751s.868-1.849,1.244-2.8a25.826,25.826,0,0,0,.936-2.74c.274-.936.514-1.884.753-2.831s.434-1.6.662-2.4c.925.148,1.861.285,2.8.377a16.209,16.209,0,0,0,2.58.126c.548,0,1.142-.091,1.632-.137a27.058,27.058,0,0,1,6.153-.137,14.93,14.93,0,0,1,2.888.833l.148.068h0a8.619,8.619,0,0,1,1.073.548c.354.217.685.468,1.027.7a7.33,7.33,0,0,0,1.359.628c.411.16.833.274,1.244.434a7,7,0,0,1,.936.559,10,10,0,0,1,1.416,1.53c.342.434.674.868,1.05,1.267a6.381,6.381,0,0,0,1.3.982,8.982,8.982,0,0,0,.948.445l1.313.525a13.927,13.927,0,0,1,1.906,1.039,4.955,4.955,0,0,1,.594.605,10.972,10.972,0,0,1,1.016,1.827c.422,1.073.8,2.158,1.3,3.208a25.718,25.718,0,0,0,1.69,2.934,20.425,20.425,0,0,0,2.135,2.728c.411.422.822.833,1.267,1.222s.811.628,1.2.97l.445.445a4.326,4.326,0,0,1,.228.388,7.406,7.406,0,0,1,.217.868,37.127,37.127,0,0,1-.057,3.9v1.142a11.034,11.034,0,0,0,.16,1.29c.091.674.251,1.347.365,2.021a4.429,4.429,0,0,1,0,.674,16.35,16.35,0,0,1-.468,1.644,3.722,3.722,0,0,0,.32,2.569,5.628,5.628,0,0,0,.765,1.222,3.554,3.554,0,0,0,.331.377,4.569,4.569,0,0,0,.639.525h-.057l1,.776a5.707,5.707,0,0,1,.731.662,6.848,6.848,0,0,1,.342.639,6.572,6.572,0,0,1,.205.674,5.137,5.137,0,0,0,.091.582c.08.708.137,1.427.171,2.135v1.2a9.333,9.333,0,0,1,0,1.142,3.057,3.057,0,0,1-.08.308.468.468,0,0,1,0,.1s0,0,0,.057a3.994,3.994,0,0,1-.605.354c-.354.126-.708.251-1.073.342s-.662.137-.982.194a27.56,27.56,0,0,1-4.852.08c-1.69-.126-3.356-.342-5.023-.548a5.115,5.115,0,0,1-.936-.24,5.983,5.983,0,0,1-.9-.559,9.475,9.475,0,0,0-1.781-1.222,11.212,11.212,0,0,0-1.142-.525,8.972,8.972,0,0,0-1.9-.365c-1.336-.171-2.683-.228-4.018-.388q-.8-.137-1.61-.342c-.514-.126-1.016-.3-1.541-.434a15.743,15.743,0,0,0-3.425-.537c-1.142,0-2.283.08-3.425.137s-2.4.183-3.585.354c-.651.091-1.3.24-1.952.365s-1.142.228-1.769.32a4.878,4.878,0,0,1-1.142,0,16.122,16.122,0,0,1-1.621-.422l-1.427-.445-1.416-.434-.571-.171-.8-.205a1.142,1.142,0,0,0-1.176.342Z" transform="translate(-72.781 -188.246)"/>
</svg>
