<svg xmlns="http://www.w3.org/2000/svg" width="27.514" height="33.327" viewBox="0 0 27.514 33.327">
  <defs>
    <style>
      .cls-1 {
        fill: #5e2402;
        stroke: #231f20;
        stroke-miterlimit: 10;
      }
    </style>
  </defs>
  <path id="sierraleone" class="cls-1" d="M120.105,289.76a.822.822,0,0,0-.171.491v.068a19.819,19.819,0,0,0-1.849-1.518,14.843,14.843,0,0,0-2.454-1.21,17.811,17.811,0,0,1-2.728-1.347,4.973,4.973,0,0,1-.548-.548,3.84,3.84,0,0,1-.354-.639c-.4-1.039-.605-2.135-1.085-3.139a4.269,4.269,0,0,0-1.964-1.735,10.662,10.662,0,0,1-1.142-.719,11.933,11.933,0,0,1-1.6-1.53,7.309,7.309,0,0,1-.685-1.142,8.255,8.255,0,0,1-.491-1.644,7.514,7.514,0,0,1,0-1.678c.114-.719.24-1.427.377-2.146a9.431,9.431,0,0,0,.194-1.267,8.718,8.718,0,0,0,0-1.221,5.365,5.365,0,0,0-.228-1.279,6.38,6.38,0,0,0-.251-.651,1.134,1.134,0,0,0,0-.114,5.374,5.374,0,0,0,.719-.377,8.531,8.531,0,0,0,1.039-.742,7.9,7.9,0,0,0,1.575-1.69,10.147,10.147,0,0,0,1.027-2.089c.217-.605.445-1.222.685-1.827a6.176,6.176,0,0,1,.537-1.016l.263-.263.126-.068a1.776,1.776,0,0,1,.263-.069,3.425,3.425,0,0,1,.594,0,10.741,10.741,0,0,1,1.142.274,13.988,13.988,0,0,0,1.518.365,8.439,8.439,0,0,0,.925.091,6.206,6.206,0,0,0,1.142-.114,6.843,6.843,0,0,0,.7-.148c.422-.114.845-.205,1.267-.285.833-.08,1.667-.114,2.5-.114a22.149,22.149,0,0,1,2.751.08,5.009,5.009,0,0,1,.685.171h0l.228.251c.3.411.559.833.822,1.244s.582.9.845,1.37.582,1.027.845,1.553.445.925.651,1.393a20.012,20.012,0,0,0,1,2.26c.354.639.788,1.244,1.142,1.906a1.836,1.836,0,0,1,.1.331v.046a3.424,3.424,0,0,1-.331.5c-.342.422-.708.822-1.073,1.233a11.164,11.164,0,0,0-.856,1.085,6.438,6.438,0,0,0-.548,1.085,4.566,4.566,0,0,0-.251,1.142,5.172,5.172,0,0,0,0,1.027,2.637,2.637,0,0,0,.331,1.05,3.618,3.618,0,0,0,1.655,1.313c.3.126.582.274.89.377l.833.3a3.937,3.937,0,0,1-.616.32l-.719.308-.411.217a2.9,2.9,0,0,0-.856.81,7.261,7.261,0,0,0-.811,1.6l-.24.582a6.931,6.931,0,0,1-.674,1.29,8.841,8.841,0,0,1-1.062,1c-.982.719-1.986,1.416-2.9,2.226-.457.411-.856.879-1.267,1.324a3.813,3.813,0,0,0-1.21,1.644Z" transform="translate(-104.489 -258.139)"/>
</svg>
