<svg xmlns="http://www.w3.org/2000/svg" width="101.997" height="158.927" viewBox="0 0 101.997 158.927">
  <defs>
    <style>
      .cls-1 {
        fill: #073304;
        stroke: #231f20;
        stroke-miterlimit: 10;
      }
    </style>
  </defs>
  <path id="somalia" class="cls-1" d="M726.971,239.749a30.444,30.444,0,0,1-1.222,4.566c-.274.753-.571,1.507-.811,2.283a19.643,19.643,0,0,0-.582,2.283c-.308,1.587-.479,3.185-.833,4.761s-.822,3.185-1.142,4.783a31.985,31.985,0,0,0-.582,3.425c-.1.936-.183,1.861-.3,2.8s-.263,1.964-.388,2.957a26.657,26.657,0,0,1-.617,3.3c-.171.662-.365,1.3-.571,1.952s-.434,1.142-.674,1.747c-.4.948-.8,1.884-1.142,2.831-.628,1.45-1.313,2.877-2.032,4.281-.365.731-.788,1.427-1.221,2.123s-.89,1.461-1.324,2.2c-.833,1.416-1.575,2.865-2.283,4.349-.342.753-.742,1.473-1.142,2.215a27.393,27.393,0,0,0-1.142,2.591,16.345,16.345,0,0,0-.776,2.432c-.1.525-.171,1.05-.228,1.575a13.2,13.2,0,0,0,0,1.507,1.678,1.678,0,0,0,.08.525c-.148.342-.3.7-.457,1.039-.3.685-.594,1.37-.833,2.078a18.823,18.823,0,0,0-.514,1.815c-.183.822-.411,1.621-.674,2.42l-.343.628a38.106,38.106,0,0,1-1.918,3.3c-.753,1.142-1.518,2.192-2.283,3.288s-1.553,2.215-2.375,3.3c-1.21,1.541-2.443,3.071-3.676,4.566s-2.534,3.288-3.8,4.932l-.194.263-.719.89-.365.457a4.284,4.284,0,0,0-.582.845,1.587,1.587,0,0,0-.148,1.142,1.737,1.737,0,0,0,.206.411c-.97,1.29-1.929,2.58-2.911,3.87-.651.822-1.324,1.644-2.021,2.432s-1.484,1.69-2.283,2.5a53.8,53.8,0,0,1-4.715,4.566c-.342.251-.7.491-1.073.731a15.975,15.975,0,0,1-1.587.811c-.993.479-1.986.925-2.991,1.358a28.973,28.973,0,0,0-2.98,1.484c-.468.263-.913.548-1.37.833s-.982.628-1.45.982c-1.027.788-2.055,1.587-3.025,2.454s-1.69,1.575-2.477,2.42-1.552,1.7-2.283,2.546-1.61,1.712-2.409,2.58c-1.587,1.735-3.117,3.527-4.658,5.308-.765.879-1.5,1.792-2.283,2.694s-1.518,1.815-2.283,2.706-1.484,1.712-2.226,2.58-1.427,1.644-2.146,2.466-1.587,1.792-2.283,2.751-1.358,1.838-2.021,2.774c-1.233,1.747-2.489,3.493-3.6,5.331-.97,1.6-1.872,3.254-2.911,4.806l-.434-.8a17.027,17.027,0,0,0-1.279-2.158c-.5-.708-1.027-1.393-1.552-2.078a12.552,12.552,0,0,1-.742-1.05,6.494,6.494,0,0,1-.559-1.085,8,8,0,0,1-.411-1.53c-.126-1.142-.217-2.386-.308-3.585a24.7,24.7,0,0,1,0-3.676c.183-2.5.548-4.989.822-7.489s.491-4.977.525-7.477-.1-4.932-.308-7.386c-.171-2.043-.251-4.087-.343-6.13,0-1.027-.08-2.055-.126-3.071s-.114-2.283-.183-3.368v-.24l.491-.5c.457-.457.879-.936,1.3-1.427s.948-1.267,1.416-1.906l1.221-1.712,1.05-1.336c.7-.879,1.484-1.678,2.169-2.569.411-.525.833-1.039,1.233-1.575.137-.171.263-.354.4-.537h.24a1,1,0,0,0,.708-1.142,10.709,10.709,0,0,1,.811-.8,9.135,9.135,0,0,1,1.028-.582,8.865,8.865,0,0,1,1.884-.445c1.016-.126,2.032-.24,3.037-.411a8,8,0,0,0,1.233-.285,3.528,3.528,0,0,0,1.484-.982c.365-.4.685-.833,1.016-1.256s.753-.913,1.142-1.37.776-.948,1.142-1.393a27.69,27.69,0,0,1,2.9-2.649,12.3,12.3,0,0,1,2.283-1.461,7.078,7.078,0,0,1,.993-.274,18.139,18.139,0,0,1,3.048,0l1.644.148,1.621.114,1.69.057c.525,0,1.05.126,1.575.137a7.717,7.717,0,0,0,2.34-.263,6.622,6.622,0,0,0,1.69-.822,11.4,11.4,0,0,0,1.039-.742,5.7,5.7,0,0,0,.959-1,16.272,16.272,0,0,0,1.21-2.066,33.59,33.59,0,0,1,2.717-4.064c.445-.559.9-1.142,1.358-1.644s1.073-1.279,1.621-1.906c1.016-1.142,2.021-2.363,2.968-3.6a12.55,12.55,0,0,1,1-1.142l1.142-1.142c.8-.822,1.575-1.667,2.352-2.5s1.553-1.644,2.283-2.454a29.531,29.531,0,0,0,2.192-2.74l.765-1.016c.685-.879,1.358-1.758,2.112-2.58.388-.434.8-.845,1.2-1.267s.7-.765,1.062-1.142.833-.879,1.244-1.336.662-.776,1.027-1.142.856-.868,1.244-1.324a3.423,3.423,0,0,0,.5-.731,1.4,1.4,0,0,0,.137-.422v-.206a1.462,1.462,0,0,0,0-.308,1.073,1.073,0,0,0-.708-.7,2.447,2.447,0,0,0-.411-.126,7.612,7.612,0,0,0-1.975-.148h-1.827a14.693,14.693,0,0,0-1.849.183c-.616.08-1.37.217-2.066.32h-.114a24.178,24.178,0,0,1-5.708-.206,34.384,34.384,0,0,1-8.117-2.066c-1.016-.468-2.009-.959-2.991-1.5s-1.9-1.085-2.866-1.6-1.929-1.039-2.934-1.473l-.913-.4c-.342-.137-.7-.251-1.039-.377a10.54,10.54,0,0,0-1.541-.4,29.071,29.071,0,0,0-4.452-.4h-2.215a20.212,20.212,0,0,1-2.2-.16,11.417,11.417,0,0,1-1.952-.491,9.867,9.867,0,0,1-1.473-.913l-.9-.8c-.32-.285-.616-.605-.9-.913a20.78,20.78,0,0,1-1.518-1.781c-.274-.4-.559-.8-.8-1.221s-.514-.936-.753-1.416-.445-.936-.7-1.381a13.138,13.138,0,0,0-.845-1.381c-.365-.479-.731-.959-1.142-1.427s-.742-.833-1.142-1.244c-.731-.8-1.5-1.575-2.169-2.42a6.087,6.087,0,0,1-.628-1.05,3.351,3.351,0,0,1-.183-.662,4.677,4.677,0,0,1,0-.8,9.228,9.228,0,0,1,.673-2.032c.16-.377.331-.753.514-1.142s.377-.731.571-1.142a14.993,14.993,0,0,0,.594-1.393c.126-.331.263-.662.4-.982s.3-.685.434-1.027a12.824,12.824,0,0,1,1.507,1.438c.548.617,1.142,1.244,1.621,1.872a34.856,34.856,0,0,0,3.425,3.425,13.473,13.473,0,0,0,2.146,1.632,18.57,18.57,0,0,0,2.546,1.21,20.548,20.548,0,0,0,5.1,1.142,9.132,9.132,0,0,0,3.425-.194,8.893,8.893,0,0,0,3.231-1.929,17.848,17.848,0,0,0,1.621-1.427,18.472,18.472,0,0,1,1.5-1.358,9.206,9.206,0,0,1,1.222-.708,7.109,7.109,0,0,1,1.279-.365h.753a6.116,6.116,0,0,1,.651.194c.639.3,1.244.651,1.849.982a17.8,17.8,0,0,0,2.089.913,12.475,12.475,0,0,0,1.907.537,10.761,10.761,0,0,0,1.907.251,7.555,7.555,0,0,0,1.427-.137,4.479,4.479,0,0,0,1.073-.217,10.275,10.275,0,0,0,2.523-1.039,8.226,8.226,0,0,0,.845-.548,18.1,18.1,0,0,0,1.769-1.347c.959-.856,1.792-1.827,2.786-2.648l.674-.468a7.505,7.505,0,0,1,.788-.422,3.863,3.863,0,0,1,.708-.205,11.415,11.415,0,0,1,2.078.08c.97.137,1.952.285,2.922.342a18.862,18.862,0,0,0,3.105-.137,22.127,22.127,0,0,0,3.322-.731c.525-.137,1.05-.274,1.576-.388s.742-.137,1.142-.194l2.009-.194a14.359,14.359,0,0,0,3.619-.662,8.094,8.094,0,0,0,2.5-1.541,11.684,11.684,0,0,0,1.027-1.142,12.42,12.42,0,0,1,1.473-1.427,9.693,9.693,0,0,1,1.347-.753,14.9,14.9,0,0,0,1.906-.845,5.193,5.193,0,0,0,1.735-1.678c.171-.263.331-.537.514-.8l.194-.217.137-.069a5.137,5.137,0,0,1,.685-.194h.308a3.931,3.931,0,0,1,.628.171l.228.126.091.091a4.535,4.535,0,0,1,.228.4,5.94,5.94,0,0,1,.274,1.073,7.81,7.81,0,0,1-.012,1.758Z" transform="translate(-625.53 -235.63)"/>
</svg>
