<svg xmlns="http://www.w3.org/2000/svg" width="166.116" height="132.817" viewBox="0 0 166.116 132.817">
  <defs>
    <style>
      .cls-1 {
        fill: #093e63;
        stroke: #231f20;
        stroke-miterlimit: 10;
      }
    </style>
  </defs>
  <g id="southAfrica" transform="translate(0.689 0.77)">
    <path id="southAfrica-2" data-name="southAfrica" class="cls-1" d="M553.189,628.974c-.514,1.5-.97,2.991-1.438,4.5s-.9,3.014-1.324,4.566a35.6,35.6,0,0,1-1.359,3.984,8.167,8.167,0,0,1-.719,1.221,13.685,13.685,0,0,1-1.039,1.142c-.377.354-.765.674-1.142,1a13.64,13.64,0,0,1-1.541.993c-.662.354-1.347.651-2.009.993a10.091,10.091,0,0,0-1.918,1.4,8.7,8.7,0,0,0-.719.731c-.285.32-.571.639-.833.982a1.335,1.335,0,0,0-.343.776,10.272,10.272,0,0,0-.913,1.142,25.294,25.294,0,0,0-1.69,2.409c-.479.765-.913,1.553-1.4,2.283s-1.062,1.518-1.621,2.283q-1.257,1.63-2.671,3.128c-1.016,1.05-2.066,2.055-3.094,3.082s-2,2.009-2.968,3.037-2.021,2.078-3.037,3.105c-1.313,1.313-2.626,2.6-3.916,3.927a51.366,51.366,0,0,1-4.03,3.7h0c-1.827,1.4-3.676,2.808-5.48,4.258s-3.425,2.751-5.183,4.11c-.993.765-2.009,1.484-3.037,2.2s-2.055,1.484-3.082,2.215-2.146,1.507-3.242,2.215c-.5.32-1,.662-1.53.948s-1.142.605-1.724.879a6.807,6.807,0,0,1-1.416.468c-.479.125-1.073.274-1.621.377a24.966,24.966,0,0,1-3.334.114h-1.758a19.417,19.417,0,0,0-2,.217,14.594,14.594,0,0,0-3.6,1.039,17.3,17.3,0,0,0-1.61.765c-.548.285-1.085.582-1.644.856-.377.148-.742.285-1.142.4a10.346,10.346,0,0,1-1.142.217c-1.142.114-2.283.137-3.425.171h-1.712a20.92,20.92,0,0,1-2.283,0c-1.541-.251-3.014-.753-4.566-1a10.151,10.151,0,0,0-4.715.331,19.9,19.9,0,0,1-2.283.628,5.415,5.415,0,0,1-1.142,0c-1.142-.171-2.283-.445-3.368-.514h-.753a4.916,4.916,0,0,0-.913.057,9.959,9.959,0,0,0-1.9.206,16.154,16.154,0,0,0-3.2,1.37c-.9.48-1.815.948-2.74,1.359a14.265,14.265,0,0,1-1.393.468,13.463,13.463,0,0,1-1.347.285,7.725,7.725,0,0,1-1.027,0l-.571-.057q-.7-.1-1.4-.274l-1.29-.331a18.814,18.814,0,0,0-3.082-.479h-.753a4.99,4.99,0,0,0-1.861.479,8.265,8.265,0,0,0-1.393.765l-.582.434c-.742.571-1.45,1.142-2.18,1.747a6.493,6.493,0,0,1-.97.594l-.285.08h-.24a7.2,7.2,0,0,1-.97-.274,15.2,15.2,0,0,1-1.416-.753,11.42,11.42,0,0,1-1.233-.868c-.468-.377-.948-.765-1.438-1.142a17.741,17.741,0,0,0-1.575-1.027c-1.142-.674-2.283-1.21-3.356-1.975a7.177,7.177,0,0,1-.936-.925,12.817,12.817,0,0,1-1.233-2.135c-.24-.594-.468-1.21-.673-1.827a11.043,11.043,0,0,0-.913-2.055,39.957,39.957,0,0,1-2.466-3.847.16.16,0,0,1,0-.08,5.378,5.378,0,0,1,0-.6,8.4,8.4,0,0,1,.491-1.576c.274-.651.559-1.29.8-1.964a20.729,20.729,0,0,0,.594-2.032,19.739,19.739,0,0,0,.605-4.167,14.191,14.191,0,0,0-.343-3.927c-.16-.582-.365-1.142-.571-1.724a14.006,14.006,0,0,0-.8-1.907,9.3,9.3,0,0,0-1.142-1.4,1.854,1.854,0,0,1-.126-.194.856.856,0,0,0-.948-.388h-.1l-.616-.765a22.013,22.013,0,0,1-1.45-2.283,27.774,27.774,0,0,1-1.29-2.614c-.776-1.872-1.5-3.779-2.226-5.708-.365-.959-.719-1.929-1.142-2.877s-.822-2.009-1.244-3a35.613,35.613,0,0,0-3.048-5.571c-.536-.822-1.142-1.632-1.69-2.42-.194-.274-.4-.525-.6-.788l.308-.263a5.155,5.155,0,0,0,.742-.833,5.033,5.033,0,0,0,.525-.936c.251-.571.457-1.142.685-1.747a6.705,6.705,0,0,1,.617-1.21,3.93,3.93,0,0,1,.3-.32l.422-.251a5.4,5.4,0,0,1,.845-.217,5.205,5.205,0,0,1,.594,0l.377.091.365.228a6.466,6.466,0,0,1,.822.856c.194.274.365.548.537.833a3.434,3.434,0,0,1,.251.548l.308.8a5.948,5.948,0,0,0,.365.833,3.764,3.764,0,0,0,.765.936,11.472,11.472,0,0,0,1.142.845l.605.388a6.292,6.292,0,0,0,1.142.559,8.608,8.608,0,0,0,2.089.434h.9a22.355,22.355,0,0,1,2.283.08c1.221.206,2.363.708,3.55,1.028l.833.228a16.359,16.359,0,0,0,1.633.3,6.21,6.21,0,0,0,2.283-.148c.308-.08.616-.183.913-.274a15.63,15.63,0,0,0,1.712-.662c.559-.24,1.142-.525,1.655-.788l1.678-.776c.5-.217,1.016-.422,1.5-.685a7.606,7.606,0,0,0,.719-.445,4.566,4.566,0,0,0,.753-.651,4.028,4.028,0,0,0,.776-1.267,9.792,9.792,0,0,0,.571-2.671,12.741,12.741,0,0,0-.068-2.637c-.069-.605-.126-1.21-.183-1.827-.091-1.142-.171-2.352-.205-3.528s-.08-2.58-.114-3.881,0-2.34,0-3.5v-3.562c0-2.409-.171-4.818-.217-7.226,0-1.29-.057-2.591-.1-3.881s-.114-2.283-.137-3.425v-2.18a.811.811,0,0,0,.845.251c.274-.08.537-.171.822-.228a5.35,5.35,0,0,1,.605,0,5.157,5.157,0,0,1,1.142.331,6.3,6.3,0,0,1,.856.48,4.626,4.626,0,0,1,.468.479,14.839,14.839,0,0,1,1.37,2.42,41.6,41.6,0,0,1,1.758,5.331c.228.89.422,1.792.617,2.683s.422,1.964.571,2.957a5.448,5.448,0,0,1,0,1.142,1.932,1.932,0,0,1-.148.559,5.514,5.514,0,0,1-.582.959c-.251.308-.525.605-.8.9l-.445.434a2.468,2.468,0,0,0-.285.308,2.206,2.206,0,0,0-.24.331l-.171.377v.468a3.066,3.066,0,0,0,0,.457,3.015,3.015,0,0,0,.217.639,2.842,2.842,0,0,0,.263.354,2.137,2.137,0,0,0,.274.285,3.419,3.419,0,0,0,.628.434,11.526,11.526,0,0,0,1.484.662,7.83,7.83,0,0,0,1.621.4c.594.08,1.2.148,1.8.171a10.01,10.01,0,0,0,1.655-.114,8.587,8.587,0,0,0,3.059-1.027,10.382,10.382,0,0,0,1.4-1.039c.285-.24.559-.514.833-.776.468-.445.936-.89,1.45-1.3a9.62,9.62,0,0,1,1.952-1.141,13.7,13.7,0,0,1,2.443-.708c.468-.1.936-.183,1.416-.263l.674-.114.514-.1a6.006,6.006,0,0,0,.982-.377,3.439,3.439,0,0,0,.617-.377,6.634,6.634,0,0,0,.845-.753,6.46,6.46,0,0,0,1.142-1.781,20.417,20.417,0,0,0,1.256-4.327,18.269,18.269,0,0,1,.8-2.911,5.041,5.041,0,0,1,.457-.845,5.533,5.533,0,0,1,.639-.628,3.326,3.326,0,0,1,.514-.3,3.445,3.445,0,0,1,.365-.1h.274a4.783,4.783,0,0,1,.685.217,22.912,22.912,0,0,1,2.283,1.244,20.966,20.966,0,0,0,2.18,1.142c1.313.7,2.706,1.256,4.076,1.838l3.5,1.5,1.747.765.993.411a5.777,5.777,0,0,0,2.363.411,12.357,12.357,0,0,0,3.2-.662l1.952-.559c1.233-.342,2.466-.674,3.687-1.027a6.553,6.553,0,0,0,1.644-.639,4.03,4.03,0,0,0,1.507-1.815,5.787,5.787,0,0,0,.422-1.3,10.827,10.827,0,0,0,.183-1.473v-.856a34.717,34.717,0,0,1,.057-3.779,8.254,8.254,0,0,1,.285-1.142,4.988,4.988,0,0,1,.4-.674,5.963,5.963,0,0,1,.753-.765,7.631,7.631,0,0,1,1.2-.662c.559-.217,1.142-.422,1.7-.594s1.222-.331,1.838-.468l.434-.114a6.775,6.775,0,0,0,1.221-.434,4.782,4.782,0,0,0,.982-.662,3.22,3.22,0,0,0,.845-1.336,7.637,7.637,0,0,0,.354-1.142,9.9,9.9,0,0,0,.137-1.016c0-.24.057-.468.08-.708.08-.422.148-.845.251-1.267a7.333,7.333,0,0,1,.388-1.142,4.26,4.26,0,0,1,.457-.8,8.264,8.264,0,0,1,1-.993,6.858,6.858,0,0,1,1.142-.651c.5-.194,1.027-.343,1.541-.491a8.9,8.9,0,0,0,1.142-.342,4.794,4.794,0,0,0,1.564-.993,5.707,5.707,0,0,0,.845-1.142l.342-.525.708-1a18.557,18.557,0,0,1,2.477-2.534,18.757,18.757,0,0,1,3.128-2.066,14.031,14.031,0,0,1,2.283-.5,14.488,14.488,0,0,0,1.964-.479,20.573,20.573,0,0,0,2.169-.8,3.7,3.7,0,0,0,1.05-.708,4.568,4.568,0,0,0,.525-.628,1.69,1.69,0,0,0,.285-1.141,5.772,5.772,0,0,0,1.073.308,15.368,15.368,0,0,0,1.792.137l1.7.08c1.142,0,2.283.114,3.368.137,2.043,0,4.11,0,6.142.171,1.062.171,2.112.434,3.162.674.594.126,1.142.263,1.792.354a5.807,5.807,0,0,0,.879.068c.342.639.662,1.29.993,1.929s.445.97.674,1.461a13.181,13.181,0,0,1,.536,1.381c.16.468.388,1.142.559,1.712.342,1.142.651,2.283.982,3.493s.571,2.032.776,3.06c.126.582.24,1.142.342,1.758s.16,1.142.24,1.655c.228,1.461.536,2.911.765,4.372.126,1.027.206,2.043.32,3.071s.228,2.169.274,3.254.08,2.283.08,3.345,0,2.18-.1,3.254a1.244,1.244,0,0,1,0,.3c-.068.388-.137.776-.228,1.142a9.429,9.429,0,0,1-.388,1.142,9.952,9.952,0,0,1-.959,1.826l-.148.16h0a2.517,2.517,0,0,1-.422.1h-.548l-.3-.08c-.548-.251-1.073-.559-1.621-.822a6.847,6.847,0,0,0-2.9-.731,4.178,4.178,0,0,0-2.283.628,11.209,11.209,0,0,0-1.142.925,8.634,8.634,0,0,0-.97.97,6.851,6.851,0,0,0-1.221,2.181c-.354,1.05-.674,2.123-1.073,3.162-.194.5-.4,1-.548,1.53a4.249,4.249,0,0,0-.228,1.359,3.677,3.677,0,0,0,.228,1.05,10.279,10.279,0,0,0,.525,1.142,15.555,15.555,0,0,0,1.37,2.043,17.431,17.431,0,0,0,1.142,1.416,7.969,7.969,0,0,0,.617.628,8.305,8.305,0,0,0,.913.765,6.13,6.13,0,0,0,1.21.639c.274.114.559.24.845.331a7.126,7.126,0,0,0,.856.183,9.889,9.889,0,0,0,1.016.114,6.053,6.053,0,0,0,1.564-.137,8.512,8.512,0,0,0,1.7-.708,8.132,8.132,0,0,0,.822-.434,3.631,3.631,0,0,0,1.381-2.283,5.815,5.815,0,0,0,.148-1.4v-.24l2.945.217,1.4.1h.3Z" transform="translate(-388.49 -575.41)"/>
  </g>
</svg>
