<svg xmlns="http://www.w3.org/2000/svg" width="136.201" height="96.46" viewBox="0 0 136.201 96.46">
  <defs>
    <style>
      .cls-1 {
        fill: #073304;
        stroke: #231f20;
        stroke-miterlimit: 10;
      }
    </style>
  </defs>
  <path id="southSudan" class="cls-1" d="M586.948,320.286l-.354-.263a3.425,3.425,0,0,0-1.084-.445l-.525-.069a2.624,2.624,0,0,0-.788.057l-.548.137a7.6,7.6,0,0,0-.845.331l-.993.422-1.758.765a8.864,8.864,0,0,0-1.438.8,28.088,28.088,0,0,0-2.706,2.283l-1.142.776a13.807,13.807,0,0,0-1.427,1.142c-.388.354-.742.742-1.142,1.142s-.7.708-1.039,1.073l-2.192,2.42a22.824,22.824,0,0,1-2.283,2.169,5.978,5.978,0,0,1-1.039.628,7.17,7.17,0,0,1-1.37.377,6,6,0,0,1-1.141,0c-1.039-.183-2.043-.5-3.082-.719a6.848,6.848,0,0,0-1.53-.16,7.286,7.286,0,0,0-1.313.194c-.5.114-.982.308-1.461.468-1,.331-1.986.685-2.968,1.027l-1.473.537c-.457.16-.9.354-1.37.48l-.148-.171-.263-.365c-.16-.205-.32-.4-.491-.582a3.424,3.424,0,0,0-.662-.491,5.5,5.5,0,0,0-.879-.377,5.257,5.257,0,0,0-.731-.183,7.883,7.883,0,0,0-1.267-.091,2.011,2.011,0,0,0-.685.08,9.337,9.337,0,0,1-1,.137l-1.3.24a18.351,18.351,0,0,0-2.58.822l-1.142.468-.617.217-.354.126a1.417,1.417,0,0,0-.377,0,1.854,1.854,0,0,0-.4.194,4.634,4.634,0,0,0-1.541-.559c-.617-.114-1.222-.171-1.85-.24a5.408,5.408,0,0,1-.936-.251,4.767,4.767,0,0,1-.525-.3,7.248,7.248,0,0,1-.765-.8c-.457-.616-.856-1.267-1.3-1.9s-.868-1.142-1.324-1.769-.776-.9-1.142-1.347-.776-.833-1.142-1.256a12.246,12.246,0,0,0-1.233-1.2l-.468-.365a2,2,0,0,0-.97-.377,3.607,3.607,0,0,0-2.158.673c-.559.331-1.142.685-1.667,1a17.7,17.7,0,0,1-1.6.833,5.936,5.936,0,0,1-1.267.342c-1.142.114-2.215.171-3.333.228-.514,0-1.027.057-1.553.068a14.257,14.257,0,0,1-1.975,0,5.267,5.267,0,0,1-.856-.24,10.374,10.374,0,0,1-.993-.537,6.747,6.747,0,0,1-.753-.514c-.525-.445-1.039-.913-1.553-1.381a18.261,18.261,0,0,0-1.815-1.541,11.421,11.421,0,0,0-1.849-1.142c-.742-.354-1.5-.685-2.283-.97l-.616-.217c-.114-.354-.217-.708-.331-1.062a12.628,12.628,0,0,1-.3-1.484,23.826,23.826,0,0,0-.639-2.98,6.85,6.85,0,0,0-.731-1.587l-.422-.639a7.442,7.442,0,0,0-1.05-1.142c-.251-.228-.537-.422-.811-.628l-.639-.457-1.2-.879-1.142-.89a8.928,8.928,0,0,1-1.142-1.039l-.137-.228a2.286,2.286,0,0,1-.091-.4,10.212,10.212,0,0,0-.137-1.45,8.156,8.156,0,0,0-.206-1.05,5.7,5.7,0,0,0-.331-.868,5.6,5.6,0,0,0-.719-1.085,8.457,8.457,0,0,0-1.142-1.142c-.445-.411-.936-.776-1.416-1.142-.833-.639-1.667-1.267-2.534-1.849s-1.735-1.027-2.614-1.507a33.731,33.731,0,0,1-3.356-1.941,7.016,7.016,0,0,1-.879-.868,5.927,5.927,0,0,1-.479-.822c-.126-.342-.217-.685-.32-1.039s-.1-.388-.16-.582a6.165,6.165,0,0,0-.479-1.222,3.568,3.568,0,0,0-.331-.514,4.563,4.563,0,0,0-.674-.742,6.665,6.665,0,0,0-.731-.537,10.734,10.734,0,0,0-1.142-.594,13.487,13.487,0,0,0-2.409-.776l-1.142-.251a13.981,13.981,0,0,1-1.552-.377,2.58,2.58,0,0,1-.3-.183.49.49,0,0,1-.137-.126h0v-2.283a12.244,12.244,0,0,0-.114-1.3,3.425,3.425,0,0,0-.776-1.667,2.453,2.453,0,0,0-.571-.514,3.263,3.263,0,0,0-.788-.354,3.757,3.757,0,0,0-.936-.114h-.491a31.966,31.966,0,0,1-4.669.183,4.958,4.958,0,0,1-.708-.183l-.331-.183-.206-.194a7.245,7.245,0,0,1-.628-1.142,4.775,4.775,0,0,1-.285-.925v-.365a4.325,4.325,0,0,1,.217-.731c.08-.24.354-.765.537-1.142.251-.559.48-1.142.674-1.7s.32-.993.457-1.5a10.654,10.654,0,0,0,.3-1.575,3.132,3.132,0,0,0,0-.731h.434c.685.1,1.358.183,2.044.251a9.532,9.532,0,0,0,3.311-.308c1.336-.365,2.66-.776,3.984-1.142.582-.171,1.142-.32,1.758-.468l.9-.251.514-.194a2.5,2.5,0,0,0,.571-.308,2.921,2.921,0,0,0,.525-.537,6.005,6.005,0,0,0,.925-2.352c.091-.377.16-.765.24-1.142a12.864,12.864,0,0,1,.4-1.861.474.474,0,0,1,0-.1,4.978,4.978,0,0,1,.9-.228,7.839,7.839,0,0,1,1.553,0,18.86,18.86,0,0,1,1.906.4,13.627,13.627,0,0,1,1.6.5l.274.148h0a3.769,3.769,0,0,1,.205.365,14.952,14.952,0,0,1,.537,2.283c.068.365.148.719.24,1.085a9.347,9.347,0,0,0,.959,2.352,10.876,10.876,0,0,0,1.29,1.781l.479.514a5.114,5.114,0,0,0,1.2.89,5.6,5.6,0,0,0,1.4.514,6.745,6.745,0,0,0,1.507.205,10.775,10.775,0,0,0,2.42-.274c1.4-.251,2.8-.594,4.19-.9s2.74-.491,4.11-.719l1.027-.148h-.331a10.888,10.888,0,0,1,1.918-.171l.274.08a4.224,4.224,0,0,1,.536.331,9.517,9.517,0,0,1,.685.674c.171.171.331.365.514.525a10.54,10.54,0,0,0,1.142.948,4.349,4.349,0,0,0,.959.457,5.89,5.89,0,0,0,1.256.285,14.327,14.327,0,0,0,3.128,0l1.53-.148a6.963,6.963,0,0,0,2.055-.388,4.132,4.132,0,0,0,.845-.479,5.055,5.055,0,0,0,.9-.879,8.882,8.882,0,0,0,.662-.913c.285-.434.548-.868.845-1.279a4.3,4.3,0,0,1,.388-.4,6.458,6.458,0,0,1,.856-.5c.48-.171.97-.3,1.461-.422l.674-.194a4.636,4.636,0,0,0,1.69-.97,3.971,3.971,0,0,0,.6-.765,5.157,5.157,0,0,0,.434-.913c.1-.24.171-.5.251-.753s.206-.651.32-.982a1.6,1.6,0,0,1,.274-.5l.091-.08a2.278,2.278,0,0,1,.365-.206,2.154,2.154,0,0,1,.388-.1h.24a2.188,2.188,0,0,1,.365.1,6.849,6.849,0,0,1,.788.468l1.141.936c.491.422,1,.822,1.53,1.2a14.839,14.839,0,0,0,1.484.868c.479.251.97.491,1.473.708a12.991,12.991,0,0,0,3.425.948,10.811,10.811,0,0,0,2.968-.16,5.3,5.3,0,0,0,1.142-.171,3.2,3.2,0,0,0,1-.4,4.993,4.993,0,0,0,.856-.628,9.136,9.136,0,0,0,1.29-1.37c.411-.5.8-1.016,1.21-1.507l1.438-1.678c.959-1.142,1.975-2.226,2.877-3.425s1.667-2.192,2.42-3.345a8.526,8.526,0,0,0,.765-1.553,4.978,4.978,0,0,0,.285-1.827,6.43,6.43,0,0,0-.1-1.05,5.451,5.451,0,0,0-.263-1.05,15.615,15.615,0,0,0-.708-1.61c-.217-.445-.411-.89-.616-1.347s-.479-1.142-.708-1.781a9.852,9.852,0,0,1-.582-1.781,2.484,2.484,0,0,1,0-.411.162.162,0,0,1,0-.068h.069a5.222,5.222,0,0,1,.845,0l1,.16a2.478,2.478,0,0,0,1.29-.08,1.8,1.8,0,0,0,.4-.183l.365-.285a2.8,2.8,0,0,0,.514-.639,7.225,7.225,0,0,0,.662-1.37c.114-.274.217-.559.331-.845a1.989,1.989,0,0,1,.205-.377h0l.091-.057a3.976,3.976,0,0,1,.5-.114,10.684,10.684,0,0,1,2,.08,2.158,2.158,0,0,1,.388.1l.354.217a2.391,2.391,0,0,1,.24.24,4.821,4.821,0,0,1,.343.628,5.777,5.777,0,0,1,.377,2.694,5.116,5.116,0,0,1-.069.708c-.091.639-.274,1.279-.422,1.906s-.3,1.381-.4,2.078a9.211,9.211,0,0,0-.057,2.854,10.85,10.85,0,0,0,.845,2.58,17.352,17.352,0,0,0,2.192,3.779,16.936,16.936,0,0,0,2.991,3.071,10.991,10.991,0,0,0,1.393.879,12.411,12.411,0,0,1,1.313.868,9.852,9.852,0,0,1,1.3,1.142,3.974,3.974,0,0,1,.24.422,3.243,3.243,0,0,1,.148.548,6.036,6.036,0,0,1,0,.788,4.4,4.4,0,0,1-.194.936c-.068.308-.183.959-.24,1.45a5.174,5.174,0,0,0,.434,2.42,4.222,4.222,0,0,0,.7,1.016c.114.126.24.251.343.377a.287.287,0,0,1,0,.08,5.829,5.829,0,0,1,.228.982,31.967,31.967,0,0,1,.091,4.441c0,1.575-.068,3.174-.217,4.749v.057l-.674-.24-1.142-.468a16.193,16.193,0,0,0-2.4-.856c-.457-.091-.925-.16-1.393-.205h-.731a5.432,5.432,0,0,0-.753.1,2.762,2.762,0,0,0-.651.228,2.5,2.5,0,0,0-.445.331,1.834,1.834,0,0,0-.274.32,1.142,1.142,0,0,0-.24.411,3.264,3.264,0,0,0-.263,1.507v1.37a2.594,2.594,0,0,1-.08.32,3.569,3.569,0,0,1-.251.411c-.217.263-.445.525-.639.8a2.831,2.831,0,0,0-.422.925,2.648,2.648,0,0,0,.171,1.541,3.835,3.835,0,0,0,.776,1.142,5.377,5.377,0,0,0,1.2.833,7.534,7.534,0,0,0,2.283.754c.7.137,1.415.228,2.112.354a12.243,12.243,0,0,1,2.192.605,9.133,9.133,0,0,1,1.279.788,17.117,17.117,0,0,1,2.283,2.283c.354.491.719.993,1.039,1.518s.719,1.2,1.05,1.815c.7,1.279,1.37,2.557,2.055,3.824s1.336,2.5,2.044,3.733,1.461,2.409,2.215,3.6c.32.5.651.993,1,1.473.217.3.434.594.674.879a4.442,4.442,0,0,0,1.37,1.142,9.19,9.19,0,0,0,2.055.662,19.807,19.807,0,0,1,1.964.5,6.662,6.662,0,0,1,.776.468,7.583,7.583,0,0,1,1,1.142,8.692,8.692,0,0,1,.536.788c.194.32.365.639.536.97.308.582.571,1.2.833,1.8s.491,1.142.719,1.758c.114.3.217.594.32.9s.228.605.32.913l-.263.069a3.528,3.528,0,0,1-.491,0,5.9,5.9,0,0,1-.879-.24,6.172,6.172,0,0,1-.742-.457,18.081,18.081,0,0,1-1.61-1.5,10.823,10.823,0,0,0-1.393-1.347Z" transform="translate(-456.75 -240.006)"/>
</svg>
