<svg xmlns="http://www.w3.org/2000/svg" width="27.787" height="23.616" viewBox="0 0 27.787 23.616">
  <g id="Sub" transform="translate(-543 -135.999)">
    <path id="Icon_ionic-ios-arrow-forward" data-name="Icon ionic-ios-arrow-forward" d="M20.679,18,11.742,9.07a1.681,1.681,0,0,1,0-2.384,1.7,1.7,0,0,1,2.391,0L24.258,16.8a1.685,1.685,0,0,1,.049,2.327L14.14,29.32a1.688,1.688,0,0,1-2.391-2.384Z" transform="translate(531.753 129.803)" fill="#373737"/>
    <path id="Icon_ionic-ios-arrow-forward-2" data-name="Icon ionic-ios-arrow-forward" d="M18.683,15.5,11.637,8.462a1.325,1.325,0,0,1,0-1.879,1.342,1.342,0,0,1,1.885,0l7.983,7.977a1.328,1.328,0,0,1,.039,1.835l-8.016,8.033a1.331,1.331,0,0,1-1.885-1.879Z" transform="translate(542.753 131.803)" fill="#373737"/>
    <path id="Icon_ionic-ios-arrow-forward-3" data-name="Icon ionic-ios-arrow-forward" d="M16.686,13l-5.154-5.15a.969.969,0,0,1,0-1.375.982.982,0,0,1,1.379,0l5.839,5.835a.972.972,0,0,1,.028,1.342l-5.864,5.876a.973.973,0,0,1-1.379-1.375Z" transform="translate(551.753 134.803)" fill="#373737"/>
  </g>
</svg>
