<svg xmlns="http://www.w3.org/2000/svg" width="175.761" height="143.288" viewBox="0 0 175.761 143.288">
  <defs>
    <style>
      .cls-1 {
        fill: #ffeb93;
        stroke: #231f20;
        stroke-miterlimit: 10;
      }
    </style>
  </defs>
  <path id="sudan" class="cls-1" d="M590.893,144.6a.844.844,0,0,0,.091.331c.228.491.457.982.674,1.473l.068.263.616,2.032c.183.605.342,1.21.548,1.8.422,1.279.879,2.534,1.336,3.79l.24.845.582,2.112c.183.685.331,1.359.514,2.043.365,1.359.765,2.717,1.142,4.087s.639,2.706.97,4.053.548,2.717.8,4.087a21.365,21.365,0,0,0,1.142,3.927l.183.445-.137-.331a21.141,21.141,0,0,0,1,2.123,13.216,13.216,0,0,0,1.45,1.918,30.645,30.645,0,0,0,2.934,2.774c1,.9,2.009,1.8,3.071,2.66s2.283,1.792,3.482,2.637l.822.582.32.274a.89.89,0,0,0-.673.628c-.069.205-.126.422-.206.628a6.68,6.68,0,0,1-.354.7c-.126.228-.343.582-.537.868a4.958,4.958,0,0,1-.605.594,2.479,2.479,0,0,1-.377.217,7.988,7.988,0,0,1-1.267.331l-.719.068a7.93,7.93,0,0,0-1.142.126l-.434.068a3.9,3.9,0,0,0-1.142.354,3.208,3.208,0,0,0-1.3,1.37,14.477,14.477,0,0,0-.822,1.815c-.251.639-.331,1.336-.559,1.975a2.7,2.7,0,0,1-.251.434,2.287,2.287,0,0,1-.377.365,4.289,4.289,0,0,1-.536.343l-.217.057h-1.507a7.045,7.045,0,0,0-.708.1,2.843,2.843,0,0,0-1.313.537,3.094,3.094,0,0,0-.765,2.009c-.069.491-.114.993-.148,1.484-.069.913-.069,1.815-.148,2.717s-.16,1.827-.206,2.74c-.08,1.587-.205,3.174-.4,4.749a26.633,26.633,0,0,1-.491,2.694c-.217.89-.479,1.77-.742,2.649-.137.468-.274.925-.388,1.393a12.848,12.848,0,0,0-.171,1.518,11.02,11.02,0,0,0,0,1.37c.068.548.137,1.142.217,1.632s.16.936.24,1.4a28.62,28.62,0,0,1-.126,7.055,6.986,6.986,0,0,1-.228,1.279c-.08.422-.183.879-.3,1.3-.251.89-.594,1.758-.925,2.626a8.311,8.311,0,0,0-.377,1.142c-.1.457-.171.913-.24,1.381s-.114,1.027-.137,1.553-.069.856-.114,1.29a8.763,8.763,0,0,1-.4,1.7,4.374,4.374,0,0,1-.331.548,4.688,4.688,0,0,1-.331.343l-.251.137a3.52,3.52,0,0,1-.776.194,10.037,10.037,0,0,0-1.427.068,5.617,5.617,0,0,0-1.324.194,4.292,4.292,0,0,0-1.724,1.027,7,7,0,0,0-1.256,1.838,13.205,13.205,0,0,0-.628,1.427c-.343.879-.651,1.769-.925,2.683a8.89,8.89,0,0,0-.263,2.055c0,.445,0,.9,0,1.336,0,1.358.137,2.717.194,4.064v1.906a19.365,19.365,0,0,1-.137,1.964,8.66,8.66,0,0,1-.434,1.7,1.759,1.759,0,0,1-.559.776l-.183.1h-.24l-.32-.091a15.987,15.987,0,0,1-1.8-1.21,4.566,4.566,0,0,0-1.884-.811h-.365a1.5,1.5,0,0,0-.388,0,1.769,1.769,0,0,0-1.427,1,3.872,3.872,0,0,0-.343,1.6q0,.445,0,.89a16.6,16.6,0,0,1-.114,1.678c-.068.422-.137.856-.24,1.279s-.285,1.142-.445,1.632a7.131,7.131,0,0,1-.228.7c-.08.206-.137.422-.217.628s-.308.731-.457,1.142v-.057a5.051,5.051,0,0,0-.445-.537l-.445-.411a12.981,12.981,0,0,0-1.142-.868c-.411-.285-.571-.445-.879-.639-.605-.4-1.222-.765-1.815-1.142a19.8,19.8,0,0,1-2.957-2.991c-.194-.263-.377-.525-.548-.8s-.422-.708-.628-1.062c-.331-.582-.616-1.21-.89-1.827a4.154,4.154,0,0,1-.16-.4,5.045,5.045,0,0,1-.331-1.233,10.636,10.636,0,0,1,0-2.557q.1-.753.24-1.507c.08-.514.183-1.039.228-1.553s.08-.776.1-1.142a8.2,8.2,0,0,0-.228-2.112,5.174,5.174,0,0,0-.845-1.918,2.89,2.89,0,0,0-.708-.685,3.64,3.64,0,0,0-.833-.445,6.247,6.247,0,0,0-.8-.183l-.868-.114a7.988,7.988,0,0,0-.9-.057,3.847,3.847,0,0,0-1.29.194,3.02,3.02,0,0,0-.434.206l-.377.285a3.719,3.719,0,0,0-.5.7c-.137.228-.24.479-.354.719a9.59,9.59,0,0,1-.8,1.416l-.1.114h-.148c-1.142-.194-2.569-.548-3.619.194a2.089,2.089,0,0,0-.856,1.427,3.643,3.643,0,0,0,.137,1.61c.114.388.274.753.411,1.142.263.742.525,1.484.81,2.215a25.656,25.656,0,0,0,1.142,2.477l.126.308a4.382,4.382,0,0,1,.285,1.073,6.249,6.249,0,0,1,0,1.221,4.018,4.018,0,0,1-.148.616,15.1,15.1,0,0,1-1.632,2.42c-.582.776-1.142,1.564-1.747,2.283s-1.016,1.222-1.518,1.827-1.073,1.313-1.621,1.964-.9,1.142-1.37,1.678a14.99,14.99,0,0,1-1.484,1.587,4.577,4.577,0,0,1-.639.388,3.938,3.938,0,0,1-.525.137,15.668,15.668,0,0,1-3.345.183,9.792,9.792,0,0,1-2.055-.571,15.25,15.25,0,0,1-2.877-1.7c-.525-.434-1.027-.879-1.518-1.347-.308-.285-.617-.571-.936-.833a5.527,5.527,0,0,0-1.884-1.073,3.528,3.528,0,0,0-1.039-.16,3.864,3.864,0,0,0-.731.068,3.552,3.552,0,0,0-.468.126,4.386,4.386,0,0,0-1.142.582,4.5,4.5,0,0,0-.514.411,3.426,3.426,0,0,0-.468.605,3.911,3.911,0,0,0-.263.48,23.167,23.167,0,0,0-.833,2.283,3.229,3.229,0,0,1-.24.434c-.069.068-.126.137-.206.205a2.423,2.423,0,0,1-.411.24c-.377.148-.776.263-1.142.388a9.327,9.327,0,0,0-1.142.445,7.582,7.582,0,0,0-1.621,1.05,3.318,3.318,0,0,0-.537.594c-.137.171-.274.342-.4.525l-.354.548c-.251.377-.479.742-.742,1.142a6.475,6.475,0,0,1-.548.571l-.274.148a6.934,6.934,0,0,1-1.142.24l-1.872.24c-.354,0-.708.068-1.062.08a10.365,10.365,0,0,1-1.324,0,5.127,5.127,0,0,1-.822-.217,6.005,6.005,0,0,1-.742-.434,15.7,15.7,0,0,1-1.313-1.3,5.206,5.206,0,0,0-2.226-1.347l-.537-.08a5.956,5.956,0,0,0-.639,0,2.942,2.942,0,0,0-.445,0c-1.313.126-2.614.4-3.916.617-.594.091-1.142.183-1.769.308s-1.29.274-1.929.422c-1.222.263-2.432.548-3.665.742a7.709,7.709,0,0,1-1.621,0,6.191,6.191,0,0,1-1.142-.285,6.732,6.732,0,0,1-.617-.365,10.268,10.268,0,0,1-1.142-1.142,11.165,11.165,0,0,1-1.016-1.7c-.468-1.221-.594-2.523-.97-3.767a3.927,3.927,0,0,0-1.062-1.849,4.179,4.179,0,0,0-1.541-.731c-.571-.171-1.142-.3-1.724-.422a11.232,11.232,0,0,0-3.139-.342,5.707,5.707,0,0,0-2.18.548,1.941,1.941,0,0,0-.708.685,3.222,3.222,0,0,0-.32.731,14.037,14.037,0,0,0-.411,1.587,18.463,18.463,0,0,1-.673,2.477,3.689,3.689,0,0,1-.251.468l-.08.068h0c-.571.217-1.142.365-1.724.525s-1.267.354-1.884.548l-1.986.628a25.936,25.936,0,0,1-2.569.7,11.735,11.735,0,0,1-2.283,0h-.331a.879.879,0,0,0-.616-.069h-.206a5.266,5.266,0,0,0-1.2,0c-.148-.342-.32-.7-.491-1.039a9.128,9.128,0,0,0-.822-1.256,31.761,31.761,0,0,0-2.283-2.728c-.5-.594-1.039-1.142-1.564-1.747l-1.7-1.861c-.559-.594-1.142-1.2-1.712-1.781l-1.244-1.37a.606.606,0,0,0,.114-.137.514.514,0,0,0-.171-.685l-.251-.183a1.576,1.576,0,0,0,.137-.388,1.9,1.9,0,0,0,0-.879,2.384,2.384,0,0,0-.251-.548,1.7,1.7,0,0,0,0-.24,3.708,3.708,0,0,0,0-1,4.088,4.088,0,0,0-.263-.879,7.807,7.807,0,0,0-.616-1.142l-.7-1.016a21.9,21.9,0,0,1-1.2-2.215c-.171-.365-.388-.708-.582-1.05s-.32-.616-.468-.936a12.238,12.238,0,0,1-.445-1.8c0-.582-.08-1.142-.126-1.781a15.245,15.245,0,0,0-.354-2.477,6.924,6.924,0,0,0-.445-1.233,3.974,3.974,0,0,0-.868-1.222,4.373,4.373,0,0,0-2.055-1.142,18.067,18.067,0,0,0-2.089-.32,7.989,7.989,0,0,1-1.632-.365,3.6,3.6,0,0,1-.354-.205l-.24-.24-.1-.171-.068-.285a2.462,2.462,0,0,1,0-.5,2.654,2.654,0,0,1,.08-.285,1.987,1.987,0,0,1,.125-.205c.114-.126.251-.251.377-.365a12.563,12.563,0,0,1,1.359-.811,4.76,4.76,0,0,0,1.45-1.142,2.568,2.568,0,0,0,.491-.856,3.424,3.424,0,0,0,.16-1.073,4.188,4.188,0,0,0-.194-1.142,2.728,2.728,0,0,0-.194-.708,10.333,10.333,0,0,1-.274-1.142,7.984,7.984,0,0,1,0-1.279,4.05,4.05,0,0,1,.217-.788,4,4,0,0,1,.331-.559c.285-.331.639-.617.948-.936a2.34,2.34,0,0,0,.662-1.142,2.58,2.58,0,0,0-.091-1.142c-.08-.308-.183-.605-.263-.913s-.114-.559-.16-.833a2.283,2.283,0,0,1,.183-1.381,2.885,2.885,0,0,1,.228-.411,4.481,4.481,0,0,1,.525-.514c.24-.171.491-.331.742-.491l.388-.274a4.459,4.459,0,0,0,.457-.354,2.953,2.953,0,0,0,.354-.4,7.044,7.044,0,0,0,.48-.8,6.242,6.242,0,0,1,.468-.742,16,16,0,0,1,1.142-1.2c.377-.4.776-.8,1.142-1.222s.5-.605.742-.925a4.692,4.692,0,0,0,.868-2.055c.091-.651.091-1.324.137-1.975a5.706,5.706,0,0,1,.148-1.244,2.715,2.715,0,0,1,.263-.468l.16-.16a2.148,2.148,0,0,1,.274-.16,5.836,5.836,0,0,1,.993-.285,25.12,25.12,0,0,1,3.425.057c1.142.057,2.283.148,3.425.194a6.085,6.085,0,0,0,1.758-.148,2.5,2.5,0,0,0,.959-.537,1.918,1.918,0,0,0,.514-.959,4.767,4.767,0,0,0,.08-1.21v-.856c0-1.062-.091-2.123-.137-3.185s-.057-2.283-.114-3.425-.1-2.135-.137-3.208c-.069-2.283-.137-4.566-.32-6.781-.091-1.142-.183-2.283-.3-3.482s-.24-2.169-.354-3.265-.194-2.283-.3-3.356-.206-2.169-.274-3.265c-.1-1.838-.171-3.676-.3-5.525s-.32-3.425-.594-5.206a2.514,2.514,0,0,0,.1-.434,5.775,5.775,0,0,0,.068-1.085,10.21,10.21,0,0,1,0-1.324,2.6,2.6,0,0,1,.126-.514.287.287,0,0,0,0-.08l.08-.08.091-.057a2.938,2.938,0,0,1,.548-.126c1.45-.171,2.911-.183,4.361-.217a22.129,22.129,0,0,0,2.283-.08,17.374,17.374,0,0,0,2.18-.183h.194a1.027,1.027,0,0,0,1.027-1.027c-.08-1.941-.171-3.893-.251-5.834-.068-1.347-.171-2.694-.251-4.03-.171-2.751-.388-5.5-.628-8.242-.114-1.142-.206-2.283-.308-3.425h.217l.685.057,1.21.137a.434.434,0,0,0,.4-.217h0c.582,0,1.142.1,1.747.148,1.313.126,2.626.228,3.927.32s2.569.148,3.859.205,2.671.148,4.007.217,2.443.1,3.665.171,2.614.171,3.927.251l3.939.228c1.267.08,2.534.183,3.8.194s2.58,0,3.859,0,2.626-.1,3.939-.16q3.836-.137,7.672,0c2.534,0,5.057,0,7.592-.057l3.779-.091a19.969,19.969,0,0,0,3.779-.331,3.985,3.985,0,0,0,1.221-.468,3.128,3.128,0,0,0,1.221-1.359,4.836,4.836,0,0,0,.4-1.142c.068-.217.137-.434.217-.639a3.764,3.764,0,0,1,.3-.514l.114-.114h.08a2.285,2.285,0,0,1,.217.24l.537.7a3.923,3.923,0,0,0,2.648,1.45,6.307,6.307,0,0,0,1.039,0c.616,0,1.244-.057,1.861-.091l1.975-.091c2.512-.1,5.023,0,7.535,0a15.711,15.711,0,0,0,2.283-.16,5.013,5.013,0,0,0,1.062-.217l.913-.16.685.856a5.985,5.985,0,0,0,.993.948c.228.171.457.331.7.479s.776.514,1.142.753a3.771,3.771,0,0,0,.537.251,2.408,2.408,0,0,0,1.141,0l.708-.1c.879-.114,1.781-.194,2.648-.388l.594-.16a3.687,3.687,0,0,0,1.324-.776,4.017,4.017,0,0,0,.9-1.735c.068-.24.126-.491.194-.742h9.384c1.142,0,2.283-.08,3.425-.114s2.283-.08,3.482-.126,2.283,0,3.356-.08l1.7-.08a10.025,10.025,0,0,0,1.838-.251Z" transform="translate(-438.079 -143.69)"/>
</svg>
