<svg id="tag" xmlns="http://www.w3.org/2000/svg" width="30.383" height="27.149" viewBox="0 0 30.383 27.149">
  <g id="Group_240" data-name="Group 240" transform="translate(0 0)">
    <g id="Group_239" data-name="Group 239" transform="translate(0 0)">
      <path id="Path_4569" data-name="Path 4569" d="M23.7,23.224H14.37a2.229,2.229,0,0,0-1.575.653L.653,36.017a2.229,2.229,0,0,0,0,3.151L9.981,48.5a2.228,2.228,0,0,0,3.15,0l12.143-12.14a2.234,2.234,0,0,0,.653-1.577V25.452A2.227,2.227,0,0,0,23.7,23.224Zm-3.9,7.8a1.671,1.671,0,1,1,1.671-1.671A1.672,1.672,0,0,1,19.8,31.022Z" transform="translate(0 -23.224)" fill="#84a528"/>
    </g>
  </g>
  <g id="Group_242" data-name="Group 242" transform="translate(15.247 2.228)">
    <g id="Group_241" data-name="Group 241" transform="translate(0 0)">
      <path id="Path_4570" data-name="Path 4570" d="M231.9,55.224v10.37a1.935,1.935,0,0,1-.568,1.37L218.988,79.3l.189.189a2.227,2.227,0,0,0,3.15,0l11.142-11.14a2.225,2.225,0,0,0,.654-1.575V57.452A2.227,2.227,0,0,0,231.9,55.224Z" transform="translate(-218.988 -55.224)" fill="#84a528"/>
    </g>
  </g>
</svg>
