<svg xmlns="http://www.w3.org/2000/svg" width="114.087" height="119.537" viewBox="0 0 114.087 119.537">
  <defs>
    <style>
      .cls-1 {
        fill: #073304;
        stroke: #231f20;
        stroke-miterlimit: 10;
      }
    </style>
  </defs>
  <g id="tanzania" transform="translate(0.609 0.5)">
    <path id="tanzania-2" data-name="tanzania" class="cls-1" d="M619.346,410.971a26.961,26.961,0,0,0-1.37,3.105c-.365,1.039-.662,2.089-.936,3.162s-.525,2.123-.776,3.185a31.28,31.28,0,0,0-.582,3.254c-.069.537-.148,1.062-.183,1.6a10.365,10.365,0,0,0,.182,2.283,8.794,8.794,0,0,0,.377,1.53,13.293,13.293,0,0,0,.765,1.815,12.377,12.377,0,0,0,.811,1.347c.285.445.559.89.833,1.336a23.017,23.017,0,0,1,1.29,2.466,6.836,6.836,0,0,1,.251.913v.16a4.564,4.564,0,0,1,0,.97c-.183,1.05-.434,2.078-.674,3.117s-.514,2.283-.7,3.482c-.08.559-.16,1.142-.194,1.69a11.027,11.027,0,0,0,.1,2.032c.171,1.142.388,2.283.571,3.482a49.852,49.852,0,0,1,.377,5.708v2.888a23.6,23.6,0,0,0,.3,3.231c.148.982.32,1.975.514,2.945a2.319,2.319,0,0,0,.114.559,7.265,7.265,0,0,0,.457,1.381,6.054,6.054,0,0,0,1.027,1.427,4.991,4.991,0,0,0,.639.559c.24.194.491.365.742.537a13.162,13.162,0,0,0,1.416.788q.617.32,1.267.617a15.737,15.737,0,0,1,2.4,1.416,3.9,3.9,0,0,1,.536.525,6.973,6.973,0,0,1,.434.742h-.069a.982.982,0,0,0-.788.445l-.1.16c-.594.742-1.142,1.484-1.758,2.283a3.233,3.233,0,0,1-.365.422,5.156,5.156,0,0,1-.582.537,12.04,12.04,0,0,1-1.016.673c-.343.194-.7.365-1.062.537-1.632.628-3.356.948-5,1.53a21.362,21.362,0,0,0-2.728,1.142c-.765.4-1.518.822-2.283,1.142a4.332,4.332,0,0,1-.753.206,4.44,4.44,0,0,1-.674,0,13.934,13.934,0,0,1-2.112-.616c-.457-.148-.9-.308-1.37-.434a5.412,5.412,0,0,0-1.541-.171,3.778,3.778,0,0,0-1.518.491,6.424,6.424,0,0,0-1.221.913l-.811.731c-.536.491-1.062.982-1.621,1.438a5.476,5.476,0,0,1-.776.479,5.178,5.178,0,0,1-1.233.331c-1.3.16-2.614.171-3.916.285a15.821,15.821,0,0,0-2.089.263l-2.044.377a9.128,9.128,0,0,1-1.769.068,4.458,4.458,0,0,1-.765-.206,5.761,5.761,0,0,1-.8-.491c-.331-.308-.639-.628-.982-.913a7.357,7.357,0,0,0-1.073-.811,3.54,3.54,0,0,0-1.918-.457,4.224,4.224,0,0,0-2.112.868,8.179,8.179,0,0,1-1.21.639,7.073,7.073,0,0,1-1.53.422,15.676,15.676,0,0,1-2.066.069h-1.256l-2.831-.228c-.08-.308-.171-.605-.274-.9-.183-.48-.4-.936-.616-1.393-.411-.845-.8-1.69-1.142-2.557-.24-.594-.457-1.142-.662-1.815a12.477,12.477,0,0,1-.422-1.827c-.126-1.142-.171-2.215-.251-3.322a13.106,13.106,0,0,0-.24-1.781,15.57,15.57,0,0,0-.479-1.621,17.565,17.565,0,0,0-1.655-3.185,26.84,26.84,0,0,0-1.872-2.911,5.42,5.42,0,0,0-.9-.868,5.847,5.847,0,0,0-.742-.479c-.982-.548-2.283-1.085-3.276-.331a1.611,1.611,0,0,0-.491.514,9.523,9.523,0,0,0-1.4-.616,7.13,7.13,0,0,0-1.7-.263,14.843,14.843,0,0,0-3.425.434,3.746,3.746,0,0,1-.8,0,3.815,3.815,0,0,1-.616-.183,4.658,4.658,0,0,1-.651-.388,17.415,17.415,0,0,0-2.843-2.283,10.271,10.271,0,0,0-1.141-.525l-.845-.251-1.358-.411c-.891-.263-1.781-.548-2.671-.833l-1.142-.377q-.582-.205-1.142-.445a9.771,9.771,0,0,1-1.427-.811c-.674-.571-1.29-1.21-1.952-1.792a26.245,26.245,0,0,0-2.512-1.838,8.2,8.2,0,0,0-.616-1.541,8.584,8.584,0,0,0-.879-1.324,9.893,9.893,0,0,1-.9-1.381c-.548-1.062-1.016-2.158-1.507-3.242s-.936-2.1-1.438-3.139c-.411-.856-.868-1.678-1.244-2.546-.114-.32-.228-.639-.32-.959s-.217-.776-.3-1.142c-.171-.708-.3-1.438-.4-2.158v-.034h0a19.085,19.085,0,0,0-.354-1.964,5.283,5.283,0,0,0-.8-1.769,5.022,5.022,0,0,0-2.123-1.712,12.9,12.9,0,0,0-2.135-.776c-.617-.171-1.256-.251-1.861-.468a3.776,3.776,0,0,1-.365-.205l-.08-.08a4.556,4.556,0,0,1-.4-.674,3.2,3.2,0,0,1-.114-.445,1.924,1.924,0,0,1,0-.263.21.21,0,0,1,.057-.171,2.9,2.9,0,0,1,.183-.32c.354-.411.708-.81,1.027-1.244a4.1,4.1,0,0,0,.7-1.541,5.857,5.857,0,0,0,0-2.043,12.563,12.563,0,0,0-.594-1.758,13.482,13.482,0,0,0-.559-1.416c-.354-.822-.765-1.621-1.142-2.432s-.753-1.564-1.142-2.363a6.711,6.711,0,0,1-.331-.913,9.93,9.93,0,0,1-.262-1.29c-.114-.788-.217-1.587-.365-2.375a1.518,1.518,0,0,0,.765-.16,5.931,5.931,0,0,0,1.016-.571c.411-.285.8-.594,1.2-.913a9.759,9.759,0,0,0,2.512-2.922c.422-.662.788-1.359,1.142-2.044a19.39,19.39,0,0,1,1.21-1.827,17.47,17.47,0,0,1,1.37-1.53c.571-.571,1.142-1.142,1.735-1.678a7.216,7.216,0,0,0,1.564-2.226c.1-.251.206-.5.285-.765a3.883,3.883,0,0,0,.114-.89,2.808,2.808,0,0,0-.411-1.473,3.848,3.848,0,0,0-1.358-1.21c-.16-.1-.342-.194-.514-.285a10.187,10.187,0,0,1-1.3-.708l-.068-.068h0a6.852,6.852,0,0,1,.068-1.45c.069-.514.148-1.016.194-1.53v-.5a2.662,2.662,0,0,0-.228-1.073,2.926,2.926,0,0,0-.274-.445l.628.057h1.267a3.106,3.106,0,0,0,1.769-.445,3.425,3.425,0,0,0,1.142-2.922,6.205,6.205,0,0,0,0-.651c0-.251,0-.514,0-.776a27.212,27.212,0,0,0-.354-2.717c-.126-.8-.251-1.587-.354-2.386l-.137-1.016a4.889,4.889,0,0,0-.171-1.073,5.458,5.458,0,0,0-.616-1.427,6.118,6.118,0,0,0-1.564-1.6l-.171-.114a4.839,4.839,0,0,1,.48-.251,8.746,8.746,0,0,1,1.7-.388c1.507-.16,3.025-.24,4.566-.285l2.226-.08a6.024,6.024,0,0,0,1.427-.114l1.062-.205h.217v.3a9.054,9.054,0,0,1,.1,1.142v1.29c-.069.856-.148,1.712-.251,2.569-.057.422-.114.856-.194,1.279s-.217,1.039-.354,1.564-.285,1.027-.422,1.53l-.24.822c-.068.24-.137.491-.183.742s-.137.685-.183,1.039a10.9,10.9,0,0,0-.08,1.724,13.293,13.293,0,0,0,.069,1.667c.068.525.126,1.2.217,1.792a7.33,7.33,0,0,0,.719,2.34,2.647,2.647,0,0,0,.331.445,2.556,2.556,0,0,0,.434.354,1.667,1.667,0,0,0,.525.228,2.59,2.59,0,0,0,.674.091,4.362,4.362,0,0,0,1.918-.274,3.917,3.917,0,0,0,1-.559,3.426,3.426,0,0,0,.571-.582l.525-.708.24-.251h.171a3.582,3.582,0,0,1,.388.24,5.226,5.226,0,0,1,.605.628,6.19,6.19,0,0,1,.571.891c.1.308.194.628.285.936a7.5,7.5,0,0,0,.788,1.838,4.3,4.3,0,0,0,.765.936,3.123,3.123,0,0,0,.479.365,3.422,3.422,0,0,0,.742.354,5.489,5.489,0,0,0,1.21.285,4.563,4.563,0,0,0,1.142,0,2.2,2.2,0,0,0,.525-.183,1.585,1.585,0,0,0,.491-.32,2.044,2.044,0,0,0,.514-.982,5.546,5.546,0,0,0,.068-1.233,13.947,13.947,0,0,1,.08-1.541,6.2,6.2,0,0,1,.285-1.027,5.3,5.3,0,0,1,.434-.788l.274-.274.274-.16a3.939,3.939,0,0,1,.525-.137,11.114,11.114,0,0,1,1.233,0h1.016a5.777,5.777,0,0,0,1.073-.148,6,6,0,0,0,1.142-.457,5.1,5.1,0,0,0,1.815-1.37,4.647,4.647,0,0,0,1.039-2.043,2.763,2.763,0,0,0,0-1.222,3.422,3.422,0,0,0-.662-1.142,2.638,2.638,0,0,0-.913-.674,5.469,5.469,0,0,0-1.028-.354c-.342-.091-.674-.183-1-.3l-.171-.091.16-.137a15.31,15.31,0,0,1,1.838-1.05,10.514,10.514,0,0,0,2.489-2.009,13.694,13.694,0,0,0,.925-1.062l.388-.514c.126-.171.24-.365.354-.548a14.674,14.674,0,0,0,1.028-2.283c.171-.4.354-.788.548-1.142a67.138,67.138,0,0,0,6.29,4.932c1.039.719,2.123,1.347,3.208,1.975s2.2,1.244,3.311,1.849,2.283,1.21,3.425,1.769,2.2.948,3.288,1.461,2.386,1.142,3.573,1.735,2.386,1.142,3.6,1.61l1.233.514c1.142.457,2.18.925,3.276,1.37l2.74,1.142,1.884.845a13.008,13.008,0,0,1,1.906.97,1.07,1.07,0,0,0,.114.114,3.149,3.149,0,0,1,.194.331,2.653,2.653,0,0,0,.114.5v3.185a7.846,7.846,0,0,0,.16,1.45,6.263,6.263,0,0,0,.514,1.5,4.426,4.426,0,0,0,.674,1.142,5.869,5.869,0,0,0,.856.742,11.854,11.854,0,0,0,1.142.765l1.633.97c1.039.628,2.066,1.267,3.059,1.964.491.354.97.719,1.461,1.062l1.655,1.142c.9.605,1.792,1.221,2.751,1.735l1.393.742.594.354Z" transform="translate(-516.67 -369.93)"/>
    <g id="Group_776" data-name="Group 776" transform="translate(103.37 50.58)">
      <path id="Path_5062" data-name="Path 5062" class="cls-1" d="M613.739,417.391a3.62,3.62,0,0,0-.811-1.461,4.244,4.244,0,0,0-.525-.491,9.5,9.5,0,0,0-.765-.571,3.619,3.619,0,0,0-1.861-.616,2.2,2.2,0,0,0-.537,0,1.359,1.359,0,0,0-.982,1.29,1.027,1.027,0,0,0-.411.537c-.137.422-.285.833-.4,1.244a6.962,6.962,0,0,0-.217,1.381,4.361,4.361,0,0,0,.5,2.4,11.316,11.316,0,0,0,1.553,1.827c.457.651.708,1.4,1.142,2.043a2.957,2.957,0,0,0,.776.822,1.849,1.849,0,0,0,1.4.24,2.455,2.455,0,0,0,1-.571,2.046,2.046,0,0,0,.354-.422,2.593,2.593,0,0,0,.3-.685,4.5,4.5,0,0,0,.08-.685,3.668,3.668,0,0,0,0-.605,5.83,5.83,0,0,0-.126-.879c-.046-.3-.091-.525-.126-.788-.091-.571-.206-1.142-.3-1.69a10.1,10.1,0,0,1,0-1.142,3.837,3.837,0,0,0-.057-1.176Z" transform="translate(-607.218 -414.236)"/>
      <path id="Path_4837" data-name="Path 4837" class="cls-1" d="M613.976,426.114v-.8l-.386.216a11.75,11.75,0,0,0-1.117-1.379,9.225,9.225,0,0,0-1.675-1.325,12.835,12.835,0,0,1-1.267-1.035c-.129-.182-.279-.363-.387-.544a5.989,5.989,0,0,1-.258-.817,8.013,8.013,0,0,1,0-1.434,13.239,13.239,0,0,1,.752-2.359h.129l.73.181a10.558,10.558,0,0,1,1.847.944l.58.454a.535.535,0,0,0,0,.145h0v1.942a14.786,14.786,0,0,0,.429,2.359A10.332,10.332,0,0,1,613.976,426.114Z" transform="translate(-607.567 -414.686)"/>
    </g>
  </g>
</svg>
