<svg xmlns="http://www.w3.org/2000/svg" width="30.08" height="6.705" viewBox="0 0 30.08 6.705">
  <defs>
    <style>
      .cls-1 {
        fill: #5e2402;
        stroke: #231f20;
        stroke-miterlimit: 10;
      }
    </style>
  </defs>
  <g id="theGambia" transform="translate(1.04 0.5)">
    <path id="Path_4737" data-name="Path 4737" class="cls-1" d="M75.62,221.778c.217-.148.422-.3.651-.422a5.983,5.983,0,0,0,1.747-.708,2.467,2.467,0,0,0,.5-.468c.651.1,1.29.217,1.941.308l2.283.285,1.644.24.365.057a3.288,3.288,0,0,0-.913.377,8.5,8.5,0,0,0-1.142,1.062l-.16.091a3.478,3.478,0,0,1-.616.16,13.762,13.762,0,0,1-2.169,0,19.811,19.811,0,0,1-2.283-.183,9.986,9.986,0,0,1-1.929-.4H75.3Z" transform="translate(-75.3 -217.098)"/>
    <path id="Path_4744" data-name="Path 4744" class="cls-1" d="M85.78,221.35a4.874,4.874,0,0,0,1.142-.491,8.1,8.1,0,0,0,1.142-.845,7.987,7.987,0,0,0,.628-.616,15.5,15.5,0,0,1,1.267-1.461,2.863,2.863,0,0,1,.514-.3,3.009,3.009,0,0,1,.548-.16h.228l.24.068a3.052,3.052,0,0,1,.411.251c.263.205.5.434.753.674s.5.479.776.7a4.073,4.073,0,0,0,.845.571l.776.343a5.708,5.708,0,0,0,1.142.32,20.55,20.55,0,0,0,2.626.388H101.2l.4.1.285.171.183.183a2.956,2.956,0,0,1,.217.377,1.61,1.61,0,0,1,.068.251h0v.091c-.137.148-.274.274-.422.411a5.6,5.6,0,0,1-.765.422,2.908,2.908,0,0,1-.616.171h-.479a6.109,6.109,0,0,1-1.21-.331,27.4,27.4,0,0,0-4.966-2.283c-.445-.114-.9-.183-1.359-.263s-.879-.183-1.324-.251a5.709,5.709,0,0,0-1.324-.126,3.493,3.493,0,0,0-1.575.639c-.468.263-.89.616-1.381.856a3.258,3.258,0,0,1-.571.16Z" transform="translate(-73.816 -217.48)"/>
  </g>
</svg>
