<svg xmlns="http://www.w3.org/2000/svg" width="15.765" height="53.654" viewBox="0 0 15.765 53.654">
  <defs>
    <style>
      .cls-1 {
        fill: #5e2402;
        stroke: #231f20;
        stroke-miterlimit: 10;
      }
    </style>
  </defs>
  <path id="togo" class="cls-1" d="M244.361,285.651c0,1.142-.069,2.215-.091,3.322v1.884c0,.628-.069,1.244-.114,1.861-.08,1.142-.126,2.386-.251,3.573s-.377,2.386-.525,3.585a15.8,15.8,0,0,0-.148,1.8v.788a5.093,5.093,0,0,0,.08.582c-.616.285-1.222.605-1.815.925a18.2,18.2,0,0,0-2.089,1.359l-.331-.308-1.5-1.37a25.473,25.473,0,0,1-2.637-2.8,5.288,5.288,0,0,1-.491-.811,3.506,3.506,0,0,1-.16-.594v-.217a7.849,7.849,0,0,1,.422-1.267c.091-.217.171-.445.24-.662a6.568,6.568,0,0,0,.228-.81,3.483,3.483,0,0,0,0-1.142,4.155,4.155,0,0,0-.913-1.918,8.255,8.255,0,0,1-.936-1.393,1.958,1.958,0,0,1-.08-.24v-.1a3.48,3.48,0,0,1,.194-.582,7.622,7.622,0,0,0,.285-.708,6.586,6.586,0,0,0,.354-1.77q0-.377,0-.753v-.753a6.549,6.549,0,0,1,.331-1.233,4.108,4.108,0,0,1,.354-.616l.388-.434a10.066,10.066,0,0,0,.7-.868,2.775,2.775,0,0,0,.388-.833,2.669,2.669,0,0,0,.057-.32,2.136,2.136,0,0,0,0-.605,3.756,3.756,0,0,0-.388-1.244c-.388-.788-.925-1.484-1.29-2.283a3.081,3.081,0,0,1-.206-.651,1.717,1.717,0,0,1,0-.342,4.168,4.168,0,0,1,.205-.639,10.948,10.948,0,0,0,1.142-3.425V273.3a4.041,4.041,0,0,0-.091-1.142,2.671,2.671,0,0,0-1.233-1.644c-.194-.137-.411-.251-.616-.377s-.433-.263-.639-.411h0v-1.4a12.717,12.717,0,0,1,.16-1.655c.069-.514.205-1.233.3-1.861a7.992,7.992,0,0,0,.08-2.089c-.057-.457-.114-.913-.205-1.37a3.63,3.63,0,0,0-1.142-1.769,7.767,7.767,0,0,0-.651-.571,11.952,11.952,0,0,1-1.906-1.735,3.3,3.3,0,0,1-.217-.331c0-.068,0-.148,0-.217v-.342a1.385,1.385,0,0,1,0-.206c.183-.342.365-.685.525-1.039a4.19,4.19,0,0,0,.4-2.169H231c1.085,0,2.169-.148,3.254-.137s2.169.08,3.242.1h.08c-.559.731-1.142,1.45-1.61,2.2a8.772,8.772,0,0,0-.639,1.267,4.111,4.111,0,0,0-.148.4,2.064,2.064,0,0,0-.068.594,2.2,2.2,0,0,0,.091.548,2.65,2.65,0,0,0,.205.525,5.709,5.709,0,0,0,.982,1.415,10.266,10.266,0,0,0,1.142,1.142c.434.377.913.719,1.381,1.062s.742.491,1.142.742l1.085.765a6.706,6.706,0,0,1,.822.788c.114.171.228.342.32.514a3.261,3.261,0,0,1,.114.479,6.227,6.227,0,0,1,0,1.142,3.3,3.3,0,0,1-.137.731c-.057.24-.171.616-.274.925a8.55,8.55,0,0,0-.205.9,5.7,5.7,0,0,0-.1.982,3.959,3.959,0,0,0,.114.822,3.425,3.425,0,0,0,.217.662c.274.662.639,1.29.97,1.929s.514.97.742,1.473a9,9,0,0,1,.32,1.21c.068,1.039,0,2.078.1,3.117s.08,2.146.091,3.231S244.373,284.567,244.361,285.651Z" transform="translate(-229.097 -252.33)"/>
</svg>
