<svg xmlns="http://www.w3.org/2000/svg" width="36.342" height="73.639" viewBox="0 0 36.342 73.639">
  <defs>
    <style>
      .cls-1 {
        fill: #ffeb93;
        stroke: #231f20;
        stroke-miterlimit: 10;
      }
    </style>
  </defs>
  <path id="tunisia" class="cls-1" d="M321.639,20.212c.057-.3.1-.582.16-.868a6.342,6.342,0,0,1,.217-.8c.16-.32.331-.639.5-.959a5.2,5.2,0,0,0,.7-2.032A7.442,7.442,0,0,0,323,13.488c-.091-.445-.171-.879-.24-1.324A8.15,8.15,0,0,1,322.7,10.5a5.706,5.706,0,0,1,.308-1.039c.148-.342.285-.685.411-1.039a1.3,1.3,0,0,0,0-.753h.651a1.792,1.792,0,0,0,1.735-.982c.982-.308,1.975-.628,2.957-.959,1.29-.445,2.489-1.142,3.733-1.655.3-.114.594-.228.89-.32s.719-.217,1.062-.354c.662-.251,1.279-.582,1.918-.868l.468-.148h.228a1.508,1.508,0,0,1,.137.228l.194.571a2.557,2.557,0,0,0,1.324,1.416,12.751,12.751,0,0,0,1.941.5h.057v.274a2.763,2.763,0,0,0,.114.514,3.036,3.036,0,0,0,.571,2.032c.811.811,2,.354,2.831-.171s1.438-1.073,2.226-1.473a3.619,3.619,0,0,1,.468-.137h0a6.486,6.486,0,0,1-.719,1.142A10.273,10.273,0,0,1,344.7,8.75c-.719.525-1.461,1.016-2.146,1.587a5.32,5.32,0,0,0-2.146,3.642,3.915,3.915,0,0,0,.731,2.58,6.54,6.54,0,0,0,1.142,1.267,12.891,12.891,0,0,0,1.324.9c.354.205.719.388,1.05.616a3.934,3.934,0,0,1,.308.308c.091.148.171.3.251.457a6.6,6.6,0,0,1,.274.925,6.732,6.732,0,0,1,0,.959,7.135,7.135,0,0,1-.331,1.29,8.929,8.929,0,0,1-.491.925c-.148.228-.308.445-.468.674-.845,1.027-1.758,1.986-2.694,2.934s-2.032,2.112-3.025,3.174c-.457.491-.9.97-1.336,1.473A11.063,11.063,0,0,0,335.9,34.3a10.275,10.275,0,0,0-1,2.5,4.566,4.566,0,0,0-.137,1.4,3.859,3.859,0,0,0,.468,1.45,3.962,3.962,0,0,0,.9,1.142,5.183,5.183,0,0,0,1.244.811c.365.171.742.308,1.142.457a3.549,3.549,0,0,1,.639.365,4.377,4.377,0,0,1,.32.331c.217.285.411.582.616.879a3.264,3.264,0,0,0,.89.925,2.135,2.135,0,0,0,1.347.3,4.76,4.76,0,0,0,1.975-.765c.285-.16.582-.32.891-.457a5.617,5.617,0,0,1,.879-.274h.217c.057.1.126.205.183.32.16.434.274.879.422,1.313a4.567,4.567,0,0,0,.811,1.575,3.119,3.119,0,0,0,.263.285,1.141,1.141,0,0,0-.1.5,12.111,12.111,0,0,0,.228,1.313c.08.765.069,1.541.1,2.283a20.553,20.553,0,0,1,.08,2.512,2.611,2.611,0,0,1-.08.32,2.366,2.366,0,0,1-.171.285c-.126.137-.263.263-.4.388a7.285,7.285,0,0,1-1.142.605,16.857,16.857,0,0,0-1.861.833,8.652,8.652,0,0,0-1.45,1.073l-.708.582c-.251.183-.5.365-.765.525a9.691,9.691,0,0,1-.913.468c-.491.183-.993.342-1.5.5s-1.142.3-1.769.445a3.607,3.607,0,0,0-1.986,1.142,2.626,2.626,0,0,0-.5.97,3.868,3.868,0,0,0-.114.959,15.683,15.683,0,0,0,.068,1.792c0,1.2.091,2.4.091,3.607a37.658,37.658,0,0,1-.183,3.767,5.9,5.9,0,0,1-.194.993.182.182,0,0,0,0,.08l-.126.1a9.9,9.9,0,0,1-.925.605,11.825,11.825,0,0,1-1.142.571l-1.77.731q-.091-.582-.205-1.142c-.331-1.507-.719-2.98-1.085-4.475s-.7-3.037-1.027-4.566c-.16-.685-.308-1.37-.468-2.055s-.354-1.461-.537-2.18-.285-1.142-.468-1.735-.377-1.142-.559-1.735a9.658,9.658,0,0,0-.479-1.244,3.425,3.425,0,0,0-1.484-1.37,8.994,8.994,0,0,0-1.313-.582c-.342-.137-.708-.251-1.062-.377a2.078,2.078,0,0,1-.308-.171,1.82,1.82,0,0,1-.148-.148,3.6,3.6,0,0,1-.32-.582c-.205-.537-.365-1.142-.537-1.632a7.99,7.99,0,0,0-.879-2.135,11.635,11.635,0,0,0-.731-.948,7.783,7.783,0,0,0-1.085-1.039c-.411-.331-.833-.639-1.256-.959a10.2,10.2,0,0,1-.97-.89,8.623,8.623,0,0,1-.731-.845,10.273,10.273,0,0,1-1.016-1.655,17.258,17.258,0,0,1-.948-3.7l-.114-1.61a16.055,16.055,0,0,1-.068-1.655l.126-.057c.868-.308,1.815-.285,2.694-.582a6.2,6.2,0,0,0,2.957-1.8,7.991,7.991,0,0,0,1.21-4.738V26.959a12.072,12.072,0,0,1,.1-1.279c.057-.32.126-.628.206-.936a5.372,5.372,0,0,1,.285-.856c.217-.582.422-1.142.605-1.735A19.543,19.543,0,0,0,321.639,20.212Z" transform="translate(-312.439 -1.88)"/>
</svg>
