<svg xmlns="http://www.w3.org/2000/svg" width="58.094" height="62.93" viewBox="0 0 58.094 62.93">
  <defs>
    <style>
      .cls-1 {
        fill: #073304;
        stroke: #231f20;
        stroke-miterlimit: 10;
      }
    </style>
  </defs>
  <path id="uganda" class="cls-1" d="M564.279,360.487a.97.97,0,0,0-.251,0,2.893,2.893,0,0,1-.422.114,12.309,12.309,0,0,0-2.283.331c-.708.205-1.358.525-2.089.674h-.468a7.237,7.237,0,0,1-.845-.263c-.422-.194-.822-.4-1.244-.582a9.238,9.238,0,0,0-.982-.388l-.388-.137a5.839,5.839,0,0,0-1.336-.217,4.407,4.407,0,0,0-1.142.1,2.375,2.375,0,0,0-.559.217,1.643,1.643,0,0,0-.354.217,5.439,5.439,0,0,0-.868.833,12.553,12.553,0,0,1-1.381,1.427,3.257,3.257,0,0,1-.468.3,10.639,10.639,0,0,1-1.7.32c-.388.068-.765.16-1.142.251a10.276,10.276,0,0,0-2.2.9,10.754,10.754,0,0,0-1.4.822,5.377,5.377,0,0,0-.491.4,4.91,4.91,0,0,0-.594.7c-.126.171-.24.354-.354.537-.422.616-.833,1.244-1.279,1.838a15.028,15.028,0,0,0-1.142,1.53,3.888,3.888,0,0,0-.331.7,6.3,6.3,0,0,0-.274.9,10.741,10.741,0,0,0,.148,3.037l-.708.068h-1.518c-.993,0-1.986,0-2.968.068s-2.021.126-3.014.251c-.616.069-1.233.16-1.838.285a8.55,8.55,0,0,0-1.142.274,5.469,5.469,0,0,0-1.016.468,7.412,7.412,0,0,0-.948.605,9.665,9.665,0,0,0-.833.662,3.153,3.153,0,0,0-1.027.4,5.092,5.092,0,0,0-1.142,1.05l-.822.936a10.975,10.975,0,0,1-1.381,1.244,2.28,2.28,0,0,1-.354.228h-.137l-.251.023c-.354-.171-.685-.388-1.027-.559a10.69,10.69,0,0,0-.993-.411,4.851,4.851,0,0,0-.674-.171c0-.742,0-1.5,0-2.283V376.4c0-1.427.114-2.843.217-4.258s.217-2.683.342-4.03c0-.617.1-1.222.137-1.838a21.922,21.922,0,0,1,.114-2.2,16.113,16.113,0,0,1,.525-2.032c.183-.582.377-1.142.605-1.724a8.277,8.277,0,0,1,.936-1.632,12.787,12.787,0,0,1,1.781-1.735,11.187,11.187,0,0,1,2.2-1.279l1.61-.639a8.472,8.472,0,0,0,1.427-.742,8.6,8.6,0,0,0,.959-.742,5.959,5.959,0,0,0,1.667-2.454c.206-.525.365-1.073.559-1.6a6.124,6.124,0,0,1,.491-.833l.776-.879a7.123,7.123,0,0,0,1.313-1.964,10.435,10.435,0,0,0,.731-3.117,6.964,6.964,0,0,0-.069-1.461,2.843,2.843,0,0,0-.5-1.279,4.074,4.074,0,0,0-.982-.947,5.628,5.628,0,0,0-1.678-.674c-.388-.1-.776-.217-1.142-.354l-.32-.183-.091-.091-.126-.205v-.285c.24-1.142.708-2.283,1.016-3.425.137-.514.285-1.039.377-1.564s.24-1.347.331-2.021a16.143,16.143,0,0,0,.126-1.7,9.059,9.059,0,0,0,0-1.473h0l.183-.057c.308-.1.605-.228.913-.354.605-.251,1.21-.525,1.815-.788a16.845,16.845,0,0,1,1.941-.651,16.372,16.372,0,0,1,1.8-.331,5.873,5.873,0,0,1,1.142,0,4.561,4.561,0,0,1,.776.217,1.343,1.343,0,0,1,.217.126,9.538,9.538,0,0,1,.822.959,2.363,2.363,0,0,0,1.37.811,1.472,1.472,0,0,0,.548,0,2.287,2.287,0,0,0,.548-.1l.457-.171c.8-.32,1.6-.639,2.409-.936l2.6-.925a14.056,14.056,0,0,1,2.352-.742,4.026,4.026,0,0,1,.742,0c.674.126,1.324.331,1.975.514l1.142.308a6.951,6.951,0,0,0,2.911.091,7.764,7.764,0,0,0,2.534-.913,9.023,9.023,0,0,0,1-.731,17.721,17.721,0,0,0,1.6-1.393,14.931,14.931,0,0,0,1.347-1.484l.171-.205a4.1,4.1,0,0,0,.114.4,5.776,5.776,0,0,0,1.142,2.021,9.746,9.746,0,0,0,1.712,1.416,2.516,2.516,0,0,1,.365.331,1.632,1.632,0,0,1,.171.308,7.615,7.615,0,0,1,.331,1.336c0,.559.08,1.142.091,1.678a8.677,8.677,0,0,0,.263,2.66,7.685,7.685,0,0,0,1.747,2.489c.388.434.788.856,1.142,1.29a6.4,6.4,0,0,1,.616.925,10.676,10.676,0,0,1,.548,1.085,14.685,14.685,0,0,1,.731,2.169c.194.822.342,1.655.479,2.477s.274,1.7.468,2.534.365,1.621.491,2.432a6.471,6.471,0,0,1,0,1.142,10.864,10.864,0,0,1-.331,1.336,5.56,5.56,0,0,1-.263.731,9.963,9.963,0,0,1-.913,1.724l-.788.9-.8.959c-.5.628-.97,1.29-1.416,1.964s-.833,1.279-1.267,1.907c-.183.285-.377.548-.571.822l-.776,1.142a5.958,5.958,0,0,1-.536.537,12.449,12.449,0,0,0-1.313.868,3.051,3.051,0,0,0-.457.628Z" transform="translate(-516.14 -319.187)"/>
</svg>
