<svg xmlns="http://www.w3.org/2000/svg" width="92.938" height="70.744" viewBox="0 0 92.938 70.744">
  <defs>
    <style>
      .cls-1 {
        fill: #ffeb93;
        stroke: #231f20;
        stroke-miterlimit: 10;
      }
    </style>
  </defs>
  <path id="westernSahara" class="cls-1" d="M85.251,145.964a16.269,16.269,0,0,1,.4-2.078,15,15,0,0,1,.639-1.952,7.582,7.582,0,0,1,.674-1.142,4.654,4.654,0,0,1,.411-.411,9.327,9.327,0,0,1,1.45-.788,17.673,17.673,0,0,0,3.5-1.6,7.6,7.6,0,0,0,1.507-1.324,12.132,12.132,0,0,0,1.142-1.747,27.122,27.122,0,0,0,1.644-3.8c.445-1.221.845-2.466,1.3-3.687a19.955,19.955,0,0,1,2.1-3.653,28.622,28.622,0,0,1,4.144-4.087c.753-.605,1.484-1.244,2.283-1.872.365-.308.731-.616,1.073-.948s.731-.731,1.142-1.142a30.024,30.024,0,0,0,3.63-5.217c.514-.868.993-1.735,1.484-2.6s1-1.724,1.5-2.591c1.142-1.964,2.283-3.961,3.539-5.811a12.878,12.878,0,0,1,1.553-1.781c.833-.571,1.769-.993,2.6-1.575.491-.331.948-.685,1.416-1.05a11.8,11.8,0,0,0,1.142-1.027,1.416,1.416,0,0,0,.377-1.3c.434-.5.9-.982,1.37-1.461s.879-.89,1.3-1.347c.822-.868,1.6-1.792,2.386-2.706.377-.434.742-.879,1.142-1.313s.8-.89,1.142-1.347a21.778,21.778,0,0,0,1.964-2.843c.639.285,1.3.548,1.952.822l.651.217c.251.091.514.183.776.251s.776.217,1.142.3a12.981,12.981,0,0,0,1.632.183h3.117l1.747-.148c1.085-.114,2.169-.16,3.254-.217.559,0,1.142-.1,1.667-.148l1.553-.1c1.142,0,2.192-.068,3.3-.068h3.333c1.05,0,2.112.068,3.174.126s2,.114,2.991.228,2.112.331,3.174.457,2.021.171,3.037.24,2.043.217,3.071.228h2.249c-.091.616-.171,1.233-.251,1.838-.16,1.142-.263,2.363-.331,3.539s-.137,2.386-.217,3.573-.114,2.466-.148,3.7a23.825,23.825,0,0,1-.217,2.843,8.9,8.9,0,0,1-.411,1.9,4.434,4.434,0,0,1-.274.514l-.228.114a2.852,2.852,0,0,1-.445.126,14.521,14.521,0,0,1-2.808-.183c-.833-.1-1.678-.171-2.523-.228h-1.222a11.781,11.781,0,0,0-1.416.091c-.845.08-1.678.217-2.523.342a10.553,10.553,0,0,1-1.142.08,7.2,7.2,0,0,1-1.4-.091c-.811-.137-1.61-.308-2.42-.457a26.756,26.756,0,0,0-2.694-.354c-.845-.068-1.7-.068-2.546-.08a21.827,21.827,0,0,1-2.215-.148,13.714,13.714,0,0,1-2.078-.457c-.7-.183-1.381-.365-2.078-.525s-1.37-.308-2.043-.479-1.393-.377-2.1-.537a1.142,1.142,0,0,0-.776.114.765.765,0,0,0-.479-.183.753.753,0,0,0-.742.753c-.114,2.283-.251,4.509-.491,6.747-.1,1.062-.24,2.112-.377,3.162s-.228,2.009-.331,3.025c-.171,1.724-.331,3.425-.559,5.16v.445a1.179,1.179,0,0,1-.057.4,3.863,3.863,0,0,0-.091.753c-.171,1.142-.365,2.4-.525,3.6a9.624,9.624,0,0,1-.4,1.975,6.5,6.5,0,0,1-.742,1.142l.126-.171c-.3.377-.605.742-.936,1.142a8.712,8.712,0,0,1-.913.788c-.594.445-1.21.856-1.849,1.244a18.671,18.671,0,0,1-1.906.97,13.685,13.685,0,0,1-1.313.445,14.066,14.066,0,0,1-1.381.274,11.117,11.117,0,0,0-1.941.228,4.338,4.338,0,0,0-3.151,2.512,13.483,13.483,0,0,0-.879,4.087c-.08,1.05-.114,2.1-.148,3.151s-.068,2.066-.091,3.094v3.162a27.893,27.893,0,0,1-.114,2.934,3.176,3.176,0,0,1-.126.571h0l-.114.114h0a4.5,4.5,0,0,1-.959.217c-1.324.114-2.671.137-4.007.205-.674,0-1.347.057-2.032.068h-1a3.321,3.321,0,0,1-.9-.08c-1.222-.183-2.443-.411-3.665-.582s-2.774-.365-4.167-.537c-.982-.148-1.975-.3-2.957-.514s-2.112-.479-3.162-.742c-2.009-.514-3.984-1.142-6-1.621a8.388,8.388,0,0,0-1.6-.194H91.381c-.651.057-1.313.148-1.964.228s-1.29.137-1.941.183a11.417,11.417,0,0,0-2.169.217h-.126A8.111,8.111,0,0,1,85.251,145.964Z" transform="translate(-84.665 -81.12)"/>
</svg>
