<svg xmlns="http://www.w3.org/2000/svg" width="81.32" height="72.389" viewBox="0 0 81.32 72.389">
  <defs>
    <style>
      .cls-1 {
        fill: #093e63;
        stroke: #231f20;
        stroke-miterlimit: 10;
      }
    </style>
  </defs>
  <path id="zimbabwe" class="cls-1" d="M525.892,515.85a1.426,1.426,0,0,0,.137.525,2.285,2.285,0,0,0,.377.548,2.1,2.1,0,0,0,.776.514,6.44,6.44,0,0,0,1.142.354l.753.171c.616.114,1.233.228,1.861.308,2.283.3,4.566.377,6.85.525a7.439,7.439,0,0,1,1.256.274,3.828,3.828,0,0,1,.514.308,9.743,9.743,0,0,1,1.142,1.244,5.521,5.521,0,0,0,.708.753,8.413,8.413,0,0,0,1.5,1.016c.491.274,1.027.479,1.541.708s.9.365,1.359.548c1.427.548,2.911.982,4.338,1.53a7.93,7.93,0,0,1,1.233.651l.137.148a2.778,2.778,0,0,1,.228.4,4.553,4.553,0,0,1,.171.685c.137,1.062.228,2.112.274,3.185s0,2.2,0,3.3.069,2.42,0,3.619-.1,2.192-.137,3.288a9.315,9.315,0,0,1-.08,1.484,5.4,5.4,0,0,1-.206.822,8.371,8.371,0,0,1-.628,1.016,19.835,19.835,0,0,0-1.575,2,6.681,6.681,0,0,0-.571,1.142c-.069.205-.148.4-.217.6s-.217.742-.3,1.142a11.441,11.441,0,0,0-.183,1.256,6.176,6.176,0,0,0,.171,1.769,11.416,11.416,0,0,0,.708,1.918c.308.674.639,1.324.948,2a9.275,9.275,0,0,1,.411,1.461q0,.736,0,1.473a12.005,12.005,0,0,1,0,1.564,5.715,5.715,0,0,1-.251.959,5.406,5.406,0,0,1-.5.856,9.047,9.047,0,0,1-.97,1.016c-.32.3-.651.571-.982.833l-.548.422a6.47,6.47,0,0,0-1.37,1.473,4.815,4.815,0,0,0-.674,1.53,5.23,5.23,0,0,0-.16.925,6.842,6.842,0,0,0,0,.833c0,.479,0,.959,0,1.45a10.541,10.541,0,0,1-.057,1.347l-.068.457a5.79,5.79,0,0,1-.354,1.3,6.566,6.566,0,0,1-.582,1.027,6,6,0,0,1-.856.845,13.692,13.692,0,0,1-2.283,1.21,10,10,0,0,0-2.089,1.142,5.228,5.228,0,0,0-1.142,1.347c-.148.228-.285.479-.434.719-.263.434-.525.879-.822,1.29a10.96,10.96,0,0,1-1.438,1.381,12.49,12.49,0,0,1-1.61,1.039c-.32.171-.639.308-.959.468l-.811.4a2.576,2.576,0,0,1-.4.1,4.384,4.384,0,0,1-.868,0c-1.142-.171-2.2-.457-3.3-.708-.525-.126-1.05-.217-1.587-.308a16.319,16.319,0,0,0-1.963-.183c-1.142,0-2.283-.08-3.425-.1s-2.283-.08-3.425-.16l-2.089-.126c-.685,0-1.37-.068-2.055-.137a5.157,5.157,0,0,1-.913-.251,9.688,9.688,0,0,1-1.222-.662c-.468-.3-.9-.616-1.347-.936a12.314,12.314,0,0,0-1.313-.856l-.753-.388c-.308-.148-.628-.263-.948-.388a11.146,11.146,0,0,0-1.6-.468c-.571-.126-1.142-.24-1.724-.377l-1.712-.4a14.689,14.689,0,0,1-1.849-.491l-.388-.217a4.326,4.326,0,0,1-.594-.616,13.491,13.491,0,0,1-1.359-2.534c-.525-1.438-.982-2.911-1.461-4.372s-.913-2.854-1.5-4.247a5.177,5.177,0,0,0-.731-1.2,2.66,2.66,0,0,0-1.233-.765c-.514-.16-1.073-.194-1.587-.354a3.661,3.661,0,0,1-.571-.354,16.366,16.366,0,0,1-1.964-2.112,20.694,20.694,0,0,0-1.724-1.884c-.662-.616-1.37-1.21-2.032-1.838-.285-.263-.571-.536-.833-.822s-.548-.639-.822-.97q-.982-1.359-1.849-2.774c-.616-1.027-1.2-2.078-1.781-3.128a25.925,25.925,0,0,0-1.838-2.774c-.674-.9-1.347-1.792-1.952-2.751a22.771,22.771,0,0,1-1.575-3c-.342-.856-.662-1.712-1-2.557-.069-.16-.126-.32-.183-.48h.32l.89.069c.605,0,1.2.057,1.8.114.411.068.822.137,1.244.228s.822.217,1.222.343a12.417,12.417,0,0,0,1.279.342,8.719,8.719,0,0,0,1.541.171,5.775,5.775,0,0,0,.628,0h.7l1.427-.126a7.681,7.681,0,0,1,1.256,0c.422.068.913,0,1.381.091s1,.171,1.5.274a10.1,10.1,0,0,0,1,.148,5.286,5.286,0,0,0,2.181-.331,7.593,7.593,0,0,0,3.208-2.375c.354-.4.7-.822,1.073-1.21a14.942,14.942,0,0,0,1.142-1.256,15.648,15.648,0,0,0,1.05-1.416l.9-1.29c.308-.434.582-.879.868-1.324.114-.183.24-.354.365-.525a13.758,13.758,0,0,1,2.032-2.043,7.518,7.518,0,0,1,1.233-.742,12.242,12.242,0,0,1,1.3-.4l.628-.16a6.981,6.981,0,0,0,1.336-.5,5.808,5.808,0,0,0,1.085-.651,5.705,5.705,0,0,0,.754-.639,8.674,8.674,0,0,0,.639-.811c.251-.377.479-.765.7-1.142.445-.776.822-1.6,1.267-2.375a21.123,21.123,0,0,1,1.358-2.089,15.983,15.983,0,0,1,1.907-1.827,6.665,6.665,0,0,1,.948-.559,11.041,11.041,0,0,1,1.347-.468c.525-.137,1.062-.263,1.587-.377.993-.228,1.986-.422,2.991-.594s1.975-.342,2.957-.491a13.934,13.934,0,0,0,2.569-.571,12.21,12.21,0,0,1,.068,1.29v.765a2.487,2.487,0,0,0,.114.525Z" transform="translate(-471.391 -512.605)"/>
</svg>
